<?xml version="1.0" encoding="UTF-8"?>
<svg width="100px" height="100px" viewBox="0 0 100 100" version="1.1" xmlns="http://www.w3.org/2000/svg" xmlns:xlink="http://www.w3.org/1999/xlink">
    <!-- Generator: Sketch 52.4 (67378) - http://www.bohemiancoding.com/sketch -->
    <title>books</title>
    <desc>Created with Sketch.</desc>
    <g id="books" stroke="none" stroke-width="1" fill="none" fill-rule="evenodd">
        <g transform="translate(5.000000, 10.000000)" fill="#a1300b" fill-rule="nonzero" id="Shape">
            <path d="M89.9021739,65.8708696 C89.9021739,66.3699457 89.6028261,66.768913 89.103913,66.8686957 L40.41,79.8404348 C39.2126087,80.1399457 37.8156522,79.9402174 36.8178261,79.3415217 L2.39282609,57.9880435 C2.39282609,57.9880435 0.097826087,56.9902174 0.097826087,50.703913 C0.097826087,44.4176087 2.39282609,42.4219565 2.39282609,42.4219565 L8.77891304,41.025 L37.9154348,58.9858696 C38.8134783,59.5845652 40.0108696,59.7841304 41.1084783,59.4847826 L84.1147826,47.6106522 L87.7067935,49.0076087 C88.4052717,49.3069565 88.3056522,50.3047826 87.6071739,50.5043478 L39.7115217,62.6778261 C38.9132609,62.8775543 38.3145652,63.476087 38.0152174,64.2743478 C37.5163043,65.771087 36.9176087,68.4652174 36.9176087,71.1595109 C36.9176087,72.65625 37.1171739,74.3525543 37.4165217,75.9490761 C37.616087,77.24625 39.0130435,78.1442935 40.3102174,77.745163 L88.605,64.9728261 C89.3036413,64.6734783 89.9021739,65.1723913 89.9021739,65.8708696 Z M82.7178261,44.2180435 L40.908913,55.2940761 C39.8113043,55.5934239 38.613913,54.8947826 38.4143478,53.6973913 C38.2147826,52.4002174 38.0152174,51.0032609 38.0152174,49.6063043 C38.0152174,47.3113043 38.613913,45.0163043 39.0130435,43.6193478 C39.2126087,42.9208696 39.7115217,42.4219565 40.41,42.2223913 L81.8197826,31.7452174 C82.4184783,31.5456522 82.5182609,30.7473913 81.9195652,30.4480435 L78.0280435,29.051087 L41.5076087,38.73 C40.5097826,39.0293478 39.5119565,38.8297826 38.7136957,38.3308696 L14.5663043,23.4632609 L8.18021739,24.8602174 C8.18021739,24.8602174 6.18456522,26.6563043 6.18456522,32.0445652 C6.18456522,37.4328261 8.18021739,38.3308696 8.18021739,38.3308696 L37.9154348,56.6908696 C38.8134783,57.2895652 40.0108696,57.4891304 41.1084783,57.1897826 L83.2169022,46.0142935 C83.6158696,45.9145109 83.9152174,45.5153804 83.9152174,45.11625 C83.8154348,44.5173913 83.3165217,44.1182609 82.7178261,44.2180435 Z M39.6117391,24.2615217 C39.8113043,23.6628261 40.3102174,23.1640761 40.908913,23.0641304 L78.127663,13.5847826 C78.7263587,13.485 78.7263587,12.6867391 78.2274457,12.3873913 L46.9956522,0.313695652 C46.3969565,0.114130435 45.7982609,0.0143478261 45.2993478,0.213913043 L11.8721739,7.39826087 C11.8721739,7.39826087 10.076087,8.99478261 10.076087,13.8841304 C10.076087,18.7734783 11.8721739,19.5717391 11.8721739,19.5717391 L38.613913,36.0358696 C39.4121739,36.5347826 40.5097826,36.7343478 41.4078261,36.435 L79.3253804,26.3569565 C79.6247283,26.2571739 79.9240761,25.9578261 79.9240761,25.5586957 C79.9240761,25.0597826 79.425,24.6606522 78.92625,24.7604348 L41.3082065,34.7386957 C40.3103804,35.0380435 39.2127717,34.3395652 39.1129891,33.3417391 C38.9132609,32.1443478 38.7136957,30.8471739 38.7136957,29.6497826 C38.7136957,27.5543478 39.2126087,25.458913 39.6117391,24.2615217 Z"></path>
        </g>
    </g>
</svg>
