<?xml version="1.0" encoding="UTF-8"?>
<svg width="100px" height="100px" viewBox="0 0 100 100" version="1.1" xmlns="http://www.w3.org/2000/svg" xmlns:xlink="http://www.w3.org/1999/xlink">
    <!-- Generator: Sketch 52.4 (67378) - http://www.bohemiancoding.com/sketch -->
    <title>code</title>
    <desc>Created with Sketch.</desc>
    <g id="code" stroke="none" stroke-width="1" fill="none" fill-rule="evenodd">
        <g transform="translate(5.000000, 8.000000)" fill="#E69E82" fill-rule="nonzero" id="Shape">
            <path d="M81.9195652,0.075 L8.08043478,0.075 C3.69,0.075 0.097826087,3.66717391 0.097826087,8.0576087 L0.097826087,75.9097826 C0.097826087,80.3002174 3.69,83.8923913 8.08043478,83.8923913 L81.9195652,83.8923913 C86.31,83.8923913 89.9021739,80.3002174 89.9021739,75.9097826 L89.9021739,8.0576087 C89.9021739,3.66717391 86.31,0.075 81.9195652,0.075 Z M34.2234783,59.5454348 L29.2343478,65.7319565 L10.2756522,50.6647826 L29.1345652,35.5976087 L34.1236957,41.7841304 L23.0478261,50.6647826 L34.2234783,59.5454348 Z M42.6052174,72.6169565 L34.8221739,70.6213043 L45.498913,29.0119565 L53.2819565,31.0076087 L42.6052174,72.6169565 Z M60.0671739,65.7319565 L55.0778804,59.5454348 L66.153913,50.6647826 L55.0778804,41.7841304 L60.0671739,35.5976087 L78.926087,50.6647826 L60.0671739,65.7319565 Z M8.08043478,22.3265217 L8.08043478,8.0576087 L81.9195652,8.0576087 L81.9195652,22.3265217 L8.08043478,22.3265217 Z"></path>
        </g>
    </g>
</svg>