<svg xmlns="http://www.w3.org/2000/svg" viewBox="0 0 100 100">
  <path d="M86.92 8.075H13.08c-4.39 0-7.982 3.592-7.982 7.983V83.91c0 4.39 3.592 7.982 7.982 7.982h73.84c4.39 0 7.982-3.592 7.982-7.982V16.058c0-4.39-3.592-7.983-7.982-7.983zm-47.697 59.47l-4.989 6.187-18.958-15.067 18.859-15.067 4.989 6.186-11.076 8.88 11.175 8.881zm8.382 13.072l-7.783-1.996L50.5 37.012l7.783 1.996-10.677 41.609zm17.462-6.885l-4.99-6.187 11.077-8.88-11.076-8.88 4.99-6.187 18.858 15.067-18.859 15.067zM13.08 30.327v-14.27h73.84v14.27H13.08z" fill="#2C2525" fill-rule="nonzero"/>
</svg>
