<?xml version="1.0" encoding="UTF-8"?>
<svg width="100px" height="100px" viewBox="0 0 100 100" version="1.1" xmlns="http://www.w3.org/2000/svg" xmlns:xlink="http://www.w3.org/1999/xlink">
    <!-- Generator: Sketch 52.4 (67378) - http://www.bohemiancoding.com/sketch -->
    <title>explosion</title>
    <desc>Created with Sketch.</desc>
    <g id="explosion" stroke="none" stroke-width="1" fill="none" fill-rule="evenodd">
        <g transform="translate(0.000000, 7.000000)" fill="#000000" fill-rule="nonzero" id="Shape">
            <path d="M44.0884058,32.0748188 L33.4371377,13.9322464 L34.6211957,12.2936594 L44.7324275,31.7346014 C44.5153986,31.8407609 44.3012681,31.9550725 44.0884058,32.0748188 Z M45.129529,31.5503623 L34.7844203,8.49166667 L36.2068841,7.04148551 L45.5344203,31.382971 C45.3978261,31.4373188 45.2625,31.4938406 45.129529,31.5503623 Z M45.8523551,52.3717391 L39.5561594,70.3858696 L40.8710145,72.1753623 L46.4666667,52.5735507 C46.2581522,52.511413 46.0530797,52.4458333 45.8523551,52.3717391 Z M46.8900362,52.6887681 L40.7335145,78.4503623 L43.4907609,79.3663043 L47.720471,52.8663043 C47.4400362,52.8152174 47.1628623,52.7586957 46.8900362,52.6887681 Z M48.4822464,52.9702899 L46.2925725,77.2065217 L48.086413,77.1586957 L49.0432971,53.0125 C48.8559783,53.0036232 48.6682971,52.9880435 48.4822464,52.9702899 Z M49.7039855,53.0268116 L50.3202899,85.9981884 L52.8282609,84.5081522 L50.3637681,53.0036232 C50.1452899,53.0192029 49.9246377,53.0246377 49.7039855,53.0268116 Z M50.8315217,52.9637681 L53.4789855,75.1177536 L56.1099638,71.5411232 L51.9322464,52.790942 C51.5721014,52.8682971 51.2050725,52.925 50.8315217,52.9637681 Z M52.4213768,52.6798913 L60.1577899,81.6434783 L61.884058,81.5447464 L52.7405797,52.5911232 C52.6365942,52.6233696 52.5289855,52.651087 52.4213768,52.6798913 Z M53.6231884,52.2974638 L62.1224638,73.7849638 L64.2677536,73.5378623 L54.2398551,52.0413043 C54.0389493,52.1333333 53.8306159,52.2186594 53.6231884,52.2974638 Z M54.7617754,51.7907609 L67.713587,77.65 L69.2757246,77.2041667 L55.1442029,51.5833333 C55.0179348,51.6532609 54.8903986,51.7230072 54.7617754,51.7907609 Z M42.8177536,50.7164855 L21.6838768,79.063587 L20.5695652,76.7043478 L42.3766304,50.3596014 C42.5206522,50.4824275 42.667029,50.6 42.8177536,50.7164855 Z M59.882971,46.3681159 L91.8333333,59.7068841 L88.5780797,60.9219203 L59.6599638,46.8403986 C59.7387681,46.6851449 59.8130435,46.5277174 59.882971,46.3681159 Z M59.5358696,47.0798913 L93.0184783,64.4032609 L92.3865942,65.4255435 L59.4050725,47.3206522 C59.4481884,47.2416667 59.4916667,47.1608696 59.5358696,47.0798913 Z M59.2054348,47.6597826 L80.1476449,59.8110507 L78.2949275,59.7980072 L59.0157609,47.9570652 C59.0813406,47.8581522 59.1445652,47.7594203 59.2054348,47.6597826 Z M58.8539855,48.1985507 L77.2063406,60.3378623 L77.9358696,63.3023551 L58.5092391,48.6708333 C58.6268116,48.5155797 58.742029,48.3581522 58.8539855,48.1985507 Z M58.2842391,48.9501812 L86.2655797,71.5277174 L86.0947464,73.4701087 L58.0414855,49.234058 C58.1246377,49.140942 58.2054348,49.0467391 58.2842391,48.9501812 Z M57.6610507,49.6452899 L77.188587,67.2269928 L74.0009058,66.8931159 L57.3836957,49.9201087 C57.4769928,49.8304348 57.5690217,49.7373188 57.6610507,49.6452899 Z M60.3740942,45.0398551 L79.2884058,50.4780797 L81.1088768,53.420471 L60.1434783,45.7338768 C60.2253623,45.5077899 60.3041667,45.2737319 60.3740942,45.0398551 Z M60.842029,42.0485507 L99.5476449,42.4021739 L99.8913043,44.3512681 L60.8262681,42.4788043 C60.8331522,42.3369565 60.8396739,42.1927536 60.842029,42.0485507 Z M60.8396739,41.4543478 L93.5550725,39.1317029 L92.3255435,41.4820652 L60.8463768,41.8246377 L60.8463768,41.8179348 C60.8463768,41.6971014 60.842029,41.5740942 60.8396739,41.4543478 Z M60.7067029,40.0451087 L83.9405797,36.0449275 L84.6400362,38.1092391 L60.7931159,40.7246377 C60.7697464,40.4952899 60.7422101,40.2702899 60.7067029,40.0451087 Z M60.3574275,38.532971 L86.0925725,30.3219203 L87.3221014,32.6047101 L60.5471014,39.2425725 C60.4927536,39.0030797 60.4273551,38.7668478 60.3574275,38.532971 Z M60.0603261,37.6903986 L95.5130435,23.4324275 L95.8144928,24.7940217 L60.1666667,37.9675725 C60.1324275,37.8733696 60.0967391,37.7811594 60.0603261,37.6903986 Z M59.6822464,36.8422101 L89.2255435,21.8172101 L91.4518116,23.2152174 L59.9028986,37.3144928 C59.832971,37.1548913 59.7610507,36.9974638 59.6822464,36.8422101 Z M58.8606884,35.4485507 L76.096558,23.2661232 L77.3237319,25.1099638 L59.2730072,36.0927536 C59.1423913,35.8721014 59.0048913,35.6581522 58.8606884,35.4485507 Z M57.9871377,34.340942 L85.1001812,9.54710145 L86.7753623,11.4652174 L58.3706522,34.7922101 C58.246558,34.6380435 58.1201087,34.4894928 57.9871377,34.340942 Z M57.2375,33.5804348 L73.3356884,15.7824275 L75.4400362,17.6173913 L57.8594203,34.2012681 C57.6610507,33.9873188 57.4538043,33.7788043 57.2375,33.5804348 Z M56.6320652,33.0603261 L74.2139493,10.5981884 L75.179529,11.4463768 L56.9094203,33.2898551 C56.8173913,33.2112319 56.7264493,33.1346014 56.6320652,33.0603261 Z M55.8518116,32.4882246 L73.6619565,5.13224638 L74.3893116,7.3673913 L56.1467391,32.6913043 C56.0490942,32.6235507 55.9503623,32.5559783 55.8518116,32.4882246 Z M54.7641304,31.8474638 L64.071558,13.2722826 L65.9485507,14.6570652 L55.4702899,32.242029 C55.240942,32.1036232 55.0047101,31.9728261 54.7641304,31.8474638 Z M52.9525362,31.1068841 L63.5050725,0.0523550725 L65.7181159,3.48043478 L53.9068841,31.4528986 C53.5976449,31.3230072 53.278442,31.2077899 52.9525362,31.1068841 Z M52.1730072,30.8972826 L58.7476449,2.79184783 L60.420471,2.64547101 L52.6431159,31.017029 C52.4878623,30.973913 52.3304348,30.9327899 52.1730072,30.8972826 Z M51.1894928,30.7155797 L53.8637681,4.64891304 L56.0967391,7.03713768 L51.8226449,30.8230072 C51.6130435,30.7820652 51.4012681,30.7443841 51.1894928,30.7155797 Z M48.9722826,30.6289855 L47.3335145,1.17318841 L50.6652174,0.423731884 L49.953442,30.6134058 C49.8480072,30.609058 49.7416667,30.609058 49.6362319,30.609058 C49.413587,30.609058 49.1905797,30.6157609 48.9722826,30.6289855 Z M38.5094203,40.4498188 L0.108695652,36.2679348 L3.84275362,34.8976449 L38.565942,40.0431159 C38.5438406,40.1782609 38.526087,40.3134058 38.5094203,40.4498188 Z M38.7644928,39.0706522 L12.1878623,32.6302536 L14.9208333,30.8806159 L38.9717391,38.3565217 C38.8952899,38.5905797 38.8253623,38.8278986 38.7644928,39.0706522 Z M39.1291667,37.8998188 L14.2833333,28.5269928 L13.979529,27.0367754 L39.3253623,37.4097826 C39.2556159,37.5717391 39.1902174,37.7358696 39.1291667,37.8998188 Z M39.6447464,36.7291667 L9.27210145,21.8105072 L13.5605072,20.5543478 L40.1735507,35.804529 C39.984058,36.1016304 39.8067029,36.4119565 39.6447464,36.7291667 Z M40.348913,35.5405797 L25.4789855,25.7695652 L25.5398551,23.8882246 L40.6958333,35.0527174 C40.576087,35.2123188 40.4596014,35.3742754 40.348913,35.5405797 Z M40.9541667,34.7278986 L16.576087,15.3201087 L17.6382246,13.5440217 L41.304529,34.3199275 C41.1836957,34.4518116 41.0672101,34.5871377 40.9541667,34.7278986 Z M41.7402174,33.8619565 L16.7480072,9.2932971 L17.4231884,7.58713768 L42.028442,33.5849638 C41.9307971,33.6746377 41.8344203,33.7655797 41.7402174,33.8619565 Z M42.7889493,32.9429348 L23.7960145,8.95289855 L24.1585145,4.13786232 L43.3865942,32.5094203 C43.1826087,32.6480072 42.9831522,32.792029 42.7889493,32.9429348 Z M46.2304348,31.1356884 L37.1003623,3.41050725 L39.8798913,4.58351449 L46.8824275,30.9494565 C46.6628623,31.0048913 46.4443841,31.0681159 46.2304348,31.1356884 Z M47.9865942,30.7288043 L43.0273551,7.42065217 L45.5141304,7.67228261 L48.4632246,30.6677536 C48.3036232,30.6855072 48.1440217,30.7056159 47.9865942,30.7288043 Z M56.013587,51.0367754 L70.8201087,71.857971 L73.0264493,72.1961957 L56.1974638,50.9081522 C56.1355072,50.9514493 56.0744565,50.9958333 56.013587,51.0367754 Z M41.9565217,49.9835145 L22.6163043,71.1086957 L22.1373188,68.1440217 L41.4684783,49.4969203 C41.6271739,49.6653986 41.7902174,49.826087 41.9565217,49.9835145 Z M41.0351449,49.0068841 L11.8019928,74.1242754 L11.9505435,70.173913 L40.611413,48.4679348 C40.7458333,48.6509058 40.8887681,48.8304348 41.0351449,49.0068841 Z M44.2293478,51.6398551 L33.1391304,72.4413043 L28.920471,72.7384058 L43.311413,51.0735507 C43.6061594,51.2773551 43.9143116,51.4646739 44.2293478,51.6398551 Z M44.9976449,52.0268116 L32.695471,80.0601449 L34.1922101,81.286413 L45.4487319,52.2197464 C45.2969203,52.1577899 45.1461957,52.0945652 44.9976449,52.0268116 Z M55.8451087,51.151087 L66.7536232,67.0807971 L64.9708333,67.4876812 L55.3052536,51.4903986 C55.4891304,51.3826087 55.6688406,51.2684783 55.8451087,51.151087 Z M56.9815217,50.2851449 L80.1121377,76.151087 L78.3317029,77.1644928 L56.470471,50.7052536 C56.6456522,50.5690217 56.8150362,50.4291667 56.9815217,50.2851449 Z M60.5847826,44.2317029 L94.1869565,51.2431159 L93.942029,52.9427536 L60.4882246,44.6387681 C60.5226449,44.5021739 60.5536232,44.3668478 60.5847826,44.2317029 Z M60.7697464,43.1240942 L83.6099638,45.5298913 L81.9014493,47.3802536 L60.6699275,43.8057971 C60.7110507,43.5797101 60.7443841,43.3536232 60.7697464,43.1240942 Z M38.6380435,39.6382246 L4.4259058,33.2190217 L4.45688406,31.9106884 L38.701087,39.3432971 C38.6769928,39.442029 38.6581522,39.5407609 38.6380435,39.6382246 Z M38.4806159,42.9422101 L18.6538043,45.2228261 L18.4398551,43.2737319 L38.4351449,42.2425725 C38.4429348,42.4766304 38.4585145,42.7105072 38.4806159,42.9422101 Z M38.6425725,44.0242754 L2.4923913,51.8195652 L4.31394928,48.4923913 L38.5282609,43.3335145 C38.5594203,43.5652174 38.5981884,43.7971014 38.6425725,44.0242754 Z M38.4262681,41.8456522 L10.3773551,42.2936594 L13.1192029,39.4099638 L38.4561594,40.9788043 C38.4362319,41.2559783 38.4251812,41.536413 38.4251812,41.8202899 C38.4262681,41.8280797 38.4262681,41.8367754 38.4262681,41.8456522 Z M38.9264493,45.138587 L19.8202899,51.3605072 L18.0264493,50.2684783 L38.7778986,44.6141304 C38.8210145,44.7903986 38.8721014,44.9655797 38.9264493,45.138587 Z M39.6038043,46.8248188 L17.3268116,58.3452899 L16.3233696,55.1179348 L39.1813406,45.8735507 C39.3088768,46.1972826 39.4485507,46.5166667 39.6038043,46.8248188 Z M40.2679348,47.9733696 L15.2402174,64.9318841 L11.4405797,64.1735507 L39.8996377,47.3811594 C40.0163043,47.5831522 40.1393116,47.7817029 40.2679348,47.9733696 Z"></path>
        </g>
    </g>
</svg>