<?xml version="1.0" encoding="UTF-8"?>
<svg width="100px" height="100px" viewBox="0 0 100 100" version="1.1" xmlns="http://www.w3.org/2000/svg" xmlns:xlink="http://www.w3.org/1999/xlink">
    <!-- Generator: Sketch 52.4 (67378) - http://www.bohemiancoding.com/sketch -->
    <title>github</title>
    <desc>Created with Sketch.</desc>
    <g id="github" stroke="none" stroke-width="1" fill="none" fill-rule="evenodd">
        <rect id="Rectangle" fill="#FFFFF8" x="0" y="0" width="100" height="100"></rect>
        <g opacity="0.8" transform="translate(11.000000, 6.000000)" fill="#000000" id="Path">
            <path d="M44.4245455,0 C19.8927273,0 0,19.89 0,44.43 C0,64.0554545 12.7281818,80.7081818 30.3845455,86.5827273 C32.6045455,86.9890909 33.4172727,85.6172727 33.4172727,84.4418182 C33.4172727,83.3863636 33.3790909,80.5936364 33.3572727,76.8845455 C21,79.5681818 18.3927273,70.9281818 18.3927273,70.9281818 C16.3718182,65.7954545 13.4590909,64.4290909 13.4590909,64.4290909 C9.42545455,61.6718182 13.7645455,61.7290909 13.7645455,61.7290909 C18.2236364,62.0427273 20.5690909,66.3081818 20.5690909,66.3081818 C24.5318182,73.0963636 30.9654545,71.1381818 33.4990909,70.0009091 C33.9027273,67.1290909 35.0509091,65.1709091 36.3190909,64.0609091 C26.4545455,62.94 16.0827273,59.1272727 16.0827273,42.1036364 C16.0827273,37.2545455 17.8145455,33.2890909 20.6563636,30.1827273 C20.2009091,29.0590909 18.6736364,24.5427273 21.0927273,18.4254545 C21.0927273,18.4254545 24.8236364,17.2309091 33.3081818,22.98 C36.8509091,21.9954545 40.6527273,21.5018182 44.43,21.4854545 C48.2018182,21.5018182 52.0036364,21.9954545 55.5518182,22.98 C64.0336364,17.2309091 67.7563636,18.4254545 67.7563636,18.4254545 C70.1809091,24.5427273 68.6563636,29.0590909 68.1981818,30.1827273 C71.0454545,33.2890909 72.7636364,37.2545455 72.7636364,42.1036364 C72.7636364,59.1709091 62.3754545,62.9263636 52.4781818,64.0254545 C54.0736364,65.3972727 55.4945455,68.1081818 55.4945455,72.2536364 C55.4945455,78.1936364 55.44,82.9854545 55.44,84.4418182 C55.44,85.6309091 56.2390909,87.0109091 58.4945455,86.5772727 C76.1318182,80.6918182 88.8490909,64.05 88.8490909,44.43 C88.8518182,19.89 68.9590909,0 44.4245455,0 Z"></path>
        </g>
    </g>
</svg>