<?xml version="1.0" encoding="UTF-8"?>
<svg width="100px" height="100px" viewBox="0 0 100 100" version="1.1" xmlns="http://www.w3.org/2000/svg" xmlns:xlink="http://www.w3.org/1999/xlink">
    <!-- Generator: Sketch 52.4 (67378) - http://www.bohemiancoding.com/sketch -->
    <title>hand</title>
    <desc>Created with Sketch.</desc>
    <g id="hand" stroke="none" stroke-width="1" fill="none" fill-rule="evenodd">
        <g transform="translate(9.000000, 5.000000)" fill="#E69E82" id="Path">
            <path d="M79.6467332,21.5345009 C76.841706,20.7867332 73.8488385,22.2822686 73.1010708,25.2751361 L66.1816878,40.797441 C64.8720327,43.2285844 63.1898004,42.8547005 63.0027768,40.0496733 L67.3043194,11.6229038 C67.8650635,8.81787659 66.3695281,5.82500907 63.5636842,5.26426497 C60.758657,4.70352087 58.5145372,6.7607804 57.9526497,9.75266788 C57.9526497,9.75266788 53.6512704,35.3742468 52.5286388,37.8053902 C51.4060073,40.2365336 50.0974955,39.4887659 50.2845191,37.6185299 C50.2845191,36.3088748 52.5286388,5.63814882 52.5286388,5.63814882 C52.7156624,2.64626134 50.4713793,0.213974592 47.4794918,0.0271143376 C44.4876044,-0.159909256 43.1781125,2.08437387 42.9910889,5.07626134 C42.9910889,5.07626134 39.8121779,34.9993829 39.437314,37.0566425 C39.0634301,39.113902 37.3800544,39.3007623 37.0061706,37.0566425 C36.6322868,34.8123593 37.0061706,10.3122686 37.0061706,10.3122686 C37.0061706,7.32038113 34.5750272,4.88825771 31.5821597,4.88825771 C28.5892922,4.88825771 27.4676407,7.31940109 27.4676407,10.3122686 C27.4676407,10.3122686 25.9711252,37.2435027 26.3450091,40.4224138 C26.9059165,43.6011615 27.0927768,57.2542105 24.1008893,57.6282577 C20.9221416,58.0021416 16.4327586,53.1398548 14.1884755,49.0253358 C12.5050998,46.2204719 7.45595281,44.9108167 3.34143376,45.4717241 C-2.83034483,46.0324682 0.723430127,50.895735 5.02480944,55.7580218 C13.8145917,65.4835753 16.245735,75.3950091 20.3602541,82.1273684 C23.165118,86.6157713 25.5964247,89.6088022 36.4444465,89.9825227 L53.2764065,89.9825227 C60.9445372,89.9825227 66.1807078,84.9333757 68.4248276,75.9555898 C68.4248276,75.3948457 70.2950635,59.6845372 71.2298548,54.4485299 C72.1644828,48.0898911 80.955245,26.0219238 80.955245,26.0219238 C81.7039927,22.8439927 82.4527405,22.2822686 79.6467332,21.5345009 Z"></path>
        </g>
    </g>
</svg>