<?xml version="1.0" encoding="UTF-8"?>
<svg width="100px" height="100px" viewBox="0 0 100 100" version="1.1" xmlns="http://www.w3.org/2000/svg" xmlns:xlink="http://www.w3.org/1999/xlink">
    <!-- Generator: Sketch 52.4 (67378) - http://www.bohemiancoding.com/sketch -->
    <title>mountaineer</title>
    <desc>Created with Sketch.</desc>
    <g id="mountaineer" stroke="none" stroke-width="1" fill="none" fill-rule="evenodd">
        <g transform="translate(15.000000, 15.000000)" fill="#000000" id="Path">
            <path d="M38.2734421,55.6219086 L35.481093,55.6219086 C34.2167537,55.6219086 33.188907,54.6106199 33.188907,53.3683197 L33.188907,23.1331158 C33.188907,22.4831321 33.7152202,21.9560196 34.3652039,21.9560196 C35.0151876,21.9560196 35.541615,22.4830179 35.541615,23.1331158 L35.541615,53.3682055 L38.2735563,53.2693148 L38.2144046,38.6889886 C38.2144046,38.0390049 38.7406036,37.5126917 39.3907015,37.5126917 C40.0407993,37.5126917 40.5671126,38.0390049 40.5671126,38.6889886 L40.5671126,53.3682055 C40.5668842,54.6325449 39.5597064,55.6219086 38.2734421,55.6219086 Z"></path>
            <path d="M24.1920228,25.187553 C23.9542741,25.187553 23.7137847,25.1153834 23.5062969,24.965677 C22.9786134,24.5863295 22.8590538,23.8511582 23.2382871,23.3234747 L25.4314682,20.2920065 C25.8067047,19.7698042 26.5307993,19.6454486 27.0585971,20.0130343 L28.0961501,20.7455791 C28.3833442,20.9503263 28.6719086,21.1557586 28.9632137,21.3598206 C29.1239967,21.1550734 29.2888907,20.9379935 29.4578956,20.7160033 C30.7936052,18.9549266 32.4578467,16.763801 34.9532953,16.5748124 C35.6321697,16.5211419 36.0760359,16.234062 36.4649755,14.8722023 C36.6422023,14.2489396 37.2825938,13.8799837 37.9187602,14.0633768 C38.5440783,14.2419739 38.9054976,14.8934421 38.7267863,15.5179608 C38.5013703,16.3074878 37.8156444,18.7095269 35.134633,18.9211256 C33.6916966,19.0304078 32.4384339,20.6822023 31.3322512,22.1388418 C30.8911256,22.7200816 30.4734095,23.2684339 30.0405057,23.7343393 C29.6460848,24.1590212 29.0030669,24.2317618 28.526199,23.9123654 C27.9160685,23.5056117 27.3210114,23.0823002 26.7314356,22.6632137 L26.6585808,22.6117129 L25.1482708,24.6977814 C24.9189723,25.0171778 24.557553,25.187553 24.1920228,25.187553 Z"></path>
            <path d="M29.0388091,29.4935237 C27.8679935,29.4935237 26.8895922,29.0222512 26.2189396,28.1674062 L23.3015498,24.7779445 C22.8769821,24.2853181 22.933279,23.5426101 23.4265905,23.1186134 C23.9157912,22.6961011 24.6620392,22.7489723 25.0852365,23.242969 L28.0369984,26.6736542 C28.2925612,26.9979608 28.5990538,27.141615 28.9796574,27.141615 C29.3287439,27.1209462 29.6433442,26.9760359 29.8480914,26.7148777 L33.4609135,22.3800163 C33.8786297,21.8790538 34.6206525,21.8152202 35.1181892,22.2288254 C35.6184666,22.6451713 35.6858401,23.3873083 35.2693801,23.8861011 L31.6785971,28.1942414 C31.0766884,28.9624144 30.1340294,29.4331158 29.0442904,29.4935237 C29.0429201,29.4935237 29.0401794,29.4935237 29.0388091,29.4935237 Z"></path>
            <path d="M24.4723654,24.8288744 C22.9360196,24.8288744 21.6771615,23.680783 21.5452692,22.1581403 C21.4106362,20.680261 22.3862969,19.317602 23.8140457,18.9940946 C25.2817618,18.6547145 26.8001794,19.4915171 27.2633442,20.8870636 C27.4694617,21.5040457 27.1355628,22.1699021 26.5185808,22.3753344 C25.9043393,22.582137 25.2364274,22.2461827 25.0316803,21.630571 C24.9464927,21.3777488 24.6194454,21.2238173 24.3349918,21.2890212 C24.0519086,21.352969 23.8608646,21.6374225 23.8897553,21.9500816 C23.9159054,22.2565742 24.1605057,22.4750245 24.4723654,22.4750245 C25.1223491,22.4750245 25.6486623,23.0020228 25.6486623,23.6520065 C25.6485481,24.301876 25.1223491,24.8288744 24.4723654,24.8288744 Z"></path>
            <path d="M48.7242251,26.5836705 C48.0742414,26.5836705 47.5479282,26.0566721 47.5479282,25.4066884 L47.5479282,21.6571778 C47.5479282,20.2383361 46.3936705,19.0846493 44.9753997,19.0846493 C44.3255302,19.0846493 43.7991028,18.5576509 43.7991028,17.9076672 C43.7991028,17.2576835 44.325416,16.7306852 44.9753997,16.7306852 C47.690783,16.7306852 49.9006362,18.9411093 49.9006362,21.6571778 L49.9006362,25.4066884 C49.900522,26.0566721 49.3742088,26.5836705 48.7242251,26.5836705 Z"></path>
            <path d="M43.30031,55.6219086 L40.4679935,55.6219086 C39.2256933,55.6219086 38.2144046,54.6106199 38.2144046,53.3683197 L38.2144046,38.6891028 C38.2144046,38.0391191 38.7406036,37.5128059 39.3907015,37.5128059 C40.0407993,37.5128059 40.5669984,38.0391191 40.5669984,38.6891028 L40.5669984,53.3683197 L43.2000489,53.2720555 L43.2000489,23.1331158 C43.2000489,22.4831321 43.7263622,21.9560196 44.3763458,21.9560196 C45.0263295,21.9560196 45.5527569,22.4830179 45.5527569,23.1331158 L45.5527569,53.3682055 C45.5525285,54.6105057 44.5424959,55.6219086 43.30031,55.6219086 Z"></path>
            <path d="M47.5671126,37.9909299 L44.3763458,37.9909299 C43.7263622,37.9909299 43.1999347,37.4646166 43.1999347,36.814633 C43.1999347,36.1646493 43.726248,35.6383361 44.3763458,35.6383361 L47.5671126,35.6383361 L47.5479282,25.4066884 C47.5479282,24.7567047 48.0741272,24.2297064 48.7242251,24.2297064 C49.374323,24.2297064 49.9006362,24.7567047 49.9006362,25.4066884 L49.9006362,35.6575204 C49.900522,36.9437847 48.8532626,37.9909299 47.5671126,37.9909299 Z"></path>
            <path d="M45.7723491,41.5817129 L44.3761175,41.5817129 C43.726248,41.5817129 43.1998206,41.0553997 43.1998206,40.405416 C43.1998206,39.7554323 43.7261338,39.2291191 44.3761175,39.2291191 L45.7723491,39.2291191 C46.1186949,39.2291191 46.3908157,38.9571126 46.3908157,38.6093964 L46.3908157,36.8147471 C46.3908157,36.1647635 46.9170147,35.6384502 47.5671126,35.6384502 C48.2172104,35.6384502 48.7435237,36.1647635 48.7435237,36.8147471 L48.7435237,38.6093964 C48.7435237,40.2487439 47.4104405,41.5817129 45.7723491,41.5817129 Z"></path>
            <path d="M44.9752855,19.0846493 C41.30354,19.0846493 40.67,17.8018108 40.0638662,15.6897064 L40.0144209,15.5220718 C39.8343393,14.8974388 40.1943883,14.2453997 40.8183361,14.0647471 C41.4462806,13.8847798 42.094894,14.2448287 42.2763458,14.8679772 L42.3259054,15.0397227 C42.7560685,16.5382708 42.8109951,16.7306852 44.9752855,16.7306852 C45.6252692,16.7306852 46.1516966,17.2576835 46.1516966,17.9076672 C46.1516966,18.5576509 45.6253834,19.0846493 44.9752855,19.0846493 Z"></path>
            <path d="M23.5543719,55.6219086 C22.9043883,55.6219086 22.378075,55.0957096 22.378075,54.4456117 L22.378075,27.9200653 C22.378075,27.2700816 22.9043883,26.7430832 23.5543719,26.7430832 C24.2043556,26.7430832 24.7306688,27.2700816 24.7306688,27.9200653 L24.7306688,54.4456117 C24.7306688,55.0955954 24.2043556,55.6219086 23.5543719,55.6219086 Z"></path>
            <path d="M23.5543719,21.3184829 C22.9043883,21.3184829 22.378075,20.7914845 22.378075,20.1415008 L22.378075,7.81624796 C22.378075,7.16626427 22.9043883,6.63926591 23.5543719,6.63926591 C24.2043556,6.63926591 24.7306688,7.16626427 24.7306688,7.81624796 L24.7306688,20.1415008 C24.7306688,20.7914845 24.2043556,21.3184829 23.5543719,21.3184829 Z"></path>
            <path d="M13.8621697,12.9818597 C13.4004894,12.9818597 12.9606199,12.7069984 12.773801,12.2528548 C12.52646,11.6516313 12.8136542,10.9638499 13.4141925,10.716509 L23.1063948,6.72787928 C23.7069331,6.4825938 24.3940294,6.76636215 24.6427406,7.3682708 C24.8900816,7.96949429 24.6028874,8.65727569 24.0023491,8.90461664 L14.3101468,12.8932463 C14.1630669,12.9530832 14.011876,12.9818597 13.8621697,12.9818597 Z"></path>
            <path d="M23.5543719,16.9704894 C23.4045514,16.9704894 23.2534747,16.9415987 23.1063948,16.881876 L13.4141925,12.8932463 C12.8136542,12.6457912 12.52646,11.958124 12.773801,11.3569005 C13.0211419,10.7549918 13.7096085,10.4719086 14.3101468,10.716509 L24.0023491,14.7051387 C24.6028874,14.9524796 24.8900816,15.640261 24.6427406,16.2414845 C24.4558075,16.6956281 24.0160522,16.9704894 23.5543719,16.9704894 Z"></path>
            <path d="M39.3493638,16.8509299 C38.0137684,16.8509299 36.77969,16.3273573 35.776509,15.3345677 C33.5749918,13.15646 32.9882708,9.40763458 32.9882708,7.53659054 C32.9882708,6.82688418 33.1242741,6.22349103 33.2383524,5.84288744 C33.4239152,5.22179445 34.0765253,4.86722675 34.7033279,5.05278956 C35.3257912,5.23972268 35.6789886,5.8951876 35.4920555,6.51776509 C35.3945351,6.84344209 35.3408646,7.20554649 35.3408646,7.53670473 C35.3408646,9.55265905 36.0595922,12.3037847 37.4324144,13.6622186 C38.0081729,14.2318108 38.6651223,14.5217455 39.3782545,14.4977651 C42.2490538,14.4675041 43.4404241,9.9491354 43.4404241,7.53670473 C43.4404241,7.20554649 43.3867537,6.84344209 43.2892333,6.51776509 C43.1023002,5.8951876 43.4554976,5.23972268 44.0779608,5.05278956 C44.703279,4.86722675 45.3573736,5.21973899 45.5429364,5.84288744 C45.6569005,6.22349103 45.7929038,6.82688418 45.7929038,7.53659054 C45.7929038,11.376199 43.8113214,16.8042251 39.4029201,16.8502447 C39.385106,16.8509299 39.367292,16.8509299 39.3493638,16.8509299 Z"></path>
            <path d="M34.3638336,7.35730832 C33.7784829,7.35730832 33.271354,6.92166395 33.1971289,6.3259217 C33.1174225,5.68141925 33.5749918,5.0933279 34.2194943,5.01282219 C36.2987113,4.75314845 38.2719576,4.30163132 40.0817945,3.67231648 C40.6975204,3.46140294 41.3666884,3.78433931 41.5796574,4.3978956 C41.7926264,5.01156607 41.4683197,5.6821044 40.8540783,5.89575856 C38.8889396,6.57874388 36.7549103,7.06794454 34.5106852,7.34760196 C34.461354,7.35376835 34.4119086,7.35730832 34.3638336,7.35730832 Z"></path>
            <path d="M34.3665742,7.35730832 C33.9185971,7.35730832 33.4898042,7.1003752 33.293279,6.66610114 C32.637814,5.22042414 32.6941109,3.77760196 33.4513214,2.60324633 C34.4779119,1.00923328 36.6986134,0.0575530179 39.3905873,0.0575530179 C40.040571,0.0575530179 40.5669984,0.584551387 40.5669984,1.23453507 C40.5669984,1.88451876 40.0406852,2.41151713 39.3905873,2.41151713 C37.5588254,2.41151713 36.0031811,2.98727569 35.4287928,3.87843393 C35.1073409,4.3780261 35.1099674,4.97239804 35.4370147,5.69443719 C35.7050245,6.28606852 35.4424959,6.98344209 34.8516639,7.25213703 C34.6935073,7.32362153 34.5287276,7.35730832 34.3665742,7.35730832 Z"></path>
            <path d="M44.4147145,7.35730832 C44.252447,7.35730832 44.0876672,7.32362153 43.9296248,7.25225122 C43.3386786,6.98355628 43.0761501,6.28618271 43.3441599,5.69455139 C43.6712072,4.97239804 43.6739478,4.3780261 43.3523817,3.87854812 C42.7779935,2.98738989 41.2223491,2.41163132 39.3905873,2.41163132 C38.7406036,2.41163132 38.2142904,1.88463295 38.2142904,1.23464927 C38.2142904,0.584665579 38.7404894,0.0576672104 39.3905873,0.0576672104 C42.0826754,0.0576672104 44.3032626,1.00923328 45.3299674,2.60336052 C46.0870636,3.77760196 46.1434747,5.22053834 45.4880098,6.66621533 C45.2913703,7.10026101 44.8626917,7.35730832 44.4147145,7.35730832 Z"></path>
            <path d="M44.4174551,7.35730832 C44.3982708,7.35730832 44.3789723,7.35662316 44.3597879,7.35593801 C42.4358728,7.26389886 40.8650408,6.69636215 39.692969,5.66920065 C39.2037684,5.24109299 39.1542088,4.49769984 39.5830016,4.00849918 C40.0104241,3.51861338 40.7565579,3.46985318 41.2430179,3.89921697 C42.0057096,4.56712887 43.0914519,4.9395106 44.4723817,5.00471452 C45.1209951,5.03566069 45.6225285,5.58743883 45.5910114,6.2360522 C45.5621207,6.86593801 45.0414029,7.35730832 44.4174551,7.35730832 Z"></path>
            <path d="M34.3665742,30.2535889 C34.0092659,30.2535889 33.6574388,30.0921207 33.4266558,29.7856281 C33.0349755,29.2668515 33.1380914,28.5289396 33.6560685,28.1372594 C36.9651387,25.6382708 37.2550734,22.512708 34.5685808,18.3014029 C34.2194943,17.7538499 34.3803915,17.0262153 34.9272594,16.6764437 C35.4783524,16.3253018 36.2039315,16.4888254 36.5529038,17.0356933 C40.7744861,23.6524633 38.0782871,27.7462643 35.0743393,30.0157259 C34.8626264,30.1758238 34.6124307,30.2535889 34.3665742,30.2535889 Z"></path>
            <path d="M44.3761175,36.0368679 L34.3650897,36.0368679 C33.715106,36.0368679 33.1887928,35.5105546 33.1887928,34.860571 C33.1887928,34.2105873 33.715106,33.6842741 34.3650897,33.6842741 L44.3762316,33.6842741 C45.0261011,33.6842741 45.5525285,34.2105873 45.5525285,34.860571 C45.5525285,35.5105546 45.0262153,36.0368679 44.3761175,36.0368679 Z"></path>
            <path d="M1.17686786,69.942447 C0.878597064,69.942447 0.580440457,69.8298532 0.35091354,69.6044372 C-0.112137031,69.1482382 -0.117732463,68.4032463 0.33858075,67.94031 L10.6698042,57.4496737 C10.8827732,57.2338499 11.1714519,57.1074388 11.4750897,57.099217 L18.0959706,56.9110277 L27.3003426,50.3354812 C27.7675041,50.0029527 28.413491,50.0566232 28.8187602,50.4673736 L31.8996737,53.5826591 L35.3763785,53.27354 C36.0388091,53.2268352 36.5952692,53.695367 36.6530506,54.3412398 C36.7107178,54.9884829 36.2324796,55.5602447 35.5852365,55.6179119 L31.5574388,55.9767047 C31.2083524,56.0069657 30.863491,55.8804405 30.6161501,55.6317292 L27.8484666,52.8337847 L19.1745188,59.0328385 C18.9835889,59.1688418 18.7568026,59.2458075 18.5217945,59.2526591 L12.0149918,59.4382219 L2.01492659,69.5922186 C1.78562806,69.8257423 1.48050571,69.942447 1.17686786,69.942447 Z"></path>
            <path d="M68.709168,69.942447 C68.3917129,69.942447 68.0756281,69.8146656 67.8433605,69.5632137 L60.37323,61.4458401 L58.0590049,61.4458401 C57.685367,61.4458401 57.3334258,61.2684992 57.1122349,60.967602 L53.3716313,55.8899184 L51.1206688,57.1144046 C50.8623654,57.2558891 50.5599837,57.2930016 50.2727896,57.2230016 L43.4127896,55.5079445 C42.7833605,55.3497879 42.4000163,54.7108809 42.5566884,54.0800816 C42.7161011,53.4480261 43.3523817,53.0686786 43.9844372,53.2239804 L50.3993148,54.8276998 L53.1490701,53.3324633 C53.6685318,53.0493801 54.3116639,53.1965742 54.6578956,53.6678467 L58.654062,59.0932463 L60.8899511,59.0932463 C61.2183687,59.0932463 61.5330832,59.2306199 61.7556444,59.4724796 L69.5748613,67.9690865 C70.0147308,68.4473246 69.9843556,69.1922023 69.5061175,69.6319576 C69.2794454,69.8394454 68.9937357,69.942447 68.709168,69.942447 Z"></path>
            <path d="M44.3748613,30.2535889 C44.1261501,30.2535889 43.8760685,30.1745677 43.6630995,30.0117292 C40.682447,27.7380424 38.0151387,23.6409299 42.2284992,17.0358075 C42.5775856,16.4888254 43.3045351,16.3261011 43.8541436,16.6764437 C44.4010114,17.0262153 44.5617945,17.7538499 44.2128222,18.3014029 C41.5275856,22.509168 41.8066721,25.6362153 45.0895922,28.1413703 C45.606199,28.535106 45.7065742,29.2737031 45.3121533,29.7904241 C45.0798858,30.0941762 44.7293148,30.2535889 44.3748613,30.2535889 Z"></path>
            <path d="M14.0613214,69.942447 C13.7479772,69.942447 13.4347471,69.8187765 13.2038499,69.5714356 C12.7586134,69.0986786 12.7820228,68.3539152 13.2561501,67.9085644 L18.522137,62.9615171 C18.6430669,62.8474388 18.787292,62.7593964 18.9454486,62.7059543 L25.6858891,60.3930995 C26.3001305,60.1787602 26.9694127,60.5099184 27.1810114,61.1241599 C27.3912398,61.7384013 27.0641925,62.4076835 26.4499511,62.6192822 L19.9486297,64.84969 L14.8668352,69.6236215 C14.6399347,69.8365905 14.35,69.942447 14.0613214,69.942447 Z"></path>
            <path d="M16.6957423,67.4689233 C16.2766558,67.4689233 15.8712724,67.2448777 15.6583034,66.850571 L14.2620718,64.2573736 C13.9542088,63.6857259 14.1686623,62.9711093 14.74031,62.6633605 C15.3105873,62.3582382 16.0265742,62.5712072 16.334323,63.1415987 L17.7305546,65.7346819 C18.0383034,66.3064437 17.8239641,67.0210604 17.2523165,67.3288091 C17.0749755,67.4235889 16.8839315,67.4689233 16.6957423,67.4689233 Z"></path>
            <path d="M30.4940783,66.0726917 C30.2576998,66.0726917 30.0185808,66.0012072 29.811093,65.8527569 C29.2820392,65.4747798 29.159739,64.7397227 29.5390865,64.2120392 L33.249429,59.0272431 C33.6274062,58.4995595 34.3625775,58.3757749 34.890261,58.7551223 C35.4193148,59.1329853 35.541615,59.8681566 35.1623817,60.3958401 L31.451925,65.5807504 C31.222398,65.9023165 30.8609788,66.0726917 30.4940783,66.0726917 Z"></path>
            <path d="M59.6532463,69.942447 C59.4457586,69.942447 59.2355302,69.8875204 59.0444861,69.7720718 L52.3191191,65.6920881 L42.3024959,67.4125122 C41.9466721,67.4701794 41.5796574,67.3671778 41.3116476,67.1239478 L37.8405383,63.9729201 C37.3595595,63.5359054 37.3238173,62.792398 37.760832,62.3100489 C38.199217,61.8275856 38.9427243,61.7933279 39.4237031,62.2303426 L42.4688744,64.9952855 L52.3548613,63.2981566 C52.6338336,63.2500816 52.9210277,63.3051223 53.1642577,63.4520881 L60.2648613,67.7603426 C60.8199511,68.0969821 60.997292,68.8211909 60.6606525,69.3762806 C60.4392333,69.7418108 60.0517781,69.942447 59.6532463,69.942447 Z"></path>
            <path d="M49.5226591,66.1525122 C49.201093,66.1525122 48.8795269,66.021876 48.6472594,65.7622023 L45.1361827,61.8539641 C44.7019086,61.3702447 44.7417618,60.6267374 45.2254812,60.1924633 C45.7078303,59.7596737 46.4525938,59.7966721 46.8868679,60.2817618 L50.3979445,64.1901142 C50.8322186,64.6737194 50.7923654,65.4172268 50.308646,65.8515008 C50.0847145,66.0533931 49.8030016,66.1525122 49.5226591,66.1525122 Z"></path>
        </g>
    </g>
</svg>