<svg enable-background="new 0 0 512 512" height="512" viewBox="0 0 512 512" width="512" xmlns="http://www.w3.org/2000/svg"><path d="m6 7h512v512h-512z" fill="#2c2525"/><path d="m340.612 451.9c-54.612 65.434-79.279 56.1-95.612 48.1-27.337-13.39-22.389-83.873-15.311-127.513 55.079-50.383 105.071-109.497 147.464-171.16 22.186-32.628 43.067-66.56 60.034-101.796 7.83-18.27 15.659-36.541 20.88-56.118 3.643-10.927 7.277-24.393 4.712-36.413h-70.271c-10.191 9.24-19.661 19.201-28.404 29.888-27.408 31.322-49.594 65.255-70.476 101.797-39.555 68.902-69.121 144.046-85.056 221.767-13.917 10.923-119.874 92.873-166.125 92.754-14.355-.037-24.166-9.86-25.102-24.187-1.678-25.686 8.322-46.019 47.897-80.219 11.812-10.208 37.008-28.175 43.066-22.187 5.202 5.142 2.319 16.707-.865 25.887-3.702 8.242-9.463 8.18-11.438 16.841-2.506 10.993 5.567 15.516 11.827 16.16 6.466.666 13-1.334 19.458-19.934.164-.473.259-.974.319-1.488 6.655-18.348 12.95-46.282-4.947-57.042-33.636-20.224-92.023 28.807-116.662 70.538v87.234c9.503 8.068 22.607 11.888 34.446 11.888 41.554 0 101.794-39.152 122.676-53.509 13.589-9.591 26.681-19.187 39.29-29.077-4.691 30.195-6.811 60.967-2.747 91.72 1.366 10.334 5.895 22.783 10.203 33.169h103.899c.522-.557 1.034-1.095 1.566-1.668 59.067-63.533 118.761-169.458 202.667-201.913v-28.722c-74.972 36.571-143.723 124.867-177.388 165.203zm-74.389-204.896c18.271-43.067 39.152-83.524 62.644-122.676 10.44-18.271 82.633-126.328 105.624-107.54 12.285 10.039-24.709 87.964-44.287 121.896-9.134 16.965-20.88 32.626-31.323 49.592-9.133 14.355-19.574 28.711-30.015 41.762-28.382 37.505-58.349 71.062-90.49 102.528 7.615-28.377 17.727-57.452 27.847-85.562z" fill="#fff"/></svg>