<?xml version="1.0" encoding="UTF-8"?>
<svg width="100px" height="100px" viewBox="0 0 100 100" version="1.1" xmlns="http://www.w3.org/2000/svg" xmlns:xlink="http://www.w3.org/1999/xlink">
    <!-- Generator: Sketch 52.4 (67378) - http://www.bohemiancoding.com/sketch -->
    <title>email</title>
    <desc>Created with Sketch.</desc>
    <g id="email" stroke="none" stroke-width="1" fill="none" fill-rule="evenodd">
        <g transform="translate(1.000000, 0.000000)" fill="#000000" fill-rule="nonzero" id="Shape">
            <path d="M9.50401396,99.9212914 L88.9251309,99.9212914 C94.1294939,99.9153578 98.3453752,95.6945899 98.3453752,90.4902269 L98.3453752,40.05637 C98.3446771,39.269459 97.9968586,38.5230366 97.3949389,38.0164049 L84.2471204,26.9085515 L84.2471204,7.54450262 C84.2471204,3.41535777 80.899651,0.0680628272 76.7706806,0.0680628272 L22.1820244,0.0680628272 C18.0528796,0.0680628272 14.7055846,3.41535777 14.7055846,7.54450262 L14.7055846,26.5026178 L1.03438045,38.0164049 C0.432460733,38.5232112 0.0846422339,39.2696335 0.0837696335,40.05637 L0.0837696335,90.4902269 C0.0837696335,95.6945899 4.29965096,99.9153578 9.50401396,99.9212914 Z M88.9144852,94.5809773 L9.50401396,94.5809773 C7.24904014,94.5750436 5.42408377,92.7452007 5.42408377,90.4902269 L5.42408377,45.1509599 L35.8638743,66.6830716 L14.2568935,83.2167539 C13.0771379,84.1015707 12.8380454,85.7752182 13.7228621,86.9549738 C14.6076789,88.1347295 16.2813264,88.373822 17.461082,87.4890052 L40.4350785,69.9089005 L47.9115183,75.2492147 C48.8363002,75.9041885 50.0736475,75.9041885 50.9984293,75.2492147 L58.4748691,69.9089005 L81.4595113,87.4572426 C82.639267,88.3418848 84.313089,88.1027923 85.1977312,86.9230366 C86.082548,85.743281 85.8434555,84.0696335 84.6636998,83.1848168 L63.0994764,66.6830716 L93.0052356,45.5356021 L93.0052356,90.5008726 C92.9994764,92.7516579 91.1762653,94.5750436 88.9253054,94.5809773 L88.9144852,94.5809773 Z M91.5099476,40.0455497 L84.2472949,45.1830716 L84.2472949,33.8935428 L91.5099476,40.0455497 Z M22.1820244,5.41902269 L76.7813264,5.41902269 C77.961082,5.41902269 78.917452,6.37539267 78.917452,7.55514834 L78.917452,48.9319372 L49.4816754,69.769808 L20.0565445,48.9319372 L20.0565445,7.54450262 C20.0624782,6.37312391 21.0106457,5.42478185 22.1820244,5.41902269 Z M14.7055846,45.1830716 L7.14363002,39.8427574 L14.7055846,33.4343805 L14.7055846,45.1830716 Z M49.2146597,56.0558464 L49.8982548,56.0558464 C51.3729494,56.0558464 52.5684119,54.8603839 52.5684119,53.3856894 C52.5684119,51.9109948 51.3729494,50.7155323 49.8982548,50.7155323 L49.2146597,50.7155323 C39.8120419,50.7155323 32.1897033,43.0931937 32.1897033,33.6905759 C32.1897033,24.2879581 39.8120419,16.6656195 49.2146597,16.6656195 C58.6172775,16.6656195 66.2396161,24.2879581 66.2396161,33.6905759 L66.2396161,38.2511344 C66.1411867,39.8938918 64.7296684,41.1457243 63.0867365,41.0472949 C61.5815009,40.9570681 60.3808028,39.7565445 60.2907504,38.2511344 L60.2907504,33.6905759 C60.3307155,27.5560209 55.3900524,22.5504363 49.2554974,22.5104712 C43.1209424,22.4705061 38.1153578,27.4111693 38.0753927,33.5457243 C38.0354276,39.6802792 42.9760908,44.6856894 49.1106457,44.7256545 C51.6123909,44.7418848 54.0462478,43.9132635 56.0183246,42.3736475 C58.2584642,46.3790576 63.3212914,47.8101222 67.3267016,45.5701571 C69.974171,44.0895288 71.604363,41.2841187 71.5799302,38.2509599 L71.5799302,33.6904014 C71.5799302,21.3383944 61.5668412,11.3251309 49.2148342,11.3251309 C36.8628272,11.3251309 26.8495637,21.3383944 26.8495637,33.6904014 C26.8493892,46.0425829 36.8626527,56.0558464 49.2146597,56.0558464 Z M49.2146597,39.426178 C46.0471204,39.426178 43.4792321,36.8582897 43.4792321,33.6907504 C43.4792321,30.5230366 46.0471204,27.9551483 49.2146597,27.9551483 C52.382199,27.9551483 54.9500873,30.5230366 54.9500873,33.6907504 C54.9500873,36.8582897 52.382199,39.426178 49.2146597,39.426178 Z"></path>
        </g>
    </g>
</svg>