<?xml version="1.0" encoding="UTF-8"?>
<svg width="100px" height="100px" viewBox="0 0 100 100" version="1.1" xmlns="http://www.w3.org/2000/svg" xmlns:xlink="http://www.w3.org/1999/xlink">
    <!-- Generator: Sketch 52.4 (67378) - http://www.bohemiancoding.com/sketch -->
    <title>factory</title>
    <desc>Created with Sketch.</desc>
    <g id="factory" stroke="none" stroke-width="1" fill="none" fill-rule="evenodd">
        <g fill="#000000" fill-rule="nonzero" id="Shape">
            <path d="M32.5839383,99.9818512 C28.8092105,99.9800363 25.4857078,97.4943285 24.4169691,93.8738657 C24.3164701,93.8811252 24.215971,93.886343 24.115245,93.8892922 C20.0950544,93.8888385 16.8362069,90.6299909 16.83598,86.6100272 C16.8350726,82.5893829 20.0939201,79.3291742 24.1145644,79.3284936 L24.115245,79.3284936 C24.6179673,79.3314428 25.1191016,79.386343 25.6107078,79.4925136 C27.1771779,78.0612523 29.2216425,77.2661071 31.3436933,77.2627042 C34.0807623,77.2661071 36.6495009,78.584392 38.2481851,80.8058076 C39.5871143,79.9786751 41.1293103,79.5385662 42.7032668,79.5344828 C45.418784,79.5378857 47.9702813,80.8357532 49.5721416,83.0288113 C50.3727314,82.373412 51.3752269,82.0145191 52.4097096,82.0127042 C54.8911071,82.0124773 56.9024501,84.0238203 56.902677,86.5049909 L56.902677,86.5054446 C56.9029038,88.9866152 54.8913339,90.9981851 52.4103902,90.9981851 C52.4101633,90.9981851 52.4099365,90.9981851 52.4099365,90.9981851 C51.8561706,90.9981851 51.3069419,90.896098 50.790608,90.696461 C49.6485935,94.1973684 46.3858893,96.5682849 42.7034936,96.5737296 C41.7007713,96.5712341 40.706216,96.3917877 39.7661071,96.0435572 C38.201225,98.4965971 35.4934211,99.9813975 32.5839383,99.9818512 Z M56.902677,79.5347096 L54.0628403,39.7763158 L51.2225499,39.7763158 L51.2225499,56.8155626 L34.1833031,39.7763158 L34.1833031,56.8155626 L17.1440563,39.7763158 L17.1440563,56.8155626 L0.104809437,39.7763158 L0.104809437,0.0181488203 L51.2227768,0.0181488203 L73.9416969,0.0181488203 L73.9416969,39.7765426 L71.1018603,39.7765426 L68.2622505,79.5347096 L56.902677,79.5347096 Z M5.78493648,34.0966425 L11.4646098,34.0966425 L11.4646098,28.4167423 L5.78493648,28.4167423 L5.78493648,34.0966425 Z M17.14451,34.0966425 L22.8241833,34.0966425 L22.8241833,28.4167423 L17.14451,28.4167423 L17.14451,34.0966425 Z M28.5038566,34.0966425 L34.1835299,34.0966425 L34.1835299,28.4167423 L28.5038566,28.4167423 L28.5038566,34.0966425 Z M39.8634301,34.0966425 L45.5433303,34.0966425 L45.5433303,28.4167423 L39.8634301,28.4167423 L39.8634301,34.0966425 Z M5.78493648,22.7372958 L11.4646098,22.7372958 L11.4646098,17.0573956 L5.78493648,17.0573956 L5.78493648,22.7372958 Z M17.14451,22.7372958 L22.8241833,22.7372958 L22.8241833,17.0573956 L17.14451,17.0573956 L17.14451,22.7372958 Z M28.5038566,22.7372958 L34.1835299,22.7372958 L34.1835299,17.0573956 L28.5038566,17.0573956 L28.5038566,22.7372958 Z M39.8634301,22.7372958 L45.5433303,22.7372958 L45.5433303,17.0573956 L39.8634301,17.0573956 L39.8634301,22.7372958 Z" transform="translate(37.023253, 50.000000) scale(-1, 1) rotate(-180.000000) translate(-37.023253, -50.000000) "></path>
        </g>
    </g>
</svg>