<svg viewBox="0 0 71 71" xmlns="http://www.w3.org/2000/svg" fill-rule="evenodd" clip-rule="evenodd" stroke-linejoin="round" stroke-miterlimit="2"><path fill="none" d="M0.632 0.499H70.632V70.499H0.632z"/><clipPath id="a"><path d="M0.632 0.499H70.632V70.499H0.632z"/></clipPath><g clip-path="url(#a)"><ellipse cx="35.755" cy="35.499" rx="35" ry="35" fill="#cbe2e4"/><ellipse cx="36.043" cy="38.692" rx="9.752" ry="9.883" fill="#2ba3db"/><circle cx="35.861" cy="38.807" r="5.356"/><path d="M16.724 38.807c3.586-6.728 10.814-11.329 19.137-11.329 8.324 0 15.551 4.601 19.137 11.329-3.586 6.727-10.813 11.328-19.137 11.328-8.323 0-15.551-4.601-19.137-11.328zm19.218-8.315c4.718 0 8.548 3.726 8.548 8.315 0 4.588-3.83 8.314-8.548 8.314-4.719 0-8.549-3.726-8.549-8.314 0-4.589 3.83-8.315 8.549-8.315zm-9.547 1.838a11.052 11.052 0 0 0-2.094 6.477c0 2.407.774 4.64 2.094 6.476a18.96 18.96 0 0 1-6.834-6.476v-.001a18.96 18.96 0 0 1 6.834-6.476zm19.201.153a18.943 18.943 0 0 1 6.565 6.323 18.937 18.937 0 0 1-6.565 6.324 11.044 11.044 0 0 0 1.986-6.323c0-2.342-.732-4.518-1.986-6.324z"/><path d="M14.099 36.047c4.803-7.442 16.595-14.682 28.488-11.207 5.132 1.499 10.259 5.004 14.877 11.285a1.547 1.547 0 0 0 2.491-1.831c-5.108-6.948-10.824-10.763-16.501-12.422-13.329-3.894-26.57 4.158-31.952 12.499a1.546 1.546 0 1 0 2.597 1.676z"/></g></svg>