<svg clip-rule="evenodd" fill-rule="evenodd" stroke-linejoin="round" stroke-miterlimit="2" viewBox="0 0 71 71" xmlns="http://www.w3.org/2000/svg" xmlns:xlink="http://www.w3.org/1999/xlink"><clipPath id="a"><path clip-rule="evenodd" d="m.665.499h70v70h-70z"/></clipPath><path d="m.665.499h70v70h-70z" fill="none"/><g clip-path="url(#a)"><circle cx="35.665" cy="35.499" fill="#bddba6" r="35"/><g fill="#9cba9d"><circle cx="35.665" cy="6.303" r="2.515"/><circle cx="35.665" cy="64.695" r="2.515"/><path d="m67.375 35.499a2.515 2.515 0 1 1 -5.03-.002 2.515 2.515 0 0 1 5.03.002zm-58.392 0a2.515 2.515 0 0 1 -5.029 0 2.516 2.516 0 0 1 2.514-2.515 2.516 2.516 0 0 1 2.515 2.515z"/></g><path d="m28.047 29.508a1.482 1.482 0 0 0 -.737.92l-6.91 25.191a1.487 1.487 0 0 0 2.337 1.574l20.545-15.703c.354-.188.626-.516.737-.92l6.91-25.191a1.486 1.486 0 0 0 -2.337-1.575zm2.752 2.718 2.386 6.94 7.345-.395-2.386-6.94z"/><circle cx="35.583" cy="35.321" r="1.712"/></g></svg>