<svg viewBox="0 0 116 90" xmlns="http://www.w3.org/2000/svg" fill-rule="evenodd" clip-rule="evenodd" stroke-linejoin="round" stroke-miterlimit="2"><path fill="none" d="M0.298 0H115.298V89.552H0.298z"/><clipPath id="a"><path d="M0.298 0H115.298V89.552H0.298z"/></clipPath><g clip-path="url(#a)"><path fill="#fffbf9" d="M0.064 0H115.29799999999999V89.552H0.064z"/><path d="M70.522 89.552c-24.729 0-44.776-20.047-44.776-44.776C25.746 20.047 45.793 0 70.522 0c24.729 0 44.776 20.047 44.776 44.776 0 24.729-20.047 44.776-44.776 44.776zM61.67 72.187h12.294V51.531c0-1.105.08-2.21.404-3 .889-2.209 2.912-4.496 6.308-4.496 4.449 0 6.228 3.392 6.228 8.365v19.787h12.294V50.979c0-11.362-6.066-16.648-14.154-16.648-6.632 0-9.544 3.707-11.162 6.232h.082v-5.365H61.67c.161 3.472 0 36.989 0 36.989zm-6.805 0V35.199H42.571v36.988h12.294zM48.72 30.146c4.287 0 6.955-2.84 6.955-6.39-.079-3.629-2.668-6.39-6.875-6.39-4.205 0-6.955 2.761-6.955 6.39 0 3.55 2.668 6.39 6.794 6.39h.081z" fill="#2c2525"/></g></svg>