<svg viewBox="0 0 116 90" xmlns="http://www.w3.org/2000/svg" fill-rule="evenodd" clip-rule="evenodd" stroke-linejoin="round" stroke-miterlimit="2"><path fill="none" d="M0.715 0H115.715V89.552H0.715z"/><clipPath id="a"><path d="M0.715 0H115.715V89.552H0.715z"/></clipPath><g clip-path="url(#a)"><path fill="#fffbf9" d="M0.48 0H115.714V89.552H0.48z"/><path d="M70.915-.187c-24.74 0-44.8 20.336-44.8 45.426 0 20.065 12.835 37.09 30.641 43.097 2.239.415 3.058-.987 3.058-2.189 0-1.079-.038-3.935-.06-7.727-12.462 2.744-15.091-6.09-15.091-6.09-2.038-5.247-4.976-6.644-4.976-6.644-4.067-2.819.308-2.761.308-2.761 4.497.321 6.862 4.682 6.862 4.682 3.997 6.94 10.485 4.938 13.04 3.775.407-2.936 1.565-4.938 2.844-6.073-9.948-1.146-20.408-5.044-20.408-22.449 0-4.958 1.747-9.012 4.612-12.188-.459-1.149-1.999-5.766.441-12.02 0 0 3.762-1.222 12.318 4.656 3.573-1.006 7.407-1.511 11.216-1.528 3.804.017 7.638.522 11.216 1.528 8.553-5.878 12.308-4.656 12.308-4.656 2.445 6.254.907 10.871.445 12.02 2.871 3.176 4.604 7.23 4.604 12.188 0 17.45-10.476 21.289-20.457 22.413 1.609 1.403 3.042 4.174 3.042 8.413 0 6.073-.055 10.972-.055 12.461 0 1.215.806 2.626 3.08 2.183 17.787-6.017 30.612-23.032 30.612-43.091.002-25.09-20.059-45.426-44.8-45.426z" fill="#2c2525"/></g></svg>