<svg width="100" height="100" viewBox="0 0 100 100" xmlns="http://www.w3.org/2000/svg">
    <path d="M94.902 75.87c0 .5-.3.899-.798.999L45.41 89.84c-1.197.3-2.594.1-3.592-.498L7.393 67.988s-2.295-.998-2.295-7.284 2.295-8.282 2.295-8.282l6.386-1.397 29.136 17.96c.898.6 2.096.8 3.193.5L89.115 57.61l3.592 1.397c.698.299.599 1.297-.1 1.496L44.712 72.678c-.799.2-1.397.798-1.697 1.596-.499 1.497-1.097 4.191-1.097 6.886 0 1.496.2 3.193.499 4.79.2 1.296 1.596 2.194 2.893 1.795l48.295-12.772c.699-.3 1.297.2 1.297.898zm-7.184-21.652l-41.81 11.076c-1.097.3-2.294-.4-2.494-1.597-.2-1.297-.399-2.694-.399-4.09 0-2.296.599-4.59.998-5.988.2-.698.699-1.197 1.397-1.397l41.41-10.477c.598-.2.698-.998.1-1.297l-3.892-1.397-36.52 9.679c-.998.3-1.996.1-2.794-.4L19.566 33.464 13.18 34.86s-1.995 1.796-1.995 7.185c0 5.388 1.995 6.286 1.995 6.286l29.735 18.36c.898.599 2.096.798 3.193.499l42.109-11.176a.958.958 0 00.698-.898c-.1-.599-.598-.998-1.197-.898zM44.612 34.262c.2-.6.698-1.098 1.297-1.198l37.219-9.48c.598-.099.598-.897.1-1.197L51.995 10.314c-.599-.2-1.198-.3-1.697-.1l-33.427 7.184s-1.796 1.597-1.796 6.486c0 4.89 1.796 5.688 1.796 5.688l26.742 16.464c.798.499 1.896.698 2.794.399l37.917-10.078c.3-.1.6-.4.6-.798 0-.5-.5-.898-.999-.799L46.308 44.74c-.998.299-2.095-.4-2.195-1.397-.2-1.198-.4-2.495-.4-3.692 0-2.096.5-4.191.899-5.388z" fill="#2C2525" fill-rule="nonzero"/>
</svg>
