<svg width="100" height="100" viewBox="0 0 100 100" xmlns="http://www.w3.org/2000/svg">
    <g fill="none" fill-rule="evenodd">
        <path fill="#FFFFF8" d="M0 0h100v100H0z"/>
        <path d="M75.49 0a54.16 54.16 0 0 0-5.548 5.838c-5.353 6.117-9.686 12.745-13.765 19.882-7.725 13.457-13.5 28.134-16.612 43.314-2.718 2.133-23.413 18.139-32.446 18.116-2.804-.008-4.72-1.926-4.903-4.724-.328-5.017 1.625-8.989 9.355-15.668 2.307-1.994 7.228-5.503 8.411-4.334 1.016 1.005.453 3.264-.169 5.056-.723 1.61-1.848 1.598-2.234 3.29-.49 2.147 1.087 3.03 2.31 3.156 1.263.13 2.54-.26 3.8-3.893.032-.093.051-.19.063-.291 1.3-3.584 2.53-9.04-.966-11.141C16.216 54.651 4.812 64.227 0 72.378V0h75.49zm13.725 0H100v54.628c-14.643 7.143-28.07 24.388-34.646 32.267-10.666 12.78-15.484 10.957-18.674 9.394-5.34-2.615-4.373-16.381-2.99-24.905 10.757-9.84 20.52-21.386 28.8-33.43 4.334-6.372 8.412-13 11.726-19.882 1.53-3.568 3.059-7.136 4.078-10.96.712-2.134 1.422-4.764.92-7.112zM100 60.238V100H60.11c.103-.109.203-.214.307-.326C71.953 87.265 83.612 66.577 100 60.238zM39.818 100H0V89.416c1.856 1.576 4.415 2.322 6.728 2.322 8.116 0 19.881-7.647 23.96-10.451a188.938 188.938 0 0 0 7.674-5.68c-.916 5.898-1.33 11.908-.537 17.915.267 2.018 1.152 4.45 1.993 6.478zm11.287-53.932c3.753-8.817 8.042-17.1 12.866-25.117C66.116 17.21 80.943-4.914 85.665-1.068c2.523 2.056-5.075 18.01-9.096 24.958-1.876 3.474-4.288 6.68-6.433 10.154-1.876 2.94-4.02 5.879-6.165 8.55-5.829 7.68-11.984 14.55-18.585 20.993 1.564-5.81 3.64-11.763 5.72-17.519z" fill="#2C2525"/>
    </g>
</svg>
