<svg width="100" height="100" viewBox="0 0 100 100" xmlns="http://www.w3.org/2000/svg">
    <title>
        email
    </title>
    <path d="M10.504 99.921h79.421a9.431 9.431 0 0 0 9.42-9.43V40.055a2.67 2.67 0 0 0-.95-2.04L85.247 26.91V7.545A7.477 7.477 0 0 0 77.771.068H23.182a7.476 7.476 0 0 0-7.476 7.477v18.958L2.034 38.016a2.67 2.67 0 0 0-.95 2.04V90.49a9.431 9.431 0 0 0 9.42 9.431zm79.41-5.34h-79.41a4.09 4.09 0 0 1-4.08-4.09V45.15l30.44 21.532-21.607 16.534a2.67 2.67 0 1 0 3.204 4.272l22.974-17.58 7.477 5.34a2.67 2.67 0 0 0 3.086 0l7.477-5.34L82.46 87.457a2.67 2.67 0 0 0 3.204-4.272L64.099 66.683l29.906-21.147V90.5a4.09 4.09 0 0 1-4.08 4.08h-.01zm2.596-54.535l-7.263 5.137v-11.29l7.263 6.153zM23.182 5.419h54.6c1.18 0 2.135.956 2.135 2.136v41.377L50.482 69.77 21.057 48.932V7.545a2.136 2.136 0 0 1 2.125-2.126zm-7.476 39.764l-7.562-5.34 7.562-6.409v11.75zm34.509 10.873h.683a2.67 2.67 0 1 0 0-5.34h-.683c-9.403 0-17.025-7.623-17.025-17.025 0-9.403 7.622-17.025 17.025-17.025 9.402 0 17.025 7.622 17.025 17.025v4.56a2.98 2.98 0 0 1-5.95 0v-4.56c.04-6.135-4.9-11.14-11.035-11.18-6.134-.04-11.14 4.9-11.18 11.035-.04 6.134 4.901 11.14 11.036 11.18a11.108 11.108 0 0 0 6.907-2.352A8.31 8.31 0 0 0 72.58 38.25v-4.56c0-12.353-10.013-22.366-22.365-22.366-12.352 0-22.365 10.013-22.365 22.365 0 12.353 10.013 22.366 22.365 22.366zm0-16.63a5.735 5.735 0 1 1 0-11.47 5.735 5.735 0 0 1 0 11.47z" fill="#000" fill-rule="nonzero"/>
</svg>
