<svg width="100" height="100" viewBox="0 0 100 100" xmlns="http://www.w3.org/2000/svg">
    <title>
        explosion
    </title>
    <path d="M44.088 39.075l-10.65-18.143 1.183-1.638 10.111 19.44c-.217.107-.43.221-.644.34zm1.042-.525L34.784 15.492l1.423-1.45 9.327 24.341c-.136.054-.271.11-.404.167zm.722 20.822l-6.296 18.014 1.315 1.79 5.596-19.602a10.109 10.109 0 0 1-.615-.202zm1.038.317L40.734 85.45l2.757.916 4.23-26.5c-.281-.05-.558-.107-.831-.177zm1.592.281l-2.19 24.237 1.794-.048.957-24.147a11.796 11.796 0 0 1-.56-.042zm1.222.057l.616 32.971 2.508-1.49-2.464-31.504c-.219.015-.44.02-.66.023zm1.128-.063l2.647 22.154 2.631-3.577-4.178-18.75c-.36.077-.727.134-1.1.173zm1.59-.284l7.736 28.963 1.726-.098-9.143-28.954c-.104.032-.212.06-.32.089zm1.201-.383l8.5 21.488 2.145-.247L54.24 59.04c-.201.092-.41.178-.617.256zm1.139-.506L67.714 84.65l1.562-.446-14.132-25.62c-.126.07-.254.139-.382.207zm-11.944-1.075L21.684 86.064l-1.114-2.36L42.377 57.36c.144.122.29.24.44.356zm17.065-4.348l31.95 13.339-3.255 1.215L59.66 53.84c.079-.155.153-.312.223-.472zm-.347.712l33.482 17.323-.631 1.023L59.405 54.32l.13-.241zm-.33.58L80.147 66.81l-1.853-.013-19.28-11.84c.066-.1.13-.199.19-.298zm-.352.539l18.352 12.139.73 2.964-19.427-14.631c.118-.155.233-.313.345-.472zm-.57.751l27.982 22.578-.171 1.942L58.04 56.234c.084-.093.164-.187.243-.284zm-.623.695L77.19 74.227 74 73.893 57.384 56.92c.093-.09.185-.183.277-.275zm2.713-4.605l18.914 5.438 1.82 2.942-20.965-7.686c.082-.226.161-.46.231-.694zm.468-2.991l38.706.353.343 1.95-39.065-1.873c.007-.142.014-.286.016-.43zm-.002-.595l32.715-2.322-1.23 2.35-31.479.343v-.007c0-.12-.004-.244-.006-.364zm-.133-1.409l23.234-4 .699 2.064-23.847 2.616c-.023-.23-.05-.455-.086-.68zm-.35-1.512l25.736-8.211 1.23 2.283-26.776 6.638c-.054-.24-.12-.476-.19-.71zm-.297-.843l35.453-14.258.301 1.362-35.647 13.174a9.005 9.005 0 0 0-.107-.278zm-.378-.848l29.544-15.025 2.226 1.398-31.55 14.1a9.167 9.167 0 0 0-.22-.473zm-.821-1.393l17.236-12.183 1.227 1.844-18.051 10.983a11.21 11.21 0 0 0-.412-.644zm-.874-1.108L85.1 16.547l1.675 1.918-28.404 23.327c-.124-.154-.25-.303-.384-.451zm-.75-.76l16.099-17.799 2.104 1.835-17.58 16.584a10.867 10.867 0 0 0-.623-.62zm-.605-.52l17.582-22.463.966.848L56.91 40.29a8.907 8.907 0 0 0-.278-.23zm-.78-.573l17.81-27.356.727 2.235-18.242 25.324-.295-.203zm-1.088-.64l9.308-18.576 1.877 1.385L55.47 39.242c-.23-.138-.465-.27-.706-.395zm-1.811-.741L63.505 7.052l2.213 3.428-11.811 27.973c-.31-.13-.629-.245-.954-.346zm-.78-.21l6.575-28.105 1.672-.147-7.777 28.372a9.92 9.92 0 0 0-.47-.12zm-.984-.181l2.675-26.067 2.233 2.388-4.274 23.786c-.21-.04-.422-.079-.634-.107zm-2.217-.087L47.334 8.173l3.331-.75-.712 30.19c-.105-.004-.211-.004-.317-.004-.222 0-.445.007-.664.02zm-10.463 9.82L.11 43.269l3.734-1.37 34.723 5.145c-.022.135-.04.27-.057.407zm.255-1.378l-26.576-6.44 2.733-1.75 24.05 7.476c-.076.234-.146.47-.207.714zm.365-1.171l-24.846-9.373-.303-1.49L39.325 44.41c-.07.162-.135.326-.196.49zm.516-1.17L9.272 28.81l4.289-1.256 26.613 15.25c-.19.298-.367.608-.53.925zm.704-1.19l-14.87-9.77.06-1.882 15.157 11.165c-.12.16-.236.321-.347.488zm.605-.812L16.576 22.32l1.062-1.776L41.305 41.32c-.121.132-.238.267-.35.408zm.786-.866L16.748 16.293l.675-1.706 24.605 25.998a7.38 7.38 0 0 0-.288.277zm1.049-.92l-18.993-23.99.363-4.814 19.228 28.371c-.204.139-.404.283-.598.434zm3.441-1.806L37.1 10.41l2.78 1.173 7.002 26.365c-.22.056-.438.12-.652.187zm1.757-.407l-4.96-23.308 2.487.251 2.95 22.996c-.16.018-.32.038-.477.06zm8.027 20.308L70.82 78.858l2.206.338-16.829-21.288c-.061.043-.123.088-.183.129zm-14.057-1.053l-19.34 21.125-.48-2.965 19.331-18.647c.16.168.322.33.489.487zm-.922-.977L11.802 81.124l.149-3.95 28.66-21.706c.135.183.278.362.424.539zm3.194 2.633L33.14 79.44l-4.219.297 14.391-21.664c.295.203.603.39.918.566zm.769.387L32.695 87.06l1.497 1.226L45.45 59.22a12.135 12.135 0 0 1-.451-.193zm10.847-.876l10.909 15.93-1.783.407-9.666-15.998c.184-.107.364-.222.54-.339zm1.137-.866l23.13 25.866-1.78 1.013L56.47 57.705c.176-.136.345-.276.512-.42zm3.603-6.053l33.602 7.011-.245 1.7-33.454-8.304c.035-.137.066-.272.097-.407zm.185-1.108l22.84 2.406-1.709 1.85-21.231-3.574c.041-.226.074-.452.1-.682zm-22.132-3.486L4.426 40.22l.03-1.308 34.245 7.432c-.024.099-.043.198-.063.295zm-.157 3.304l-19.827 2.28-.214-1.948 19.995-1.031c.008.234.024.468.046.7zm.162 1.082L2.493 58.82l1.82-3.328 34.215-5.158c.031.231.07.463.115.69zm-.217-2.178l-28.049.448 2.742-2.884 25.337 1.569a11.727 11.727 0 0 0-.03.867zm.5 3.293L19.82 58.36l-1.794-1.093 20.752-5.654c.043.176.094.352.148.525zm.678 1.686l-22.277 11.52-1.004-3.227 22.858-9.244c.128.323.268.643.423.95zm.664 1.148L15.24 71.932l-3.8-.758L39.9 54.38c.116.202.24.4.368.592z" fill="#000" fill-rule="nonzero"/>
</svg>
