<svg width="100" height="100" viewBox="0 0 100 100" xmlns="http://www.w3.org/2000/svg">
    <title>
        factory
    </title>
    <path d="M32.584.018a8.52 8.52 0 0 0-8.167 6.108 7.05 7.05 0 0 0-.302-.015 7.28 7.28 0 0 0-7.279 7.279 7.28 7.28 0 0 0 7.279 7.282 7.286 7.286 0 0 0 1.496-.165 8.52 8.52 0 0 0 5.733 2.23 8.52 8.52 0 0 0 6.904-3.543 8.52 8.52 0 0 0 4.455 1.272 8.52 8.52 0 0 0 6.87-3.495 4.492 4.492 0 0 0 2.837 1.016 4.492 4.492 0 1 0 0-8.985 4.49 4.49 0 0 0-1.62.302 8.52 8.52 0 0 0-8.087-5.878 8.518 8.518 0 0 0-2.937.53A8.52 8.52 0 0 0 32.584.018zm24.319 20.447l-2.84 39.759h-2.84v-17.04l-17.04 17.04v-17.04l-17.039 17.04v-17.04L.104 60.224v39.758h73.838V60.223h-2.84l-2.84-39.758h-11.36zM5.785 65.903h5.68v5.68h-5.68v-5.68zm11.36 0h5.68v5.68h-5.68v-5.68zm11.359 0h5.68v5.68h-5.68v-5.68zm11.36 0h5.68v5.68h-5.68v-5.68zm-34.08 11.36h5.68v5.68h-5.68v-5.68zm11.36 0h5.68v5.68h-5.68v-5.68zm11.36 0h5.68v5.68h-5.68v-5.68zm11.36 0h5.68v5.68h-5.68v-5.68z" fill="#000" fill-rule="nonzero"/>
</svg>
