<?xml version="1.0" encoding="UTF-8"?>
<svg width="100px" height="100px" viewBox="0 0 100 100" version="1.1" xmlns="http://www.w3.org/2000/svg" xmlns:xlink="http://www.w3.org/1999/xlink">
    <!-- Generator: Sketch 52.4 (67378) - http://www.bohemiancoding.com/sketch -->
    <title>fossil</title>
    <desc>Created with Sketch.</desc>
    <g id="fossil" stroke="none" stroke-width="1" fill="none" fill-rule="evenodd">
        <g transform="translate(18.000000, 15.000000)" fill="#000000">
            <path d="M54.6638798,18.7406193 C52.3978689,18.7406193 49.797031,18.2654098 46.9348087,17.3274863 C44.8256284,16.6361566 43.4311111,16.6111658 42.5079781,16.5947177 C41.7244627,16.5806922 41.1579599,16.5706193 40.7093989,16.1647723 C39.5091985,15.079326 36.7524226,12.0517304 37.0715665,7.40010929 C37.352459,3.29790528 41.3508743,0.634590164 42.9715847,0.214845173 C43.3453005,0.118069217 43.8002368,0.068852459 44.3245355,0.068852459 C45.4037341,0.068852459 46.4830601,0.271712204 46.731949,0.321693989 C47.0152641,0.327941712 47.4263388,0.312386157 47.8751548,0.292750455 C48.6538251,0.259981785 49.547377,0.224153005 50.1989253,0.289690346 C51.5177049,0.42 52.8817486,0.55579235 53.7768306,1.71621129 C54.110765,2.14857923 56.2910929,4.53240437 56.6906922,4.77746812 C57.1291803,4.99677596 59.4226047,6.28967213 59.8563752,6.61429872 L60.173224,6.84763206 C62.0958652,8.2545173 62.481439,8.60094718 62.6179964,8.84766849 C62.8693078,9.30107468 64.0084335,11.7263388 61.7291621,14.9467213 C61.3740619,15.4484517 60.0497996,16.3318033 59.5402914,16.6619126 C59.2148998,17.0473588 57.903133,18.5159563 56.6952823,18.6228051 L56.4806922,18.6430783 C56.0763752,18.6813297 55.4669035,18.7406193 54.6638798,18.7406193 Z M44.3245355,1.23857923 C43.8985428,1.23857923 43.5419126,1.27453552 43.2656102,1.34708561 C42.2731148,1.60464481 38.4923497,3.79185792 38.2395082,7.47967213 C37.9561931,11.6201275 40.4221311,14.3255191 41.495082,15.2971038 C41.6183789,15.4086703 42.0404189,15.4156831 42.5296539,15.4249909 C43.5222769,15.442969 45.022878,15.470255 47.2990893,16.2155191 C50.0441348,17.1144262 52.5210383,17.5708925 54.6637523,17.5708925 C55.4099089,17.5708925 55.9630237,17.5170856 56.3672131,17.4779417 L56.5912386,17.4569035 C57.2395993,17.3999089 58.2876867,16.3496539 58.6925137,15.8502186 C58.7316576,15.8018944 58.7784517,15.7596903 58.8307286,15.7261566 C59.6375774,15.2081056 60.6105647,14.5003279 60.772878,14.2708197 C62.6471949,11.6216576 61.7850091,9.76123862 61.5929872,9.41480874 C61.4143534,9.2064663 59.9597814,8.14218579 59.4813843,7.7924408 L59.1529326,7.55056466 C58.8056102,7.28994536 56.5949362,6.03823315 56.153388,5.81663024 C55.5079599,5.4935337 53.0203461,2.65234973 52.84949,2.43074681 C52.3024954,1.72143898 51.4394171,1.58870674 50.0825137,1.45380692 C49.4800546,1.39528233 48.6466849,1.43200364 47.923224,1.46234973 C47.4065756,1.48351548 46.9415665,1.50060109 46.6364481,1.48887067 C46.6036794,1.48734062 46.5716758,1.48338798 46.5404372,1.47637523 C46.5297268,1.47420765 45.402969,1.23857923 44.3245355,1.23857923 Z" id="Shape" fill-rule="nonzero"></path>
            <path d="M50.7989617,10.0376685 C49.9499089,10.4926047 46.7497996,10.1321494 45.6050638,9.40409836 C43.4631148,8.0415847 42.4401457,6.09777778 43.2149909,4.5052459 C43.6542441,3.60315118 44.7459381,2.77526412 45.8001457,2.79783242 C46.7911111,2.8196357 48.1371767,4.18291439 49.0189982,5.04127505 C49.9460838,5.94336976 51.576102,6.76271403 51.9694536,7.94327869 C52.1887614,8.60183971 51.7501457,9.52816029 50.7989617,10.0376685 Z" id="Path"></path>
            <path d="M60.2362113,12.3567213 C60.7060656,12.2349545 60.7481421,10.9420583 60.6998179,10.5768852 C60.6513661,10.2117122 60.1020765,9.08954463 59.3342441,8.6745173 C58.9050638,8.44271403 57.8219126,9.40409836 58.3346084,10.4060291 C58.5827322,10.891439 58.9596357,10.7478689 59.457541,11.3331148 C59.7259381,11.6474135 59.9155373,12.4402368 60.2362113,12.3567213 Z" id="Path"></path>
            <path d="M49.2038798,15.9149909 C48.9175046,15.9149909 48.7395082,15.8034244 48.6413297,15.7098361 C48.5258106,15.5997996 48.4602732,15.4469217 48.4593807,15.2869035 C48.4586157,15.0613479 48.3167031,14.2497814 48.105173,13.5381785 C47.991184,13.1574499 48.0506011,12.7851366 48.271439,12.4886885 C48.7295628,11.8738616 49.6597086,11.842623 49.8421676,11.842623 C49.9459563,11.842623 50.0380146,11.8504007 50.1129872,11.8621311 C50.5624408,11.9339162 51.0883971,12.306867 51.3918579,12.7697086 C51.6556648,13.173133 51.7376503,13.6100911 51.6276138,14.0339162 C51.3247905,15.2010929 49.8859016,15.9149909 49.2038798,15.9149909 Z M49.8421676,13.0137523 C49.5495446,13.0137523 49.2616393,13.118306 49.2101275,13.188561 C49.3561202,13.651275 49.4824772,14.1952095 49.5574499,14.6353552 C49.9148452,14.4722769 50.3900546,14.1398725 50.4938434,13.7410383 C50.5023862,13.7067395 50.5296721,13.6014208 50.4221858,13.4281421 C50.2707104,13.1847359 50.0023133,13.034918 49.9258106,13.0184699 C49.9047723,13.0154098 49.8750638,13.0137523 49.8421676,13.0137523 Z" id="Shape" fill-rule="nonzero"></path>
            <path d="M51.7783242,16.6149909 C51.491949,16.6149909 51.3139526,16.5034244 51.2156466,16.4098361 C51.100255,16.2997996 51.0345902,16.1469217 51.0338251,15.9869035 C51.0330601,15.7613479 50.89102,14.9499089 50.6796175,14.2381785 C50.5656284,13.8574499 50.624918,13.4851366 50.8458834,13.1886885 C51.3038798,12.5738616 52.2340255,12.542623 52.416612,12.542623 C52.5202732,12.542623 52.612459,12.5505282 52.6873042,12.5621311 C53.1367577,12.6339162 53.662714,13.006867 53.9663024,13.4697086 C54.2299818,13.873133 54.3119672,14.3100911 54.2019308,14.7337887 C53.899235,15.9009654 52.4602186,16.6149909 51.7783242,16.6149909 Z M52.416612,13.7137523 C52.1239891,13.7137523 51.8359563,13.818306 51.7845719,13.888561 C51.9305647,14.351275 52.0569217,14.8952095 52.1317668,15.3353552 C52.4892896,15.1722769 52.9643716,14.8398725 53.0682878,14.4410383 C53.0768306,14.406612 53.1041166,14.3012933 52.9965027,14.1281421 C52.8450273,13.8847359 52.5767577,13.734918 52.5001275,13.7184699 C52.4789617,13.7152823 52.4486157,13.7137523 52.416612,13.7137523 Z" id="Shape" fill-rule="nonzero"></path>
            <path d="M54.3447359,17.0536066 C54.0583607,17.0536066 53.8803643,16.9420401 53.7821858,16.8484517 C53.6666667,16.7384153 53.6011293,16.5855373 53.6003643,16.4255191 C53.5994718,16.1999636 53.4575592,15.3885246 53.2461566,14.6767942 C53.1320401,14.2960656 53.1914572,13.9237523 53.4122951,13.6273042 C53.8704189,13.0124772 54.8005647,12.9812386 54.9831512,12.9812386 C55.0868124,12.9812386 55.1789982,12.9891439 55.2538434,13.0007468 C55.7032969,13.0725319 56.2292532,13.4454827 56.5328415,13.9083242 C56.7965209,14.3117486 56.8785064,14.7487067 56.7684699,15.1724044 C56.4657741,16.3395811 55.0267577,17.0536066 54.3447359,17.0536066 Z M54.9831512,14.1522404 C54.6905282,14.1522404 54.4024954,14.2567942 54.3509836,14.3270492 C54.4969763,14.7897632 54.6234608,15.3336976 54.698306,15.7738434 C55.0557013,15.610765 55.5309107,15.2783607 55.6346995,14.8795264 C55.6432423,14.8451002 55.6706557,14.7397814 55.5630419,14.5666302 C55.4115665,14.323224 55.1431694,14.1734062 55.0666667,14.1569581 C55.0455009,14.1530055 55.0157923,14.1522404 54.9831512,14.1522404 Z" id="Shape" fill-rule="nonzero"></path>
            <path d="M57.035337,17.598306 C56.7489617,17.598306 56.5709654,17.4867395 56.4726594,17.3930237 C56.3572678,17.2829872 56.2916029,17.1301093 56.2908379,16.9700911 C56.2900729,16.7445355 56.1480328,15.932969 55.9366302,15.2213661 C55.8226412,14.84051 55.8819308,14.4683242 56.1028962,14.1718761 C56.5608925,13.5569217 57.4910383,13.5258106 57.6736248,13.5258106 C57.777286,13.5258106 57.8694718,13.5335883 57.9443169,13.5453188 C58.3937705,13.6171038 58.9197268,13.9901821 59.2233151,14.4528962 C59.4869945,14.8563206 59.56898,15.2932787 59.4589435,15.7171038 C59.1562477,16.884153 57.7173588,17.598306 57.035337,17.598306 Z M57.6736248,14.6961749 C57.3810018,14.6961749 57.092969,14.8007286 57.0415847,14.8709836 C57.1875774,15.3336976 57.3139344,15.8776321 57.3887796,16.3177778 C57.7463024,16.1546995 58.2213843,15.8222951 58.3253005,15.4234608 C58.3338434,15.3890346 58.3611293,15.2837158 58.2535155,15.1105647 C58.1020401,14.8671585 57.833643,14.7173406 57.7571403,14.7008925 C57.7359745,14.6977049 57.7063934,14.6961749 57.6736248,14.6961749 Z" id="Shape" fill-rule="nonzero"></path>
            <path d="M36.0561202,19.6465392 C36.0367395,19.6465392 35.952459,19.6418215 35.9337158,19.6402914 C35.2664845,19.5739891 34.2481056,19.0292896 33.8525865,18.354408 C33.5046266,17.7590893 33.2711658,16.1999636 33.9508925,15.5414026 C34.1796357,15.3197996 34.4378324,15.2073406 34.7180874,15.2073406 C34.8211111,15.2073406 34.9092168,15.2221311 34.9810018,15.2378142 C35.1666485,15.0177413 35.491275,14.490255 35.5903461,14.2296357 C35.8681785,13.4962295 36.3776867,13.1926412 36.9269763,13.3845355 C37.0736066,13.4352823 37.4116211,13.5530965 38.1989617,15.0014208 C38.3176685,15.1004918 38.6491803,15.2620401 38.8545902,15.3620036 C39.5341894,15.693643 40.3800546,16.1063752 40.1654645,16.8953734 C39.9524044,17.6772313 39.1260474,17.7732423 38.6828415,17.8239891 C38.5720401,17.8372495 38.4674863,17.8465574 38.3807832,17.8692532 C37.9906193,17.9690893 37.3803825,18.2812204 37.2750638,18.4349909 C37.1572495,18.8296175 36.9045355,19.6465392 36.0561202,19.6465392 Z M36.049235,18.4760474 L36.0562477,19.0612933 L36.0562477,18.4760474 C36.0539526,18.4760474 36.0522951,18.4760474 36.049235,18.4760474 Z M34.775592,16.3902004 C34.6312568,16.5595264 34.6624954,17.4209472 34.8622951,17.7620219 C35.0354463,18.0577049 35.6715665,18.4190528 36.0172313,18.4713297 C36.0678506,18.3878142 36.1272678,18.1982149 36.1608015,18.0904736 C36.4448816,17.1798361 38.0718397,16.7396903 38.0890528,16.7351002 C38.22,16.7015665 38.3792532,16.6812933 38.5470492,16.6617851 C38.6079964,16.6547723 38.6906193,16.6454645 38.7718397,16.6328415 C38.6282696,16.5540437 38.4628962,16.4735883 38.3403643,16.4135337 C37.9134791,16.2051913 37.5108197,16.0085792 37.2751913,15.7284517 C37.2486703,15.6972131 37.2259745,15.6636794 37.2065938,15.6284882 C37.0279599,15.2945537 36.8179599,14.9488889 36.6571767,14.713133 C36.4785428,15.1353005 35.9736248,15.9858834 35.5920036,16.2637158 C35.3382696,16.4471949 34.9653188,16.434827 34.775592,16.3902004 Z" id="Shape" fill-rule="nonzero"></path>
            <path d="M27.7605464,28.8435701 C27.2650638,28.8435701 26.5923497,28.7810929 26.1905829,28.6055191 C25.7722404,28.4229326 24.4683789,27.523133 24.498725,26.7655009 C24.515173,26.3605464 24.8382696,26.0133515 25.2127505,25.6114572 C25.3523679,25.4616393 25.5108561,25.2906557 25.5779235,25.1885246 C25.6091621,25.130765 25.6667942,24.8997268 25.7089982,24.7319308 C25.8775592,24.0608743 26.1084699,23.141694 26.8607468,22.7475774 C27.0643716,22.6422587 27.3102004,22.6632969 27.4920219,22.8036794 C27.7097996,22.9730055 29.6348634,24.486867 30.1544444,25.5130237 C30.2957195,25.7908561 30.1934608,26.1310383 29.9227687,26.2855738 C29.1822222,26.7085064 29.1455009,26.8333333 29.0839162,27.0409107 C29.091694,27.0471585 29.1267577,27.202459 29.1502186,27.3045902 C29.2344991,27.6729508 29.3913297,28.3587978 28.8115665,28.6701639 C28.7312386,28.713133 28.4893625,28.8435701 27.7605464,28.8435701 Z M25.7293989,26.7912568 C25.9260109,27.0268852 26.3896175,27.4155191 26.6587796,27.5325683 C26.8163752,27.6012933 27.2720765,27.6730783 27.7605464,27.6730783 C27.8682878,27.6730783 27.9571585,27.6691257 28.0306011,27.6637705 C28.0228233,27.6287067 28.014918,27.5942805 28.0087978,27.5654645 C27.9440255,27.2830419 27.8777231,26.991184 27.9604736,26.7086339 C28.0892532,26.2747359 28.2570492,25.9830055 28.8025137,25.6044444 C28.3936066,25.1159745 27.7225501,24.5057377 27.1693078,24.0469763 C27.01949,24.3169035 26.9179964,24.7195628 26.8439162,25.0169035 C26.7588707,25.3570856 26.6910383,25.6248452 26.556776,25.83 C26.4350091,26.0157741 26.2571403,26.2069035 26.069071,26.4089982 C25.9688525,26.515847 25.8222222,26.6742077 25.7293989,26.7912568 Z" id="Shape" fill-rule="nonzero"></path>
            <path d="M23.9361749,38.2113297 C23.492969,38.2113297 22.2288889,37.9484153 21.8893443,37.5347905 C21.7777778,37.3989982 21.7177231,37.1758652 21.7520219,37.0041166 C21.7793078,36.8698543 21.8463752,36.723224 22.0306193,36.3353552 C22.1126047,36.1637341 22.1999454,35.9881603 22.2421494,35.8781239 C22.2116758,34.7466485 22.3412204,34.0934426 22.6595993,33.7181967 C22.8078871,33.542623 23.0185246,33.446612 23.252623,33.446612 C23.6388342,33.446612 23.9931694,33.7104189 24.3364117,33.9663206 C24.4144444,34.0240801 24.5221858,34.104408 24.5947359,34.1512022 C24.6828415,34.1339891 24.807031,34.1012204 24.9388707,34.0685792 C25.2666849,33.9873588 25.605337,33.9047359 25.8667213,33.9047359 C26.2131512,33.9047359 26.4012204,34.0576138 26.4972313,34.1856284 C26.7601457,34.536776 26.6087978,34.971439 26.433224,35.4754645 C26.3864299,35.6088342 26.3169399,35.8101639 26.3076321,35.8773588 C26.3216576,35.8991621 26.3754645,36.020929 26.4254463,36.1497086 C26.6080328,36.6156102 26.8156102,37.1423315 26.4254463,37.5020219 C26.0805464,37.8204007 24.4543534,38.1817486 24.0391985,38.2090346 C24.0267031,38.2082696 23.9494353,38.2113297 23.9361749,38.2113297 Z M23.0746266,36.8669217 C23.3501639,36.9543898 23.7121494,37.0409654 23.9360474,37.0409654 L23.9360474,37.6262113 L23.9642259,37.0402004 C24.2708743,37.0199271 24.9684517,36.8428233 25.3883242,36.707796 C25.3703461,36.6594718 25.3516029,36.6133151 25.3368124,36.5750638 C25.2377413,36.3222222 25.1518033,36.1038069 25.1409654,35.9017122 C25.129235,35.6988525 25.1900546,35.489745 25.2953734,35.1844991 C25.2688525,35.1907468 25.2438616,35.1977596 25.2197632,35.2032423 C24.8974317,35.2828051 24.6922769,35.3311293 24.5212933,35.3311293 C24.2123497,35.3311293 23.9586157,35.1422951 23.6379417,34.9034791 C23.590255,34.8684153 23.5271403,34.8207286 23.4623679,34.7746995 C23.4264117,34.9822769 23.3968306,35.320929 23.4131512,35.8616758 C23.4131512,35.8679235 23.4154463,35.9428962 23.4154463,35.9483789 C23.4154463,36.1419308 23.3366485,36.3167395 23.0877596,36.8387432 C23.0832969,36.8489435 23.0793443,36.8582514 23.0746266,36.8669217 Z" id="Shape" fill-rule="nonzero"></path>
            <path d="M23.3353734,42.5063206 C23.3196903,42.5063206 21.7395264,42.4407832 21.3517851,41.9718215 C21.2402186,41.8367942 21.1855191,41.6316393 21.2182878,41.4606557 C21.2440437,41.327286 21.308051,41.1945537 21.4843898,40.8496539 C21.5491621,40.7224044 21.617122,40.5920947 21.6584335,40.500929 C21.5881785,39.5465574 21.7061202,38.9558288 22.0236066,38.6101639 C22.1718944,38.4486157 22.3817668,38.359745 22.6135701,38.359745 C22.9577049,38.359745 23.3010747,38.5516393 23.632714,38.7374135 C23.7224772,38.7873953 23.8504918,38.8584153 23.9245719,38.891949 C24.0065574,38.8756284 24.1485974,38.8364845 24.3007104,38.7974681 C24.6448452,38.7101275 25.0014754,38.6188342 25.2596721,38.6188342 C25.4882878,38.6188342 25.6724044,38.6890893 25.8081967,38.8264117 C26.1476138,39.1713115 25.9744627,39.647286 25.8222222,40.0671585 C25.7902186,40.1552641 25.7557923,40.2419672 25.7355191,40.3120947 C25.761275,40.3675592 25.7979964,40.4323315 25.8330601,40.4993989 C26.026612,40.8669945 26.319235,41.4225319 25.8697814,41.804153 C25.5381421,42.0850455 23.9509654,42.4564663 23.5444809,42.4971403 C23.4827687,42.5023679 23.4117486,42.5063206 23.3353734,42.5063206 Z M22.594827,41.2475956 C22.8726594,41.3030601 23.2245719,41.3538069 23.4251366,41.3318761 C23.7208197,41.3022951 24.3537523,41.1399818 24.7782149,41.0096721 C24.6697086,40.8028597 24.5785428,40.6218033 24.556612,40.432969 C24.5378689,40.2706557 24.5738251,40.1028597 24.6331148,39.9210383 C24.6174317,39.9249909 24.6035337,39.928816 24.5893807,39.9318761 C24.2780146,40.012204 24.0791075,40.0606557 23.9198543,40.0684335 C23.9190893,40.0684335 23.9183242,40.0684335 23.9175592,40.0684335 C23.6147359,40.0684335 23.3580692,39.9248634 23.0614936,39.7593625 C22.9990164,39.7242987 22.9124408,39.675847 22.8281603,39.6321129 C22.8069945,39.7921311 22.7953916,40.0527505 22.8296903,40.4624226 C22.8296903,40.4703279 22.8350455,40.5366302 22.8350455,40.543643 C22.8444809,40.725592 22.7835337,40.8731148 22.594827,41.2475956 Z" id="Shape" fill-rule="nonzero"></path>
            <path d="M24.9856648,33.3319854 C24.8686157,33.3319854 24.765592,33.3272678 24.6837341,33.3171949 C24.2015118,33.2624954 23.1518944,32.7639526 22.8874499,32.3292896 C22.7930965,32.1747541 22.762623,31.9258652 22.8266302,31.7573042 C22.8734244,31.6355373 22.9631876,31.4959199 23.1895082,31.1556102 C23.296357,30.994827 23.4095811,30.8302186 23.4658106,30.7296175 C23.646102,29.6176503 23.8777778,29.0019308 24.2211475,28.6890346 C24.36,28.5626776 24.5372313,28.4939526 24.7221129,28.4939526 C25.1715665,28.4939526 25.4791075,28.867031 25.7770856,29.2267213 C25.8325501,29.2945537 25.8846995,29.3609836 25.9323862,29.4140255 C26.011184,29.4093078 26.1017122,29.400765 26.1960656,29.3928597 C26.3856648,29.3765392 26.5877596,29.3600911 26.7564481,29.3600911 C26.9265392,29.3600911 27.4454827,29.3600911 27.635082,29.8017668 C27.7934426,30.1724226 27.5968306,30.5438434 27.3471767,31.0152277 C27.2792168,31.1424772 27.1778506,31.3351366 27.1583424,31.400674 C27.1622951,31.4435155 27.188051,31.5770128 27.2090893,31.7158652 C27.2887796,32.2340437 27.3628597,32.7225137 26.9679781,33.0026412 C26.5478506,33.3024044 25.0005829,33.3319854 24.9856648,33.3319854 Z M24.1250091,31.8618579 C24.3606375,31.9968852 24.6720036,32.1381603 24.8148087,32.1544809 C25.0926412,32.1849545 25.7144809,32.1232423 26.0781239,32.0663752 C26.0695811,32.003898 26.0601457,31.9430783 26.0523679,31.893224 C26.0125865,31.6326047 25.9781603,31.4070492 26.0040437,31.2159199 C26.0297996,31.0255556 26.1186703,30.8359563 26.263133,30.5620765 C25.9767577,30.5863024 25.7536248,30.5916576 25.6280328,30.5690893 C25.3181967,30.5105647 25.1122769,30.2609107 24.8734608,29.9721129 C24.8624954,29.9588525 24.850765,29.944827 24.8390346,29.930674 C24.7727322,30.1374863 24.6939344,30.4511475 24.6197268,30.9216393 C24.6189617,30.927122 24.6064663,31.0004372 24.6057013,31.0059199 C24.5738251,31.1737158 24.4878871,31.3156284 24.1624954,31.8042259 C24.15,31.8243716 24.1375046,31.8431148 24.1250091,31.8618579 Z" id="Shape" fill-rule="nonzero"></path>
            <path d="M33.3258652,15.4865756 C33.3101821,15.4865756 33.2547177,15.4842805 33.2399271,15.4835155 C32.5844262,15.4335337 32.2660474,14.7515118 31.9290528,14.0289435 C31.8048634,13.7628415 31.6762113,13.4881967 31.5490893,13.2900546 C31.4421129,13.1246812 31.4265574,12.9162113 31.5061202,12.7360474 C31.5865756,12.5565209 31.751184,12.4278689 31.9453734,12.3958652 C33.096357,12.207031 34.1944262,12.4574499 35.154918,13.1278689 C35.3594353,13.2699089 35.4514936,13.5258106 35.3844262,13.7653916 C35.1011111,14.7796903 34.0718944,15.4865756 33.3258652,15.4865756 Z M32.9824954,13.5194353 C32.984918,13.524153 32.9864481,13.5287432 32.9887432,13.5334608 C33.1012022,13.7730419 33.279071,14.153898 33.3984153,14.3044809 C33.5600911,14.2615118 33.8533515,14.0999636 34.0601639,13.8330965 C33.7167942,13.6607104 33.3562113,13.5552641 32.9824954,13.5194353 Z" id="Shape" fill-rule="nonzero"></path>
            <path d="M27.6567577,18.8280874 C27.6427322,18.8280874 27.578725,18.8256648 27.5638069,18.8250273 C26.8474863,18.7735155 26.472878,18.0149909 26.0764663,17.2136248 C25.9243534,16.9054463 25.7666302,16.5863024 25.6082696,16.3544991 C25.495173,16.1882332 25.4756648,15.9760656 25.5552277,15.7918215 C25.6347905,15.6075774 25.8033515,15.4773953 26.0014936,15.4469217 C27.3608197,15.2362842 28.658561,15.5156466 29.7978142,16.2662659 C30.0131694,16.408306 30.1099454,16.673643 30.0373953,16.9202368 C29.6754098,18.1483607 28.4003643,18.8280874 27.6567577,18.8280874 Z M27.0558288,16.5517486 C27.0800546,16.5993078 27.1035155,16.6469945 27.1268488,16.6945537 C27.2821494,17.00898 27.5365209,17.5239709 27.6910565,17.6559381 C27.9306375,17.6348998 28.4183424,17.3922587 28.7147905,16.9871767 C28.1920219,16.7227322 27.6364845,16.5767395 27.0558288,16.5517486 Z" id="Shape" fill-rule="nonzero"></path>
            <path d="M23.8814754,26.1326958 C23.4702732,26.1326958 23.1244809,25.8978324 22.7259016,25.6262477 C22.2677778,25.3148816 21.6966849,24.9262477 20.7805647,24.6516029 C20.5815301,24.5923133 20.4286521,24.430765 20.3794353,24.2286703 C20.3302186,24.0258106 20.3934608,23.8127505 20.5432787,23.6691803 C21.4906375,22.7608379 22.5510929,22.6391985 23.4632605,22.6391985 C23.7333151,22.6391985 24.00949,22.6500364 24.2935701,22.6617668 C24.4691439,22.6687796 24.6477778,22.6765574 24.8297268,22.68051 C25.0740255,22.6867577 25.2892532,22.8443534 25.3681785,23.0761566 C25.7934062,24.3176685 25.4337158,25.4069399 24.4075592,25.9906557 C24.2428233,26.0851366 24.0657195,26.1326958 23.8814754,26.1326958 Z M22.2342441,23.968816 C22.7266667,24.2114572 23.0996175,24.4651913 23.3844627,24.6586157 C23.5545537,24.7741348 23.7621311,24.9154098 23.8627322,24.9535337 C24.2740619,24.7061749 24.4379053,24.3378142 24.3591075,23.8353188 C24.3216211,23.8337887 24.2842623,23.8322587 24.2458834,23.8306011 C23.4952641,23.800255 22.8062295,23.7744991 22.2342441,23.968816 Z" id="Shape" fill-rule="nonzero"></path>
            <path d="M22.0946266,31.2094171 C21.6834244,31.2094171 21.3376321,30.9745537 20.9389253,30.702969 C20.480929,30.3916029 19.9097086,30.002969 18.9935883,29.7283242 C18.7945537,29.6690346 18.6416758,29.5074863 18.592459,29.3053916 C18.5433698,29.1025319 18.6064845,28.8894718 18.7563024,28.7459016 C19.7036612,27.8375592 20.7641166,27.7157923 21.6762842,27.7157923 C21.9462113,27.7157923 22.2225137,27.7267577 22.5065938,27.7384882 C22.6821676,27.7455009 22.8608015,27.7532787 23.042623,27.7572313 C23.2869217,27.7634791 23.5022769,27.9210747 23.5810747,28.152878 C24.0063024,29.3943898 23.646612,30.4837887 22.6204554,31.067377 C22.455082,31.1618579 22.2779781,31.2094171 22.0946266,31.2094171 Z M20.4465027,29.0456648 C20.9387978,29.288306 21.3118761,29.5419126 21.5967213,29.7354645 C21.7668124,29.8509836 21.9743898,29.9921311 22.0749909,30.0303825 C22.4863206,29.7830237 22.6501639,29.414663 22.5713661,28.9120401 C22.5338798,28.91051 22.4965209,28.90898 22.4582696,28.9073224 C21.7075228,28.8771038 21.0192532,28.8513479 20.4465027,29.0456648 Z" id="Shape" fill-rule="nonzero"></path>
            <path d="M21.0364663,36.0225865 C20.8249362,36.0225865 20.6158288,35.967122 20.3747177,35.9032423 C20.006357,35.8057013 19.5398179,35.6792168 18.8827869,35.7089253 C18.6650091,35.7182332 18.4801275,35.616867 18.367031,35.4435883 C18.2539344,35.2704372 18.240674,35.0503643 18.3319672,34.8653552 C18.8681239,33.7783789 19.7990346,33.4982514 20.6987067,33.2259016 L21.0576321,33.1151002 C21.2870128,33.0425501 21.5390893,33.1166302 21.6904372,33.3039344 C22.3389253,34.1045355 22.3654463,34.99949 21.7629872,35.698725 C21.6365027,35.8470128 21.407122,36.0225865 21.0364663,36.0225865 Z M21.0364663,34.8520947 L21.0364663,35.4373406 L21.0364663,34.8520947 Z M20.1718579,34.649235 C20.3629872,34.6890164 20.5292532,34.7327505 20.6751184,34.7717668 C20.7656466,34.7958652 20.8709654,34.8232787 20.9482332,34.8395993 C21.0215483,34.7217851 21.0613297,34.5704372 20.9802368,34.3643898 C20.662623,34.4604007 20.3965209,34.5460838 20.1718579,34.649235 Z" id="Shape" fill-rule="nonzero"></path>
            <path d="M20.2521858,40.8216029 C20.0656466,40.8216029 19.88,40.7787614 19.6646448,40.7286521 C19.3275228,40.6506193 18.8975774,40.5523133 18.3083789,40.5897996 C18.1023315,40.6 17.9104372,40.5110018 17.792623,40.3455009 C17.6748087,40.1808925 17.6505829,39.9663024 17.7293807,39.7782332 C18.157796,38.7583242 19.0411475,38.4688889 19.8207104,38.2145173 L20.1351366,38.1091985 C20.3544444,38.0342259 20.5986157,38.0942805 20.7563388,38.2652641 C21.7364663,39.3280146 21.1730237,40.2310018 20.9771767,40.4821858 C20.8554098,40.6390164 20.6322769,40.8216029 20.2521858,40.8216029 Z M20.2521858,39.6511111 L20.2521858,40.236357 L20.2521858,39.6511111 C20.2529508,39.6511111 20.2529508,39.6511111 20.2521858,39.6511111 Z M19.6303461,39.5223315 C19.7396175,39.5441348 19.8386885,39.5675956 19.9292168,39.5887614 C19.9939891,39.6043169 20.0673042,39.6206375 20.1297814,39.6332605 C20.1523497,39.5653005 20.1563024,39.4748998 20.1024954,39.3554281 C19.9260291,39.4122951 19.7691985,39.466867 19.6303461,39.5223315 Z" id="Shape" fill-rule="nonzero"></path>
            <path d="M37.3624044,31.1540801 C37.2921494,31.1540801 37.2218944,31.1463024 37.1525319,31.1306193 C36.636776,31.0159927 36.5331148,30.5110747 36.3753916,29.7470674 C36.1693443,28.7451366 35.8587432,27.23051 34.7499636,26.4540073 C33.5279599,25.5987067 32.451949,25.4825501 31.6653734,25.397377 C31.2462659,25.3522404 30.9153916,25.3162842 30.6517122,25.1672313 C29.973643,24.7840801 28.4520036,23.2859016 28.0080328,21.56051 C27.8371767,20.8988889 28.1000911,19.6471767 28.8351548,18.6982878 C29.3938798,17.9764845 30.4511475,17.1165938 32.3137341,17.1165938 L32.4136976,17.1173588 C32.6586339,17.1213115 32.8756466,17.2781421 32.9559745,17.5098179 C33.4078506,18.8060291 33.559071,18.8824044 34.0086521,19.10949 C34.4222769,19.3185974 34.7304554,19.671275 35.0863206,20.0794171 C35.3624954,20.3962659 35.6770492,20.7559563 36.0990893,21.1156466 C36.3269399,21.3091985 36.6500364,21.3887614 37.0597086,21.4885974 C37.9703461,21.7117304 39.2181056,22.0176138 40.2566302,23.9138616 C41.6517851,26.4584699 41.6369945,29.2153734 40.6935883,29.8896175 C40.2543352,30.2032787 39.7899636,30.2087614 39.4154827,30.2142441 C39.1892896,30.2165392 38.9926776,30.2189617 38.8201639,30.2813115 C38.6584882,30.3398361 38.5063752,30.4834062 38.345592,30.6364117 C38.1021858,30.8669399 37.79949,31.1540801 37.3624044,31.1540801 Z M31.9968852,18.2981785 C31.0355009,18.3646084 30.2848816,18.7390893 29.7612204,19.4156284 C29.1829872,20.1624226 29.0839162,21.0441166 29.1424408,21.2689071 C29.5021311,22.6672495 30.7811293,23.8955009 31.2290528,24.1491075 C31.3000729,24.1818761 31.5730601,24.2108197 31.7923679,24.234153 C32.6008743,24.3214936 33.9538251,24.4674863 35.4216576,25.4959381 C36.9128233,26.5393078 37.2944444,28.4002368 37.5230601,29.511439 C37.5395082,29.5894718 37.5567213,29.6737523 37.5738069,29.7549727 C37.7859745,29.553643 38.0496539,29.3140619 38.4234973,29.1799271 C38.7808925,29.0511475 39.1242623,29.0471949 39.4004372,29.0433698 C39.7024954,29.0395446 39.8788342,29.0325319 40.0130965,28.937286 C40.2338069,28.6641712 40.4781056,26.753133 39.2303461,24.4761566 C38.4382878,23.0317851 37.6330965,22.834408 36.7800911,22.625173 C36.287796,22.5041712 35.7789253,22.3793443 35.3404372,22.0071585 C34.8510747,21.5912386 34.4913843,21.1792714 34.2034791,20.8491621 C33.9163388,20.5205829 33.6900182,20.2608561 33.4800182,20.1546448 C32.7639526,19.7924044 32.4425137,19.4756831 31.9968852,18.2981785 Z" id="Shape" fill-rule="nonzero"></path>
            <path d="M36.7765209,33.7229144 C36.608725,33.7229144 36.4425865,33.6503643 36.3285974,33.5138069 C34.0196175,30.7663388 29.4819854,29.1369581 29.4358288,29.12051 C29.1822222,29.0307468 29.0223315,28.7786703 29.0488525,28.5102732 C29.1043169,27.957796 29.7081785,26.0069763 31.0065574,26.0069763 C32.2535519,26.0779964 35.4559563,27.9172495 37.324153,32.9323862 C37.423224,33.1992532 37.3162477,33.4988889 37.0705464,33.642459 C36.9786157,33.6971585 36.876357,33.7229144 36.7765209,33.7229144 Z M30.3168852,28.2051548 C31.2095446,28.5625501 33.1589617,29.4169581 34.9621311,30.7146995 C33.2812386,27.9843169 31.3773406,27.2001639 31.0114026,27.1782332 C30.8108379,27.1782332 30.4846812,27.7238251 30.3168852,28.2051548 Z" id="Shape" fill-rule="nonzero"></path>
            <path d="M36.4456466,35.9811475 C36.4299636,35.9811475 36.415173,35.9803825 36.3996175,35.9796175 C36.11949,35.9578142 29.5092714,35.4224226 27.4031512,33.9405647 C27.2127869,33.8063024 26.9061384,33.4684153 26.9895264,32.7100182 C27.0777596,31.9117122 27.552204,30.9426776 28.2887978,30.6366667 C28.3855738,30.5968852 28.4948452,30.575847 28.6118944,30.575847 C29.8276503,30.575847 35.154918,33.8859927 36.7593078,34.9004189 C36.9863934,35.0439891 37.0862295,35.3241166 37.001949,35.5801457 C36.9207286,35.8211293 36.6960656,35.9811475 36.4456466,35.9811475 Z M28.1459927,33.0308197 C29.2236612,33.7323497 31.7940255,34.2293625 33.9134062,34.5242805 C31.5396539,33.0994171 29.2844809,31.8679781 28.6702914,31.7548816 C28.3621129,31.9687067 28.0991985,32.7397268 28.1459927,33.0308197 Z" id="Shape" fill-rule="nonzero"></path>
            <path d="M30.2731512,38.5249909 C28.4884699,38.5249909 27.2688889,38.205082 27.217377,38.1910565 C27.0643716,38.1496175 26.9349545,38.0490164 26.8576867,37.911694 C26.6017851,37.4529326 26.360674,36.4453916 26.657122,35.7392714 C26.8054098,35.3858288 27.0792896,35.1384699 27.4264845,35.043224 C27.8658652,34.9246448 28.4316029,35.1345173 29.3843169,35.505173 C30.6702004,36.0061384 32.4323133,36.6921129 34.4408925,36.6975956 C34.7272678,36.6983607 34.971439,36.9067031 35.0168306,37.1900182 C35.0628597,37.4724408 34.8967213,37.7472131 34.6251366,37.8377413 C33.263388,38.2940801 31.7987432,38.5249909 30.2731512,38.5249909 Z M27.7878324,37.1197632 C28.2147177,37.2055738 29.1175774,37.3546266 30.2731512,37.3546266 C30.5330055,37.3546266 30.7913297,37.3468488 31.0464663,37.3328233 C30.2426776,37.0956648 29.5357923,36.8208925 28.9598543,36.5962295 C28.4581239,36.4011475 27.8899636,36.1795446 27.7027869,36.1795446 C27.64898,36.274663 27.6738434,36.7599454 27.7878324,37.1197632 Z" id="Shape" fill-rule="nonzero"></path>
            <path d="M27.1362842,41.8258288 C26.7929144,41.8258288 26.3792896,41.5940255 26.2482149,40.9440073 C26.1287432,40.3509836 26.2544627,39.3918944 26.9091985,39.1157195 C27.2759016,38.9604189 27.8393443,39.0767031 28.5806557,39.2490893 C29.2393443,39.4020947 29.9937887,39.5854463 30.604153,39.5346995 C30.8492168,39.522969 31.0824226,39.6540437 31.1831512,39.8795993 C31.2837523,40.1051548 31.2323679,40.3695993 31.0534791,40.5405829 C30.3098725,41.2530783 28.3028233,41.8258288 27.1362842,41.8258288 Z M27.4156466,40.2121311 C27.3812204,40.3261202 27.3679599,40.5094718 27.382878,40.6467942 C27.7457559,40.6226958 28.1507104,40.5469581 28.5416393,40.4422769 C28.4636066,40.4251913 28.3878689,40.4072131 28.3137887,40.39 C27.9743716,40.3104372 27.6247541,40.2284517 27.4156466,40.2121311 Z" id="Shape" fill-rule="nonzero"></path>
            <path d="M40.1334608,36.5991621 C40.1139526,36.5991621 38.1459199,36.5726412 37.8089253,35.6167395 C37.6341166,35.1220219 37.8923133,34.4532605 38.0977231,34.0420583 C38.0727322,34.0006193 38.0422587,33.9475774 38.0172678,33.9055009 C37.8049727,33.5333151 37.4484699,32.9105829 37.8206557,32.2184882 C38.1498725,31.6074863 38.5307286,31.2002368 39.3227869,31.2002368 C39.4546266,31.2002368 39.6036794,31.2110747 39.7737705,31.2322404 C40.4222587,31.3133333 40.8029872,31.6059563 41.019235,31.7847177 C41.7122222,31.6161566 44.4729508,30.8202732 44.9848816,30.5689617 C45.0199454,30.5182149 45.0581967,30.4479599 45.0981056,30.3746448 C45.2307104,30.128051 45.4134244,29.7901639 45.8034608,29.5708561 C46.0422769,29.4374863 46.3894718,29.3602186 46.7577049,29.3602186 C47.559071,29.3602186 48.1709654,29.6988707 48.3925683,30.2669035 C48.6071585,30.8193807 48.5235155,31.3851184 48.4619308,31.7978506 C48.4494353,31.8798361 48.4338798,31.9851548 48.4283971,32.0514572 C48.4751913,32.1130419 48.5657195,32.2114754 48.6297268,32.2800729 C48.9020765,32.5749909 49.2407286,32.9425865 49.2117851,33.4092532 C49.1625683,34.1942987 48.0958652,34.9799818 47.1954281,34.7998179 C46.7889435,34.7185974 46.5165938,34.5329508 46.3347723,34.4096539 C46.2800729,34.3721676 46.2051002,34.3215483 46.1779417,34.3113479 C45.583388,34.4259745 42.6189071,35.0822404 42.0609472,35.3382696 C41.7831148,35.6941348 41.0675592,36.5165392 40.3458834,36.5883242 C40.2839162,36.595337 40.2130237,36.5991621 40.1334608,36.5991621 Z M38.9245902,35.1782514 C39.143898,35.2960656 39.7081056,35.4286703 40.1333333,35.4286703 C40.1691621,35.4286703 40.2011658,35.4279053 40.2293443,35.4247177 C40.3860474,35.3989617 40.8488889,35.0065027 41.1852459,34.5585792 C41.6269217,33.9693807 45.9701093,33.1712022 46.0138434,33.1625319 C46.4555191,33.082204 46.7769581,33.2952641 46.9939709,33.4426594 C47.1384335,33.5402004 47.2515301,33.6182332 47.4255738,33.6525319 L47.4341166,33.6525319 C47.6868306,33.6525319 47.9233515,33.4754281 48.0138798,33.3583789 C47.9538251,33.2740984 47.8421311,33.153224 47.7697086,33.0742987 C47.5472131,32.8331876 47.3178324,32.5850638 47.2686157,32.2674499 C47.2382696,32.0691803 47.2686157,31.8632605 47.3044444,31.6252095 C47.349071,31.3271038 47.404408,30.954918 47.3013843,30.6920036 C47.2765209,30.6264663 47.067286,30.5304554 46.7583424,30.5304554 C46.5553552,30.5304554 46.4149727,30.5710018 46.3783789,30.59051 C46.2878506,30.6411293 46.2246084,30.7528233 46.1285974,30.9306922 C46.0482696,31.07898 45.9577413,31.247541 45.8179964,31.401184 C45.3490346,31.9169399 40.9330419,32.982878 40.8979781,32.982878 C40.627286,32.982878 40.4424044,32.8275774 40.3064845,32.7137158 C40.151949,32.5834062 39.9763752,32.436776 39.6307104,32.3930419 C39.5153188,32.3782514 39.4145902,32.3703461 39.3240619,32.3703461 C39.1227322,32.3703461 39.0696903,32.3703461 38.8528051,32.7730055 C38.7981056,32.8760291 38.8613479,33.0195993 39.0346266,33.3238251 C39.171949,33.5626412 39.312459,33.809235 39.312459,34.104918 C39.312459,34.2056466 39.2859381,34.3054827 39.2359563,34.3935883 C39.0862659,34.6585428 38.9535337,35.0011475 38.9245902,35.1782514 Z" id="Shape" fill-rule="nonzero"></path>
            <path d="M29.9485246,53.886612 C29.9313115,53.886612 29.861949,53.8835519 29.8447359,53.8818944 C29.5818215,53.8584335 27.6878689,53.4457013 27.537286,52.4492532 C27.4592532,51.9295446 27.8384517,51.3224954 28.1178142,50.9565574 C28.1014936,50.9112933 28.0810929,50.8534062 28.0655373,50.8075046 C27.9259199,50.4016576 27.6933515,49.7228233 28.1903643,49.1142441 C28.4860474,48.7498361 28.8567031,48.3604372 29.4958834,48.3604372 C29.7205464,48.3604372 29.9663752,48.4072313 30.2932969,48.5125501 C30.8995811,48.7099271 31.2179599,49.0557195 31.3990164,49.2748998 C32.5522951,49.1922769 37.6344991,48.6655556 38.4500182,48.4602732 C38.4922222,48.4165392 38.5397814,48.3587796 38.5897632,48.2979599 C38.7677596,48.0810747 39.0096357,47.7837341 39.4340984,47.6410565 C39.5807286,47.5918397 39.7508197,47.5676138 39.9413115,47.5676138 C40.7746812,47.5676138 41.6962842,47.9952641 41.845337,48.8130783 C41.9530783,49.3952641 41.7633515,49.9352459 41.6252641,50.3293625 C41.5979781,50.4073953 41.5629144,50.5065938 41.5440437,50.5706011 C41.5784699,50.6408561 41.6485974,50.7531876 41.6978142,50.8327505 C41.9101093,51.1745902 42.1745537,51.5990528 42.0582696,52.053224 C41.8640801,52.8047359 40.6481967,53.3805464 39.816357,53.0387067 C39.4324408,52.8825137 39.2085428,52.6578506 39.0446995,52.4940073 C38.9979053,52.4464481 38.9330055,52.3816758 38.9081421,52.3676503 C38.2838798,52.3786157 32.6115847,52.7803825 31.7547541,52.9871949 C31.458561,53.2428415 30.6430419,53.886612 29.9485246,53.886612 Z M28.714918,52.2291803 C28.9420036,52.4140619 29.6130601,52.6864117 29.9486521,52.7159927 C30.1367213,52.7159927 30.6727505,52.3906011 31.0513115,52.0464663 C31.5998361,51.5479235 38.8763934,51.2077413 38.9466485,51.2077413 C39.422623,51.2155191 39.6942077,51.4869763 39.8737341,51.6672678 C39.9962659,51.7905647 40.0938069,51.8879781 40.2585428,51.955173 C40.4411293,52.0301457 40.7742987,51.8818579 40.8921129,51.7765392 C40.8483789,51.6829508 40.7619308,51.5424408 40.7048087,51.4511475 C40.5322951,51.1733151 40.3536612,50.8861749 40.3638616,50.5662659 C40.3724044,50.3641712 40.4410018,50.1683242 40.5199271,49.9412386 C40.6205282,49.6565209 40.7447177,49.3014208 40.6938434,49.0244809 C40.6744627,48.915337 40.3146448,48.7381056 39.940929,48.7381056 C39.8621311,48.7381056 39.816102,48.7474135 39.8051366,48.7513661 C39.7068306,48.7842623 39.6242077,48.8816758 39.4961931,49.0386339 C39.3892168,49.168816 39.2691075,49.3155738 39.1037341,49.4411658 C38.5761202,49.8369399 31.262969,50.4564845 31.1974317,50.4564845 C31.1607104,50.4564845 31.1029508,50.4517668 31.067122,50.4447541 C30.80102,50.3946448 30.6481421,50.2059381 30.5365756,50.0693807 C30.408561,49.9126776 30.2642259,49.7346812 29.931694,49.6269399 C29.7326594,49.5629326 29.5899818,49.531694 29.4955009,49.531694 C29.4314936,49.531694 29.3597086,49.531694 29.0975592,49.853898 C29.0233515,49.9444262 29.0585428,50.0981967 29.1724044,50.428306 C29.2614026,50.6881603 29.3534608,50.9573224 29.2979964,51.2476503 C29.2792532,51.3467213 29.2339891,51.4396721 29.1684517,51.5168124 C28.9723497,51.7492532 28.7765027,52.0598543 28.714918,52.2291803 Z" id="Shape" fill-rule="nonzero"></path>
            <path d="M21.0527869,53.3746812 C20.2904372,53.3746812 19.7496903,53.0008379 19.5288525,52.3227687 C19.4407468,52.051184 19.5023315,51.7602186 19.9252641,50.0691257 C20.2421129,48.8042805 20.7718944,46.6856648 20.6798361,46.1635337 C20.5760474,45.5753552 20.5425137,44.4672131 20.5409836,44.4210565 C20.5362659,44.2540255 20.6019308,44.0941348 20.7228051,43.9793807 C21.3447723,43.3886521 22.6275956,42.9766849 23.3899454,42.9766849 C23.7910747,42.9766849 24.0899454,43.0874863 24.2795446,43.3043716 C24.5066302,43.5649909 25.1660838,43.947377 25.6115847,44.0215847 C25.8331876,44.058306 26.4395993,44.1441166 27.2432605,44.1441166 C27.7871949,44.1441166 28.3145537,44.1035701 28.8101639,44.0254098 C29.8128597,43.8670492 30.8882332,43.6001821 31.8362295,43.3653188 C32.9512568,43.0890164 33.6021676,42.9323133 34.0040619,42.9323133 C34.0999454,42.9323133 34.3918033,42.9323133 34.6071585,43.1461384 C34.9005464,43.4363388 35.1853916,43.9755556 35.1035337,44.6130783 C35.0113479,45.3271038 34.5088525,45.9521311 33.6099454,46.4710747 C32.9395264,46.858051 31.9883424,47.2997268 30.9825865,47.7671585 C29.5007286,48.4553005 27.8207286,49.2357559 27.2479781,49.7719126 L27.0551913,49.9520765 C25.9526594,50.987541 24.7024772,52.1612204 23.7535883,52.5521494 L23.4327869,52.6879417 C22.7179964,52.9938251 21.8276321,53.3746812 21.0527869,53.3746812 Z M20.6705282,52.0363934 C20.7180874,52.1378871 20.8016029,52.2040619 21.0521494,52.2040619 C21.5881785,52.2040619 22.3887796,51.8622222 22.9740255,51.6118033 L23.308725,51.4705282 C24.0585792,51.1615847 25.3282696,49.9692896 26.2552277,49.0999636 L26.4487796,48.9189071 C27.1588525,48.2524408 28.8530055,47.4666302 30.4901639,46.7059381 C31.4725865,46.2494718 32.3996721,45.8186339 33.0254645,45.4574135 C33.5755191,45.1397996 33.9018033,44.787122 33.9438798,44.4632605 C33.9624954,44.3172678 33.9236066,44.1971585 33.8798725,44.112878 C33.5139344,44.155847 32.8061566,44.3306557 32.1187796,44.5015118 C31.1956466,44.7301275 30.0461931,45.0149727 28.9935155,45.1818761 C28.4370856,45.2693443 27.8487796,45.3146084 27.2440255,45.3146084 C26.3536612,45.3146084 25.6724044,45.2178324 25.4212204,45.1765209 C24.7712022,45.0680146 23.9230419,44.617796 23.4696357,44.1511293 C23.45102,44.1488342 23.4251366,44.1473042 23.3916029,44.1473042 C22.9577049,44.1473042 22.175847,44.3844627 21.7233333,44.6795082 C21.7413115,45.0657195 21.7771403,45.6416576 21.8341348,45.9608015 C21.9597268,46.6740619 21.5937887,48.2316576 21.0623497,50.3548634 C20.901439,50.9907286 20.706357,51.7702914 20.6705282,52.0363934 Z" id="Shape" fill-rule="nonzero"></path>
            <path d="M39.2470492,62.5904554 C39.059745,62.5904554 37.4100911,62.5622769 37.2602732,61.5963024 C37.2408925,61.4659927 37.2408925,61.3395082 37.2502004,61.220929 C36.9763206,61.3106922 36.6695446,61.3940801 36.3700364,61.3940801 C35.727796,61.3940801 35.4437158,61.0171767 35.3321494,60.7925137 C34.8482696,59.8264117 36.0032058,59.1943716 36.846776,58.7331876 C37.2275046,58.5240801 37.6208561,58.30949 37.8337887,58.115173 C38.5875956,57.4276685 41.8619126,53.4051548 42.1077413,52.8659381 C42.1616758,52.7269581 42.1810565,52.5530419 42.2037523,52.3500546 C42.252969,51.9123315 42.3145537,51.366867 42.7641348,50.7551002 C43.204153,50.1541712 44.3083424,49.8639709 45.2134973,50.1730419 C45.6653734,50.3266849 46.0250638,50.7208015 46.1998725,51.2545355 C46.437796,51.980929 46.2989435,52.8150638 45.8292168,53.4845902 C45.6144991,53.7928962 45.1627505,54.3242077 44.59,54.9976867 C43.3906922,56.4092896 41.383643,58.7713115 41.0285428,59.8372495 C40.8108925,60.4903279 40.7148816,60.9562295 40.6453916,61.2964117 C40.5338251,61.8371585 40.4292714,62.3490893 39.8220947,62.5222404 C39.6667942,62.5677596 39.4732423,62.5904554 39.2470492,62.5904554 Z M38.4197996,61.2848087 C38.584408,61.3503461 38.9113297,61.4198361 39.2469217,61.4198361 C39.3194718,61.4198361 39.3771038,61.4160109 39.4200729,61.4112933 C39.4435337,61.3247177 39.4715847,61.1873953 39.4981056,61.0618033 C39.5697632,60.7138434 39.6775046,60.187122 39.9170856,59.4676138 C40.3447359,58.1861931 42.2822951,55.9060291 43.6977231,54.2401821 C44.2282696,53.6159199 44.6871585,53.0767031 44.87051,52.8144262 C45.1763934,52.3774681 45.1818761,51.9108015 45.0866302,51.6181785 C45.0180328,51.4089435 44.9086339,51.3069399 44.8369763,51.2810565 C44.6987614,51.2342623 44.5568488,51.2099089 44.4140437,51.2099089 C44.0191621,51.2099089 43.7538251,51.3871403 43.707796,51.4479599 C43.4433515,51.8084153 43.4081603,52.1199089 43.3676138,52.4811293 C43.3395628,52.7284882 43.3075592,53.0109107 43.1951002,53.297286 C42.8954645,54.0698361 39.2911658,58.3701821 38.6239344,58.9788889 C38.3078506,59.2684517 37.8513843,59.5174681 37.4089435,59.7592168 C37.2115665,59.8677231 36.9384517,60.016776 36.722204,60.1556284 C36.8604189,60.1189071 36.9960838,60.0713479 37.1100729,60.0308015 C37.3706922,59.9395082 37.5775046,59.8669581 37.7765392,59.8669581 C37.8787978,59.8669581 38.0409836,59.9067395 38.1293443,59.9567213 C38.625592,60.2376138 38.5124954,60.7979964 38.458561,61.0679235 C38.4432605,61.1397086 38.4284699,61.2169763 38.4197996,61.2848087 Z" id="Shape" fill-rule="nonzero"></path>
            <path d="M21.0084153,58.2026412 C20.4839891,58.2026412 18.9443716,57.8795446 18.4763024,57.3708015 C18.324827,57.2061931 18.2507468,57.0033333 18.2671949,56.7997086 C18.3069763,56.3182514 19.6460291,53.7408743 20.4099089,53.4685246 C21.2449362,53.171184 22.1126047,53.6424408 22.5152641,54.6077778 C22.8571038,55.4272495 22.0190164,57.8228051 21.42051,58.1209107 C21.3065209,58.1767577 21.1753188,58.2026412 21.0084153,58.2026412 Z M21.0084153,57.0343169 L21.0084153,57.6172678 L21.0247359,57.0311293 C21.0239709,57.0312568 21.0184882,57.0321494 21.0084153,57.0343169 Z M19.5248998,56.6738616 C19.8635519,56.8181967 20.4925319,56.9844627 20.8670128,57.0234791 C21.1229144,56.5615301 21.5202186,55.3620947 21.4312204,55.0484335 C21.2798725,54.6863206 21.0504918,54.4834608 20.8030055,54.5701639 C20.5597268,54.7558106 19.8012022,56.0567395 19.5248998,56.6738616 Z" id="Shape" fill-rule="nonzero"></path>
            <path d="M16.0010565,60.6934426 C15.5625683,60.6934426 15.2582149,60.6201275 15.0427322,60.4617668 C14.2796175,59.9013843 14.2842077,58.5062295 14.5246812,58.1339162 C14.8445902,57.6369035 17.1933515,57.26 17.4696539,57.26 C17.4859745,57.26 17.5648998,57.2630601 17.5812204,57.2645902 C18.5893989,57.3481056 19.0786339,58.6614026 19.1066849,59.3129508 C19.1129326,59.4556284 19.0786339,59.6686885 18.8803643,59.8755009 C18.3653734,60.4116576 16.7321676,60.6934426 16.0010565,60.6934426 Z M15.7310018,59.5080328 C15.7536976,59.5080328 15.8402732,59.5228233 16.0010565,59.5228233 C16.6424044,59.5228233 17.5274135,59.3089982 17.9003643,59.1396721 C17.8153188,58.8182332 17.6046812,58.4600729 17.4821494,58.4304918 C17.0997632,58.4304918 16.030765,58.6973588 15.5484153,58.8541894 C15.553898,59.092878 15.6131876,59.4129144 15.7247541,59.5103279 C15.7255191,59.5089253 15.7270492,59.5080328 15.7310018,59.5080328 Z" id="Shape" fill-rule="nonzero"></path>
            <path d="M12.4988889,61.1147177 C12.0181967,61.1147177 10.8579053,61.053133 10.4645537,60.4826776 C9.97442623,59.7726047 10.2812022,58.4826412 10.5597996,58.1775228 C10.6830965,58.0424954 10.836102,57.8740619 12.2210565,57.8740619 C13.0591439,57.8740619 13.3080328,57.9699454 13.3892532,58.001184 C14.3038434,58.3523315 14.3186339,59.8311293 14.2210929,60.3296721 C14.1173042,60.858051 13.5538616,61.1147177 12.4988889,61.1147177 Z M11.4274681,59.07898 C11.3704736,59.3395993 11.3494353,59.7047723 11.4274681,59.8178689 C11.4689071,59.8273042 11.8894171,59.9434608 12.4988889,59.9434608 C12.7790164,59.9434608 12.9740984,59.9185974 13.0935701,59.8934791 C13.102878,59.5626047 13.02102,59.163898 12.9281967,59.0703097 C12.9320219,59.0828051 12.7034062,59.0445537 12.221184,59.0445537 C11.8878871,59.0445537 11.6100546,59.0617668 11.4274681,59.07898 Z" id="Shape" fill-rule="nonzero"></path>
            <path d="M8.41695811,60.7987614 C7.72333333,60.7987614 5.91060109,60.2642623 5.64131148,59.4222222 C5.37903461,58.5998179 6.04779599,57.4549545 6.4036612,57.2443169 C6.49418944,57.19051 6.65331512,57.1537887 6.75876138,57.1537887 C7.16690346,57.1537887 8.72590164,57.5602732 9.16222222,57.8998179 C9.93477231,58.5015118 9.51961749,59.92102 9.28003643,60.3695811 C9.1754827,60.5661931 8.94138434,60.7987614 8.41695811,60.7987614 Z M6.97258652,58.3578142 C6.84151184,58.5911475 6.7142623,58.9360474 6.7564663,59.0678871 C6.87746812,59.1974317 7.78415301,59.583643 8.32808743,59.6249545 C8.43340619,59.3112933 8.47165756,58.9054463 8.40930783,58.7892896 C8.25859745,58.6965938 7.4173224,58.4483424 6.97258652,58.3578142 Z" id="Shape" fill-rule="nonzero"></path>
            <path d="M4.79863388,57.8428233 C4.65582878,57.8428233 4.2757377,57.8428233 3.49936248,56.9782149 C3.10766849,56.5412568 2.46071038,55.7211475 2.52471767,55.1304189 C2.61601093,54.292459 3.64675774,53.7375592 4.04087432,53.7375592 C4.63466302,53.7851184 5.92615665,55.4440801 6.04091075,55.6946266 C6.42010929,56.5249362 5.64054645,57.4543169 5.15908925,57.7445173 C5.06779599,57.7998543 4.90471767,57.8428233 4.79863388,57.8428233 Z M3.95200364,54.9953916 C3.82551913,55.0796721 3.70311475,55.1920036 3.68908925,55.258306 C3.7436612,55.4728962 4.36409836,56.253224 4.7432969,56.5723679 C4.86888889,56.4280328 4.97739526,56.2455738 4.97114754,56.1604007 C4.88214936,55.9878871 4.29142077,55.3262659 3.95200364,54.9953916 Z" id="Shape" fill-rule="nonzero"></path>
            <path d="M2.49347905,54.0887067 C2.29291439,54.0887067 2.10331512,53.9685974 1.85901639,53.6869399 C1.52189435,53.299071 0.745519126,52.1473224 0.822786885,51.6017304 C0.914845173,50.9533698 1.66635701,50.6778324 1.94954463,50.6778324 C1.98856102,50.6778324 2.05486339,50.6872678 2.0915847,50.6981056 C2.44196721,50.8003643 3.36038251,52.3265938 3.44236794,52.5576321 C3.67812386,53.2271585 3.0771949,53.8756466 2.67377049,54.0504554 C2.62621129,54.0722587 2.54664845,54.0887067 2.49347905,54.0887067 Z M1.84269581,51.4956466 C1.73814208,51.5432058 1.60783242,51.6291439 1.596102,51.7117668 C1.6101275,51.9560656 2.18134791,52.9080146 2.49972678,53.2388889 C2.62531876,53.1210747 2.74861566,52.933133 2.70806922,52.8182514 C2.63003643,52.5989435 2.09477231,51.8123679 1.84269581,51.4956466 Z" id="Shape" fill-rule="nonzero"></path>
            <path d="M1.6828051,50.3321676 C1.39948998,50.3321676 0.699617486,50.303224 0.320291439,50.0412022 C-0.133879781,49.7251184 0.105701275,48.5639344 0.189981785,48.2159745 C0.352295082,47.544918 0.584863388,47.2117486 0.923387978,47.1657195 C1.12790528,47.1259381 1.32209472,47.2774135 1.35958106,47.4818033 C1.41504554,47.782969 1.64442623,48.8318215 2.28424408,49.700255 C2.36852459,49.8148816 2.38420765,49.967122 2.3240255,50.0959016 C2.26384335,50.2255738 2.13825137,50.3112568 1.99621129,50.3214572 C1.89344262,50.3283424 1.78812386,50.3321676 1.6828051,50.3321676 Z M0.839234973,49.4372131 C0.925045537,49.4699818 1.06555556,49.5050455 1.25515483,49.5277413 C1.10304189,49.2436612 0.982040073,48.9612386 0.887686703,48.7006193 C0.840765027,48.9908197 0.818196721,49.2811475 0.839234973,49.4372131 Z" id="Shape" fill-rule="nonzero"></path>
            <path d="M38.5383789,67.6414208 C38.3237887,67.6414208 38.1404372,67.5711658 38.0085974,67.439326 C37.8072678,67.2379964 37.1861931,65.7646812 36.1638616,63.0586521 C36.1170674,62.9361202 36.1358106,62.7971403 36.2130783,62.6910565 C36.5159016,62.2751366 37.1214208,62.243133 37.5803097,62.6185064 C37.9243169,62.8993989 39.6254827,66.3960838 39.6254827,66.822204 C39.6261202,67.3144991 38.9715118,67.6414208 38.5383789,67.6414208 Z M37.0487432,63.1904918 C37.6714754,64.82051 38.344827,66.4936248 38.5499818,66.8603279 C38.6459927,66.8565027 38.7615118,66.8048634 38.8262842,66.7604918 C38.63898,66.2307104 37.3413661,63.5181785 37.0642987,63.2022222 C37.0604736,63.1990346 37.0542259,63.1943169 37.0487432,63.1904918 Z" id="Shape" fill-rule="nonzero"></path>
            <path d="M40.2598179,69.9924772 C40.1224954,69.9924772 39.9944809,69.9199271 39.9234608,69.8004554 C39.801694,69.5937705 39.5832787,69.3479417 39.3912568,69.1310565 C39.0253188,68.7174317 38.7840801,68.4434244 38.8544627,68.1283607 C38.9433333,67.7287614 39.4505464,67.5758834 39.8603461,67.5173588 C40.041275,67.494663 40.2168488,67.5952641 40.2800911,67.7662477 C40.2855738,67.7810383 40.769326,69.3081603 40.6297086,69.7263752 C40.5804918,69.8716029 40.4524772,69.9744991 40.3003643,69.9909472 C40.2879964,69.9918397 40.2738434,69.9924772 40.2598179,69.9924772 Z" id="Path"></path>
            <path d="M44.6694353,68.1611293 C44.5977778,68.1611293 44.5258652,68.1416211 44.4627505,68.1018397 C44.2582332,67.9745902 43.9515847,67.856776 43.680765,67.7522222 C43.1657741,67.5539526 42.825592,67.422878 42.7420765,67.1108743 C42.6367577,66.7151002 43.0174863,66.346102 43.3547359,66.1049909 C43.5028962,65.9987796 43.7058834,66.01051 43.8423133,66.1330419 C43.8532787,66.1432423 44.9847541,67.2747177 45.0550091,67.7101457 C45.0784699,67.8607286 45.0120401,68.0128415 44.884918,68.097122 C44.8193807,68.1391985 44.744408,68.1611293 44.6694353,68.1611293 Z" id="Path"></path>
            <path d="M46.9448816,66.3374317 C46.873224,66.3374317 46.8013115,66.3179235 46.7381967,66.2781421 C46.5336794,66.1508925 46.227031,66.0330783 45.9562113,65.9285246 C45.4412204,65.7303825 45.1010383,65.5993078 45.0175228,65.2871767 C44.912204,64.8915301 45.2921676,64.5224044 45.6277596,64.2812933 C45.7768124,64.1775046 45.9781421,64.1869399 46.1146995,64.3078142 C46.1264299,64.3178871 47.2609654,65.4526776 47.3303279,65.8856831 C47.3537887,66.0362659 47.2874863,66.1883789 47.1602368,66.2726594 C47.0946995,66.3156284 47.0198543,66.3374317 46.9448816,66.3374317 Z" id="Path"></path>
            <path d="M41.9795993,66.8548452 C41.8937887,66.8548452 41.8070856,66.8423497 41.7244627,66.8190164 C41.6377596,66.7940255 41.5622769,66.738561 41.5106375,66.6644809 C41.0361931,65.9699636 38.9168124,62.9618761 38.9168124,62.9618761 C38.8503825,62.8673953 38.8293443,62.7495811 38.8590528,62.6380146 C38.8879964,62.5264481 38.9651366,62.4334973 39.0689253,62.385173 C39.1212022,62.3603097 39.2031876,62.3423315 39.2608197,62.3423315 C39.8984699,62.3423315 42.7904007,64.8759745 43.0915665,65.196776 C43.2124408,65.3247905 43.3194171,65.4549727 43.3076867,65.6392168 C43.2844809,66.0019672 42.7030601,66.8548452 41.9795993,66.8548452 Z M40.7382149,64.1956102 C41.2367577,64.904153 41.7634791,65.6579599 42.0452641,66.0644444 C42.1967395,66.0167577 42.3769035,65.8225683 42.4729144,65.674153 C42.1850091,65.3801275 41.4467577,64.7549727 40.7382149,64.1956102 Z" id="Shape" fill-rule="nonzero"></path>
            <path d="M44.4985792,64.7862113 C44.2714936,64.7862113 43.9531148,64.6129326 41.9991075,63.3120036 C41.5207104,62.9937523 41.0267577,62.664408 40.894153,62.594918 C40.7178142,62.5013297 40.641439,62.2905647 40.7147541,62.1056831 C40.7888342,61.9208015 40.9871038,61.8193078 41.1821858,61.8740073 C42.6273224,62.2734791 45.0899454,63.0289435 45.3568124,63.5953188 C45.4645537,63.8231694 45.458306,64.0635155 45.3395993,64.2719854 C45.1429872,64.6207104 44.687286,64.7689982 44.5437158,64.7830237 L44.4985792,64.7862113 Z M43.7409472,63.5236612 C44.0756466,63.7382514 44.3652095,63.9161202 44.5118397,63.9886703 C44.547796,63.9722222 44.5898725,63.9488889 44.6203461,63.9261931 C44.477541,63.825592 44.1575046,63.6835519 43.7409472,63.5236612 Z" id="Shape" fill-rule="nonzero"></path>
            <path d="M51.1743352,38.0865027 C50.7809836,38.0865027 50.4580146,37.9616758 50.2644627,37.7338251 C49.8992896,37.3038798 50.0404372,36.8004918 50.1239526,36.499326 C50.1667942,36.3464481 50.2105282,36.1879599 50.1870674,36.0989617 C50.0107286,35.4630965 49.7525319,34.6343169 49.5027505,33.8344809 C48.944918,32.0475046 48.7170674,31.2859199 48.7123497,30.9433151 C48.7044444,30.4298543 48.9034791,30.1184882 49.071275,29.9483971 C49.3966667,29.6198179 49.895337,29.512969 50.441439,29.6643169 C51.113388,29.8500911 51.155592,30.463388 51.1758652,30.7584335 C51.1842805,30.8887432 51.1929508,31.0128051 51.2296721,31.0838251 C51.6791257,31.9469035 52.2495811,33.2593078 52.7075774,34.313643 L52.9729144,34.9208197 C53.4528415,35.1556831 54.2892714,35.685592 54.2846812,36.5227869 C54.2807286,37.2352823 53.1227322,37.7955373 52.3829508,37.5864299 C52.106776,37.8999636 51.6565574,38.0865027 51.1743352,38.0865027 Z M49.9646995,30.7662113 C49.9078324,30.7677413 49.8820765,30.8075228 49.8836066,30.926102 C49.9006922,31.1812386 50.317377,32.5132787 50.6202004,33.4856284 C50.8744444,34.29949 51.1367213,35.1415301 51.3153552,35.7883607 C51.4261566,36.18949 51.3255556,36.5507104 51.2522404,36.8137523 C51.2436976,36.8434608 51.2342623,36.8792896 51.224827,36.9144809 C51.3544991,36.9042805 51.4683607,36.8567213 51.5057195,36.8122222 C51.5104372,36.806867 51.5229326,36.791184 51.5128597,36.722459 C51.4660656,36.4368488 51.6353916,36.160674 51.9108015,36.0716758 C52.1854463,35.9835701 52.485082,36.1083971 52.6138616,36.3665938 C52.6606557,36.4601821 52.6935519,36.4648998 52.7520765,36.4648998 C52.8456648,36.4648998 52.9534062,36.4266485 53.0384517,36.3829144 C52.91898,36.244827 52.6615483,36.0482149 52.3056831,35.9022222 C52.165173,35.8452277 52.0536066,35.7359563 51.9927869,35.5971038 L51.6353916,34.7792896 C51.185173,33.7414026 50.6240255,32.4500364 50.1931876,31.6229144 C50.0433698,31.3350091 50.0230965,31.0478689 50.009071,30.8378689 C50.007541,30.8160656 50.0060109,30.7910747 50.0044809,30.7676138 C49.9896903,30.7662113 49.9773224,30.7662113 49.9646995,30.7662113 Z" id="Shape" fill-rule="nonzero"></path>
            <path d="M50.4383789,41.9373953 C50.3970674,41.9373953 50.3033515,41.9217122 50.2636976,41.9093443 C50.0834062,41.8508197 49.5301639,41.6705282 49.8508379,39.6471585 C50.0381421,38.4679964 50.2659927,38.2986703 50.5921494,38.3666302 C50.8465209,38.4157195 51.2843716,38.4625137 51.2843716,38.4625137 C51.423224,38.4781967 51.5433333,38.5655373 51.5995628,38.6935519 C51.8001275,39.1501457 51.4536976,40.9104736 51.0377778,41.5479964 C50.8692168,41.8063206 50.6678871,41.9373953 50.4383789,41.9373953 Z M50.737377,39.1789617 C50.6273406,39.5706557 50.525082,40.333898 50.5328597,40.823133 C50.706776,40.3642441 50.8692168,39.6089071 50.8870674,39.199235 C50.8395082,39.1937523 50.7887614,39.1867395 50.737377,39.1789617 Z" id="Shape" fill-rule="nonzero"></path>
            <path d="M55.5199454,41.1914936 C55.1781056,41.1914936 54.9542077,40.8903279 54.8816576,40.7911293 C54.4369217,40.1903279 53.8968124,38.5937158 54.0451002,38.1060109 C54.0856466,37.9726412 54.194153,37.8711475 54.3298179,37.8391439 C54.332878,37.8383789 54.7597632,37.7400729 55.005592,37.66051 C55.0447359,37.6472495 55.0906375,37.6410018 55.131184,37.6410018 C55.2982149,37.6410018 55.6446448,37.6410018 56.0192532,39.3312022 C56.2533515,40.3885974 56.1713661,40.9464299 55.7563388,41.1392168 C55.7040619,41.1625501 55.5769399,41.1914936 55.5199454,41.1914936 Z M54.8066849,38.5249909 C54.8731148,38.9151548 55.1290164,39.6534062 55.3599271,40.0934244 C55.3099454,39.6064845 55.1157559,38.8612204 54.9596903,38.4843169 C54.9074135,38.499235 54.8551366,38.5124954 54.8066849,38.5249909 Z" id="Shape" fill-rule="nonzero"></path>
            <path d="M53.327122,41.9530783 C53.325592,41.9530783 53.324827,41.9530783 53.3232969,41.9530783 C52.3189435,41.942878 52.1442623,39.1033515 52.1426047,39.075173 C52.1262842,38.807541 52.0981056,38.3112933 52.5211658,38.2581239 C52.7763024,38.2253552 53.2038251,38.1325319 53.2070128,38.1317668 C53.3490528,38.1005282 53.4973406,38.151275 53.5910565,38.2644991 C53.9530419,38.7029872 54.1910929,40.8871403 53.8672313,41.5738798 C53.7081056,41.915592 53.4365209,41.9530783 53.327122,41.9530783 Z M52.9136248,38.9846448 C52.9291803,39.4177778 53.0727505,40.2526776 53.2390164,40.7754463 C53.2577596,40.2276867 53.171949,39.3841166 53.0579599,38.9581239 C53.0111658,38.9675592 52.9628415,38.976867 52.9136248,38.9846448 Z" id="Shape" fill-rule="nonzero"></path>
            <path d="M49.8875592,44.1590346 C49.8640984,44.1590346 49.8391075,44.156612 49.8150091,44.1520219 C49.6402004,44.1192532 49.5098907,43.973388 49.4982878,43.7961566 L49.4006193,42.3985792 C49.3905464,42.2580692 49.4568488,42.1239344 49.573898,42.0466667 C49.6885246,41.9693989 49.8391075,41.9600911 49.9640619,42.0224408 C50.0849362,42.0824954 50.3440255,42.1099089 50.4900182,42.110674 C50.6235155,42.111439 50.7475774,42.1800364 50.8193625,42.2924954 C50.8903825,42.405592 50.8996903,42.546867 50.8419308,42.6671038 L50.2402368,43.9351366 C50.1746995,44.0739891 50.036612,44.1590346 49.8875592,44.1590346 Z" id="Path"></path>
            <path d="M53.5426047,44.2986521 C53.3708561,44.2986521 53.2195082,44.1863206 53.1687614,44.0223497 L52.7622769,42.6817668 C52.7217304,42.5476321 52.7560291,42.4024044 52.8511475,42.3010383 C52.9471585,42.1987796 53.0916211,42.1589982 53.2265209,42.1887067 C53.3115665,42.209745 53.7555373,42.1574681 53.7579599,42.1574681 C53.8913297,42.1262295 54.025592,42.1676685 54.1199454,42.2612568 C54.2144262,42.3556102 54.2551002,42.4914026 54.2261566,42.6217122 L53.9233333,43.9927687 C53.885082,44.1668124 53.7352641,44.2924044 53.5573953,44.2994171 C53.5526776,44.2986521 53.5473224,44.2986521 53.5426047,44.2986521 Z" id="Path"></path>
            <path d="M56.0902732,43.2936612 C55.9506557,43.2936612 55.8186885,43.218816 55.7484335,43.0923315 L55.0703643,41.8665027 C55.0025319,41.7439709 55.005592,41.594153 55.0782696,41.4748087 C55.1508197,41.355337 55.2779417,41.2890346 55.4216393,41.2875046 L55.4224044,41.2875046 C55.580765,41.2875046 55.8398543,41.1907286 55.9351002,41.1462295 C56.0576321,41.09 56.1987796,41.0985428 56.3104736,41.1712204 C56.4220401,41.2437705 56.4898725,41.3685974 56.4891075,41.5028597 L56.4789071,42.9066849 C56.477377,43.0837887 56.3572678,43.2383242 56.1847541,43.2812933 C56.1550455,43.2897086 56.1231694,43.2936612 56.0902732,43.2936612 Z" id="Path"></path>
        </g>
    </g>
</svg>