<svg width="100" height="100" viewBox="0 0 100 100" xmlns="http://www.w3.org/2000/svg">
    <g fill="#000" fill-rule="evenodd">
        <path d="M72.664 33.74c-2.266 0-4.867-.475-7.73-1.413-2.108-.69-3.503-.716-4.426-.732-.784-.014-1.35-.024-1.799-.43-1.2-1.086-3.957-4.113-3.637-8.765.28-4.102 4.279-6.765 5.9-7.185a5.482 5.482 0 0 1 1.353-.146c1.079 0 2.158.203 2.407.253.283.006.694-.01 1.143-.03.779-.032 1.672-.068 2.324-.002 1.319.13 2.683.266 3.578 1.426.334.433 2.514 2.816 2.914 3.061.438.22 2.732 1.513 3.165 1.837l.317.234c1.923 1.407 2.308 1.753 2.445 2 .251.453 1.39 2.878-.889 6.099-.355.501-1.68 1.385-2.189 1.715-.325.385-1.637 1.854-2.845 1.96l-.214.021c-.405.038-1.014.098-1.817.098zM62.324 16.24c-.425 0-.782.036-1.058.108-.993.258-4.774 2.445-5.026 6.133-.284 4.14 2.182 6.846 3.255 7.817.123.112.545.119 1.035.128.992.018 2.493.045 4.77.79 2.744.9 5.221 1.356 7.364 1.356.746 0 1.299-.054 1.703-.093l.224-.021c.649-.057 1.697-1.107 2.102-1.607a.585.585 0 0 1 .138-.124c.807-.518 1.78-1.226 1.942-1.455 1.874-2.65 1.012-4.51.82-4.856-.179-.209-1.633-1.273-2.112-1.623l-.328-.241c-.347-.261-2.558-1.513-3-1.734-.645-.323-3.133-3.165-3.304-3.386-.547-.71-1.41-.842-2.766-.977-.603-.059-1.436-.022-2.16.008-.516.022-.981.039-1.287.027a.556.556 0 0 1-.096-.013c-.01-.002-1.137-.237-2.215-.237z" fill-rule="nonzero"/>
        <path d="M68.799 25.038c-.85.455-4.05.094-5.194-.634-2.142-1.362-3.165-3.306-2.39-4.899.44-.902 1.53-1.73 2.585-1.707.991.022 2.337 1.385 3.219 2.243.927.902 2.557 1.722 2.95 2.902.22.659-.219 1.585-1.17 2.095zM78.236 27.357c.47-.122.512-1.415.464-1.78-.049-.365-.598-1.487-1.366-1.902-.429-.232-1.512.73-1 1.731.249.485.626.342 1.124.927.268.314.458 1.107.778 1.024z"/>
        <path d="M67.204 30.915a.789.789 0 0 1-.563-.205.589.589 0 0 1-.182-.423c0-.226-.142-1.037-.354-1.749-.114-.38-.054-.753.166-1.05.459-.614 1.389-.645 1.571-.645.104 0 .196.007.271.02.45.07.975.444 1.279.907.264.403.346.84.236 1.264-.303 1.167-1.742 1.881-2.424 1.881zm.638-2.901c-.292 0-.58.104-.632.175.146.462.272 1.006.347 1.446.358-.163.833-.495.937-.894.008-.034.036-.14-.072-.313-.151-.243-.42-.393-.496-.41a.622.622 0 0 0-.084-.004z" fill-rule="nonzero"/>
        <path d="M69.778 31.615a.79.79 0 0 1-.562-.205.588.588 0 0 1-.182-.423c0-.226-.143-1.037-.354-1.749-.114-.38-.055-.753.166-1.05.458-.614 1.388-.645 1.57-.645.104 0 .196.008.271.02.45.07.976.444 1.28.907.263.403.345.84.235 1.264-.303 1.167-1.742 1.881-2.424 1.881zm.639-2.901c-.293 0-.581.104-.632.175.146.462.272 1.006.347 1.446.357-.163.832-.495.936-.894.009-.034.036-.14-.071-.313-.152-.243-.42-.393-.497-.41a.61.61 0 0 0-.083-.004z" fill-rule="nonzero"/>
        <path d="M72.345 32.054a.789.789 0 0 1-.563-.206.588.588 0 0 1-.182-.422c0-.226-.142-1.037-.354-1.75-.114-.38-.055-.752.166-1.049.458-.615 1.389-.646 1.571-.646.104 0 .196.008.27.02.45.072.976.444 1.28.907.264.404.346.84.235 1.264-.302 1.168-1.741 1.882-2.423 1.882zm.638-2.902c-.292 0-.58.105-.632.175.146.463.272 1.007.347 1.447.358-.163.833-.496.937-.894.008-.035.036-.14-.072-.313-.151-.244-.42-.394-.496-.41a.503.503 0 0 0-.084-.005z" fill-rule="nonzero"/>
        <path d="M75.035 32.598a.789.789 0 0 1-.562-.205.588.588 0 0 1-.182-.423c0-.225-.143-1.037-.354-1.749-.114-.38-.055-.753.166-1.05.458-.614 1.388-.645 1.57-.645.104 0 .196.008.271.02.45.071.976.444 1.28.907.263.403.345.84.235 1.264-.303 1.167-1.742 1.881-2.424 1.881zm.639-2.902c-.293 0-.581.105-.632.175.146.463.272 1.007.347 1.447.357-.163.832-.496.936-.895.009-.034.036-.14-.071-.312-.152-.244-.42-.394-.497-.41a.602.602 0 0 0-.083-.005zM54.056 34.647c-.02 0-.104-.005-.122-.007-.668-.066-1.686-.61-2.081-1.286-.348-.595-.582-2.154.098-2.813.229-.221.487-.334.767-.334.103 0 .191.015.263.03.186-.22.51-.747.61-1.007.277-.734.787-1.037 1.336-.845.147.05.485.168 1.272 1.616.119.1.45.261.656.361.68.332 1.525.744 1.31 1.533-.213.782-1.039.878-1.482.929-.111.013-.216.023-.302.045-.39.1-1 .412-1.106.566-.118.395-.37 1.212-1.219 1.212zm-.007-1.171l.007.585v-.585h-.007zm-1.273-2.086c-.145.17-.114 1.03.086 1.372.173.296.81.657 1.155.71.05-.084.11-.274.144-.382.284-.91 1.91-1.35 1.928-1.355.131-.033.29-.054.458-.073.061-.007.144-.017.225-.03-.144-.078-.31-.158-.432-.218-.427-.209-.83-.405-1.065-.686a.605.605 0 0 1-.068-.1c-.179-.333-.389-.68-.55-.915-.178.422-.683 1.273-1.065 1.55-.254.184-.627.172-.816.127zM45.76 43.844c-.495 0-1.168-.063-1.57-.238-.418-.183-1.722-1.083-1.691-1.84.016-.405.34-.753.714-1.155.14-.15.298-.32.365-.422.031-.058.089-.29.131-.457.169-.671.4-1.59 1.152-1.984a.589.589 0 0 1 .631.056c.218.169 2.143 1.683 2.662 2.709a.585.585 0 0 1-.231.773c-.74.423-.777.547-.84.755.009.006.044.161.067.264.084.368.241 1.054-.338 1.365-.08.043-.323.174-1.051.174zm-2.03-2.053c.196.236.66.625.929.742.157.068.613.14 1.102.14.107 0 .196-.004.27-.01l-.022-.098c-.065-.282-.131-.574-.049-.856.13-.434.297-.726.843-1.105-.41-.488-1.08-1.098-1.634-1.557-.15.27-.251.673-.325.97-.085.34-.153.608-.287.813-.122.186-.3.377-.488.579-.1.107-.247.265-.34.382zM41.936 53.211c-.443 0-1.707-.263-2.047-.676a.695.695 0 0 1-.137-.53c.027-.135.094-.282.279-.67.082-.171.169-.347.211-.457-.03-1.131.1-1.785.418-2.16a.763.763 0 0 1 .593-.271c.386 0 .74.263 1.083.52.078.057.186.137.259.184.088-.017.212-.05.344-.082.328-.082.666-.164.928-.164.346 0 .534.153.63.28.263.352.112.786-.064 1.29a3.623 3.623 0 0 0-.125.402c.014.022.067.144.117.273.183.466.39.992 0 1.352-.344.318-1.97.68-2.386.707l-.103.002zm-.861-1.344c.275.087.637.174.861.174v.585l.028-.586c.307-.02 1.004-.197 1.424-.332l-.051-.133c-.1-.253-.185-.471-.196-.673-.012-.203.05-.412.154-.718l-.075.02c-.323.079-.528.127-.699.127-.309 0-.562-.189-.883-.428-.048-.035-.11-.082-.176-.128-.036.207-.065.546-.049 1.087l.002.086c0 .194-.078.369-.327.89l-.013.029zM41.335 57.506c-.015 0-1.595-.065-1.983-.534a.653.653 0 0 1-.134-.511c.026-.134.09-.266.266-.611.065-.128.133-.258.174-.35-.07-.953.048-1.544.366-1.89a.789.789 0 0 1 .59-.25c.344 0 .687.192 1.019.377.09.05.217.121.292.155.082-.016.224-.056.376-.095.344-.087.7-.178.959-.178.228 0 .412.07.548.207.34.345.166.821.014 1.241-.032.088-.066.175-.086.245.025.056.062.12.097.187.194.368.486.924.037 1.305-.332.281-1.919.652-2.326.693-.061.005-.132.01-.209.01zm-.74-1.258c.278.055.63.106.83.084.296-.03.929-.192 1.353-.322-.108-.207-.2-.388-.221-.577-.02-.162.017-.33.076-.512-.016.004-.03.008-.044.01-.311.081-.51.13-.67.137h-.001c-.303 0-.56-.143-.857-.309a8.293 8.293 0 0 0-.233-.127c-.021.16-.033.42.002.83l.005.082c.01.182-.051.33-.24.704zM42.986 48.332c-.117 0-.22-.005-.302-.015-.482-.055-1.532-.553-1.797-.988a.724.724 0 0 1-.06-.572c.046-.121.136-.261.363-.601.106-.161.22-.326.276-.426.18-1.112.412-1.728.755-2.041a.742.742 0 0 1 .501-.195c.45 0 .757.373 1.055.733.056.068.108.134.155.187.08-.005.17-.013.264-.021.19-.016.392-.033.56-.033.17 0 .69 0 .88.442.157.37-.04.742-.289 1.213a3.69 3.69 0 0 0-.189.386c.004.043.03.176.051.315.08.518.154 1.007-.241 1.287-.42.3-1.967.329-1.982.329zm-.861-1.47c.236.135.547.276.69.292.278.031.9-.03 1.263-.088a9.255 9.255 0 0 0-.026-.173c-.04-.26-.074-.486-.048-.677.026-.19.115-.38.26-.654-.287.024-.51.03-.636.007-.31-.058-.516-.308-.755-.597l-.034-.041c-.066.206-.145.52-.22.99l-.013.085c-.032.168-.118.31-.444.798a2.06 2.06 0 0 1-.037.058z" fill-rule="nonzero"/>
        <path d="M51.326 30.487l-.086-.003c-.656-.05-.974-.732-1.31-1.455a6.818 6.818 0 0 0-.38-.739.585.585 0 0 1 .395-.894 4.27 4.27 0 0 1 3.21.732.584.584 0 0 1 .23.637c-.284 1.015-1.313 1.722-2.06 1.722zm-.344-1.968l.007.014c.112.24.29.62.41.771.161-.042.454-.204.661-.47a3.034 3.034 0 0 0-1.078-.315zM45.657 33.828l-.093-.003c-.717-.051-1.091-.81-1.488-1.611-.152-.309-.31-.628-.468-.86a.587.587 0 0 1 .393-.907 5.284 5.284 0 0 1 3.797.82.585.585 0 0 1 .24.653c-.363 1.228-1.638 1.908-2.381 1.908zm-.601-2.276c.024.047.048.095.07.143.156.314.41.829.565.96.24-.02.727-.263 1.024-.668a4.027 4.027 0 0 0-1.66-.435zM41.881 41.133c-.41 0-.757-.235-1.155-.507-.458-.311-1.03-.7-1.945-.974a.586.586 0 0 1-.238-.983c.948-.908 2.008-1.03 2.92-1.03.27 0 .546.011.83.023.176.007.355.015.537.019.244.006.46.163.538.395.425 1.242.066 2.33-.96 2.915a1.046 1.046 0 0 1-.527.142zm-1.647-2.164c.493.242.866.496 1.15.69.17.115.378.256.479.295.411-.248.575-.616.496-1.119a47.438 47.438 0 0 1-.113-.004c-.75-.03-1.44-.057-2.012.138zM40.095 46.21c-.412 0-.757-.235-1.156-.507-.458-.311-1.03-.7-1.945-.975a.586.586 0 0 1-.238-.982c.948-.908 2.008-1.03 2.92-1.03.27 0 .547.01.83.022.176.008.355.015.537.02.244.005.46.163.538.395.425 1.241.066 2.33-.96 2.914a1.05 1.05 0 0 1-.526.142zm-1.648-2.164c.492.242.865.496 1.15.69.17.115.377.256.478.294.411-.247.575-.615.496-1.118a44.719 44.719 0 0 1-.113-.005c-.75-.03-1.439-.056-2.011.139zM39.036 51.023c-.211 0-.42-.056-.661-.12-.369-.097-.835-.224-1.492-.194a.585.585 0 0 1-.55-.844c.535-1.087 1.466-1.367 2.366-1.64l.359-.11a.587.587 0 0 1 .632.189c.649.8.675 1.695.073 2.395a.923.923 0 0 1-.727.324zm0-1.17v.584-.585zm-.864-.204c.191.04.357.084.503.123.09.024.196.051.273.068a.496.496 0 0 0 .032-.476 6.479 6.479 0 0 0-.808.285zM38.252 55.822c-.186 0-.372-.043-.587-.093-.337-.078-.767-.177-1.357-.14a.586.586 0 0 1-.579-.812c.429-1.019 1.312-1.308 2.092-1.562l.314-.106a.587.587 0 0 1 .621.156c.98 1.063.417 1.966.221 2.217a.878.878 0 0 1-.725.34zm0-1.17v.584-.585c.001 0 .001 0 0 0zm-.622-.13c.11.022.209.046.3.067.064.015.137.032.2.044a.37.37 0 0 0-.028-.278 7.435 7.435 0 0 0-.472.167z" fill-rule="nonzero"/>
        <path d="M55.362 46.154a.95.95 0 0 1-.21-.023c-.515-.115-.619-.62-.777-1.384-.206-1.002-.516-2.516-1.625-3.293-1.222-.855-2.298-.971-3.085-1.057-.419-.045-.75-.08-1.013-.23-.678-.383-2.2-1.881-2.644-3.606-.17-.662.092-1.914.827-2.863.559-.722 1.616-1.581 3.479-1.581h.1c.245.004.462.161.542.393.452 1.296.603 1.372 1.053 1.6.413.209.721.561 1.077.97.276.316.591.676 1.013 1.036.228.193.551.273.96.373.911.223 2.16.529 3.198 2.425 1.395 2.544 1.38 5.301.437 5.976-.44.313-.904.319-1.279.324-.226.003-.422.005-.595.067-.162.059-.314.202-.474.355-.244.23-.547.518-.984.518zm-5.365-12.856c-.961.067-1.712.441-2.236 1.118-.578.746-.677 1.628-.619 1.853.36 1.398 1.64 2.627 2.087 2.88.071.033.344.062.563.085.809.087 2.162.233 3.63 1.262 1.49 1.043 1.872 2.904 2.101 4.015l.05.244c.213-.201.477-.44.85-.575.358-.129.701-.133.977-.137.302-.003.479-.01.613-.106.22-.273.465-2.184-.783-4.46-.792-1.445-1.597-1.643-2.45-1.852-.492-.12-1.001-.246-1.44-.618a10.42 10.42 0 0 1-1.137-1.158c-.287-.328-.513-.588-.723-.694-.716-.363-1.037-.68-1.483-1.857z" fill-rule="nonzero"/>
        <path d="M54.777 48.723a.583.583 0 0 1-.448-.21c-2.31-2.747-6.847-4.376-6.893-4.392a.586.586 0 0 1-.387-.61c.055-.553.66-2.504 1.958-2.504 1.247.071 4.449 1.91 6.317 6.925a.586.586 0 0 1-.547.79zm-6.46-5.518c.893.358 2.842 1.212 4.645 2.51-1.68-2.73-3.585-3.515-3.95-3.537-.201 0-.527.546-.695 1.027zM54.446 50.981l-.046-.001c-.28-.022-6.89-.558-8.997-2.04-.19-.134-.497-.472-.413-1.23.088-.798.562-1.767 1.299-2.073a.848.848 0 0 1 .323-.061c1.216 0 6.543 3.31 8.147 4.324a.587.587 0 0 1-.313 1.081zm-8.3-2.95c1.078.701 3.648 1.198 5.767 1.493-2.373-1.425-4.629-2.656-5.243-2.77-.308.215-.57.986-.524 1.277zM48.273 53.525c-1.785 0-3.004-.32-3.056-.334a.589.589 0 0 1-.36-.28c-.255-.458-.496-1.466-.2-2.172.148-.353.422-.6.77-.696.439-.118 1.005.092 1.957.462 1.286.501 3.048 1.187 5.057 1.193a.585.585 0 0 1 .184 1.14 13.671 13.671 0 0 1-4.352.687zm-2.485-1.405c.427.086 1.33.235 2.485.235.26 0 .518-.008.773-.022a25.35 25.35 0 0 1-2.086-.737c-.502-.195-1.07-.416-1.257-.416-.054.095-.03.58.085.94zM45.136 56.826c-.343 0-.757-.232-.888-.882-.12-.593.006-1.552.661-1.828.367-.156.93-.04 1.672.133.658.153 1.413.336 2.023.286a.597.597 0 0 1 .58.345c.1.225.048.49-.13.66-.744.713-2.751 1.286-3.918 1.286zm.28-1.614a1.251 1.251 0 0 0-.033.435c.363-.024.768-.1 1.159-.205l-.228-.052c-.34-.08-.69-.162-.898-.178zM58.133 51.6c-.019 0-1.987-.027-2.324-.983-.175-.495.083-1.164.289-1.575l-.08-.136c-.213-.373-.57-.995-.197-1.688.329-.61.71-1.018 1.502-1.018.132 0 .28.011.45.032.65.081 1.03.374 1.246.553.693-.169 3.454-.965 3.966-1.216.035-.05.073-.121.113-.194.133-.247.315-.585.705-.804.24-.134.586-.21.955-.21.801 0 1.413.338 1.635.906.214.552.13 1.118.069 1.53a4.446 4.446 0 0 0-.034.254c.047.062.138.16.202.23.272.294.61.662.582 1.128-.05.785-1.116 1.571-2.017 1.39-.406-.08-.678-.266-.86-.39a1.315 1.315 0 0 0-.157-.098c-.595.115-3.56.771-4.117 1.027-.278.356-.993 1.179-1.715 1.25-.062.007-.133.011-.213.011zm-1.208-1.422c.219.118.783.25 1.208.25.036 0 .068 0 .096-.003.157-.026.62-.418.956-.866.442-.59 4.785-1.388 4.829-1.396.442-.08.763.132.98.28.144.097.258.175.432.21h.008c.253 0 .49-.178.58-.295-.06-.084-.172-.205-.244-.284-.223-.24-.452-.489-.501-.807-.03-.198 0-.404.035-.642.045-.298.1-.67-.003-.933-.024-.066-.234-.162-.543-.162a.993.993 0 0 0-.38.06c-.09.051-.153.163-.25.34-.08.149-.17.318-.31.471-.469.516-4.885 1.582-4.92 1.582-.27 0-.456-.155-.592-.27-.154-.13-.33-.276-.675-.32a2.433 2.433 0 0 0-.307-.023c-.201 0-.254 0-.471.403-.055.103.008.247.182.55.137.24.277.486.277.782 0 .1-.026.2-.076.289-.15.265-.282.607-.311.784zM47.949 68.887c-.018 0-.087-.003-.104-.005-.263-.024-2.157-.436-2.308-1.433-.078-.52.301-1.127.58-1.492a8.915 8.915 0 0 1-.051-.15c-.14-.405-.373-1.084.124-1.693.296-.364.667-.754 1.306-.754.225 0 .47.047.797.153.607.197.925.543 1.106.762 1.153-.083 6.235-.61 7.051-.815a2.9 2.9 0 0 0 .14-.162c.178-.217.42-.514.844-.657.147-.05.317-.073.507-.073.834 0 1.755.427 1.904 1.245.108.582-.082 1.122-.22 1.516-.027.078-.062.178-.081.242.034.07.105.182.154.262.212.342.477.766.36 1.22-.194.752-1.41 1.328-2.242.986-.384-.156-.607-.381-.771-.545a1.16 1.16 0 0 0-.137-.126c-.624.01-6.296.412-7.153.62-.296.255-1.112.899-1.806.899zm-1.234-1.658c.227.185.898.457 1.234.487.188 0 .724-.325 1.102-.67.549-.498 7.825-.838 7.896-.838.476.008.747.279.927.46.122.123.22.22.385.287.182.075.515-.073.633-.178a3.688 3.688 0 0 0-.187-.326c-.173-.278-.351-.565-.341-.885.008-.202.077-.398.156-.625.1-.284.225-.64.174-.917-.02-.109-.38-.286-.753-.286a.512.512 0 0 0-.136.013c-.098.033-.18.13-.309.288-.107.13-.227.277-.392.402-.528.396-7.841 1.015-7.907 1.015a.809.809 0 0 1-.13-.011c-.266-.05-.419-.24-.53-.376-.128-.156-.273-.334-.605-.442a1.597 1.597 0 0 0-.436-.095c-.065 0-.136 0-.398.322-.075.09-.04.244.074.574.09.26.181.53.126.82a.585.585 0 0 1-.13.269c-.196.232-.391.543-.453.712z" fill-rule="nonzero"/>
        <path d="M39.053 68.375c-.763 0-1.303-.374-1.524-1.052-.088-.272-.027-.563.396-2.254.317-1.265.847-3.383.755-3.905-.104-.589-.137-1.697-.139-1.743a.585.585 0 0 1 .182-.442c.622-.59 1.905-1.002 2.667-1.002.401 0 .7.11.89.327.227.261.886.643 1.332.718.221.036.828.122 1.631.122a10.1 10.1 0 0 0 1.567-.119c1.003-.158 2.078-.425 3.026-.66 1.115-.276 1.766-.433 2.168-.433.096 0 .388 0 .603.214.294.29.578.83.497 1.467-.093.714-.595 1.34-1.494 1.858-.67.387-1.622.829-2.627 1.296-1.482.688-3.162 1.469-3.735 2.005l-.193.18c-1.102 1.036-2.353 2.21-3.301 2.6l-.321.136c-.715.306-1.605.687-2.38.687zm-.382-1.339c.047.102.13.168.381.168.536 0 1.337-.342 1.922-.592l.335-.141c.75-.31 2.02-1.502 2.946-2.371l.194-.181c.71-.667 2.404-1.452 4.041-2.213.983-.457 1.91-.887 2.535-1.249.55-.317.877-.67.919-.994a.591.591 0 0 0-.064-.35c-.366.043-1.074.218-1.761.389-.923.228-2.073.513-3.125.68-.557.087-1.145.133-1.75.133-.89 0-1.572-.097-1.823-.138-.65-.109-1.498-.56-1.951-1.026a.66.66 0 0 0-.078-.004c-.434 0-1.216.237-1.669.533.018.386.054.962.111 1.28.126.714-.24 2.272-.772 4.395-.16.636-.356 1.415-.391 1.681zM57.247 77.59c-.187 0-1.837-.028-1.987-.994-.02-.13-.02-.256-.01-.375-.274.09-.58.173-.88.173-.642 0-.926-.377-1.038-.601-.484-.967.671-1.599 1.515-2.06.38-.209.774-.424.987-.618.754-.687 4.028-4.71 4.274-5.25.054-.138.073-.312.096-.515.049-.438.11-.983.56-1.595.44-.6 1.544-.891 2.45-.582.451.154.811.548.986 1.082.238.726.099 1.56-.37 2.23-.216.308-.667.84-1.24 1.513-1.2 1.411-3.206 3.773-3.561 4.84a11.557 11.557 0 0 0-.384 1.458c-.111.541-.216 1.053-.823 1.226a2.083 2.083 0 0 1-.575.068zm-.827-1.305a2.506 2.506 0 0 0 1 .126c.024-.086.052-.224.078-.35.072-.347.18-.874.42-1.593.427-1.282 2.364-3.562 3.78-5.228.53-.624.99-1.163 1.173-1.426.305-.437.31-.903.216-1.196-.069-.21-.178-.311-.25-.337a1.316 1.316 0 0 0-.423-.071c-.395 0-.66.177-.706.238-.265.36-.3.672-.34 1.033-.028.247-.06.53-.173.816-.3.773-3.904 5.073-4.571 5.682-.316.29-.773.538-1.215.78-.197.109-.47.258-.687.397.138-.037.274-.085.388-.125.26-.091.468-.164.667-.164.102 0 .264.04.352.09.497.28.383.841.33 1.11-.016.073-.03.15-.04.218z" fill-rule="nonzero"/>
        <path d="M39.008 73.203c-.524 0-2.064-.323-2.532-.832a.752.752 0 0 1-.209-.571c.04-.482 1.379-3.06 2.143-3.331.835-.298 1.703.173 2.105 1.139.342.82-.496 3.215-1.094 3.513a.912.912 0 0 1-.413.082zm0-1.169v.583l.017-.586-.017.003zm-1.483-.36a5.8 5.8 0 0 0 1.342.35c.256-.462.653-1.662.564-1.976-.151-.362-.38-.565-.628-.478-.243.186-1.002 1.487-1.278 2.104zM34.001 75.693c-.438 0-.743-.073-.958-.231-.763-.56-.759-1.956-.518-2.328.32-.497 2.668-.874 2.945-.874.016 0 .095.003.111.005 1.008.083 1.498 1.396 1.526 2.048a.751.751 0 0 1-.227.563c-.515.536-2.148.817-2.879.817zm-.27-1.185c.023 0 .11.015.27.015.641 0 1.526-.214 1.9-.383-.086-.322-.296-.68-.419-.71-.382 0-1.451.267-1.934.424.006.239.065.559.177.656 0-.001.002-.002.006-.002z" fill-rule="nonzero"/>
        <path d="M30.499 76.115c-.48 0-1.641-.062-2.034-.632-.49-.71-.184-2 .095-2.305.123-.136.276-.304 1.661-.304.838 0 1.087.096 1.168.127.915.351.93 1.83.832 2.329-.104.528-.667.785-1.722.785zm-1.072-2.036c-.057.26-.078.626 0 .739.042.01.462.125 1.072.125.28 0 .475-.024.595-.05.009-.33-.073-.73-.166-.823.004.013-.225-.025-.707-.025-.333 0-.61.017-.794.034zM26.417 75.799c-.694 0-2.506-.535-2.776-1.377-.262-.822.407-1.967.763-2.178.09-.053.25-.09.355-.09.408 0 1.967.406 2.403.746.773.602.358 2.021.118 2.47-.105.196-.339.429-.863.429zm-1.444-2.441c-.131.233-.259.578-.217.71.121.13 1.028.516 1.572.557.105-.314.144-.72.081-.836-.15-.092-.992-.34-1.436-.431zM22.799 72.843c-.143 0-.523 0-1.3-.865-.391-.437-1.038-1.257-.974-1.848.091-.838 1.122-1.392 1.516-1.392.594.047 1.885 1.706 2 1.957.38.83-.4 1.76-.882 2.05a.823.823 0 0 1-.36.098zm-.847-2.848c-.126.085-.249.197-.263.263.055.215.675.995 1.054 1.314.126-.144.234-.326.228-.412-.089-.172-.68-.834-1.019-1.165zM20.493 69.089c-.2 0-.39-.12-.634-.402-.337-.388-1.113-1.54-1.036-2.085.092-.649.843-.924 1.127-.924.039 0 .105.01.142.02.35.102 1.268 1.629 1.35 1.86.236.67-.365 1.318-.768 1.492a.508.508 0 0 1-.18.039zm-.65-2.593c-.105.047-.235.133-.247.216.014.244.585 1.196.904 1.527.125-.118.249-.306.208-.42-.078-.22-.613-1.007-.865-1.323zM19.683 65.332c-.284 0-.983-.029-1.363-.29-.454-.317-.214-1.478-.13-1.826.162-.671.395-1.004.733-1.05.205-.04.4.111.437.316.055.301.284 1.35.924 2.218a.39.39 0 0 1-.288.621c-.103.007-.208.011-.313.011zm-.844-.895c.086.033.227.068.416.09a6.311 6.311 0 0 1-.367-.826c-.047.29-.07.58-.049.736zM56.538 82.641a.73.73 0 0 1-.53-.202c-.2-.201-.822-1.674-1.844-4.38a.39.39 0 0 1 .05-.368c.302-.416.907-.448 1.366-.072.344.28 2.045 3.777 2.045 4.203.001.492-.653.82-1.087.82zm-1.49-4.45c.623 1.63 1.297 3.303 1.502 3.67a.598.598 0 0 0 .276-.1c-.187-.53-1.485-3.243-1.762-3.559a.258.258 0 0 0-.015-.012z" fill-rule="nonzero"/>
        <path d="M58.26 84.992a.392.392 0 0 1-.337-.192c-.121-.206-.34-.452-.532-.669-.366-.414-.607-.688-.537-1.003.09-.4.597-.552 1.006-.61a.393.393 0 0 1 .42.248c.006.015.49 1.542.35 1.96a.392.392 0 0 1-.37.266zM62.67 83.161a.387.387 0 0 1-.207-.06c-.205-.126-.511-.244-.782-.349-.515-.198-.855-.33-.939-.641-.105-.396.275-.765.613-1.006a.39.39 0 0 1 .487.028c.011.01 1.143 1.142 1.213 1.577a.393.393 0 0 1-.17.387.4.4 0 0 1-.216.064zM64.945 81.337a.387.387 0 0 1-.207-.059c-.204-.127-.511-.245-.782-.35-.515-.198-.855-.329-.938-.64-.106-.396.274-.766.61-1.007a.394.394 0 0 1 .487.027c.011.01 1.146 1.145 1.215 1.578a.393.393 0 0 1-.385.451z"/>
        <path d="M59.98 81.855a.944.944 0 0 1-.256-.036.396.396 0 0 1-.213-.155 674.413 674.413 0 0 0-2.594-3.702.388.388 0 0 1 .152-.577.511.511 0 0 1 .192-.043c.637 0 3.53 2.534 3.83 2.855.121.128.228.258.217.442-.024.363-.605 1.216-1.328 1.216zm-1.242-2.66c.499.71 1.025 1.463 1.307 1.87.152-.048.332-.242.428-.39-.288-.295-1.026-.92-1.735-1.48zM62.499 79.786c-.228 0-.546-.173-2.5-1.474-.478-.318-.972-.648-1.105-.717a.39.39 0 0 1 .288-.721c1.445.4 3.908 1.155 4.175 1.721a.716.716 0 0 1-.017.677c-.197.349-.653.497-.796.511l-.045.003zm-.758-1.262c.335.214.624.392.77.465a.643.643 0 0 0 .11-.063c-.143-.1-.463-.242-.88-.402zM69.174 53.087c-.393 0-.716-.125-.91-.353-.365-.43-.224-.934-.14-1.235.043-.153.087-.311.063-.4a81.31 81.31 0 0 0-.684-2.265c-.558-1.786-.786-2.548-.79-2.89-.009-.514.19-.826.358-.996.326-.328.824-.435 1.37-.284.672.186.715.8.735 1.094.008.13.017.255.054.326.45.863 1.02 2.175 1.478 3.23l.265.607c.48.235 1.316.765 1.312 1.602-.004.712-1.162 1.273-1.902 1.063-.276.314-.726.5-1.209.5zm-1.21-7.32c-.056 0-.082.04-.08.16.017.254.433 1.586.736 2.559.254.813.517 1.656.695 2.302.111.401.01.763-.063 1.026l-.027.1c.13-.01.243-.057.28-.102.005-.005.018-.02.008-.09a.585.585 0 0 1 1.1-.355c.048.093.08.098.14.098a.674.674 0 0 0 .285-.082c-.119-.138-.376-.335-.732-.48a.579.579 0 0 1-.313-.306l-.358-.818c-.45-1.038-1.011-2.329-1.442-3.156-.15-.288-.17-.575-.184-.785l-.005-.07c-.014-.002-.027-.002-.04-.002zM68.438 56.937a.839.839 0 0 1-.174-.028c-.18-.058-.734-.238-.413-2.262.187-1.179.415-1.348.741-1.28.255.049.692.096.692.096a.391.391 0 0 1 .316.23c.2.457-.146 2.217-.562 2.855-.169.258-.37.39-.6.39zm.3-2.758a7.11 7.11 0 0 0-.205 1.644c.174-.459.336-1.214.354-1.624a4.318 4.318 0 0 1-.15-.02zM73.52 56.191c-.342 0-.566-.3-.638-.4-.445-.6-.985-2.197-.837-2.685a.391.391 0 0 1 .285-.267c.003 0 .43-.099.676-.178a.407.407 0 0 1 .125-.02c.167 0 .514 0 .888 1.69.234 1.058.152 1.615-.263 1.808a.825.825 0 0 1-.236.052zm-.713-2.666c.066.39.322 1.128.553 1.568a7.091 7.091 0 0 0-.4-1.609l-.153.041zM71.327 56.953h-.004c-1.004-.01-1.179-2.85-1.18-2.878-.017-.267-.045-.764.378-.817.255-.033.683-.125.686-.126a.39.39 0 0 1 .384.132c.362.439.6 2.623.276 3.31-.159.342-.43.38-.54.38zm-.413-2.968c.015.433.159 1.268.325 1.79.019-.547-.067-1.39-.181-1.817-.047.01-.095.019-.144.027z" fill-rule="nonzero"/>
        <path d="M67.888 59.159a.394.394 0 0 1-.39-.363l-.097-1.397a.39.39 0 1 1 .563-.376c.12.06.38.087.526.088a.388.388 0 0 1 .352.556l-.602 1.268a.39.39 0 0 1-.352.224zM71.543 59.299a.392.392 0 0 1-.374-.277l-.407-1.34a.391.391 0 0 1 .465-.493c.085.02.529-.032.531-.032a.39.39 0 0 1 .468.464l-.303 1.372a.39.39 0 0 1-.366.306h-.014zM74.09 58.294a.39.39 0 0 1-.342-.202l-.678-1.225a.39.39 0 0 1 .352-.58c.159 0 .418-.096.513-.14a.389.389 0 0 1 .554.356l-.01 1.404a.389.389 0 0 1-.389.387z"/>
    </g>
</svg>
