<svg width="100" height="100" viewBox="0 0 100 100" xmlns="http://www.w3.org/2000/svg">
    <g fill="none" fill-rule="evenodd">
        <path fill="#FFFFF8" d="M0 0h100v100H0z"/>
        <path d="M55.425 6C30.893 6 11 25.89 11 50.43c0 19.625 12.728 36.278 30.385 42.153 2.22.406 3.032-.966 3.032-2.141 0-1.056-.038-3.848-.06-7.557C32 85.568 29.393 76.928 29.393 76.928c-2.021-5.133-4.934-6.499-4.934-6.499-4.034-2.757.306-2.7.306-2.7 4.459.314 6.804 4.58 6.804 4.58 3.963 6.787 10.396 4.83 12.93 3.692.404-2.872 1.552-4.83 2.82-5.94-9.864-1.121-20.236-4.934-20.236-21.957 0-4.85 1.732-8.815 4.573-11.921-.455-1.124-1.982-5.64.437-11.758 0 0 3.73-1.194 12.215 4.555 3.543-.985 7.345-1.478 11.122-1.495 3.772.017 7.574.51 11.122 1.495 8.482-5.75 12.204-4.555 12.204-4.555 2.425 6.118.9 10.634.442 11.758 2.847 3.106 4.566 7.072 4.566 11.92 0 17.068-10.389 20.823-20.286 21.922 1.596 1.372 3.017 4.083 3.017 8.229 0 5.94-.055 10.731-.055 12.188 0 1.189.8 2.569 3.055 2.135C87.132 86.692 99.849 70.05 99.849 50.43 99.852 25.89 79.96 6 55.425 6z" opacity=".8" fill="#000"/>
    </g>
</svg>
