<svg width="100" height="100" viewBox="0 0 100 100" xmlns="http://www.w3.org/2000/svg">
    <title>
        hand
    </title>
    <path d="M88.647 26.535c-2.805-.748-5.798.747-6.546 3.74l-6.92 15.522c-1.309 2.432-2.991 2.058-3.178-.747l4.301-28.427c.561-2.805-.934-5.798-3.74-6.359-2.805-.56-5.05 1.497-5.611 4.489 0 0-4.302 25.621-5.424 28.052-1.123 2.432-2.432 1.684-2.244-.186 0-1.31 2.244-31.98 2.244-31.98.187-2.993-2.058-5.425-5.05-5.612-2.991-.187-4.3 2.057-4.488 5.05 0 0-3.179 29.922-3.554 31.98-.374 2.057-2.057 2.244-2.43 0-.375-2.245 0-26.745 0-26.745a5.428 5.428 0 0 0-5.425-5.424c-2.993 0-4.114 2.431-4.114 5.424 0 0-1.497 26.932-1.123 30.11.56 3.18.748 16.832-2.244 17.206-3.179.374-7.668-4.488-9.913-8.603-1.683-2.805-6.732-4.114-10.847-3.553-6.171.56-2.618 5.424 1.684 10.286 8.79 9.726 11.22 19.637 15.335 26.37 2.805 4.488 5.236 7.48 16.084 7.855h16.832c7.669 0 12.905-5.05 15.149-14.027 0-.561 1.87-16.271 2.805-21.507.934-6.36 9.725-28.427 9.725-28.427.749-3.178 1.498-3.74-1.308-4.487z" fill="#E69E82" fill-rule="evenodd"/>
</svg>
