<?xml version="1.0" encoding="UTF-8"?>
<svg width="100px" height="100px" viewBox="0 0 100 100" version="1.1" xmlns="http://www.w3.org/2000/svg" xmlns:xlink="http://www.w3.org/1999/xlink">
    <!-- Generator: Sketch 52.4 (67378) - http://www.bohemiancoding.com/sketch -->
    <title>linkedin</title>
    <desc>Created with Sketch.</desc>
    <g id="linkedin" stroke="none" stroke-width="1" fill="none" fill-rule="evenodd">
        <rect id="Rectangle" fill="#FFFFF8" x="0" y="0" width="100" height="100"></rect>
        <g opacity="0.8" transform="translate(10.000000, 5.000000)">
            <path d="M45.1034328,89.6637313 C20.3742649,89.6637313 0.327313433,69.6167798 0.327313433,44.8876119 C0.327313433,20.158444 20.3742649,0.111492537 45.1034328,0.111492537 C69.8326007,0.111492537 89.8795522,20.158444 89.8795522,44.8876119 C89.8795522,69.6167798 69.8326007,89.6637313 45.1034328,89.6637313 Z M36.2516418,72.2986567 L48.5458209,72.2986567 L48.5458209,51.6425373 C48.5458209,50.5370149 48.6255224,49.4323881 48.9497015,48.6429851 C49.8385075,46.4337313 51.8619403,44.1465672 55.2577612,44.1465672 C59.7067164,44.1465672 61.4861194,47.5383582 61.4861194,52.511194 L61.4861194,72.2986567 L73.779403,72.2986567 L73.779403,51.0904478 C73.779403,39.7289552 67.7140299,34.4426866 59.6252239,34.4426866 C52.9934328,34.4426866 50.0816418,38.1497015 48.4634328,40.6746269 L48.5458209,40.6746269 L48.5458209,35.3095522 L36.2520896,35.3095522 C36.4128358,38.7810448 36.2520896,72.2986567 36.2516418,72.2986567 Z M29.4470149,72.2986567 L29.4470149,35.3104478 L17.1528358,35.3104478 L17.1528358,72.298209 L29.4470149,72.298209 L29.4470149,72.2986567 Z M23.3014925,30.2574627 C27.5883582,30.2574627 30.2570149,27.4173134 30.2570149,23.8679104 C30.1773134,20.2383582 27.5883582,17.4770149 23.3820896,17.4770149 C19.1767164,17.4770149 16.4270149,20.2383582 16.4270149,23.8679104 C16.4270149,27.4177612 19.0947761,30.2574627 23.2208955,30.2574627 L23.3014925,30.2574627 Z" id="Combined-Shape" fill="#000000"></path>
            <g id="Group" transform="translate(36.119403, 33.462687)"></g>
        </g>
    </g>
</svg>