<svg width="100" height="100" viewBox="0 0 100 100" xmlns="http://www.w3.org/2000/svg">
    <g fill="none" fill-rule="evenodd">
        <path fill="#FFFFF8" d="M0 0h100v100H0z"/>
        <g opacity=".8">
            <path d="M55.103 94.664c-24.729 0-44.776-20.047-44.776-44.776 0-24.73 20.047-44.777 44.776-44.777 24.73 0 44.777 20.047 44.777 44.777 0 24.729-20.047 44.776-44.777 44.776zm-8.851-17.365h12.294V56.643c0-1.106.08-2.21.404-3 .889-2.21 2.912-4.496 6.308-4.496 4.449 0 6.228 3.391 6.228 8.364V77.3H83.78V56.09c0-11.361-6.065-16.647-14.154-16.647-6.632 0-9.543 3.707-11.162 6.232h.083V40.31H46.252c.16 3.471 0 36.989 0 36.989zm-6.805 0V40.31H27.153v36.988h12.294zm-6.146-42.042c4.287 0 6.956-2.84 6.956-6.39-.08-3.629-2.669-6.39-6.875-6.39-4.205 0-6.955 2.761-6.955 6.39 0 3.55 2.668 6.39 6.794 6.39h.08z" fill="#000"/>
        </g>
    </g>
</svg>
