<svg width="100" height="100" viewBox="0 0 100 100" xmlns="http://www.w3.org/2000/svg">
    <g fill="#000" fill-rule="evenodd">
        <path d="M53.273 70.622h-2.792c-1.264 0-2.292-1.011-2.292-2.254V38.133a1.177 1.177 0 112.353 0v30.235l2.732-.099-.06-14.58a1.176 1.176 0 112.353 0v14.68c0 1.264-1.007 2.253-2.294 2.253zM39.192 40.188a1.177 1.177 0 01-.954-1.864l2.193-3.032a1.176 1.176 0 011.628-.279l1.037.733c.287.204.576.41.867.614.161-.205.326-.422.495-.644 1.336-1.761 3-3.952 5.495-4.141.68-.054 1.123-.34 1.512-1.703a1.168 1.168 0 011.454-.809c.625.179.986.83.808 1.455-.226.79-.911 3.192-3.592 3.403-1.443.11-2.697 1.761-3.803 3.218-.44.581-.859 1.13-1.291 1.595a1.176 1.176 0 01-1.515.178c-.61-.406-1.205-.83-1.795-1.249l-.072-.051-1.51 2.086c-.23.32-.591.49-.957.49z"/>
        <path d="M44.039 44.494c-1.171 0-2.15-.472-2.82-1.327l-2.917-3.39a1.176 1.176 0 111.784-1.535l2.951 3.432c.256.324.562.468.943.468.349-.021.663-.166.868-.427l3.613-4.335a1.178 1.178 0 011.808 1.506l-3.59 4.308c-.602.768-1.545 1.24-2.635 1.3h-.005z"/>
        <path d="M39.472 39.829a2.915 2.915 0 01-2.927-2.67c-.134-1.479.841-2.841 2.269-3.165 1.468-.34 2.986.498 3.45 1.893a1.176 1.176 0 11-2.232.744c-.086-.253-.413-.407-.697-.342-.283.064-.474.348-.445.661.026.307.27.525.582.525a1.176 1.176 0 010 2.354zM63.724 41.584c-.65 0-1.176-.527-1.176-1.177v-3.75a2.575 2.575 0 00-2.573-2.572 1.177 1.177 0 010-2.354 4.932 4.932 0 014.926 4.926v3.75c0 .65-.527 1.177-1.177 1.177zM58.3 70.622h-2.832a2.257 2.257 0 01-2.254-2.254V53.69a1.176 1.176 0 112.353 0v14.68l2.633-.097V38.133a1.177 1.177 0 112.353 0v30.235a2.256 2.256 0 01-2.253 2.254z"/>
        <path d="M62.567 52.99h-3.19a1.176 1.176 0 110-2.352h3.19l-.02-10.231a1.176 1.176 0 112.354 0v10.25a2.337 2.337 0 01-2.334 2.334z"/>
        <path d="M60.772 56.582h-1.396a1.176 1.176 0 110-2.353h1.396a.613.613 0 00.619-.62v-1.794a1.176 1.176 0 112.353 0v1.794a2.975 2.975 0 01-2.972 2.973zM59.975 34.085c-3.671 0-4.305-1.283-4.911-3.395l-.05-.168a1.178 1.178 0 012.262-.654l.05.172c.43 1.498.485 1.69 2.65 1.69a1.177 1.177 0 010 2.355zM38.554 70.622c-.65 0-1.176-.526-1.176-1.176V42.92a1.176 1.176 0 112.353 0v26.526c0 .65-.527 1.176-1.177 1.176zM38.554 36.318c-.65 0-1.176-.527-1.176-1.176V22.816a1.176 1.176 0 112.353 0v12.326c0 .65-.527 1.176-1.177 1.176z"/>
        <path d="M28.862 27.982a1.178 1.178 0 01-.448-2.265l9.692-3.99a1.177 1.177 0 01.896 2.177l-9.692 3.99c-.147.06-.298.088-.448.088z"/>
        <path d="M38.554 31.97c-.15 0-.3-.028-.448-.088l-9.692-3.989a1.177 1.177 0 01.896-2.176l9.692 3.988a1.177 1.177 0 01-.448 2.265zM54.35 31.85c-1.336 0-2.57-.523-3.573-1.515-2.202-2.179-2.789-5.927-2.789-7.798 0-.71.136-1.314.25-1.694a1.177 1.177 0 112.254.675 3.654 3.654 0 00-.151 1.019c0 2.016.719 4.767 2.091 6.125.576.57 1.233.86 1.946.836 2.871-.03 4.062-4.549 4.062-6.961 0-.331-.053-.694-.15-1.02a1.176 1.176 0 112.253-.674c.114.38.25.984.25 1.694 0 3.84-1.982 9.267-6.39 9.313h-.054z"/>
        <path d="M49.364 22.357a1.177 1.177 0 01-.145-2.344c2.08-.26 4.053-.711 5.863-1.34a1.177 1.177 0 01.772 2.223c-1.965.683-4.1 1.172-6.343 1.452a1.19 1.19 0 01-.147.01z"/>
        <path d="M49.367 22.357c-.448 0-.877-.257-1.074-.69-.655-1.447-.599-2.89.158-4.064 1.027-1.594 3.248-2.545 5.94-2.545a1.177 1.177 0 010 2.354c-1.832 0-3.388.575-3.962 1.466-.322.5-.319 1.094.008 1.816a1.178 1.178 0 01-1.07 1.663z"/>
        <path d="M59.415 22.357a1.175 1.175 0 01-1.07-1.662c.326-.723.329-1.317.007-1.816-.574-.892-2.13-1.467-3.961-1.467a1.176 1.176 0 010-2.354c2.692 0 4.912.951 5.939 2.545.757 1.175.813 2.618.158 4.063a1.178 1.178 0 01-1.073.691z"/>
        <path d="M59.417 22.357l-.057-.001c-1.924-.092-3.495-.66-4.667-1.687a1.176 1.176 0 111.55-1.77c.763.668 1.848 1.04 3.23 1.106a1.176 1.176 0 01-.056 2.352zM49.367 45.254a1.177 1.177 0 01-.71-2.116c3.308-2.5 3.598-5.625.912-9.837a1.178 1.178 0 011.984-1.265c4.221 6.616 1.525 10.71-1.479 12.98-.211.16-.462.238-.707.238zM59.376 51.037h-10.01a1.176 1.176 0 110-2.353h10.01a1.176 1.176 0 110 2.353zM16.177 84.942a1.175 1.175 0 01-.838-2.002l10.33-10.49c.214-.216.502-.343.806-.35l6.621-.189 9.204-6.576a1.178 1.178 0 011.519.132l3.08 3.116 3.477-.31a1.177 1.177 0 11.21 2.345l-4.029.359c-.349.03-.694-.097-.94-.345l-2.769-2.798-8.673 6.199c-.191.136-.418.213-.653.22l-6.507.185-10 10.154c-.23.234-.534.35-.838.35zM83.71 84.942c-.318 0-.634-.127-.867-.379l-7.47-8.117H73.06c-.374 0-.726-.178-.947-.478l-3.74-5.078-2.251 1.224c-.259.142-.561.179-.848.109l-6.86-1.715a1.178 1.178 0 01.572-2.284l6.414 1.604 2.75-1.496a1.174 1.174 0 011.509.336l3.996 5.425h2.236c.328 0 .643.138.866.38l7.819 8.496a1.177 1.177 0 01-.866 1.973z"/>
        <path d="M59.375 45.254c-.249 0-.499-.08-.712-.242-2.98-2.274-5.648-6.371-1.435-12.976a1.177 1.177 0 011.985 1.265c-2.685 4.208-2.406 7.335.877 9.84a1.176 1.176 0 01-.715 2.113zM29.061 84.942a1.176 1.176 0 01-.805-2.034l5.266-4.946c.121-.115.265-.203.423-.256l6.74-2.313a1.175 1.175 0 011.496.731 1.178 1.178 0 01-.731 1.495l-6.501 2.23-5.082 4.775a1.174 1.174 0 01-.806.318z"/>
        <path d="M31.696 82.469c-.42 0-.825-.224-1.038-.618l-1.396-2.594a1.178 1.178 0 01.478-1.594 1.181 1.181 0 011.594.479l1.397 2.593a1.178 1.178 0 01-1.035 1.734zM45.494 81.073a1.174 1.174 0 01-.955-1.86l3.71-5.186a1.175 1.175 0 111.913 1.369l-3.71 5.185c-.23.321-.591.492-.958.492zM74.653 84.942c-.207 0-.417-.054-.609-.17l-6.725-4.08-10.017 1.72a1.191 1.191 0 01-.99-.288l-3.471-3.151a1.177 1.177 0 011.583-1.743l3.045 2.765 9.886-1.697c.279-.048.566.007.81.154l7.1 4.308a1.177 1.177 0 01-.612 2.182z"/>
        <path d="M64.523 81.153a1.17 1.17 0 01-.876-.39l-3.51-3.909a1.176 1.176 0 111.75-1.572l3.51 3.908a1.176 1.176 0 01-.874 1.963z"/>
    </g>
</svg>
