<?xml version="1.0" encoding="UTF-8"?>
<svg width="100px" height="100px" viewBox="0 0 100 100" version="1.1" xmlns="http://www.w3.org/2000/svg" xmlns:xlink="http://www.w3.org/1999/xlink">
    <!-- Generator: Sketch 52.4 (67378) - http://www.bohemiancoding.com/sketch -->
    <title>pdf</title>
    <desc>Created with Sketch.</desc>
    <g id="pdf" stroke="none" stroke-width="1" fill="none" fill-rule="evenodd">
        <rect id="Rectangle" fill="#FFFFF8" x="0" y="0" width="100" height="100"></rect>
        <g opacity="0.8" transform="translate(10.000000, 5.000000)">
            <path d="M45.1585075,89.6552239 C20.4293396,89.6552239 0.38238806,69.6082724 0.38238806,44.8791045 C0.38238806,20.1499366 20.4293396,0.102985075 45.1585075,0.102985075 C69.8876754,0.102985075 89.9346269,20.1499366 89.9346269,44.8791045 C89.9346269,69.6082724 69.8876754,89.6552239 45.1585075,89.6552239 Z M66.8077612,47.1761194 L66.8077612,47.1756716 L74.9077612,47.1756716 C75.2704478,47.1756716 75.5525373,46.8935821 75.5525373,46.5308955 L75.5525373,43.468209 C75.5525373,43.1059701 75.2708955,42.8238806 74.9077612,42.8238806 L66.808209,42.8238806 L66.808209,37.4238806 L77.3256716,37.4238806 C77.6879104,37.4238806 77.97,37.1422388 77.97,36.7791045 L77.97,33.7567164 C77.97,33.3944776 77.6883582,33.1123881 77.3256716,33.1123881 L62.7380597,33.1123881 C62.3758209,33.1123881 62.0937313,33.3940299 62.0937313,33.7567164 L62.0937313,55.9607463 C62.0937313,56.3229851 62.3753731,56.6050746 62.7380597,56.6050746 L66.1629851,56.6050746 C66.5256716,56.6050746 66.8077612,56.3234328 66.8077612,55.9607463 L66.8077612,47.1761194 Z M37.6316418,56.6458209 L45.2883582,56.6458209 C54.1540299,56.6458209 56.8535821,49.7955224 56.8535821,44.7985075 C56.8535821,39.9631343 54.1540299,33.1123881 45.2883582,33.1123881 L37.6316418,33.1123881 C37.269403,33.1123881 36.9873134,33.3940299 36.9873134,33.7567164 L36.9873134,56.0014925 C36.9873134,56.3637313 37.2689552,56.6458209 37.6316418,56.6458209 Z M45.2883582,52.2935821 L41.701791,52.2935821 L41.701791,37.3840299 L45.2883582,37.3840299 C51.2520896,37.3840299 52.0580597,42.9049254 52.0580597,44.7985075 C52.0580597,46.7328358 51.211791,52.2935821 45.2883582,52.2935821 Z M18.8529851,56.0010448 L18.8529851,48.3443284 L23.4873134,48.3443284 C27.3156716,48.3443284 31.3450746,45.3219403 31.3450746,40.6477612 C31.3450746,37.5850746 29.4510448,33.1123881 23.0037313,33.1123881 L14.7832836,33.1123881 C14.4210448,33.1123881 14.1389552,33.3940299 14.1389552,33.7567164 L14.1389552,56.0010448 C14.1389552,56.3632836 14.420597,56.6453731 14.7832836,56.6453731 L18.2086567,56.6453731 C18.5708955,56.6453731 18.8529851,56.3637313 18.8529851,56.0010448 Z M23.3261194,43.9522388 L18.8534328,43.9522388 L18.8534328,37.3840299 L23.2056716,37.3840299 C26.0265672,37.3840299 26.6708955,39.519403 26.6708955,40.6477612 C26.6708955,41.6149254 26.0261194,43.9522388 23.3261194,43.9522388 Z" id="Combined-Shape" fill="#000000"></path>
            <g id="Group" transform="translate(13.880597, 32.686567)"></g>
        </g>
    </g>
</svg>