<svg width="100" height="100" viewBox="0 0 100 100" xmlns="http://www.w3.org/2000/svg">
    <g fill="none" fill-rule="evenodd">
        <path fill="#FFFFF8" d="M0 0h100v100H0z"/>
        <g opacity=".8">
            <path d="M55.159 94.655c-24.73 0-44.777-20.047-44.777-44.776 0-24.73 20.047-44.776 44.777-44.776 24.729 0 44.776 20.047 44.776 44.776 0 24.73-20.047 44.776-44.776 44.776zm21.649-42.479h8.1a.637.637 0 0 0 .645-.645v-3.063a.636.636 0 0 0-.645-.644h-8.1v-5.4h10.518a.636.636 0 0 0 .644-.645v-3.022a.636.636 0 0 0-.644-.645H72.738a.636.636 0 0 0-.644.645V60.96c0 .362.281.644.644.644h3.425a.636.636 0 0 0 .645-.644v-8.785zm-29.176 9.47h7.656c8.866 0 11.566-6.85 11.566-11.847 0-4.836-2.7-11.687-11.566-11.687h-7.656a.636.636 0 0 0-.645.645V61c0 .363.282.645.645.645zm7.656-4.352h-3.586v-14.91h3.586c5.964 0 6.77 5.52 6.77 7.415 0 1.934-.846 7.495-6.77 7.495zM28.853 61v-7.657h4.634c3.829 0 7.858-3.022 7.858-7.696 0-3.063-1.894-7.536-8.341-7.536h-8.22a.636.636 0 0 0-.645.645V61c0 .362.282.644.644.644h3.426a.636.636 0 0 0 .644-.644zm4.473-12.049h-4.473v-6.568h4.353c2.82 0 3.465 2.135 3.465 3.264 0 .967-.645 3.304-3.345 3.304z" fill="#000"/>
        </g>
    </g>
</svg>
