<svg width="100" height="100" viewBox="0 0 100 100" xmlns="http://www.w3.org/2000/svg">
    <title>
        tree
    </title>
    <g fill="#000" fill-rule="evenodd">
        <path d="M42.942 81.569s4.321-2.593 3.457-11.235c-.864-8.93-4.897-10.37-7.778-11.523-3.168-.864-4.897-1.152-7.201-1.152-2.305.288-6.05 1.729-6.05 1.729l4.033-2.305s-1.728-.576-2.592-2.016c-.865-1.153-1.44-2.017-1.44-2.017s2.88 3.169 5.185 3.457c2.304.288 6.913-.288 9.794 1.152 3.168 1.44 6.913 4.897 6.913 4.897s-.288-7.201-2.304-10.37c-2.017-3.169-2.593-4.897-4.61-6.338-2.304-1.152-4.32-1.44-4.32-1.44l4.609.864s-.288-2.592 0-3.745c.576-1.44 1.44-2.304 1.44-2.304s-.864 2.016-.864 3.169c.288.864-.288 2.016 1.152 3.456 1.44 1.729 5.185 6.914 5.762 8.93.576 2.017 1.44 7.202 1.44 7.202s-.288-5.761 2.88-9.794c3.17-4.033 5.474-6.914 5.762-8.066 0-1.44.288-2.305 0-2.88-.288-.577-.576-2.017-.576-2.017s1.728 1.728 1.44 3.745c0 1.728-.288 2.016-.288 2.016s.576-.864 2.017-1.152c1.728 0 2.88.288 2.88.288s-4.32.864-5.185 2.016c-.576 1.44-4.033 5.185-4.897 9.506-.864 4.033-.864 6.338-.864 6.338s4.32-4.61 8.066-4.897c3.745-.288 4.897.288 8.066-.864 3.456-1.153 4.897-4.033 4.897-4.033s-.288 2.304-1.729 3.456c-1.44.865-2.304 1.153-2.304 1.153s2.88.288 4.033 1.44c1.152 1.152 1.152 2.017 1.152 2.017s-.288-1.44-5.185-2.305c-4.897-.864-9.794.576-10.659 2.017-1.152 1.152-6.337 3.456-6.05 10.946.289 7.49 2.882 10.947 6.05 11.235 2.881.288-2.88.288-2.88.288l-3.457 1.44s1.152-2.016-.288-2.016c-1.729 0-7.202 2.304-7.202 2.304s2.304-1.152.864-1.728c-1.44-.288-6.05 0-6.05 0l2.881-.864z"/>
        <path d="M49.856 53.914c-.864 0-1.44-2.016-1.152-3.456 0 .864 0 .576.288 1.152V49.88c.288.289.288.577.576.865 0-.865.288-.865.288-1.729.576.576.288.865.288 1.729.288 0 .288-.288.576-.576v1.44l.288-.576c.288 1.152-.576 2.88-1.152 2.88zM52.737 49.593c-.576.288-1.729-1.44-2.017-2.88.288.864.288.576.576.864 0-.576 0-.864-.576-1.44.576 0 .576.288.864.576 0-.865.288-.865-.288-1.729.865.576.576.576 1.153 1.44 0 0 0-.287.288-.576 0 .577.288.865.288 1.153.288 0 .288-.576.288-.576.576 1.152.288 3.168-.576 3.168zM50.432 39.8c-.576.287-2.016-1.153-2.016-2.594.288.577.288.289.576.577 0-.577-.288-.865-.576-1.44.288 0 .576.575.864.575 0-.576 0-.864-.288-1.728.576.576.576.576.864 1.728.288-.288.288-.576.288-.864.288.576.288.864.288 1.44.288-.288.288-.864.288-.864.576 1.153.576 3.17-.288 3.17zM50.432 26.836c-.576.288-2.016-1.152-2.305-2.593.577.577.577.289.865.577-.288-.577-.288-.865-.576-1.44.288 0 .576.575.864.575-.288-.576 0-.864-.288-1.728.576.576.576.576.864 1.728.288-.288.288-.576.288-.864.288.576.288.864.288 1.44.288-.288.288-.864.288-.864.576 1.153.576 3.17-.288 3.17zM38.91 24.244c-.577.288-2.017-1.44-2.305-2.881.576.864.576.576.864.864-.288-.576-.288-.864-.576-1.44.288 0 .576.288.864.576-.288-.864 0-.864-.288-1.728.576.576.576.576.864 1.44.289 0 .289-.288.289-.576.288.576.288.864.288 1.152.288 0 .288-.576.288-.576.576.864.576 3.169-.289 3.169zM28.827 32.31c-.576.287-1.728-1.153-2.016-2.593.288.576.288.288.576.864 0-.576-.288-1.152-.576-1.728.576.288.576.576.864.864 0-.864.288-.864-.288-2.017.864.576.576.865.864 1.729.288-.288.288-.576.576-.864 0 .576.288 1.152.288 1.44l.289-.576c.575.864.287 2.88-.577 2.88zM25.658 38.359c-.864.288-2.016-1.153-2.304-2.593.576.576.576.288.864.864-.288-.576-.288-.864-.864-1.728.576.288.864.576 1.152.864-.288-.864 0-.864-.288-1.728.576.288.576.576.864 1.44.288 0 .288-.576.288-.864.288.576.288 1.152.288 1.44.289 0 .289-.576.289-.576.576.864.288 2.88-.289 2.88zM35.74 37.495c-.575.288-1.728-1.44-2.016-2.881.288.864.288.576.576.864 0-.576 0-.864-.576-1.44.576 0 .576.288.864.576 0-.864.289-.864-.288-1.728.865.576.576.576 1.153 1.44 0 0 0-.288.288-.576 0 .576.288.864.288 1.152l.288-.576c.576 1.152.288 3.169-.576 3.169zM57.058 32.021c-.576.288-1.729-1.152-2.017-2.592.288.576.288.288.576.864 0-.576 0-.864-.576-1.728.576.288.576.576.864.864 0-.864.289-.864-.288-1.729.865.288.576.576 1.153 1.44.288 0 0-.575.288-.864 0 .577.288 1.153.288 1.44.288 0 .288-.575.288-.575.576.864.288 2.88-.576 2.88zM29.115 44.408c-.576.288-1.728-1.44-2.016-2.88.288.864.288.287.576.864 0-.577-.288-.865-.576-1.44.576 0 .576.287.864.575 0-.864.288-.864-.288-1.728.864.576.576.576 1.152 1.44 0 0 0-.288.288-.864 0 .864.288 1.152.288 1.44l.289-.576c.575.865.287 2.881-.577 3.17zM38.621 29.429c-.864.288-2.016-1.44-2.304-2.88.288.863.288.287.576.863 0-.576 0-.864-.576-1.44.576 0 .576.288.864.576 0-.864.288-.864-.288-1.728.864.576.576.576 1.152 1.44.288 0 0-.288.288-.864 0 .864.289 1.152.289 1.44.288 0 .288-.576.288-.576.576.864.288 2.88-.289 3.169zM23.642 46.713c-.864.288-2.016-1.44-2.304-2.881.576.864.576.576.864.864-.288-.576-.288-.864-.864-1.44.576 0 .864.288 1.152.576-.288-.576 0-.864-.288-1.728.576.576.576.576.864 1.44.288 0 .288-.288.288-.576.288.576.288.864.288 1.152.288 0 .288-.576.288-.576.576 1.152.288 3.169-.288 3.169zM32.572 52.474c-.576.288-2.016-1.44-2.016-2.88.288.864.288.575.576.864 0-.577-.288-.865-.576-1.44.288 0 .576.287.864.575 0-.864 0-.864-.288-1.728.576.576.576.576.864 1.44.288 0 .288-.288.288-.576.288.576.288.864.288 1.152.288 0 .288-.576.288-.576.576 1.153.576 3.169-.288 3.169zM38.621 43.256c-.864 0-2.016-1.44-2.304-2.88.576.575.576.287.864.863-.288-.576-.288-.864-.864-1.728.576.288.864.576 1.152.864-.288-.864 0-.864-.288-1.728.576.288.576.576.864 1.44.288 0 .288-.288.288-.864.289.576.289 1.152.289 1.44.288 0 .288-.576.288-.576.576.864.576 2.88-.289 3.169zM31.708 24.532c-.864.288-2.017-1.44-2.305-2.881.576.864.576.576.865.864-.289-.576-.289-.864-.865-1.44.576 0 .865.288 1.153.576-.289-.864 0-.864-.289-1.728.577.576.289.576.865 1.44.288 0 .288-.288.288-.576.288.576.288.864.288 1.152.288 0 .288-.576.288-.576.576 1.152.288 3.169-.288 3.169zM25.082 52.474c-.864 0-2.016-1.44-2.304-2.88.288.864.576.287.864.864-.288-.577-.288-.865-.864-1.44.576 0 .864.287.864.575 0-.864.288-.864 0-1.728.576.576.288.576.864 1.44.288 0 0-.288.288-.864.288.864.288 1.152.288 1.44.289 0 .289-.576.289-.576.576.864.287 2.88-.289 3.169zM46.687 49.017c-.576-.288-.288-2.304.576-3.457-.288.865 0 .577 0 1.153.288-.576.576-.865.576-1.44.288.287.288.575.288 1.152.289-.577.577-.577 1.153-1.44 0 .863-.288.863-.576 1.728.288 0 .288 0 .864-.289l-1.152 1.153c.288 0 .864-.288.864-.288-.288 1.152-2.017 2.304-2.593 1.728zM42.078 37.783c-.576-.289-.288-2.305.864-3.457-.288.864 0 .576-.288 1.152.576-.576.576-.864.865-1.44.288.288 0 .576 0 1.152.576-.576.864-.576 1.152-1.44 0 .864 0 .864-.576 1.728.288 0 .576-.288.864-.288-.288.576-.576.864-.864 1.152.288 0 .576-.288.576-.288-.288 1.152-2.017 2.305-2.593 1.729zM60.226 42.968c-.576-.576 0-2.305.865-3.457-.289.576 0 .576-.289.864.577-.288.577-.576.865-1.44.288.576 0 .864 0 1.152.576-.576.864-.288 1.152-1.152.288.864 0 .576-.576 1.44.288.288.576 0 .864 0-.288.576-.576.864-.864.864.288.289.576 0 .576 0-.288 1.153-2.017 2.305-2.593 1.729zM74.053 51.61c-.576-.288-.288-2.305.865-3.457-.288.864 0 .576-.288 1.152.576-.576.576-.864.864-1.44.288.288 0 .576 0 1.152.576-.576.864-.576 1.152-1.44 0 .864 0 .864-.576 1.728.288 0 .576-.288.864-.288-.288.576-.576.865-.864 1.153.288 0 .576-.289.576-.289-.288 1.153-2.016 2.305-2.593 1.729zM69.444 44.408c-.576-.576-.288-2.593.865-3.457-.288.576 0 .576-.288.864.576-.288.576-.576.864-1.44.288.576 0 .864 0 1.152.576-.576.864-.576 1.152-1.44.288.864 0 .864-.576 1.729.288.288.576 0 .864 0-.288.288-.576.864-.864.864.288.288.576 0 .576 0-.288.864-2.016 2.304-2.593 1.728zM54.753 57.66c-.576-.289-.288-2.305.864-3.17-.576.577-.288.289-.288.865.288-.288.576-.576.865-1.44v1.152c.576-.577.576-.577 1.152-1.44 0 .863-.288.863-.576 1.728.288.288.288 0 .864-.289-.576.577-.576.865-.864 1.153 0 .288.576 0 .576 0-.288.864-2.017 2.016-2.593 1.44zM73.19 38.647c-.577-.288 0-2.305.863-3.457-.288.864 0 .576-.288 1.152.576-.576.576-.864.865-1.44.288.288 0 .576 0 .864.576-.576.864-.288 1.152-1.152.288.864 0 .864-.576 1.728.288 0 .576-.288.864-.288-.288.576-.576.864-.864 1.152.288 0 .576-.288.576-.288-.288 1.153-2.017 2.305-2.593 1.729zM61.667 33.462c-.576-.289-.288-2.305.576-3.457-.288.864 0 .576 0 1.152.288-.576.576-.864.576-1.728.288.576.288.864.288 1.152.288-.576.576-.288 1.152-1.152 0 .864-.288.864-.576 1.728.288 0 .288-.288.864-.288-.576.576-.864.864-1.152.864.288.288.864 0 .864 0-.288 1.152-2.016 2.305-2.592 1.729zM67.716 24.244c-.864-.289-.288-2.305.576-3.457-.288.864 0 .576-.288 1.152.576-.576.576-.864.864-1.44.288.288 0 .576 0 .864.576-.576.865-.288 1.153-1.152.288.864 0 .864-.577 1.728.289 0 .577-.288.865-.288-.288.576-.576.864-.865 1.152.289 0 .865-.288.865-.288-.576 1.152-2.017 2.305-2.593 1.729zM68.868 28.276c-.864-.576-.288-2.592.576-3.456-.288.576 0 .576 0 .864.289-.288.289-.576.577-1.44.288.576 0 .864 0 1.152.576-.576.864-.288 1.152-1.152.288.864 0 .576-.576 1.44.288.288.576 0 .864 0-.288.576-.576.864-.864.864.288.288.864 0 .864 0-.576.864-2.017 2.305-2.593 1.728zM44.67 58.235c-.575.288-2.304-.864-2.88-2.016.576.576.288.288.864.576-.288-.576-.576-.864-1.152-1.44.576 0 .864.288 1.152.576-.288-.864-.288-.864-.864-1.729.864.289.576.577 1.44 1.153v-.865c.289.577.577.865.577 1.153.288 0 .288-.576.288-.576.864.864 1.152 2.592.576 3.168zM53.6 35.478c-.575.576-2.304-.576-2.88-2.016.576.576.288.288.864.576-.288-.576-.576-.865-1.152-1.153.576 0 .864.289 1.152.289-.288-.577-.288-.865-.864-1.44.864 0 .576.287 1.44 1.152v-.865c.289.577.577.865.577 1.153.288-.288.288-.576.288-.576.864.576 1.152 2.592.576 2.88zM48.416 22.227c-.577.288-2.305-.864-2.881-2.016.576.576.576.288.864.576-.288-.576-.288-.864-.864-1.44.288 0 .576.288.864.576-.288-.865 0-.865-.576-1.729.576.288.576.576 1.152 1.152.288 0 0-.288.288-.864.289.576.577.864.577 1.152.288 0 0-.576 0-.576.864.865 1.44 2.593.576 3.169zM34.3 40.087c-.576.576-2.304-.576-2.88-2.016.576.576.288.288.864.576l-1.152-1.153c.576 0 .576.289 1.152.289-.576-.577-.288-.865-.864-1.44.864.287.576.287 1.44 1.152v-.865c.288.577.576.865.576 1.153.288 0 0-.576 0-.576 1.152.576 1.44 2.592.864 2.88zM30.267 27.988c-.576.289-2.304-.864-2.88-2.016.576.576.576.288.864.576-.288-.576-.288-.864-.864-1.44.288 0 .576.288.864.576-.288-.864 0-.864-.576-1.729.576.289.576.577 1.152 1.153.288 0 .288-.288.288-.864.288.576.576.864.576 1.152.289 0 0-.576 0-.576.865.864 1.44 2.88.576 3.168zM53.889 44.696c-.576.288-2.305-.864-2.88-2.016.575.576.575.288.863.576-.288-.576-.576-.864-1.152-1.44.576 0 .864.288 1.152.576-.288-.865 0-.865-.576-1.729.576.288.576.288 1.153 1.152.288 0 0-.288.288-.864.288.576.288 1.152.576 1.44v-.864c.864.865 1.152 2.881.576 3.17zM55.905 25.108c-.864 0-1.728-1.729-1.44-3.17 0 .865 0 .289.288.865 0-.576 0-.864-.288-1.728.576.288.576.576.864.864 0-.576.288-.576 0-1.728.576.576.288.864.576 1.728.289 0 .289-.288.577-.576v1.152c.288 0 .288-.576.288-.576.576 1.152 0 3.169-.865 3.169zM33.436 30.005c-.864.288-1.728-1.44-1.728-3.169.288.864.288.576.576 1.152 0-.576 0-1.152-.288-1.728.576.288.576.576.864.864v-1.728c.576.576.288.576.576 1.728.288-.288.288-.576.576-.864v1.44l.288-.576c.288 1.152-.288 3.169-.864 2.88zM64.547 55.643c-.576.288-1.728-1.44-1.44-2.881 0 .576 0 .288.288.864 0-.576 0-1.152-.288-1.728.576.288.576.576.864.864 0-.864.288-.864 0-1.728.576.576.288.576.576 1.728.289-.288.289-.576.577-.864v1.44c.288 0 .288-.576.288-.576.576 1.152 0 3.169-.865 2.88zM73.477 60.252c.576 0 1.44 2.016.865 3.457 0-.865 0-.577-.289-.865 0 .576 0 .865.289 1.44-.577-.287-.577-.575-.865-.864 0 .865-.288.865-.288 1.729-.576-.576-.288-.864-.288-1.729-.288 0-.288.289-.576.577 0-.577 0-1.153.288-1.44-.288 0-.576.575-.576.575-.288-1.152.576-2.88 1.44-2.88zM26.81 66.59c.577 0 1.441 2.016.865 3.456 0-.864 0-.576-.288-1.152v1.728c-.288-.288-.288-.576-.576-.864 0 .576-.288.576-.288 1.728-.577-.864-.289-.864-.289-1.728-.288 0-.288.288-.576.576 0-.576 0-1.152.288-1.44-.288 0-.576.576-.576.576-.288-1.152.577-3.169 1.44-2.88zM73.477 66.59c.576 0 1.44 2.016.865 3.456 0-.864 0-.576-.289-1.152 0 .576 0 1.152.289 1.728-.577-.288-.577-.576-.865-.864 0 .576-.288.576-.288 1.728-.576-.864-.288-.864-.288-1.728-.288 0-.288.288-.576.576 0-.576 0-1.152.288-1.44-.288 0-.576.576-.576.576-.288-1.152.576-3.169 1.44-2.88zM20.761 64.86c.577.289 0 2.305-.864 3.458.288-.865 0-.576.288-1.153-.576.577-.576.865-.864 1.44-.288-.287 0-.863 0-1.151-.576.576-.864.576-1.44 1.44 0-.864.288-.864.864-1.728-.288-.289-.576 0-.864.288.288-.576.576-.865.864-1.153-.288-.288-.576.289-.576.289.288-1.153 2.016-2.305 2.592-1.73zM67.716 64.573c.576.576 0 2.304-.864 3.457.288-.865 0-.577.288-1.153-.576.576-.864.865-.864 1.44-.288-.287 0-.575 0-1.152-.576.577-.865.577-1.44 1.44 0-.863.288-.863.864-1.728-.289 0-.576 0-.865.289.289-.577.576-.865.865-1.153-.289 0-.576.288-.576.288.287-1.152 2.016-2.304 2.592-1.728zM76.07 59.964c.288-.288 2.304.576 2.88 1.728-.575-.288-.575 0-.864-.288l1.153 1.152c-.576 0-.865-.288-1.153-.288.577.576.289.864.865 1.44-.865-.288-.576-.288-1.44-1.152v.864c-.289-.288-.577-.864-.577-1.152-.288.288 0 .864 0 .864-1.152-.864-1.728-2.592-.864-3.168zM44.67 46.425c-.863.288-1.728-1.44-1.728-2.881.288.576.288.288.576.864-.288-.576-.288-.864-.576-1.728.576.288.576.576.865.864 0-.864.288-.864 0-1.728.576.576.288.576.576 1.44.288 0 .288-.288.576-.576v1.44c.288 0 .288-.576.288-.576.576.864.288 2.88-.576 2.88zM40.638 34.902c-.576.288-1.729-1.44-1.729-2.88.289.575.289.287.577.863 0-.576 0-.864-.577-1.728.577.288.577.576.865.864 0-.864.288-.864 0-1.728.576.576.576.576.864 1.728.288-.288.288-.576.288-.864.288.576.288 1.152 0 1.44.288 0 .576-.576.576-.576.288.864 0 2.881-.864 2.881zM31.996 35.19c-.864 0-1.728-1.728-1.728-3.169.288.864.288.576.576.864 0-.576-.288-.864-.576-1.44.576 0 .576.288.864.576 0-.576.288-.864 0-1.728.576.576.288.576.576 1.728.288 0 .288-.576.576-.864v1.44c.288 0 .288-.576.288-.576.576 1.153.288 3.17-.576 3.17zM29.98 35.766c-.289.576-2.305.288-3.17-.864.577.288.289 0 .865.288-.288-.576-.864-.576-1.44-.864.576-.288.864 0 1.152 0-.576-.576-.288-.864-1.152-1.152.864 0 .576 0 1.44.576.288-.288 0-.576 0-.865.576.289.864.577.864.865.288 0 0-.576 0-.576.864.288 2.017 2.016 1.44 2.592zM22.49 37.495c-.576.576-2.593.288-3.457-.865.576.289.576.289.864.289-.288-.289-.576-.577-1.44-.865.576-.288.864 0 1.152 0-.576-.576-.288-.576-1.152-1.152.864 0 .864 0 1.728.576 0-.288-.288-.288-.288-.864.576.576.864.864 1.152.864l-.288-.576c1.153.576 2.305 2.304 1.729 2.593zM25.658 42.104c-.288.576-2.304.288-3.456-.865.864.288.576 0 1.152.288-.288-.576-.864-.576-1.44-.864.576-.288.864 0 1.152 0-.576-.576-.576-.864-1.44-1.44 1.152 0 .864.288 1.728.864.288-.288 0-.576 0-.864l.864.864c.288-.288 0-.576 0-.576.864.288 2.017 2.016 1.44 2.593zM25.658 31.733c-.288.576-2.304.288-3.456-.864.864.288.576 0 1.152.288-.288-.288-.864-.576-1.44-.864.576-.288.864 0 1.152 0-.576-.576-.576-.864-1.44-1.152 1.152 0 .864 0 1.728.576.288-.288 0-.576 0-.864l.864.864c.288 0 0-.576 0-.576.864.288 2.017 2.016 1.44 2.592zM73.765 31.445c-.288-.576 1.153-2.016 2.593-2.304-.576.576-.288.576-.864.864.576-.288 1.152-.288 1.728-.864-.288.576-.576.864-.864 1.152.864-.288.864 0 1.728-.576-.288.864-.576.576-1.44 1.152.288.288.576 0 .864.288-.576.288-1.152.288-1.44.288 0 .288.576.288.576.288-.864.576-2.88.576-2.88-.288zM78.086 46.713c-.288-.576 1.44-2.017 2.881-2.305-.864.576-.576.576-.864.864.576-.288.864-.288 1.44-.864 0 .576-.288.864-.576.864.864 0 .864.288 1.728-.288-.576.864-.576.576-1.44 1.152 0 .289.288 0 .576.289-.576.288-.864.288-1.152.288 0 .288.576.288.576.288-1.152.576-3.169.576-3.169-.288zM79.239 55.355c-.288-.576 1.152-1.729 2.592-2.017-.576.288-.288.288-.864.576.576 0 .864-.288 1.728-.576-.288.576-.576.576-.864.864.864 0 .864 0 1.729-.288-.289.865-.577.576-1.44.865 0 .288.575.288.863.288-.576.288-1.152.288-1.44.288 0 .288.576.288.576.288-.864.864-2.88.576-2.88-.288zM80.391 62.268c.288-.576 2.304-.288 3.169.864-.577-.288-.577 0-.865-.288.288.288.577.576 1.44.865-.575.288-.863 0-1.152 0 .577.576.289.576 1.153 1.152-.864 0-.864 0-1.729-.576 0 .288.288.576.288.864-.576-.288-.864-.576-.864-.864-.288 0 0 .576 0 .576-1.152-.288-2.016-2.017-1.44-2.593zM79.239 64.86c.576-.287 2.016.865 2.304 2.305-.288-.576-.288-.288-.576-.576 0 .576.288.864.864 1.44-.576-.288-.864-.576-1.152-.576.288.577.288.865.576 1.729-.576-.576-.576-.576-1.152-1.44-.288 0 0 .576 0 .864-.288-.576-.576-1.153-.576-1.44-.288.287-.288.864-.288.864-.576-.865-.865-2.881 0-3.17zM75.494 63.709c.576-.289 2.016 1.44 2.016 2.88-.288-.576-.288-.288-.576-.864 0 .576 0 .864.576 1.728-.576-.288-.576-.576-.864-.864 0 .864-.288.864 0 1.728-.576-.576-.288-.576-.864-1.44 0 0 0 .288-.288.576 0-.576-.289-.864 0-1.152-.289 0-.577.576-.577.576-.576-1.152-.287-3.168.577-3.168zM70.309 63.997c.576-.289 1.44 1.728 1.44 3.168-.288-.864-.288-.576-.576-1.152 0 .576 0 1.152.288 1.728-.576-.288-.576-.576-.864-.864 0 .864-.288.864 0 1.729-.576-.577-.288-.577-.576-1.729-.288.288-.288.576-.576.864v-1.44l-.289.576c-.288-1.152.288-3.168 1.153-2.88zM67.14 59.388c.288.576-1.44 2.016-2.88 2.016.864-.288.287-.288.864-.576-.577 0-.865 0-1.729.576.288-.576.576-.576.864-.864-.864 0-.864-.288-1.728 0 .576-.576.576-.576 1.44-.864 0-.289-.288-.289-.576-.289.576-.288.865-.288 1.44-.288-.287 0-.864-.288-.864-.288 1.153-.576 3.169-.288 3.169.577zM65.988 63.42c.288.577-1.44 1.729-2.881 2.017.576-.288.288-.288.864-.576-.576 0-.864 0-1.728.288l.864-.864c-.864.288-.864 0-1.728.288.576-.576.576-.576 1.44-.864 0-.289-.288-.289-.576-.289.576-.288.864-.288 1.152-.288 0-.288-.576-.288-.576-.288 1.152-.576 3.169-.288 3.169.576zM70.02 59.676c.577.288.577 2.304-.288 3.456.289-.864 0-.576 0-1.152-.288.576-.288.864-.288 1.729-.288-.577-.288-.865-.288-1.153-.576.576-.576.576-.864 1.44-.288-.864-.288-.864.288-1.728-.288 0-.576 0-.864.288.288-.576.576-.864.576-1.152l-.576.288c.288-1.152 1.728-2.592 2.305-2.016zM73.477 56.507c0-.576 1.729-1.728 3.17-1.728-.865.288-.577.288-1.153.576.864 0 1.152 0 1.728-.288l-.864.864h1.728c-.576.576-.576.288-1.44.576 0 .288.288.288.576.288-.576.288-.864.288-1.44.288l.576.288c-.864.288-2.88 0-2.88-.864zM78.663 59.1c-.289-.577 1.44-1.729 2.88-1.729-.576.288-.288.288-.864.576.576 0 .864 0 1.728-.288-.288.288-.576.576-.864.576.864.288.864.288 1.729.288-.577.577-.577.289-1.729.577.288.288.576.288.864.288-.576.288-1.152.288-1.44.288l.576.288c-1.152.288-3.169 0-2.88-.864zM59.65 56.219c-.576-.288-.576-2.305 0-3.457v.864c.288-.288.576-.864.576-1.44.288.288.288.576.288 1.152.289-.864.577-.864.865-1.728.288.864 0 .864-.288 1.728.288.288.576 0 .864-.288-.288.576-.576.864-.576 1.152 0 .288.576-.288.576-.288-.288 1.153-1.44 2.593-2.305 2.305zM39.486 56.507c-.865.288-2.017-1.44-2.017-2.88.288.864.288.575.576.864 0-.577-.288-.865-.576-1.44.576 0 .576.287.864.575 0-.864 0-.864-.288-1.728.864.576.576.576.864 1.44.289 0 .289-.288.289-.576.288.576.288.864.288 1.44.288-.288.288-.864.288-.864.576 1.152.288 3.169-.288 3.169zM34.877 56.219c-.577 0-1.153-2.017-.865-3.457 0 .864.288.576.288 1.152v-1.728c.289.288.289.576.577.864.288-.576.288-.576.288-1.728.576.864.288.864.288 2.016.288 0 .576-.576.864-.864-.288.864-.288 1.152-.288 1.44l.288-.288c.288.864-.576 2.88-1.44 2.593zM31.132 55.643c-.576.576-2.017-.865-2.305-2.305.288.576.288.288.576.576 0-.576-.288-.864-.864-1.44.576.288.864.576 1.152.576-.288-.576 0-.864-.576-1.728.865.576.576.576 1.153 1.44.288 0 .288-.288.288-.864.288.576.288 1.152.288 1.44.288 0 .288-.576.288-.576.864.864.864 2.88 0 2.88zM27.099 52.474c-.864 0-1.152-2.016-.576-3.457v1.152c.288-.576.288-1.152.288-1.728.288.288.288.576.576.864.288-.576.288-.576.576-1.44.288.576 0 .576 0 1.728.288 0 .288-.288.576-.576 0 .576 0 1.153-.288 1.44.288 0 .576-.575.576-.575 0 1.152-1.152 2.88-1.728 2.592zM26.235 47.865c-.865 0-1.729-2.017-1.44-3.457.287.864.287.576.575 1.152 0-.576 0-1.152-.288-1.728.288.288.576.576.576.864.288-.864.288-.864.288-1.728.577.576.289.576.577 1.728.288 0 .288-.288.576-.576 0 .576 0 .864-.288 1.152.288 0 .576-.288.576-.288.288.864-.576 2.88-1.152 2.88zM43.23 52.474c-.288.576-2.304.576-3.456-.288.864.288.576 0 1.152 0-.576-.288-.864-.288-1.728-.576.576-.288.864 0 1.152 0-.576-.576-.576-.864-1.44-1.152.864 0 .864 0 1.728.288 0 0-.288-.288-.288-.576.576.288.864.288 1.152.576 0-.288-.288-.576-.288-.576 1.152.288 2.593 1.728 2.016 2.304zM40.926 48.441c.288.576-1.44 1.728-2.88 1.728.575-.288.287-.288.864-.576-.577 0-.865 0-1.729.288l.864-.864h-1.728c.576-.576.576-.288 1.728-.576-.288-.288-.576-.288-.864-.576h1.44l-.576-.288c1.153-.288 3.169 0 2.881.864zM36.893 45.272c.576.576 0 2.305-1.152 3.457.576-.864.288-.576.288-1.152-.288.576-.576.864-.864 1.44-.289-.576 0-.864 0-1.152-.577.576-.577.288-1.153 1.152 0-.864 0-.864.576-1.44 0-.288-.288 0-.864 0 .576-.576.864-.864 1.152-.864-.288-.288-.576 0-.576 0 .288-1.153 2.017-2.017 2.593-1.44zM34.588 44.696c.289.864-1.44 2.017-2.88 2.017.576-.288.288-.288.864-.576-.576 0-1.152 0-1.728.288l.864-.865c-.864 0-.864 0-1.729.288.577-.864.577-.576 1.44-.864 0-.288-.287-.288-.575-.288.576-.288.864-.288 1.152-.288 0-.288-.576-.288-.576-.288 1.152-.576 3.168 0 3.168.576zM36.317 43.544c-.576.576-2.305 0-3.457-.864.864.288.576 0 1.152.288-.576-.576-.864-.576-1.44-.864.288-.289.576 0 1.152 0-.576-.577-.576-.865-1.44-1.44.864 0 .864.287 1.728.863 0-.288 0-.576-.288-.864.576.288.864.576 1.152.864 0-.288-.288-.576-.288-.576 1.153.288 2.305 2.017 1.729 2.593zM41.214 21.939c-.864 0-1.728-1.728-1.44-3.169.288.576.288.288.576.865 0-.577 0-.865-.288-1.729.576.288.576.864.576 1.152.288-.864.576-.864.288-2.016.576.864.576.864.576 1.728.288 0 .288-.288.576-.576 0 .865 0 1.153-.288 1.44.288 0 .576-.575.576-.575.288 1.152-.576 3.168-1.152 2.88zM34.588 25.396c-.576 0-1.44-1.729-1.152-3.169 0 .576.288.288.288.864.288-.576.288-.864 0-1.728.288.288.288.576.576.864.289-.576.289-.576.289-1.728.576.864.288.864.576 1.728.288 0 .288-.288.288-.576.288.576 0 1.152 0 1.44.288 0 .576-.576.576-.576.288 1.152-.576 3.169-1.44 2.88zM65.124 25.108c-.577 0-1.44-2.017-1.153-3.457 0 .864.288.576.288 1.152.289-.576 0-1.152 0-1.728.289.288.289.576.577.864.288-.864.288-.864.288-1.728.576.576.288.864.288 1.728.288 0 .576-.288.576-.576v1.44c.288 0 .288-.576.288-.576.288 1.152-.288 2.88-1.152 2.88zM59.362 35.19c-.576.288-1.44-1.728-1.152-3.169 0 .864.288.576.288.864v-1.44c.288.288.288.576.576.864 0-.864.288-.864.288-1.728.576.576.288.576.288 1.728.289 0 .289-.288.577-.576v1.153c.288 0 .288-.288.288-.288.287.864-.289 2.88-1.153 2.592zM43.23 32.31c-.864 0-1.44-1.73-1.152-3.17 0 .865 0 .577.288.865 0-.576 0-.864-.288-1.44.576.288.576.576.864.864 0-.865.289-.865.289-1.729.288.576.288.576.288 1.729.288 0 .288-.577.576-.865 0 .865 0 1.153-.288 1.44.288 0 .576-.575.576-.575.288 1.152-.288 3.168-1.153 2.88zM68.004 34.614c-.864 0-1.44-2.017-1.44-3.457.288.864.288.576.576 1.152 0-.576 0-1.152-.288-1.728.576.288.576.576.864.864 0-.864.288-.864 0-1.728.576.576.576.576.576 1.728.288 0 .288-.288.576-.576 0 .576 0 .864-.288 1.152.288.288.576-.288.576-.288.288 1.152-.576 2.88-1.152 2.88zM59.074 21.939c-.864.288-2.016-1.152-2.304-2.593.288.577.288.289.576.577 0-.577-.288-.865-.576-1.44.288 0 .576.287.864.575-.288-.576 0-.864-.288-1.728.576.576.576.576.864 1.44.288 0 .288-.288.288-.864.288.864.288 1.152.288 1.44.288 0 .288-.576.288-.576.864.865.576 2.88 0 3.169zM37.47 33.462c-.577.288-2.017-1.153-2.305-2.593.288.576.288.288.576.576 0-.576-.288-.864-.576-1.44.288 0 .576.288.864.576-.288-.864 0-.864-.288-1.729.576.577.576.577.864 1.44.288 0 .288-.287.288-.864.288.865.288 1.153.288 1.44.288 0 .288-.575.288-.575.864.864.576 2.88 0 3.169zM21.05 40.375c0 .576-1.729 1.729-3.17 1.729.865-.289.577-.289 1.153-.577-.576 0-1.152 0-1.728.289.288-.577.576-.577.864-.865H16.44c.577-.576.577-.288 1.44-.576 0-.288-.287-.288-.575-.576h1.44c0-.288-.576-.288-.576-.288.864-.576 2.88 0 2.88.864zM21.337 49.593c0 .576-1.728 1.729-3.168 1.44.864 0 .576-.287.864-.287-.576 0-.864 0-1.44.288 0-.576.576-.576.576-.865-.576 0-.576-.288-1.729 0 .576-.576.864-.288 1.729-.576 0-.288-.288-.288-.576-.576h1.152c0-.288-.576-.288-.576-.288 1.152-.576 3.168 0 3.168.864zM21.05 47c-.289.577-2.305.577-3.457-.287h.864c-.288-.288-.576-.576-1.44-.576.576-.289.864-.289 1.152-.289-.576-.576-.576-.576-1.44-1.152.864 0 .864.288 1.728.576 0-.288-.288-.576-.288-.864.576.288.864.576 1.152.864 0-.288-.288-.576-.288-.576 1.152.288 2.593 1.729 2.016 2.305zM20.185 55.355c0 .576-2.016.864-3.457.288h1.153c-.576-.288-.865-.288-1.729-.288.576-.288.864-.288 1.153-.576-.577-.289-.577-.289-1.729-.577.864-.288.864-.288 2.017 0 0-.288-.289-.288-.577-.576.577 0 .865.288 1.153.288.288 0-.288-.576-.288-.576 1.152 0 2.88 1.44 2.304 2.017zM24.794 54.202c0 .577-2.016.865-3.457.289.865 0 .577-.289 1.153-.289-.576 0-.865-.288-1.729-.288.288-.288.576-.288 1.153-.288-.865-.288-.865-.576-1.729-.576.864-.576.864-.288 1.729 0 0-.288-.289-.576-.289-.864.577.288.865.288 1.153.576 0-.288-.288-.576-.288-.576 1.152 0 2.592 1.152 2.304 2.016zM25.947 56.795c0 .576-1.729 1.44-3.17 1.44.577-.288.289-.288.865-.576-.576 0-.864 0-1.728.288.288-.288.576-.576.864-.576-.576-.288-.576-.288-1.728-.288.576-.576.864-.288 1.728-.576 0-.288-.288-.288-.576-.288.576-.288.864-.288 1.152 0 0-.288-.288-.576-.288-.576.864-.288 2.88.288 2.88 1.152zM21.05 59.1c0 .576-1.729 1.728-3.17 1.44.865-.288.577-.288.865-.576-.576 0-.864.288-1.44.288 0-.288.576-.288.864-.576-.864 0-.864-.288-1.729-.288.577-.576.577-.288 1.44-.576 0 0-.287-.289-.575-.289h1.44c0-.288-.576-.576-.576-.576 1.152-.288 2.88.288 2.88 1.153zM19.321 62.556c.288.576-1.152 2.017-2.593 2.305.865-.288.577-.288.865-.576-.577 0-.865.288-1.44.576 0-.288.287-.576.575-.865-.864.289-.864 0-1.728.289.576-.577.576-.577 1.44-.865 0-.288-.576-.288-.864-.288.576-.288 1.152-.288 1.44-.288 0-.288-.576-.288-.576-.288.865-.864 2.881-.864 2.881 0zM24.794 59.676c.576.576-.864 2.304-2.016 2.88.576-.576.288-.576.576-.864-.576.288-.864.288-1.44.864 0-.576.288-.576.576-1.152-.865.288-.865.288-1.729.864.288-.864.576-.864 1.44-1.44h-.864c.576-.288.865-.576 1.153-.576 0-.288-.577-.288-.577-.288.865-.576 2.881-.864 2.881-.288zM24.218 63.709c.576 0 .864 2.016.288 3.456v-1.152c-.288.576-.288 1.152-.288 1.729-.288-.289-.288-.577-.576-1.153l-.576 1.729c-.288-.865-.288-.865 0-1.729-.288 0-.288.288-.576.576 0-.576.288-1.152.288-1.44-.288 0-.576.576-.576.576 0-1.152 1.152-2.88 2.016-2.592zM26.523 59.964c.864-.288 1.728 1.728 1.44 3.168-.288-.864-.288-.576-.576-.864 0 .576 0 .864.288 1.44-.576-.288-.576-.576-.864-.864 0 .864-.288.864 0 1.729-.576-.577-.576-.577-.576-1.729-.288 0-.288.288-.576.576 0-.576 0-.864.288-1.152-.288 0-.576.288-.576.288-.289-.864.576-2.88 1.152-2.592zM29.115 59.1c.576-.289 2.305.864 2.88 2.016-.575-.576-.287-.288-.863-.576.288.576.576.864 1.152 1.44-.576 0-.864-.288-1.152-.288.288.576.288.576.864 1.44-.864-.288-.864-.288-1.44-1.152-.289.288 0 .576 0 .864-.289-.576-.577-.864-.577-1.152-.288 0-.288.576-.288.576-.864-.864-1.152-2.88-.576-3.168zM33.724 58.811c.576-.288 1.729 1.44 1.729 2.881-.288-.576-.288-.288-.576-.864 0 .576.288 1.152.576 1.728-.576-.288-.576-.576-.865-.864 0 .864-.288.864 0 1.728-.576-.576-.288-.576-.576-1.44-.288 0-.288.288-.576.576v-1.44c-.288 0-.288.576-.288.576-.576-.864-.288-2.88.576-2.88zM28.827 63.997c.864 0 2.017 1.44 2.017 3.168-.288-.864-.576-.576-.576-1.152 0 .864 0 1.152.288 1.728-.576-.288-.576-.576-.865-.864 0 .864 0 .864.289 2.017-.865-.576-.577-.865-.865-1.729-.288 0-.288.288-.576.576V66.59c-.288 0-.288.576-.288.576-.576-1.152 0-3.168.576-3.168zM31.996 64.285c.576-.288 2.016 1.152 2.304 2.592-.576-.576-.576-.288-.864-.576.288.576.288.864.864 1.44-.576-.288-.864-.576-1.152-.576.288.577 0 .865.576 1.729-.864-.576-.576-.576-1.152-1.44-.288 0 0 .288-.288.576-.288-.577-.288-.865-.288-1.153-.288 0-.288.576-.288.576-.576-.864-.576-2.88.288-3.168zM34.588 63.997c.577-.289 2.305.288 3.17 1.728-.577-.576-.577-.288-.865-.576.288.576.576.864 1.152 1.152-.576 0-.864 0-1.152-.288.576.864.288.864 1.152 1.44-.864 0-.864-.288-1.44-.864-.288.288 0 .576 0 .864-.576-.576-.864-.864-.864-1.152-.288.288 0 .864 0 .864-1.153-.864-1.729-2.592-1.153-3.168zM77.798 34.614c-.576-.288-.288-2.305.865-3.457-.289.864 0 .576-.289 1.152.577-.576.577-.864.865-1.44.288.288 0 .576 0 .864.576-.576.864-.288 1.152-1.152.288.864 0 .864-.576 1.728.288 0 .576-.288.864-.288-.288.576-.576.864-.864.864.288.288.576 0 .576 0-.288 1.153-2.017 2.305-2.593 1.729zM51.008 22.515c-.576-.576 0-2.304.864-3.457-.288.577 0 .577-.288.865.576-.288.576-.576.865-1.44.288.575 0 .864 0 1.152.576-.577.864-.289 1.152-1.153.288.865 0 .576-.576 1.44.288.289.576 0 .864 0-.288.577-.576.865-.864.865.288.288.576 0 .576 0-.288 1.152-2.017 2.304-2.593 1.728zM60.514 23.091c-.576-.288-.288-2.304.577-3.456-.289.864 0 .576 0 1.152.288-.576.576-.864.576-1.44.288.288.288.576.288 1.152.288-.576.576-.576 1.152-1.44 0 .864-.288.864-.576 1.728.288 0 .288-.288.864-.288l-1.152 1.152c.288 0 .864-.288.864-.288-.288 1.152-2.016 2.304-2.593 1.728zM70.309 31.733c-.576-.288-.288-2.304.864-3.457-.576.865-.288.577-.288 1.153.288-.288.576-.864.864-1.44v1.152c.576-.576.576-.576 1.152-1.44 0 .864-.288.864-.576 1.728.288.288.288 0 .864-.288-.576.576-.576.864-.864 1.152 0 .288.576-.288.576-.288-.288 1.152-2.016 2.304-2.592 1.728zM59.938 28.853c-.576-.289-.288-2.305.865-3.17-.289.577 0 .289-.289.865.289-.288.577-.576.865-1.44.288.576 0 .864 0 1.152.576-.576.864-.576 1.152-1.44 0 .864 0 .864-.576 1.728.288.288.576 0 .864-.288-.288.576-.576.864-.864 1.152.288.288.576 0 .576 0-.288.864-2.017 2.017-2.593 1.44zM46.687 31.445c-.576-.288-.288-2.304.864-3.457-.288.865-.288.577-.288 1.153.288-.576.576-.865.864-1.44v.864c.577-.577.577-.289 1.153-1.153 0 .865 0 .865-.576 1.729.288 0 .576-.288.864-.288-.288.576-.576.864-.864 1.152l.576-.288c-.288 1.152-2.017 2.304-2.593 1.728zM59.074 39.223c-.576-.288-.288-2.305.864-3.457-.288.864-.288.576-.288 1.152.288-.576.576-.864.864-1.44v.864c.577-.576.577-.288 1.153-1.152 0 .864 0 .864-.576 1.728.288 0 .576-.288.864-.288-.288.576-.576.864-.864 1.153l.576-.289c-.288 1.153-2.017 2.305-2.593 1.729zM64.835 40.375c-.576-.576-.288-2.304.576-3.457-.288.577 0 .577 0 .865.289-.289.577-.577.577-1.44.288.575 0 .863.288 1.152.288-.577.576-.289 1.152-1.153 0 .864-.288.576-.576 1.44 0 .289.288 0 .576 0-.288.577-.576.865-.864.865.288.288.864 0 .864 0-.576 1.152-2.017 2.304-2.593 1.728zM75.494 46.425c-.576-.288-.288-2.305.864-3.457-.288.864 0 .576-.288 1.152.576-.576.576-.864.864-1.44.288.288 0 .576 0 1.152.576-.576.864-.576 1.152-1.44 0 .864 0 .864-.576 1.728.288 0 .576-.288.865-.288-.289.576-.577.864-.865 1.152.288 0 .576-.288.576-.288-.288 1.152-2.016 2.305-2.592 1.729zM66.564 51.61c-.576-.288-.288-2.305.576-3.457-.288.864 0 .576 0 1.152.288-.576.576-.864.576-1.44.288.288.288.576.288.864.288-.576.576-.288 1.152-1.152 0 .864-.288.864-.576 1.728 0 0 .288-.288.576-.288-.288.576-.576.864-.864 1.152.288 0 .864-.288.864-.288-.576 1.153-2.016 2.305-2.592 1.729zM75.494 53.626c-.288-.864 1.44-2.016 2.88-2.304-.864.288-.576.288-.864.576.576 0 .865-.288 1.44-.576 0 .576-.287.576-.575.864.864 0 .864 0 1.728-.288-.576.864-.576.576-1.44.864 0 .288.288.288.576.576-.576 0-.865.288-1.153.288l.577.288c-.865.576-2.881.288-3.17-.288zM78.663 41.24c-.289-.865 1.44-2.017 2.88-2.305-.864.288-.576.288-.864.576.576 0 .864-.288 1.44-.576 0 .576-.288.576-.576.864.864 0 .864.288 1.729-.288-.577.864-.577.576-1.44.864 0 .288.287.288.863.576-.864 0-1.152.288-1.44.288l.576.289c-.864.576-2.88.287-3.168-.289zM73.19 41.527c-.289-.576 1.44-2.016 2.88-2.304-.864.576-.576.576-.864.864.576-.288.864-.288 1.44-.864 0 .576-.288.864-.576 1.152.864-.288.864 0 1.728-.576-.576.864-.576.576-1.44 1.152 0 .288.288 0 .576.288-.576.289-.864.289-1.152.289 0 .288.576.288.576.288-.864.576-3.169.576-3.169-.289zM78.086 37.206c-.288-.576 1.44-2.016 2.881-2.016-.864.288-.576.288-.864.576.576 0 .864-.288 1.44-.576 0 .288-.288.576-.576.864.864-.288.864 0 1.728-.288-.576.576-.576.576-1.44.864 0 .289.288.289.864.289-.864.288-1.152.288-1.44.288 0 .288.576.288.576.288-.864.576-2.88.576-3.169-.289zM80.391 50.458c-.288-.577 1.152-2.017 2.592-2.017-.576.288-.288.288-.864.576.576 0 1.153-.288 1.729-.576l-.865.864c.865-.288.865 0 2.017-.288-.576.576-.864.576-1.728.864.288.289.576.289.864.289-.576.288-1.153.288-1.44.288 0 .288.864.288.864.288-1.153.576-3.169.576-3.169-.288zM68.292 55.355c-.576-.288-.288-2.305.864-3.457-.576.864-.288.576-.288 1.152.288-.576.576-.864.865-1.44v1.152c.576-.576.576-.576 1.152-1.44 0 .864-.288.864-.576 1.728.288 0 .288-.288.864-.288-.576.576-.576.864-.864 1.152l.576-.288c-.288 1.153-2.017 2.305-2.593 1.729zM43.807 40.951c-.577-.288-.289-2.304.576-3.456-.288.864 0 .576 0 1.152.288-.576.576-.864.576-1.44.288.288.288.576.288.864.288-.576.576-.288 1.152-1.153 0 .865-.288.865-.576 1.729.288 0 .288-.288.864-.288-.576.576-.864.864-1.152.864.288.288.864 0 .864 0-.288 1.152-2.016 2.304-2.592 1.728zM56.193 51.322c0-.864 1.729-1.729 3.169-1.729-.864.289-.576.289-1.152.577.864 0 1.152 0 1.728-.289-.288.289-.576.289-.864.577.864 0 .864.288 1.728 0-.576.576-.576.576-1.44.864 0 .288.288.288.576.288-.576.288-.864.288-1.44 0 0 .288.576.576.576.576-.864.288-2.88 0-2.88-.864zM59.938 46.713c.576-.576 2.305.288 3.169 1.728-.576-.576-.576-.288-.864-.576.288.576.576.864 1.152 1.152-.576 0-.864 0-1.152-.288.288.864.288.864.864 1.44-.864 0-.576-.288-1.44-.864-.288.288 0 .576 0 .864-.288-.576-.576-.864-.576-1.152-.289 0-.289.576-.289.576-.864-.576-1.44-2.592-.864-2.88zM63.683 46.137c-.288-.577 1.44-1.729 2.88-1.729-.863.288-.287.288-.863.576.576 0 .864 0 1.728-.288-.288.288-.576.576-.864.576.864 0 .864.288 1.728 0-.576.865-.576.576-1.728.865 0 .288.576.288.864.288-.864.288-1.152.288-1.44 0 0 .288.576.576.576.576-1.153.288-3.169 0-2.88-.864zM63.683 42.968c-.288-.576 1.152-2.017 2.88-2.305-.863.288-.575.288-.863.865.576-.289.864-.289 1.44-.865 0 .576-.576.576-.576.865.576 0 .864.288 1.728-.289-.576.865-.576.577-1.44 1.153 0 .288.288 0 .576.288-.576.288-.864.288-1.152.288 0 .288.576.288.576.288-1.152.576-3.169.576-3.169-.288zM72.325 51.322c-.576.288-2.016-1.152-2.016-2.881.288.864.288.576.576.864-.288-.576-.288-.864-.576-1.44.288 0 .576.576.864.576-.288-.576 0-.864-.288-1.728.576.576.576.576.864 1.728.288-.288.288-.576.288-.864.288.576.288.864.288 1.152.288 0 .288-.576.288-.576.576 1.152.576 3.169-.288 3.169zM73.477 47.577c-.864 0-1.728-1.729-1.728-3.169.288.864.288.576.576.864 0-.576 0-.864-.288-1.728.288.288.576.576.576.864.288-.576.288-.576.288-1.728.576.576.288.864.576 1.728.288 0 .288-.288.576-.576 0 .576 0 .864-.288 1.152.288 0 .576-.288.576-.288.289.864-.288 2.88-.864 2.88zM69.444 34.902c-.288-.576 1.44-2.017 2.881-2.017-.864.289-.576.289-.864.577.576 0 .864-.289 1.44-.577 0 .577-.288.577-.576.865.864 0 .864 0 1.728-.288-.576.576-.576.576-1.44.864 0 .288.288.288.576.288-.576.288-.864.288-1.152.288 0 .288.576.288.576.288-.864.864-2.88.576-3.169-.288zM68.868 40.087c-.576-.288-.288-2.304.576-3.457-.288.576 0 .576 0 1.153.289-.577.289-.865.577-1.729.288.576 0 .864 0 1.152.576-.576.864-.288 1.44-1.152 0 .864-.288.576-.576 1.729 0 0 .288-.289.576-.289-.288.577-.576.865-.864.865.288.288.864 0 .864 0-.576 1.152-2.017 2.304-2.593 1.728zM63.395 36.63c-.576-.576-.288-2.592.864-3.457-.288.577-.288.577-.288.865.288-.288.576-.576.864-1.44v1.152c.576-.576.576-.288 1.153-1.153 0 .865 0 .577-.577 1.44.289.289.289 0 .865 0-.288.289-.576.865-.865.865 0 .288.577 0 .577 0-.288.864-2.017 2.304-2.593 1.728zM65.988 30.293c-.577 0-1.729-1.728-1.44-3.169.287.864.287.576.575.864 0-.576-.288-.864-.576-1.44.576.288.576.576.864.864 0-.864.289-.864 0-2.016.577.864.577.864.577 1.728.288 0 .288-.288.576-.576v1.44c.288 0 .576-.576.576-.576.288 1.153-.288 2.88-1.152 2.88zM57.346 27.124c-.864-.288-.288-2.304.576-3.169-.288.577 0 .577-.288.865.576-.288.576-.576.864-1.44.288.575 0 .864 0 1.152.576-.577.864-.577 1.152-1.44.288.863 0 .863-.576 1.728.288.288.576 0 .864-.289-.288.577-.576.865-.864 1.153.288.288.864 0 .864 0-.576.864-2.016 2.016-2.592 1.44zM53.6 27.124c-.863.288-1.728-1.44-1.728-2.88.289.576.289.288.577.864 0-.576 0-.864-.289-1.729.577.288.577.576.865.865v-1.729c.576.576.288.576.576 1.729.288 0 .288-.289.576-.865v1.44l.288-.575c.288 1.152-.288 3.168-.864 2.88zM50.144 18.77c-.576.576-2.304-.576-2.88-1.728.575.576.575.288.863.576-.288-.576-.288-.864-.864-1.44.288 0 .576.288.864.288-.288-.576 0-.576-.864-1.44.864.288.864.288 1.44 1.152.289-.288 0-.576 0-.864.577.576.577.864.865 1.152.288 0 0-.576 0-.576.864.576 1.44 2.592.576 2.88zM46.687 43.832c-.576-.576.576-2.305 1.729-2.88-.577.575-.288.287-.577.863.577-.288.865-.576 1.44-1.152 0 .576-.287.864-.575 1.152.864-.288.864-.288 1.728-.864-.288.864-.576.576-1.152 1.44h.864c-.576.289-.864.577-1.152.577 0 .288.576.288.576.288-.576.864-2.593 1.152-2.88.576zM57.346 37.495c-.576.288-2.017-1.153-2.017-2.593.288.576.288.288.576.576 0-.576-.288-.864-.576-1.44.576.288.576.576.865.576 0-.576 0-.864-.289-1.729.865.577.577.577.865 1.729.288-.288.288-.576.288-.864.288.576.288.864.288 1.44.288-.288.288-.864.288-.864.576 1.152.576 3.169-.288 3.169zM56.482 44.408c-.577.288-2.017-1.44-2.017-2.88.288.864.288.575.576.864 0-.577-.288-.865-.576-1.44.576 0 .576.287.864.575 0-.576 0-.864-.288-1.728.864.576.576.576.864 1.44.289 0 .289-.288.577-.576 0 .576.288.864 0 1.152.288 0 .576-.576.576-.576.576 1.153.288 3.17-.576 3.17zM55.905 39.223c-.288.576-2.304.288-3.456-.864.864.288.576 0 1.152.288-.576-.576-.864-.576-1.44-.864.288-.289.864 0 1.152 0-.576-.577-.576-.865-1.44-1.153.864 0 .864 0 1.728.576 0-.288 0-.576-.288-.864.576.288.864.576 1.152.864 0-.288-.288-.576-.288-.576 1.152.288 2.305 2.017 1.728 2.593zM46.111 35.19c-.576-.576.576-2.304 1.728-2.88-.288.576 0 .576-.288.864l1.153-1.153c0 .576-.288.864-.288 1.153.576-.289.864-.289 1.44-.865-.288.865-.288.865-1.152 1.44.288.289.576 0 .864 0-.576.577-.864.577-1.153.577 0 .288.577.288.577.288-.576.864-2.593 1.44-2.88.576zM54.177 31.445c-.576.576-2.304-.576-2.88-2.016.575.576.575.288.864.576l-1.153-1.152c.576 0 .864.288 1.153.288-.289-.576-.289-.865-.865-1.44.865.287.865.287 1.44 1.152.289-.289 0-.577 0-.865.577.576.577.865.577 1.153.288 0 .288-.577.288-.577.864.577 1.44 2.593.576 2.881zM30.844 39.511c-.576.576-2.593.288-3.457-.864.576.288.576 0 .864.288-.288-.576-.576-.576-1.44-.864.576-.289.864 0 1.152 0-.576-.577-.288-.865-1.152-1.153.864-.288.864 0 1.728.576 0-.288-.288-.576-.288-.864.576.288.864.576 1.152.864l-.288-.576c1.152.288 2.305 2.017 1.729 2.593zM40.35 38.935c-.288.576-2.305-.576-2.88-1.729.575.577.575 0 .863.577-.288-.577-.288-.865-.864-1.44.288 0 .576.287.864.287-.288-.576 0-.864-.864-1.44.864.288.864.288 1.44 1.152.289-.288 0-.576 0-.864.577.576.577.864.865 1.152.288 0 0-.576 0-.576.864.576 1.44 2.593.576 2.88zM40.926 28.565c-.576 0-1.44-1.729-.864-3.17 0 .865 0 .289.288.865v-1.728c.288.288.288.864.576 1.152 0-.864.288-.864.288-1.728.576.576.288.576.288 1.728.288 0 .288-.288.576-.576 0 .576 0 .864-.288 1.152.288 0 .576-.288.576-.288.288 1.152-.576 2.88-1.44 2.593zM43.807 25.684c-.577 0-1.44-2.017-1.153-3.457.288.864.288.576.288.864.289-.576.289-.864 0-1.44.577.288.577.576.577.864.288-.864.576-.864.576-1.728.288.576.288.864.288 1.728.288 0 .288-.288.576-.576 0 .576-.288.864-.288 1.44.288 0 .576-.576.576-.576.288 1.152-.576 2.88-1.44 2.88zM45.247 28.565c-.576-.289-.576-2.305.288-3.745-.288.864 0 .576 0 1.152.288-.576.288-.864.576-1.44.288.288 0 .576.288 1.152.288-.864.576-.576.864-1.728.289.864 0 .864-.288 2.016.288 0 .288-.288.576-.576-.288.576-.288 1.152-.576 1.152.288.288.576 0 .576 0-.288 1.152-1.728 2.305-2.304 2.017z"/>
    </g>
</svg>
