<?xml version="1.0" encoding="UTF-8"?>
<svg width="100px" height="100px" viewBox="0 0 100 100" version="1.1" xmlns="http://www.w3.org/2000/svg" xmlns:xlink="http://www.w3.org/1999/xlink">
    <!-- Generator: Sketch 52.4 (67378) - http://www.bohemiancoding.com/sketch -->
    <title>tree</title>
    <desc>Created with Sketch.</desc>
    <g id="tree" stroke="none" stroke-width="1" fill="none" fill-rule="evenodd">
        <g transform="translate(15.000000, 15.000000)" fill="#000000" id="Path">
            <path d="M27.9423529,66.5686275 C27.9423529,66.5686275 32.263366,63.9759967 31.3991176,55.3339706 C30.5348693,46.4040523 26.5019771,44.9636765 23.6213399,43.8114216 C20.4525817,42.9471732 18.7241993,42.6591667 16.4196895,42.6591667 C14.1151797,42.9472876 10.3702941,44.387549 10.3702941,44.387549 L14.4031863,42.0830392 C14.4031863,42.0830392 12.6748039,41.5069118 11.8105556,40.0666503 C10.9463072,38.9143954 10.3701797,38.0501471 10.3701797,38.0501471 C10.3701797,38.0501471 13.2510458,41.2187908 15.5555556,41.5069118 C17.8600654,41.7950327 22.469085,41.2187908 25.3497222,42.6591667 C28.5184804,44.0995425 32.263366,47.5561928 32.263366,47.5561928 C32.263366,47.5561928 31.9752451,40.3546569 29.9588562,37.1858987 C27.9424673,34.0171405 27.3662255,32.2887582 25.3498366,30.8483824 C23.0453268,29.6961275 21.0289379,29.4081209 21.0289379,29.4081209 L25.6379575,30.2722549 C25.6379575,30.2722549 25.3498366,27.6796242 25.6379575,26.5273693 C26.214085,25.0871078 27.0783333,24.2228595 27.0783333,24.2228595 C27.0783333,24.2228595 26.214085,26.2392484 26.214085,27.3916176 C26.5022059,28.255866 25.9259641,29.4081209 27.3663399,30.8483824 C28.8067157,32.5767647 32.5514869,37.7619118 33.1276144,39.778415 C33.7037418,41.7948039 34.5679902,46.979951 34.5679902,46.979951 C34.5679902,46.979951 34.2798693,41.2186765 37.4486275,37.1857843 C40.6173856,33.1528922 42.9218954,30.2721405 43.209902,29.1198856 C43.209902,27.6795098 43.4980229,26.8153758 43.209902,26.239134 C42.921781,25.6628922 42.6337745,24.2227451 42.6337745,24.2227451 C42.6337745,24.2227451 44.3621569,25.9511275 44.0741503,27.9676307 C44.0741503,29.6960131 43.7860294,29.9840196 43.7860294,29.9840196 C43.7860294,29.9840196 44.3621569,29.1198856 45.8025327,28.8317647 C47.530915,28.8317647 48.6832843,29.1198856 48.6832843,29.1198856 C48.6832843,29.1198856 44.3622712,29.9840196 43.4980229,31.1362745 C42.9218954,32.5766503 39.4651307,36.3214216 38.6009967,40.6424346 C37.7367484,44.6753268 37.7367484,46.9798366 37.7367484,46.9798366 C37.7367484,46.9798366 42.0577614,42.370817 45.8026471,42.0828105 C49.5475327,41.7946895 50.6996732,42.3709314 53.8685458,41.2185621 C57.3254248,40.0663072 58.7655719,37.1856699 58.7655719,37.1856699 C58.7655719,37.1856699 58.4775654,39.4901797 57.0373039,40.6424346 C55.5969281,41.5065686 54.7327941,41.7946895 54.7327941,41.7946895 C54.7327941,41.7946895 57.6135458,42.0828105 58.7656863,43.2350654 C59.9179412,44.3873203 59.9179412,45.2515686 59.9179412,45.2515686 C59.9179412,45.2515686 59.6298203,43.8111928 54.7327941,42.9470588 C49.835768,42.0829248 44.9385131,43.5231863 44.0742647,44.9635621 C42.9220098,46.115817 37.7368627,48.4203268 38.0248693,55.9099837 C38.3128758,63.3996405 40.9056209,66.8565196 44.0742647,67.1446405 C46.9550163,67.4327614 41.1936275,67.4327614 41.1936275,67.4327614 L37.7367484,68.8731373 C37.7367484,68.8731373 38.8890033,66.856634 37.4486275,66.856634 C35.7202451,66.856634 30.2469771,69.1611438 30.2469771,69.1611438 C30.2469771,69.1611438 32.5514869,68.0088889 31.1112255,67.4327614 C29.6708497,67.1446405 25.0618301,67.4327614 25.0618301,67.4327614 L27.9423529,66.5686275 Z"></path>
            <path d="M34.8558824,38.914281 C33.9917484,38.914281 33.4156209,36.8978922 33.7036275,35.4575163 C33.7036275,36.3217647 33.7036275,36.0336438 33.9917484,36.6097712 C33.9917484,36.0336438 33.9917484,35.4575163 33.9917484,34.8813889 C34.2798693,35.1695098 34.2798693,35.4575163 34.5679902,35.7456373 C34.5679902,34.8813889 34.8559967,34.8813889 34.8559967,34.0172549 C35.4321242,34.5933824 35.1441176,34.8815033 35.1441176,35.7456373 C35.4322386,35.7456373 35.4322386,35.4575163 35.7202451,35.1695098 L35.7202451,36.6098856 L36.008366,36.0337582 C36.2962582,37.1858987 35.4320098,38.914281 34.8558824,38.914281 Z"></path>
            <path d="M37.736634,34.593268 C37.1605065,34.8813889 36.0082516,33.1530065 35.7201307,31.7126307 C36.0082516,32.5768791 36.0082516,32.2887582 36.2962582,32.5768791 C36.2962582,32.0007516 36.2962582,31.7126307 35.7201307,31.1365033 C36.2962582,31.1365033 36.2962582,31.4246242 36.5843791,31.7126307 C36.5843791,30.8483824 36.8725,30.8483824 36.2962582,29.9842484 C37.1605065,30.5603758 36.8723856,30.5603758 37.4485131,31.4246242 C37.4485131,31.4246242 37.4485131,31.1365033 37.736634,30.8484967 C37.736634,31.4246242 38.0247549,31.7127451 38.0247549,32.0007516 C38.3128758,32.0007516 38.3128758,31.4246242 38.3128758,31.4246242 C38.8888889,32.5768791 38.600768,34.593268 37.736634,34.593268 Z"></path>
            <path d="M35.4320098,24.7991013 C34.8558824,25.0872222 33.4156209,23.6468464 33.4156209,22.2064706 C33.7037418,22.782598 33.7037418,22.4945915 33.9917484,22.782598 C33.9917484,22.2064706 33.7036275,21.9184641 33.4156209,21.3423366 C33.7037418,21.3423366 33.9917484,21.9184641 34.2798693,21.9184641 C34.2798693,21.3423366 34.2798693,21.0542157 33.9917484,20.1900817 C34.5679902,20.7662092 34.5679902,20.7662092 34.8558824,21.9184641 C35.1440033,21.6303431 35.1440033,21.3423366 35.1440033,21.0542157 C35.4321242,21.6303431 35.4321242,21.9184641 35.4321242,22.4944771 C35.7202451,22.2063562 35.7202451,21.6303431 35.7202451,21.6303431 C36.2962582,22.782598 36.2962582,24.7991013 35.4320098,24.7991013 Z"></path>
            <path d="M35.4320098,11.8360621 C34.8558824,12.124183 33.4156209,10.6838072 33.1275,9.24343137 C33.7036275,9.81955882 33.7036275,9.53155229 33.9917484,9.81955882 C33.7036275,9.24343137 33.7036275,8.95531046 33.4156209,8.37918301 C33.7037418,8.37918301 33.9917484,8.95531046 34.2798693,8.95531046 C33.9917484,8.37918301 34.2798693,8.09106209 33.9917484,7.2269281 C34.5679902,7.80305556 34.5679902,7.80305556 34.8558824,8.95531046 C35.1440033,8.66718954 35.1440033,8.37918301 35.1440033,8.09106209 C35.4321242,8.66718954 35.4321242,8.95531046 35.4321242,9.53143791 C35.7202451,9.24331699 35.7202451,8.66718954 35.7202451,8.66718954 C36.2962582,9.8196732 36.2962582,11.8360621 35.4320098,11.8360621 Z"></path>
            <path d="M23.9094608,9.24354575 C23.3333333,9.53166667 21.8929575,7.80316993 21.604951,6.3629085 C22.1810784,7.22704248 22.1810784,6.93903595 22.4691993,7.22704248 C22.1810784,6.65091503 22.1810784,6.3629085 21.8930719,5.78678105 C22.1811928,5.78678105 22.4691993,6.07490196 22.7573203,6.3629085 C22.4691993,5.49866013 22.7573203,5.49866013 22.4691993,4.63452614 C23.0453268,5.21065359 23.0453268,5.21065359 23.3334477,6.07490196 C23.6215686,6.07490196 23.6215686,5.78678105 23.6215686,5.49877451 C23.9096895,6.07490196 23.9096895,6.36302288 23.9096895,6.65102941 C24.1978105,6.65102941 24.1978105,6.07490196 24.1978105,6.07490196 C24.7737092,6.93903595 24.7737092,9.24354575 23.9094608,9.24354575 Z"></path>
            <path d="M13.8271732,17.3093301 C13.2510458,17.597451 12.0987908,16.1570752 11.8107843,14.7166993 C12.0989052,15.2928268 12.0989052,15.0048203 12.3869118,15.5809477 C12.3869118,15.0048203 12.0987908,14.4286928 11.8107843,13.8525654 C12.3869118,14.1406863 12.3869118,14.4286928 12.6750327,14.7166993 C12.6750327,13.8525654 12.9631536,13.8525654 12.3869118,12.7003105 C13.2511601,13.2764379 12.9630392,13.5645588 13.2511601,14.4286928 C13.539281,14.1406863 13.539281,13.8525654 13.8272876,13.5645588 C13.8272876,14.1406863 14.1154085,14.7168137 14.1154085,15.0048203 L14.4035294,14.4286928 C14.9794281,15.2929412 14.6913072,17.3093301 13.8271732,17.3093301 Z"></path>
            <path d="M10.658415,23.3587255 C9.79416667,23.6468464 8.64202614,22.2064706 8.35390523,20.7660948 C8.93003268,21.3422222 8.93003268,21.0542157 9.21815359,21.6303431 C8.93003268,21.0542157 8.93003268,20.7660948 8.35390523,19.9019608 C8.93003268,20.1900817 9.21815359,20.4780882 9.50616013,20.7662092 C9.21803922,19.9019608 9.50616013,19.9019608 9.21803922,19.0378268 C9.79416667,19.3259477 9.79416667,19.6139542 10.0821732,20.4782026 C10.3702941,20.4782026 10.3702941,19.9020752 10.3702941,19.6139542 C10.658415,20.1900817 10.658415,20.7662092 10.658415,21.0543301 C10.9465359,21.0543301 10.9465359,20.4782026 10.9465359,20.4782026 C11.5226634,21.3423366 11.2345425,23.3587255 10.658415,23.3587255 Z"></path>
            <path d="M20.7407026,22.4945915 C20.1645752,22.7827124 19.0123203,21.0543301 18.7241993,19.6139542 C19.0123203,20.4782026 19.0123203,20.1900817 19.3003268,20.4782026 C19.3003268,19.9020752 19.3003268,19.6139542 18.7241993,19.0378268 C19.3003268,19.0378268 19.3003268,19.3259477 19.5884477,19.6139542 C19.5884477,18.7497059 19.8765686,18.7497059 19.3003268,17.8855719 C20.1645752,18.4616993 19.8764542,18.4616993 20.4525817,19.3259477 C20.4525817,19.3259477 20.4525817,19.0378268 20.7407026,18.7498203 C20.7407026,19.3259477 21.0288235,19.6140686 21.0288235,19.9020752 L21.3168301,19.3259477 C21.8929575,20.4780882 21.604951,22.4945915 20.7407026,22.4945915 Z"></path>
            <path d="M42.0576471,17.0213235 C41.4815196,17.3094444 40.3292647,15.8690686 40.0411438,14.4286928 C40.3292647,15.0048203 40.3292647,14.7168137 40.6172712,15.2929412 C40.6172712,14.7168137 40.6172712,14.4286928 40.0411438,13.5645588 C40.6172712,13.8526797 40.6172712,14.1406863 40.9053922,14.4286928 C40.9053922,13.5645588 41.1935131,13.5645588 40.6172712,12.7003105 C41.4815196,12.9884314 41.1933987,13.2764379 41.7695261,14.1406863 C42.0576471,14.1406863 41.7695261,13.5645588 42.0576471,13.2764379 C42.0576471,13.8525654 42.345768,14.4286928 42.345768,14.7166993 C42.6337745,14.7166993 42.6337745,14.1405719 42.6337745,14.1405719 C43.2097876,15.0048203 42.921781,17.0213235 42.0576471,17.0213235 Z"></path>
            <path d="M14.1151797,29.4081209 C13.5390523,29.6962418 12.3867974,27.9677451 12.0987908,26.5273693 C12.3869118,27.3916176 12.3869118,26.8154902 12.6749183,27.3916176 C12.6749183,26.8154902 12.3867974,26.5273693 12.0987908,25.9512418 C12.6749183,25.9512418 12.6749183,26.2393627 12.9630392,26.5273693 C12.9630392,25.6631209 13.2511601,25.6631209 12.6749183,24.7989869 C13.5391667,25.3751144 13.2510458,25.3751144 13.8271732,26.2392484 C13.8271732,26.2392484 13.8271732,25.9511275 14.1152941,25.3751144 C14.1152941,26.2392484 14.403415,26.5273693 14.403415,26.8153758 L14.6915359,26.2392484 C15.2674346,27.1036111 14.9794281,29.1201144 14.1151797,29.4081209 Z"></path>
            <path d="M23.6214542,14.4286928 C22.7572059,14.7168137 21.604951,12.9884314 21.3169444,11.5480556 C21.6050654,12.4123039 21.6050654,11.8361765 21.8930719,12.4123039 C21.8930719,11.8361765 21.8930719,11.5480556 21.3169444,10.9719281 C21.8930719,10.9719281 21.8930719,11.260049 22.1811928,11.5480556 C22.1811928,10.6838072 22.4693137,10.6838072 21.8930719,9.8196732 C22.7573203,10.3958007 22.4691993,10.3958007 23.0453268,11.2599346 C23.3334477,11.2599346 23.0453268,10.9718137 23.3334477,10.3956863 C23.3334477,11.2599346 23.6215686,11.5479412 23.6215686,11.8360621 C23.9096895,11.8360621 23.9096895,11.2599346 23.9096895,11.2599346 C24.4855882,12.124183 24.1975817,14.1406863 23.6214542,14.4286928 Z"></path>
            <path d="M8.64202614,31.7126307 C7.77777778,32.0007516 6.62552288,30.2722549 6.33751634,28.8319935 C6.91364379,29.6962418 6.91364379,29.4081209 7.20176471,29.6962418 C6.91364379,29.1201144 6.91364379,28.8319935 6.33751634,28.255866 C6.91364379,28.255866 7.20176471,28.5439869 7.48977124,28.8319935 C7.20165033,28.255866 7.48977124,27.9677451 7.20165033,27.1036111 C7.77777778,27.6797386 7.77777778,27.6797386 8.06589869,28.5439869 C8.35401961,28.5439869 8.35401961,28.255866 8.35401961,27.9678595 C8.64214052,28.5439869 8.64214052,28.8321078 8.64214052,29.1201144 C8.93026144,29.1201144 8.93026144,28.5439869 8.93026144,28.5439869 C9.50616013,29.6962418 9.21815359,31.7126307 8.64202614,31.7126307 Z"></path>
            <path d="M17.5719444,37.4740196 C16.9959314,37.7620261 15.5555556,36.0336438 15.5555556,34.593268 C15.8436765,35.4575163 15.8436765,35.1693954 16.131683,35.4575163 C16.131683,34.8813889 15.8435621,34.593268 15.5555556,34.0171405 C15.8436765,34.0171405 16.131683,34.3052614 16.4198039,34.593268 C16.4198039,33.7290196 16.4198039,33.7290196 16.131683,32.8648856 C16.7078105,33.4410131 16.7078105,33.4410131 16.9959314,34.3051471 C17.2840523,34.3051471 17.2840523,34.0170261 17.2840523,33.7290196 C17.5720588,34.3051471 17.5720588,34.593268 17.5720588,34.8812745 C17.8601797,34.8812745 17.8601797,34.3051471 17.8601797,34.3051471 C18.4361928,35.4575163 18.4361928,37.4740196 17.5719444,37.4740196 Z"></path>
            <path d="M23.6214542,28.255866 C22.7572059,28.255866 21.604951,26.8154902 21.3169444,25.3752288 C21.8930719,25.9513562 21.8930719,25.6632353 22.1811928,26.2393627 C21.8930719,25.6632353 21.8930719,25.3752288 21.3169444,24.5109804 C21.8930719,24.7991013 22.1811928,25.0871078 22.4691993,25.3752288 C22.1810784,24.5109804 22.4691993,24.5109804 22.1810784,23.6468464 C22.7572059,23.9349673 22.7572059,24.2229739 23.0453268,25.0872222 C23.3334477,25.0872222 23.3334477,24.7991013 23.3334477,24.2229739 C23.6215686,24.7991013 23.6215686,25.3752288 23.6215686,25.6632353 C23.9096895,25.6632353 23.9096895,25.0871078 23.9096895,25.0871078 C24.4855882,25.9513562 24.4855882,27.9678595 23.6214542,28.255866 Z"></path>
            <path d="M16.7078105,9.53155229 C15.8435621,9.8196732 14.6913072,8.09117647 14.4033007,6.65080065 C14.9794281,7.51504902 14.9794281,7.2269281 15.267549,7.51504902 C14.9794281,6.93892157 14.9794281,6.65080065 14.4033007,6.07478758 C14.9794281,6.07478758 15.267549,6.3629085 15.5555556,6.65091503 C15.2674346,5.78678105 15.5555556,5.78678105 15.2674346,4.92253268 C15.8435621,5.49866013 15.5555556,5.49866013 16.131683,6.3629085 C16.4198039,6.3629085 16.4198039,6.07478758 16.4198039,5.78678105 C16.7079248,6.3629085 16.7079248,6.65091503 16.7079248,6.93903595 C16.9960458,6.93903595 16.9960458,6.3629085 16.9960458,6.3629085 C17.5719444,7.5151634 17.2839379,9.53155229 16.7078105,9.53155229 Z"></path>
            <path d="M10.0822876,37.4740196 C9.21815359,37.4740196 8.06589869,36.0336438 7.77777778,34.593268 C8.06589869,35.4575163 8.35390523,34.8813889 8.64202614,35.4575163 C8.35390523,34.8813889 8.35390523,34.593268 7.77777778,34.0171405 C8.35390523,34.0171405 8.64202614,34.3052614 8.64202614,34.593268 C8.64202614,33.7290196 8.93014706,33.7290196 8.64202614,32.8648856 C9.21815359,33.4410131 8.93014706,33.4410131 9.50627451,34.3051471 C9.79428105,34.3051471 9.50627451,34.0170261 9.79428105,33.4408987 C10.082402,34.3051471 10.082402,34.5931536 10.082402,34.8812745 C10.3705229,34.8812745 10.3705229,34.3051471 10.3705229,34.3051471 C10.9465359,35.1693954 10.658415,37.1858987 10.0822876,37.4740196 Z"></path>
            <path d="M31.6872386,34.0171405 C31.1111111,33.7290196 31.3991176,31.7126307 32.263366,30.5603758 C31.9752451,31.4246242 32.263366,31.1365033 32.263366,31.7126307 C32.5514869,31.1365033 32.8394935,30.8483824 32.8394935,30.2722549 C33.1275,30.5603758 33.1275,30.8483824 33.1275,31.4245098 C33.4156209,30.8483824 33.7036275,30.8483824 34.2798693,29.984134 C34.2798693,30.8483824 33.9917484,30.8483824 33.7036275,31.7125163 C33.9917484,31.7125163 33.9917484,31.7125163 34.5678758,31.4243954 C33.991634,32.0005229 33.7036275,32.2886438 33.4155065,32.5766503 C33.7036275,32.5766503 34.2797549,32.2885294 34.2797549,32.2885294 C33.9917484,33.4410131 32.263366,34.593268 31.6872386,34.0171405 Z"></path>
            <path d="M27.078219,22.782598 C26.5020915,22.4944771 26.790098,20.4780882 27.9424673,19.3258333 C27.6543464,20.1900817 27.9424673,19.9019608 27.6543464,20.4780882 C28.2304739,19.9019608 28.2304739,19.6138399 28.5185948,19.0377124 C28.8067157,19.3258333 28.5185948,19.6138399 28.5185948,20.1899673 C29.0947222,19.6138399 29.3827288,19.6138399 29.6708497,18.7495915 C29.6708497,19.6138399 29.6708497,19.6138399 29.0947222,20.4779739 C29.3828431,20.4779739 29.6708497,20.1898529 29.9589706,20.1898529 C29.6708497,20.7659804 29.3828431,21.0541013 29.0947222,21.3421078 C29.3828431,21.3421078 29.6708497,21.0539869 29.6708497,21.0539869 C29.3827288,22.2064706 27.6543464,23.3587255 27.078219,22.782598 Z"></path>
            <path d="M45.2262908,27.9678595 C44.6501634,27.391732 45.2262908,25.6633497 46.0905392,24.5110948 C45.8024183,25.0872222 46.0905392,25.0872222 45.8024183,25.3753431 C46.3785458,25.0872222 46.3785458,24.7992157 46.6666667,23.9349673 C46.9547876,24.5110948 46.6666667,24.7992157 46.6666667,25.0872222 C47.2427941,24.5110948 47.530915,24.7991013 47.8189216,23.9349673 C48.1070425,24.7992157 47.8189216,24.5110948 47.2427941,25.3753431 C47.530915,25.6633497 47.8189216,25.3753431 48.1070425,25.3753431 C47.8189216,25.9514706 47.530915,26.2394771 47.2427941,26.2394771 C47.530915,26.527598 47.8189216,26.2394771 47.8189216,26.2394771 C47.530915,27.3916176 45.8024183,28.5439869 45.2262908,27.9678595 Z"></path>
            <path d="M59.0534641,36.6097712 C58.477451,36.3216503 58.7653431,34.3052614 59.9177124,33.1530065 C59.6295915,34.0171405 59.9177124,33.729134 59.6295915,34.3052614 C60.205719,33.729134 60.205719,33.4410131 60.4938399,32.865 C60.7819608,33.1531209 60.4938399,33.4411275 60.4938399,34.0172549 C61.0699673,33.4411275 61.3580882,33.4411275 61.6460948,32.5769935 C61.6460948,33.4411275 61.6460948,33.4411275 61.0699673,34.3053758 C61.3580882,34.3053758 61.6460948,34.0172549 61.9342157,34.0172549 C61.6460948,34.5933824 61.3580882,34.8815033 61.0699673,35.1695098 C61.3580882,35.1695098 61.6460948,34.8813889 61.6460948,34.8813889 C61.3579739,36.0336438 59.6295915,37.1858987 59.0534641,36.6097712 Z"></path>
            <path d="M54.4444444,29.4081209 C53.868317,28.8319935 54.1563235,26.8154902 55.3086928,25.9512418 C55.0205719,26.5273693 55.3086928,26.5273693 55.0205719,26.8154902 C55.5966993,26.5273693 55.5966993,26.2393627 55.8848203,25.3752288 C56.1729412,25.9513562 55.8848203,26.2393627 55.8848203,26.5274837 C56.4609477,25.9513562 56.7490686,25.9513562 57.0370752,25.0872222 C57.3251961,25.9513562 57.0370752,25.9513562 56.4609477,26.8156046 C56.7490686,27.1037255 57.0370752,26.8156046 57.3251961,26.8156046 C57.0370752,27.1037255 56.7490686,27.6798529 56.4609477,27.6798529 C56.7490686,27.9679739 57.0370752,27.6798529 57.0370752,27.6798529 C56.7489542,28.5439869 55.0205719,29.9842484 54.4444444,29.4081209 Z"></path>
            <path d="M39.7531373,42.6591667 C39.1770098,42.3710458 39.4650163,40.3546569 40.6173856,39.4904085 C40.0412582,40.0665359 40.3292647,39.7785294 40.3292647,40.3546569 C40.6173856,40.0665359 40.9053922,39.7785294 41.1935131,38.914281 L41.1935131,40.0665359 C41.7696405,39.4904085 41.7696405,39.4904085 42.345768,38.6261601 C42.345768,39.4904085 42.0576471,39.4904085 41.7696405,40.3545425 C42.0577614,40.6426634 42.0577614,40.3545425 42.6337745,40.0664216 C42.0577614,40.642549 42.0577614,40.9306699 41.7696405,41.2186765 C41.7696405,41.5067974 42.345768,41.2186765 42.345768,41.2186765 C42.0576471,42.0830392 40.3292647,43.2352941 39.7531373,42.6591667 Z"></path>
            <path d="M58.1892157,23.6468464 C57.6132026,23.3587255 58.1892157,21.3423366 59.0534641,20.1900817 C58.7653431,21.0543301 59.0534641,20.7662092 58.7653431,21.3423366 C59.3414706,20.7662092 59.3414706,20.4780882 59.6295915,19.9019608 C59.9177124,20.1900817 59.6295915,20.4780882 59.6295915,20.7662092 C60.205719,20.1900817 60.4938399,20.4780882 60.7818464,19.6139542 C61.0699673,20.4782026 60.7818464,20.4782026 60.205719,21.3423366 C60.4938399,21.3423366 60.7818464,21.0542157 61.0699673,21.0542157 C60.7818464,21.6303431 60.4938399,21.9184641 60.205719,22.2064706 C60.4938399,22.2064706 60.7818464,21.9184641 60.7818464,21.9184641 C60.4938399,23.070719 58.7653431,24.2229739 58.1892157,23.6468464 Z"></path>
            <path d="M46.6666667,18.461585 C46.0905392,18.1734641 46.3785458,16.1570752 47.2427941,15.0048203 C46.9546732,15.8690686 47.2427941,15.5809477 47.2427941,16.1570752 C47.530915,15.5809477 47.8189216,15.2928268 47.8189216,14.4286928 C48.1070425,15.0048203 48.1070425,15.2929412 48.1070425,15.5809477 C48.3951634,15.0048203 48.6831699,15.2928268 49.2592974,14.4286928 C49.2592974,15.2929412 48.9711765,15.2929412 48.6831699,16.1570752 C48.9712908,16.1570752 48.9712908,15.8689542 49.5474183,15.8689542 C48.9712908,16.4450817 48.6831699,16.7332026 48.3951634,16.7332026 C48.6832843,17.0213235 49.2594118,16.7332026 49.2594118,16.7332026 C48.9711765,17.8854575 47.2427941,19.0377124 46.6666667,18.461585 Z"></path>
            <path d="M52.7160621,9.24354575 C51.8518137,8.95542484 52.4279412,6.93903595 53.2921895,5.78678105 C53.0040686,6.65091503 53.2921895,6.3629085 53.0040686,6.93903595 C53.5801961,6.3629085 53.5801961,6.07490196 53.868317,5.49877451 C54.1564379,5.78689542 53.868317,6.07490196 53.868317,6.36302288 C54.4444444,5.78689542 54.7325654,6.07490196 55.0205719,5.21076797 C55.3086928,6.07501634 55.0205719,6.07501634 54.4444444,6.93915033 C54.7325654,6.93915033 55.0205719,6.65102941 55.3086928,6.65102941 C55.0205719,7.22715686 54.7325654,7.51527778 54.4444444,7.80328431 C54.7325654,7.80328431 55.3086928,7.5151634 55.3086928,7.5151634 C54.7325654,8.6674183 53.2921895,9.8196732 52.7160621,9.24354575 Z"></path>
            <path d="M53.868317,13.2764379 C53.0040686,12.7003105 53.5801961,10.6838072 54.4444444,9.8196732 C54.1563235,10.3958007 54.4444444,10.3958007 54.4444444,10.6838072 C54.7325654,10.3956863 54.7325654,10.1076797 55.0205719,9.24354575 C55.3086928,9.8196732 55.0205719,10.1076797 55.0205719,10.3958007 C55.5966993,9.8196732 55.8848203,10.1076797 56.1728268,9.24354575 C56.4609477,10.1076797 56.1728268,9.8196732 55.5966993,10.6838072 C55.8848203,10.9719281 56.1728268,10.6838072 56.4609477,10.6838072 C56.1728268,11.2599346 55.8848203,11.5480556 55.5966993,11.5480556 C55.8848203,11.8361765 56.4609477,11.5480556 56.4609477,11.5480556 C55.8848203,12.4123039 54.4444444,13.8525654 53.868317,13.2764379 Z"></path>
            <path d="M29.6707353,43.2352941 C29.0946078,43.523415 27.3662255,42.3710458 26.790098,41.2187908 C27.3662255,41.7949183 27.078219,41.5069118 27.6543464,41.7949183 C27.3662255,41.2187908 27.078219,40.9307843 26.5020915,40.3546569 C27.078219,40.3546569 27.3663399,40.6427778 27.6543464,40.9307843 C27.3662255,40.0665359 27.3662255,40.0665359 26.790098,39.202402 C27.6543464,39.4905229 27.3662255,39.7785294 28.2304739,40.3546569 C28.2304739,40.0665359 28.2304739,40.0665359 28.2304739,39.4904085 C28.5185948,40.0665359 28.8066013,40.3546569 28.8066013,40.6426634 C29.0946078,40.6426634 29.0946078,40.0665359 29.0946078,40.0665359 C29.9588562,40.9307843 30.2468627,42.6591667 29.6707353,43.2352941 Z"></path>
            <path d="M38.600768,20.4780882 C38.0246405,21.0542157 36.2962582,19.9019608 35.7200163,18.461585 C36.2961438,19.0377124 36.0081373,18.7497059 36.5842647,19.0377124 C36.2961438,18.461585 36.0081373,18.1734641 35.4320098,17.8854575 C36.0081373,17.8854575 36.2962582,18.1735784 36.5842647,18.1735784 C36.2961438,17.597451 36.2961438,17.3094444 35.7200163,16.733317 C36.5842647,16.733317 36.2961438,17.0214379 37.1603922,17.8855719 C37.1603922,17.5975654 37.1603922,17.3094444 37.1603922,17.0214379 C37.4485131,17.5975654 37.7365196,17.8855719 37.7365196,18.1736928 C38.0246405,17.8855719 38.0246405,17.5975654 38.0246405,17.5975654 C38.8888889,18.1735784 39.1770098,20.1900817 38.600768,20.4780882 Z"></path>
            <path d="M33.4156209,7.22704248 C32.8394935,7.5151634 31.1111111,6.3629085 30.5349837,5.21065359 C31.1111111,5.78678105 31.1111111,5.49877451 31.399232,5.78678105 C31.1111111,5.21065359 31.1111111,4.92253268 30.5349837,4.34640523 C30.8231046,4.34640523 31.1111111,4.63452614 31.399232,4.92253268 C31.1111111,4.05828431 31.399232,4.05828431 30.8231046,3.19415033 C31.399232,3.48227124 31.399232,3.77027778 31.9753595,4.34640523 C32.2634804,4.34640523 31.9753595,4.05828431 32.2634804,3.48215686 C32.5516013,4.05828431 32.8396078,4.34640523 32.8396078,4.63441176 C33.1276144,4.63441176 32.8396078,4.05828431 32.8396078,4.05828431 C33.7037418,4.92253268 34.2798693,6.65091503 33.4156209,7.22704248 Z"></path>
            <path d="M19.3004412,25.0871078 C18.7243137,25.6632353 16.9959314,24.5109804 16.4198039,23.0706046 C16.9959314,23.646732 16.7079248,23.3587255 17.2840523,23.646732 C16.9959314,23.3586111 16.7079248,23.0706046 16.1317974,22.4944771 C16.7079248,22.4944771 16.7079248,22.782598 17.2840523,22.782598 C16.7079248,22.2064706 16.9959314,21.9184641 16.4198039,21.3423366 C17.2840523,21.6304575 16.9959314,21.6304575 17.8600654,22.4945915 C17.8600654,22.2064706 17.8600654,21.9184641 17.8600654,21.6304575 C18.1481863,22.206585 18.4361928,22.4945915 18.4361928,22.7827124 C18.7243137,22.7827124 18.4361928,22.206585 18.4361928,22.206585 C19.5884477,22.782598 19.8765686,24.7991013 19.3004412,25.0871078 Z"></path>
            <path d="M15.2674346,12.9884314 C14.6913072,13.2765523 12.9629248,12.124183 12.3867974,10.9719281 C12.9629248,11.5480556 12.9629248,11.260049 13.2510458,11.5480556 C12.9629248,10.9719281 12.9629248,10.6838072 12.3867974,10.1076797 C12.6749183,10.1076797 12.9629248,10.3958007 13.2510458,10.6838072 C12.9629248,9.8196732 13.2510458,9.8196732 12.6749183,8.95542484 C13.2510458,9.24354575 13.2510458,9.53155229 13.8271732,10.1076797 C14.1152941,10.1076797 14.1152941,9.8196732 14.1152941,9.24354575 C14.403415,9.8196732 14.6914216,10.1076797 14.6914216,10.3958007 C14.9795425,10.3958007 14.6914216,9.8196732 14.6914216,9.8196732 C15.5555556,10.6838072 16.131683,12.7003105 15.2674346,12.9884314 Z"></path>
            <path d="M38.8888889,29.6962418 C38.3127614,29.9842484 36.5843791,28.8319935 36.0081373,27.6797386 C36.5842647,28.255866 36.5842647,27.9678595 36.8723856,28.255866 C36.5842647,27.6797386 36.2962582,27.3916176 35.7201307,26.8154902 C36.2962582,26.8154902 36.5843791,27.1036111 36.8723856,27.3916176 C36.5842647,26.5273693 36.8723856,26.5273693 36.2962582,25.6632353 C36.8723856,25.9513562 36.8723856,25.9513562 37.4485131,26.8154902 C37.736634,26.8154902 37.4485131,26.5273693 37.736634,25.9512418 C38.0247549,26.5273693 38.0247549,27.1034967 38.3127614,27.3916176 C38.3127614,27.1034967 38.3127614,26.5273693 38.3127614,26.5273693 C39.1770098,27.3916176 39.4650163,29.4081209 38.8888889,29.6962418 Z"></path>
            <path d="M40.9053922,10.1076797 C40.0411438,10.1076797 39.1770098,8.37929739 39.4650163,6.93892157 C39.4650163,7.80316993 39.4650163,7.22704248 39.7531373,7.80316993 C39.7531373,7.22704248 39.7531373,6.93892157 39.4650163,6.07478758 C40.0411438,6.3629085 40.0411438,6.65091503 40.3292647,6.93892157 C40.3292647,6.36279412 40.6173856,6.36279412 40.3292647,5.21053922 C40.9053922,5.78666667 40.6173856,6.07478758 40.9053922,6.93892157 C41.1935131,6.93892157 41.1935131,6.65080065 41.4815196,6.36279412 L41.4815196,7.51504902 C41.7696405,7.51504902 41.7696405,6.93892157 41.7696405,6.93892157 C42.345768,8.09129085 41.7696405,10.1076797 40.9053922,10.1076797 Z"></path>
            <path d="M18.4361928,15.0048203 C17.5719444,15.2929412 16.7078105,13.5645588 16.7078105,11.8360621 C16.9959314,12.7003105 16.9959314,12.4121895 17.2839379,12.988317 C17.2839379,12.4121895 17.2839379,11.8360621 16.995817,11.2599346 C17.5719444,11.5480556 17.5719444,11.8360621 17.859951,12.124183 C17.859951,11.2599346 17.859951,11.2599346 17.859951,10.3958007 C18.4360784,10.9719281 18.1480719,10.9719281 18.4360784,12.124183 C18.7241993,11.8360621 18.7241993,11.5480556 19.0122059,11.2599346 L19.0122059,12.7003105 L19.3003268,12.124183 C19.5884477,13.2764379 19.0123203,15.2929412 18.4361928,15.0048203 Z"></path>
            <path d="M49.5474183,40.6426634 C48.9712908,40.9307843 47.8190359,39.2022876 48.1070425,37.7619118 C48.1070425,38.3380392 48.1070425,38.0500327 48.3951634,38.6261601 C48.3951634,38.0500327 48.3951634,37.4739052 48.1070425,36.8977778 C48.6831699,37.1858987 48.6831699,37.4739052 48.9712908,37.7619118 C48.9712908,36.8977778 49.2594118,36.8977778 48.9712908,36.0335294 C49.5474183,36.6096569 49.2594118,36.6096569 49.5474183,37.7619118 C49.8355392,37.4739052 49.8355392,37.1857843 50.1235458,36.8977778 L50.1235458,38.3380392 C50.4115523,38.3380392 50.4115523,37.7619118 50.4115523,37.7619118 C50.9875654,38.914281 50.4114379,40.9307843 49.5474183,40.6426634 Z"></path>
            <path d="M58.477451,45.2517974 C59.0534641,45.2517974 59.9177124,47.2681863 59.341585,48.7085621 C59.341585,47.8443137 59.341585,48.1324346 59.0534641,47.8443137 C59.0534641,48.4204412 59.0534641,48.7085621 59.341585,49.2846895 C58.7654575,48.9965686 58.7654575,48.7085621 58.477451,48.4204412 C58.477451,49.2846895 58.1892157,49.2846895 58.1892157,50.1488235 C57.6132026,49.5726961 57.9012092,49.2845752 57.9012092,48.4204412 C57.6130882,48.4204412 57.6130882,48.7085621 57.3250817,48.9965686 C57.3250817,48.4204412 57.3250817,47.8443137 57.6132026,47.5561928 C57.3250817,47.5561928 57.0370752,48.1323203 57.0370752,48.1323203 C56.7489542,46.9800654 57.6132026,45.2517974 58.477451,45.2517974 Z"></path>
            <path d="M11.8106699,51.5891993 C12.3867974,51.5891993 13.2510458,53.6057026 12.6749183,55.0459641 C12.6749183,54.1818301 12.6749183,54.469951 12.3867974,53.8938235 L12.3867974,55.6220915 C12.0986765,55.3339706 12.0986765,55.0459641 11.8106699,54.7578431 C11.8106699,55.3339706 11.522549,55.3339706 11.522549,56.4862255 C10.9464216,55.6219771 11.2344281,55.6219771 11.2344281,54.7578431 C10.9463072,54.7578431 10.9463072,55.0459641 10.6583007,55.3339706 C10.6583007,54.7578431 10.6583007,54.1818301 10.9464216,53.8937092 C10.6583007,53.8937092 10.3702941,54.4698366 10.3702941,54.4698366 C10.0822876,53.3175817 10.9465359,51.3011928 11.8106699,51.5891993 Z"></path>
            <path d="M58.477451,51.5891993 C59.0534641,51.5891993 59.9177124,53.6057026 59.341585,55.0459641 C59.341585,54.1818301 59.341585,54.469951 59.0534641,53.8938235 C59.0534641,54.469951 59.0534641,55.0459641 59.341585,55.6220915 C58.7654575,55.3339706 58.7654575,55.0459641 58.477451,54.7578431 C58.477451,55.3339706 58.1892157,55.3339706 58.1892157,56.4862255 C57.6132026,55.6219771 57.9012092,55.6219771 57.9012092,54.7578431 C57.6130882,54.7578431 57.6130882,55.0459641 57.3250817,55.3339706 C57.3250817,54.7578431 57.3250817,54.1818301 57.6132026,53.8937092 C57.3250817,53.8937092 57.0370752,54.4698366 57.0370752,54.4698366 C56.7489542,53.3175817 57.6132026,51.3011928 58.477451,51.5891993 Z"></path>
            <path d="M5.76138889,49.860817 C6.33751634,50.1489379 5.76138889,52.1653268 4.89714052,53.3176961 C5.18526144,52.4534477 4.89714052,52.7415686 5.18526144,52.1654412 C4.60913399,52.7415686 4.60913399,53.0296895 4.32101307,53.605817 C4.03289216,53.3176961 4.32101307,52.7415686 4.32101307,52.4535621 C3.74488562,53.0296895 3.45676471,53.0296895 2.88063725,53.8939379 C2.88063725,53.0296895 3.16875817,53.0296895 3.74488562,52.1655556 C3.45676471,51.8774346 3.16875817,52.1655556 2.88063725,52.4536765 C3.16875817,51.877549 3.45676471,51.5894281 3.74488562,51.3014216 C3.45676471,51.0133007 3.16875817,51.5895425 3.16875817,51.5895425 C3.45676471,50.4369444 5.18514706,49.2846895 5.76138889,49.860817 Z"></path>
            <path d="M52.7160621,49.5726961 C53.2921895,50.1488235 52.7160621,51.8772059 51.8518137,53.0295752 C52.1399346,52.1653268 51.8518137,52.4534477 52.1399346,51.8773203 C51.5638072,52.4534477 51.2756863,52.7415686 51.2756863,53.3176961 C50.9875654,53.0295752 51.2756863,52.7415686 51.2756863,52.1654412 C50.6995588,52.7415686 50.4114379,52.7415686 49.8354248,53.605817 C49.8354248,52.7415686 50.1235458,52.7415686 50.6995588,51.8774346 C50.4114379,51.8774346 50.1235458,51.8774346 49.8354248,52.1655556 C50.1235458,51.5894281 50.4114379,51.3013072 50.6995588,51.0133007 C50.4114379,51.0133007 50.1235458,51.3014216 50.1235458,51.3014216 C50.4114379,50.1488235 52.1399346,48.9965686 52.7160621,49.5726961 Z"></path>
            <path d="M61.0699673,44.9636765 C61.3580882,44.6755556 63.3744771,45.5398039 63.950719,46.6920588 C63.3745915,46.4039379 63.3745915,46.6920588 63.0864706,46.4039379 C63.3745915,46.6920588 63.662598,46.979951 64.2387255,47.5560784 C63.662598,47.5560784 63.3744771,47.2679575 63.0864706,47.2679575 C63.662598,47.844085 63.3745915,48.1322059 63.950719,48.7083333 C63.0864706,48.4202124 63.3745915,48.4202124 62.5103431,47.5560784 L62.5103431,48.4203268 C62.2222222,48.1322059 61.9342157,47.5560784 61.9342157,47.2680719 C61.6460948,47.5561928 61.9342157,48.1323203 61.9342157,48.1323203 C60.7818464,47.2681863 60.205719,45.5398039 61.0699673,44.9636765 Z"></path>
            <path d="M29.6707353,31.4246242 C28.8066013,31.7127451 27.9423529,29.9842484 27.9423529,28.5439869 C28.2304739,29.1201144 28.2304739,28.8321078 28.5184804,29.4082353 C28.2303595,28.8321078 28.2303595,28.5439869 27.9423529,27.6798529 C28.5184804,27.9679739 28.5184804,28.2559804 28.8066013,28.5441013 C28.8066013,27.6798529 29.0946078,27.6798529 28.8066013,26.815719 C29.3827288,27.3918464 29.0946078,27.3918464 29.3827288,28.2560948 C29.6708497,28.2560948 29.6708497,27.9679739 29.9588562,27.6799673 L29.9588562,29.1203431 C30.2469771,29.1203431 30.2469771,28.5442157 30.2469771,28.5442157 C30.8229902,29.4081209 30.5349837,31.4246242 29.6707353,31.4246242 Z"></path>
            <path d="M25.6378431,19.9019608 C25.0617157,20.1900817 23.9094608,18.461585 23.9094608,17.0213235 C24.1975817,17.597451 24.1975817,17.3094444 24.4855882,17.8854575 C24.4855882,17.3093301 24.4855882,17.0213235 23.9094608,16.1570752 C24.4855882,16.4451961 24.4855882,16.7332026 24.7737092,17.0213235 C24.7737092,16.1570752 25.0618301,16.1570752 24.7737092,15.2929412 C25.3498366,15.8690686 25.3498366,15.8690686 25.6378431,17.0213235 C25.9259641,16.7332026 25.9259641,16.4451961 25.9259641,16.1570752 C26.214085,16.7332026 26.214085,17.3093301 25.9259641,17.597451 C26.214085,17.597451 26.5020915,17.0213235 26.5020915,17.0213235 C26.790098,17.8854575 26.5020915,19.9019608 25.6378431,19.9019608 Z"></path>
            <path d="M16.9959314,20.1900817 C16.131683,20.1900817 15.267549,18.4616993 15.267549,17.0213235 C15.5556699,17.8854575 15.5556699,17.597451 15.8436765,17.8854575 C15.8436765,17.3093301 15.5555556,17.0213235 15.267549,16.4451961 C15.8436765,16.4451961 15.8436765,16.733317 16.1317974,17.0213235 C16.1317974,16.4451961 16.4199183,16.1570752 16.1317974,15.2929412 C16.7079248,15.8690686 16.4199183,15.8690686 16.7079248,17.0213235 C16.9960458,17.0213235 16.9960458,16.4451961 17.2840523,16.1570752 L17.2840523,17.597451 C17.5720588,17.597451 17.5720588,17.0213235 17.5720588,17.0213235 C18.1481863,18.1735784 17.8600654,20.1900817 16.9959314,20.1900817 Z"></path>
            <path d="M14.9794281,20.7662092 C14.6913072,21.3423366 12.6749183,21.0543301 11.8106699,19.9019608 C12.3867974,20.1900817 12.0987908,19.9019608 12.6749183,20.1900817 C12.3867974,19.6139542 11.8106699,19.6139542 11.2345425,19.3258333 C11.8106699,19.0377124 12.0987908,19.3258333 12.3867974,19.3258333 C11.8106699,18.7497059 12.0986765,18.461585 11.2345425,18.1735784 C12.0987908,18.1735784 11.8106699,18.1735784 12.6749183,18.7497059 C12.9630392,18.461585 12.6749183,18.1735784 12.6749183,17.8854575 C13.2510458,18.1735784 13.5391667,18.461585 13.5391667,18.7497059 C13.8271732,18.7497059 13.5391667,18.1735784 13.5391667,18.1735784 C14.4033007,18.461585 15.5555556,20.1900817 14.9794281,20.7662092 Z"></path>
            <path d="M7.48965686,22.4945915 C6.91352941,23.070719 4.89702614,22.7827124 4.03289216,21.6304575 C4.60901961,21.9185784 4.60901961,21.9185784 4.89714052,21.9185784 C4.60901961,21.6304575 4.32101307,21.342451 3.45676471,21.0543301 C4.03289216,20.7662092 4.32101307,21.0543301 4.60901961,21.0543301 C4.03289216,20.4782026 4.32089869,20.4782026 3.45676471,19.9020752 C4.32101307,19.9020752 4.32101307,19.9020752 5.18514706,20.4782026 C5.18514706,20.1900817 4.89702614,20.1900817 4.89702614,19.6139542 C5.47315359,20.1900817 5.76127451,20.4782026 6.04928105,20.4782026 L5.76138889,19.9019608 C6.91352941,20.4780882 8.06589869,22.2064706 7.48965686,22.4945915 Z"></path>
            <path d="M10.658415,27.1036111 C10.3702941,27.6797386 8.35390523,27.391732 7.20165033,26.2393627 C8.06589869,26.5274837 7.77777778,26.2393627 8.35390523,26.5274837 C8.06578431,25.9513562 7.48965686,25.9513562 6.91352941,25.6632353 C7.48965686,25.3752288 7.77777778,25.6632353 8.06578431,25.6632353 C7.48965686,25.0871078 7.48965686,24.7991013 6.6254085,24.2229739 C7.7776634,24.2229739 7.48965686,24.5110948 8.35379085,25.0872222 C8.64191176,24.7991013 8.35379085,24.5110948 8.35379085,24.2229739 C8.64191176,24.5110948 8.9299183,24.7991013 9.21803922,25.0872222 C9.50616013,24.7991013 9.21803922,24.5110948 9.21803922,24.5110948 C10.0822876,24.7991013 11.2345425,26.5274837 10.658415,27.1036111 Z"></path>
            <path d="M10.658415,16.7332026 C10.3702941,17.3093301 8.35390523,17.0213235 7.20165033,15.8689542 C8.06589869,16.1570752 7.77777778,15.8689542 8.35390523,16.1570752 C8.06578431,15.8689542 7.48965686,15.5809477 6.91352941,15.2928268 C7.48965686,15.0047059 7.77777778,15.2928268 8.06578431,15.2928268 C7.48965686,14.7166993 7.48965686,14.4285784 6.6254085,14.1405719 C7.7776634,14.1405719 7.48965686,14.1405719 8.35379085,14.7166993 C8.64191176,14.4285784 8.35379085,14.1405719 8.35379085,13.8525654 C8.64191176,14.1406863 8.9299183,14.4286928 9.21803922,14.7166993 C9.50616013,14.7166993 9.21803922,14.1405719 9.21803922,14.1405719 C10.0822876,14.4286928 11.2345425,16.1570752 10.658415,16.7332026 Z"></path>
            <path d="M58.7653431,16.4451961 C58.4773366,15.8690686 59.917598,14.4286928 61.3579739,14.1406863 C60.7818464,14.7168137 61.0698529,14.7168137 60.4937255,15.0048203 C61.0698529,14.7166993 61.6459804,14.7166993 62.2221078,14.1406863 C61.9339869,14.7168137 61.6459804,15.0048203 61.3578595,15.2929412 C62.2221078,15.0048203 62.2221078,15.2929412 63.0862418,14.7168137 C62.7981209,15.5810621 62.5101144,15.2929412 61.645866,15.8690686 C61.9339869,16.1571895 62.2219935,15.8690686 62.5101144,16.1571895 C61.9339869,16.4453105 61.3578595,16.4453105 61.0697386,16.4453105 C61.0697386,16.7334314 61.645866,16.7334314 61.645866,16.7334314 C60.7818464,17.3093301 58.7653431,17.3093301 58.7653431,16.4451961 Z"></path>
            <path d="M63.0864706,31.7126307 C62.7983497,31.1365033 64.5268464,29.6962418 65.9671078,29.4081209 C65.1029739,29.9842484 65.3910948,29.9842484 65.1029739,30.2722549 C65.6791013,29.984134 65.9671078,29.984134 66.5432353,29.4081209 C66.5432353,29.9842484 66.2551144,30.2722549 65.9671078,30.2722549 C66.8313562,30.2722549 66.8313562,30.5603758 67.6954902,29.984134 C67.1193627,30.8483824 67.1193627,30.5602614 66.2551144,31.1363889 C66.2551144,31.4245098 66.5432353,31.1363889 66.8312418,31.4245098 C66.2551144,31.7126307 65.9669935,31.7126307 65.6791013,31.7126307 C65.6791013,32.0007516 66.2551144,32.0007516 66.2551144,32.0007516 C65.1029739,32.5768791 63.0864706,32.5768791 63.0864706,31.7126307 Z"></path>
            <path d="M64.2387255,40.3546569 C63.9506046,39.7785294 65.3909804,38.6262745 66.8312418,38.3381536 C66.2551144,38.6262745 66.5431209,38.6262745 65.9669935,38.914281 C66.5431209,38.914281 66.8312418,38.6261601 67.6953758,38.3381536 C67.4072549,38.914281 67.1192484,38.914281 66.8311275,39.202402 C67.6953758,39.202402 67.6953758,39.202402 68.5595098,38.914281 C68.2713889,39.7785294 67.9833824,39.4904085 67.119134,39.7785294 C67.119134,40.0666503 67.6952614,40.0666503 67.9833824,40.0666503 C67.4072549,40.3547712 66.8311275,40.3547712 66.5430065,40.3547712 C66.5430065,40.6428922 67.119134,40.6428922 67.119134,40.6428922 C66.2551144,41.5069118 64.2387255,41.2187908 64.2387255,40.3546569 Z"></path>
            <path d="M65.3909804,47.2681863 C65.6791013,46.6921732 67.6953758,46.9800654 68.5596242,48.1324346 C67.9834967,47.8443137 67.9834967,48.1324346 67.6953758,47.8443137 C67.9834967,48.1324346 68.2715033,48.4204412 69.1357516,48.7085621 C68.5596242,48.996683 68.2715033,48.7085621 67.9834967,48.7085621 C68.5596242,49.2846895 68.2716176,49.2846895 69.1357516,49.860817 C68.2715033,49.860817 68.2715033,49.860817 67.4073693,49.2846895 C67.4073693,49.5728105 67.6954902,49.860817 67.6954902,50.1489379 C67.1193627,49.860817 66.8312418,49.5728105 66.8312418,49.2846895 C66.5431209,49.2846895 66.8312418,49.860817 66.8312418,49.860817 C65.6791013,49.5726961 64.8148529,47.8443137 65.3909804,47.2681863 Z"></path>
            <path d="M64.2387255,49.860817 C64.8148529,49.5726961 66.2551144,50.7250654 66.5431209,52.1653268 C66.255,51.5891993 66.255,51.8772059 65.9669935,51.5891993 C65.9669935,52.1653268 66.2551144,52.4534477 66.8312418,53.0295752 C66.2551144,52.7414542 65.9669935,52.4534477 65.6791013,52.4534477 C65.9671078,53.0295752 65.9671078,53.3176961 66.2551144,54.1818301 C65.6791013,53.6057026 65.6791013,53.6057026 65.1029739,52.7414542 C64.8148529,52.7414542 65.1029739,53.3175817 65.1029739,53.6057026 C64.8148529,53.0295752 64.5268464,52.4534477 64.5268464,52.1653268 C64.2387255,52.4534477 64.2387255,53.0295752 64.2387255,53.0295752 C63.662598,52.1653268 63.3744771,50.1488235 64.2387255,49.860817 Z"></path>
            <path d="M60.4938399,48.7085621 C61.0699673,48.4204412 62.5103431,50.1489379 62.5103431,51.5893137 C62.2222222,51.0130719 62.2222222,51.3011928 61.9341013,50.724951 C61.9341013,51.3010784 61.9341013,51.5891993 62.5102288,52.4533333 C61.9341013,52.1652124 61.9341013,51.8772059 61.6459804,51.589085 C61.6459804,52.4533333 61.3578595,52.4533333 61.6459804,53.3174673 C61.0698529,52.7413399 61.3578595,52.7413399 60.781732,51.8770915 C60.781732,51.8770915 60.781732,52.1652124 60.4936111,52.453219 C60.4936111,51.8770915 60.2054902,51.5889706 60.4936111,51.3009641 C60.2054902,51.3009641 59.9174837,51.8770915 59.9174837,51.8770915 C59.3414706,50.724951 59.6295915,48.7085621 60.4938399,48.7085621 Z"></path>
            <path d="M55.3086928,48.9965686 C55.8848203,48.7084477 56.7490686,50.724951 56.7490686,52.1653268 C56.4609477,51.3010784 56.4609477,51.5891993 56.1729412,51.0130719 C56.1729412,51.5891993 56.1729412,52.1653268 56.4610621,52.7414542 C55.8849346,52.4533333 55.8849346,52.1653268 55.5968137,51.8772059 C55.5968137,52.7414542 55.3086928,52.7414542 55.5968137,53.6055882 C55.0206863,53.0294608 55.3086928,53.0294608 55.0206863,51.8772059 C54.7325654,52.1653268 54.7325654,52.4533333 54.4445588,52.7414542 C54.4445588,51.8772059 54.4445588,51.5891993 54.4445588,51.3010784 L54.1564379,51.8772059 C53.868317,50.724951 54.4444444,48.7085621 55.3086928,48.9965686 Z"></path>
            <path d="M52.1399346,44.387549 C52.4280556,44.9636765 50.6995588,46.4040523 49.2592974,46.4040523 C50.1235458,46.1159314 49.5474183,46.1159314 50.1235458,45.8278105 C49.5474183,45.8278105 49.2592974,45.8278105 48.3951634,46.4040523 C48.6832843,45.8278105 48.9712908,45.8278105 49.2594118,45.5398039 C48.3951634,45.5398039 48.3951634,45.251683 47.5310294,45.5398039 C48.1071569,44.9636765 48.1071569,44.9636765 48.9714052,44.6755556 C48.9714052,44.3874346 48.6832843,44.3874346 48.3952778,44.3874346 C48.9714052,44.0993137 49.2595261,44.0993137 49.8356536,44.0993137 C49.5475327,44.0993137 48.9714052,43.8111928 48.9714052,43.8111928 C50.1235458,43.2352941 52.1399346,43.523415 52.1399346,44.387549 Z"></path>
            <path d="M50.9875654,48.4204412 C51.2756863,48.9965686 49.5473039,50.1488235 48.1069281,50.4369444 C48.6830556,50.1488235 48.395049,50.1488235 48.9711765,49.860817 C48.395049,49.860817 48.1069281,49.860817 47.2427941,50.1489379 C47.530915,49.860817 47.8189216,49.5728105 48.1070425,49.2846895 C47.2427941,49.5728105 47.2427941,49.2846895 46.3786601,49.5728105 C46.9547876,48.996683 46.9547876,48.996683 47.8190359,48.7085621 C47.8190359,48.4204412 47.530915,48.4204412 47.2429085,48.4204412 C47.8190359,48.1323203 48.1071569,48.1323203 48.3951634,48.1323203 C48.3951634,47.8441993 47.8190359,47.8441993 47.8190359,47.8441993 C48.9711765,47.2681863 50.9875654,47.5561928 50.9875654,48.4204412 Z"></path>
            <path d="M55.0205719,44.6756699 C55.5966993,44.9637908 55.5966993,46.9800654 54.732451,48.1324346 C55.0205719,47.2681863 54.732451,47.5563072 54.732451,46.9801797 C54.4444444,47.5561928 54.4444444,47.8443137 54.4444444,48.7085621 C54.1563235,48.1324346 54.1563235,47.8443137 54.1563235,47.5563072 C53.5801961,48.1324346 53.5801961,48.1324346 53.2920752,48.996683 C53.0039542,48.1324346 53.0039542,48.1324346 53.5801961,47.2683007 C53.2920752,47.2683007 53.0040686,47.2683007 52.7159477,47.5564216 C53.0040686,46.9802941 53.2920752,46.6922876 53.2920752,46.404281 L52.7159477,46.692402 C53.0040686,45.5398039 54.4444444,44.0995425 55.0205719,44.6756699 Z"></path>
            <path d="M58.477451,41.5069118 C58.477451,40.9307843 60.205719,39.7785294 61.6460948,39.7785294 C60.7818464,40.0666503 61.0699673,40.0666503 60.4938399,40.3546569 C61.3580882,40.3546569 61.6460948,40.3546569 62.2222222,40.0665359 C61.9341013,40.3546569 61.6460948,40.6426634 61.3579739,40.9307843 L63.0863562,40.9307843 C62.5102288,41.5069118 62.5102288,41.2187908 61.6459804,41.5069118 C61.6459804,41.7950327 61.9341013,41.7950327 62.2221078,41.7950327 C61.6459804,42.0831536 61.3578595,42.0831536 60.781732,42.0831536 L61.3578595,42.3712745 C60.4938399,42.6591667 58.477451,42.3710458 58.477451,41.5069118 Z"></path>
            <path d="M63.662598,44.0995425 C63.3744771,43.523415 65.1029739,42.3711601 66.5432353,42.3711601 C65.9671078,42.659281 66.2551144,42.659281 65.6791013,42.9472876 C66.2551144,42.9472876 66.5432353,42.9472876 67.4073693,42.6591667 C67.1192484,42.9472876 66.8312418,43.2352941 66.5431209,43.2352941 C67.4073693,43.523415 67.4073693,43.523415 68.2715033,43.523415 C67.6953758,44.0995425 67.6953758,43.8115359 66.5431209,44.0995425 C66.8312418,44.3876634 67.1192484,44.3876634 67.4073693,44.3876634 C66.8312418,44.6757843 66.2551144,44.6757843 65.9669935,44.6757843 L66.5431209,44.9639052 C65.3909804,45.2517974 63.3744771,44.9636765 63.662598,44.0995425 Z"></path>
            <path d="M44.6501634,41.2187908 C44.0740359,40.9307843 44.0740359,38.914281 44.6501634,37.7620261 L44.6501634,38.6262745 C44.9382843,38.3381536 45.2262908,37.7620261 45.2262908,37.1860131 C45.5144118,37.474134 45.5144118,37.7621405 45.5144118,38.338268 C45.8025327,37.474134 46.0905392,37.474134 46.3786601,36.6098856 C46.666781,37.474134 46.3786601,37.474134 46.0905392,38.338268 C46.3786601,38.6263889 46.6666667,38.338268 46.9547876,38.0501471 C46.6666667,38.6262745 46.3786601,38.9143954 46.3786601,39.202402 C46.3786601,39.4904085 46.9547876,38.914281 46.9547876,38.914281 C46.6666667,40.0665359 45.5144118,41.5069118 44.6501634,41.2187908 Z"></path>
            <path d="M24.4855882,41.5069118 C23.6213399,41.7950327 22.469085,40.0666503 22.469085,38.6262745 C22.7572059,39.4905229 22.7572059,39.202402 23.0452124,39.4905229 C23.0452124,38.9143954 22.7570915,38.6262745 22.469085,38.0501471 C23.0452124,38.0501471 23.0452124,38.338268 23.3333333,38.6262745 C23.3333333,37.7620261 23.3333333,37.7620261 23.0452124,36.8978922 C23.9094608,37.4740196 23.6213399,37.4740196 23.9094608,38.3381536 C24.1975817,38.3381536 24.1975817,38.0500327 24.1975817,37.7620261 C24.4857026,38.3381536 24.4857026,38.6262745 24.4857026,39.202402 C24.7738235,38.914281 24.7738235,38.3381536 24.7738235,38.3381536 C25.3497222,39.4904085 25.0617157,41.5069118 24.4855882,41.5069118 Z"></path>
            <path d="M19.8765686,41.2187908 C19.3004412,41.2187908 18.7243137,39.202402 19.0123203,37.7620261 C19.0123203,38.6262745 19.3004412,38.3381536 19.3004412,38.914281 C19.3004412,38.3381536 19.3004412,37.7620261 19.3004412,37.1858987 C19.5885621,37.4740196 19.5885621,37.7620261 19.8765686,38.0500327 C20.1646895,37.4739052 20.1646895,37.4739052 20.1646895,36.3216503 C20.740817,37.1858987 20.4528105,37.1858987 20.4528105,38.3380392 C20.7409314,38.3380392 21.0289379,37.7619118 21.3169444,37.4739052 C21.0289379,38.3380392 21.0289379,38.6261601 21.0289379,38.9141667 L21.3169444,38.6260458 C21.604951,39.4904085 20.7407026,41.5069118 19.8765686,41.2187908 Z"></path>
            <path d="M16.131683,40.6426634 C15.5555556,41.2187908 14.1151797,39.778415 13.8271732,38.3381536 C14.1152941,38.914281 14.1152941,38.6262745 14.4033007,38.914281 C14.4033007,38.3381536 14.1151797,38.0500327 13.5391667,37.4740196 C14.1152941,37.7620261 14.4033007,38.0501471 14.6914216,38.0501471 C14.4033007,37.4740196 14.6914216,37.1860131 14.1152941,36.3217647 C14.9795425,36.8978922 14.6914216,36.8978922 15.267549,37.7620261 C15.5556699,37.7620261 15.5556699,37.4740196 15.5556699,36.8978922 C15.8437908,37.4740196 15.8437908,38.0501471 15.8437908,38.3381536 C16.1319118,38.3381536 16.1319118,37.7620261 16.1319118,37.7620261 C16.9959314,38.6262745 16.9959314,40.6426634 16.131683,40.6426634 Z"></path>
            <path d="M12.0987908,37.4740196 C11.2345425,37.4740196 10.9465359,35.4575163 11.5226634,34.0171405 L11.5226634,35.1693954 C11.8107843,34.593268 11.8107843,34.0171405 11.8107843,33.4410131 C12.0989052,33.729134 12.0989052,34.0171405 12.3869118,34.3052614 C12.6750327,33.729134 12.6750327,33.729134 12.9630392,32.865 C13.2511601,33.4411275 12.9630392,33.4411275 12.9630392,34.5933824 C13.2511601,34.5933824 13.2511601,34.3052614 13.5391667,34.0172549 C13.5391667,34.5933824 13.5391667,35.1695098 13.2510458,35.4576307 C13.5391667,35.4576307 13.8271732,34.8815033 13.8271732,34.8815033 C13.8271732,36.0336438 12.6749183,37.7620261 12.0987908,37.4740196 Z"></path>
            <path d="M11.2345425,32.8648856 C10.3702941,32.8648856 9.50616013,30.8483824 9.79416667,29.4081209 C10.0822876,30.2722549 10.0822876,29.9842484 10.3702941,30.5603758 C10.3702941,29.9842484 10.3702941,29.4081209 10.0821732,28.8319935 C10.3702941,29.1201144 10.6583007,29.4081209 10.6583007,29.6962418 C10.9464216,28.8319935 10.9464216,28.8319935 10.9464216,27.9678595 C11.522549,28.5439869 11.2345425,28.5439869 11.522549,29.6962418 C11.8106699,29.6962418 11.8106699,29.4081209 12.0986765,29.1201144 C12.0986765,29.6962418 12.0986765,29.9842484 11.8105556,30.2723693 C12.0986765,30.2723693 12.386683,29.9842484 12.386683,29.9842484 C12.6749183,30.8484967 11.8106699,32.8648856 11.2345425,32.8648856 Z"></path>
            <path d="M28.2304739,37.4740196 C27.9423529,38.0501471 25.9259641,38.0501471 24.7737092,37.1858987 C25.6378431,37.4740196 25.3498366,37.1858987 25.9259641,37.1858987 C25.3498366,36.8977778 25.0618301,36.8977778 24.1975817,36.6097712 C24.7737092,36.3216503 25.0618301,36.6097712 25.3498366,36.6097712 C24.7737092,36.0336438 24.7737092,35.7455229 23.9095752,35.4575163 C24.7738235,35.4575163 24.7738235,35.4575163 25.6379575,35.7456373 C25.6379575,35.7456373 25.3498366,35.4575163 25.3498366,35.1695098 C25.9259641,35.4576307 26.214085,35.4576307 26.5020915,35.7456373 C26.5020915,35.4575163 26.2139706,35.1695098 26.2139706,35.1695098 C27.3662255,35.4575163 28.8066013,36.8978922 28.2304739,37.4740196 Z"></path>
            <path d="M25.9259641,33.4410131 C26.214085,34.0171405 24.4857026,35.1693954 23.0453268,35.1693954 C23.6214542,34.8812745 23.3334477,34.8812745 23.9095752,34.593268 C23.3334477,34.593268 23.0453268,34.593268 22.1811928,34.8813889 L23.0454412,34.0171405 C22.1811928,34.0171405 22.1811928,34.0171405 21.3170588,34.0171405 C21.8931863,33.4410131 21.8931863,33.7290196 23.0454412,33.4410131 C22.7573203,33.1530065 22.4693137,33.1530065 22.1811928,32.8648856 L23.6215686,32.8648856 L23.0454412,32.5767647 C24.1975817,32.2887582 26.2139706,32.5768791 25.9259641,33.4410131 Z"></path>
            <path d="M21.8929575,30.2723693 C22.469085,30.8484967 21.8929575,32.5768791 20.7407026,33.729134 C21.3168301,32.865 21.0288235,33.1530065 21.0288235,32.5768791 C20.7407026,33.1530065 20.4526961,33.4410131 20.1645752,34.0171405 C19.8764542,33.4410131 20.1645752,33.1530065 20.1645752,32.8648856 C19.5884477,33.4410131 19.5884477,33.1530065 19.0123203,34.0171405 C19.0123203,33.1530065 19.0123203,33.1530065 19.5884477,32.5768791 C19.5884477,32.2887582 19.3003268,32.5768791 18.7241993,32.5768791 C19.3003268,32.0007516 19.5884477,31.7126307 19.8764542,31.7126307 C19.5883333,31.4245098 19.3003268,31.7126307 19.3003268,31.7126307 C19.5884477,30.5603758 21.3168301,29.6962418 21.8929575,30.2723693 Z"></path>
            <path d="M19.5884477,29.6962418 C19.8765686,30.5603758 18.1480719,31.7126307 16.7078105,31.7126307 C17.2839379,31.4245098 16.9959314,31.4245098 17.5719444,31.1365033 C16.995817,31.1365033 16.4196895,31.1365033 15.8435621,31.4246242 C16.131683,31.1365033 16.4196895,30.8484967 16.7078105,30.5603758 C15.8435621,30.5603758 15.8435621,30.5603758 14.9794281,30.8484967 C15.5555556,29.9842484 15.5555556,30.2723693 16.4198039,29.9842484 C16.4198039,29.6962418 16.131683,29.6962418 15.8436765,29.6962418 C16.4198039,29.4081209 16.7079248,29.4081209 16.9959314,29.4081209 C16.9959314,29.12 16.4198039,29.12 16.4198039,29.12 C17.5719444,28.5439869 19.5884477,29.1201144 19.5884477,29.6962418 Z"></path>
            <path d="M21.3168301,28.5439869 C20.7407026,29.1201144 19.0123203,28.5439869 17.8600654,27.6797386 C18.7243137,27.9678595 18.4361928,27.6797386 19.0123203,27.9678595 C18.4361928,27.391732 18.1480719,27.391732 17.5719444,27.1036111 C17.8600654,26.8154902 18.1480719,27.1036111 18.7241993,27.1036111 C18.1480719,26.5274837 18.1480719,26.2393627 17.2839379,25.6632353 C18.1480719,25.6632353 18.1480719,25.9513562 19.0123203,26.5274837 C19.0123203,26.2393627 19.0123203,25.9513562 18.7241993,25.6632353 C19.3003268,25.9513562 19.5884477,26.2393627 19.8764542,26.5274837 C19.8764542,26.2393627 19.5883333,25.9513562 19.5883333,25.9513562 C20.7407026,26.2393627 21.8929575,27.9678595 21.3168301,28.5439869 Z"></path>
            <path d="M26.2139706,6.93903595 C25.3497222,6.93903595 24.4855882,5.21065359 24.7737092,3.77027778 C25.0618301,4.34640523 25.0618301,4.05839869 25.3498366,4.63452614 C25.3498366,4.05839869 25.3498366,3.77027778 25.0618301,2.90614379 C25.6379575,3.19426471 25.6379575,3.77039216 25.6379575,4.05839869 C25.9260784,3.19415033 26.214085,3.19415033 25.9260784,2.0420098 C26.5022059,2.90614379 26.5022059,2.90614379 26.5022059,3.77039216 C26.7903268,3.77039216 26.7903268,3.48227124 27.0783333,3.19426471 C27.0783333,4.05851307 27.0783333,4.34651961 26.7902124,4.63464052 C27.0783333,4.63464052 27.3663399,4.05851307 27.3663399,4.05851307 C27.6543464,5.21065359 26.790098,7.22704248 26.2139706,6.93903595 Z"></path>
            <path d="M19.5884477,10.3958007 C19.0123203,10.3958007 18.1480719,8.6674183 18.4361928,7.22704248 C18.4361928,7.80316993 18.7243137,7.5151634 18.7243137,8.09129085 C19.0124346,7.5151634 19.0124346,7.22704248 18.7243137,6.3629085 C19.0124346,6.65091503 19.0124346,6.93903595 19.3004412,7.22704248 C19.5885621,6.65091503 19.5885621,6.65091503 19.5885621,5.49866013 C20.1646895,6.3629085 19.876683,6.3629085 20.1646895,7.22704248 C20.4528105,7.22704248 20.4528105,6.93892157 20.4528105,6.65091503 C20.7409314,7.22704248 20.4528105,7.80316993 20.4528105,8.09129085 C20.7409314,8.09129085 21.0289379,7.5151634 21.0289379,7.5151634 C21.3168301,8.6674183 20.4526961,10.6838072 19.5884477,10.3958007 Z"></path>
            <path d="M50.1235458,10.1076797 C49.5474183,10.1076797 48.6831699,8.09129085 48.9712908,6.65091503 C48.9712908,7.5151634 49.2594118,7.22704248 49.2594118,7.80316993 C49.5475327,7.22704248 49.2594118,6.65091503 49.2594118,6.07478758 C49.5475327,6.3629085 49.5475327,6.65091503 49.8355392,6.93892157 C50.1236601,6.07478758 50.1236601,6.07478758 50.1236601,5.21053922 C50.6996732,5.78666667 50.4116667,6.07478758 50.4116667,6.93892157 C50.6997876,6.93892157 50.9877941,6.65080065 50.9877941,6.36279412 L50.9877941,7.80305556 C51.275915,7.80305556 51.275915,7.2269281 51.275915,7.2269281 C51.5636928,8.37929739 50.9875654,10.1076797 50.1235458,10.1076797 Z"></path>
            <path d="M44.3621569,20.1900817 C43.7860294,20.4782026 42.921781,18.4616993 43.209902,17.0213235 C43.209902,17.8854575 43.4980229,17.597451 43.4980229,17.8854575 C43.4980229,17.3093301 43.4980229,17.0213235 43.4980229,16.4451961 C43.7861438,16.733317 43.7861438,17.0213235 44.0741503,17.3094444 C44.0741503,16.4451961 44.3622712,16.4451961 44.3622712,15.5810621 C44.9383987,16.1571895 44.6503922,16.1571895 44.6503922,17.3094444 C44.9385131,17.3094444 44.9385131,17.0213235 45.2265196,16.733317 L45.2265196,17.8855719 C45.5146405,17.8855719 45.5146405,17.5975654 45.5146405,17.5975654 C45.8024183,18.461585 45.2262908,20.4780882 44.3621569,20.1900817 Z"></path>
            <path d="M28.2304739,17.3093301 C27.3662255,17.3093301 26.790098,15.5809477 27.078219,14.1405719 C27.078219,15.0047059 27.078219,14.7166993 27.3663399,15.0047059 C27.3663399,14.4285784 27.3663399,14.1405719 27.078219,13.5644444 C27.6543464,13.8525654 27.6543464,14.1405719 27.9424673,14.4285784 C27.9424673,13.5644444 28.2305882,13.5644444 28.2305882,12.7001961 C28.5187092,13.2763235 28.5187092,13.2763235 28.5187092,14.4285784 C28.8068301,14.4285784 28.8068301,13.852451 29.0948366,13.5644444 C29.0948366,14.4285784 29.0948366,14.7166993 28.8068301,15.0047059 C29.0948366,15.0047059 29.3829575,14.4285784 29.3829575,14.4285784 C29.6707353,15.5809477 29.0946078,17.597451 28.2304739,17.3093301 Z"></path>
            <path d="M53.0040686,19.6138399 C52.1398203,19.6138399 51.5636928,17.597451 51.5636928,16.1570752 C51.8518137,17.0213235 51.8518137,16.7332026 52.1398203,17.3093301 C52.1398203,16.7332026 52.1398203,16.1570752 51.8516993,15.5809477 C52.4278268,15.8690686 52.4278268,16.1570752 52.7159477,16.4451961 C52.7159477,15.5809477 53.0040686,15.5809477 52.7159477,14.7168137 C53.2920752,15.2929412 53.2920752,15.2929412 53.2920752,16.4451961 C53.5801961,16.4451961 53.5801961,16.1570752 53.8682026,15.8690686 C53.8682026,16.4451961 53.8682026,16.733317 53.5800817,17.0213235 C53.8682026,17.3094444 54.1562092,16.7332026 54.1562092,16.7332026 C54.4444444,17.8854575 53.5801961,19.6138399 53.0040686,19.6138399 Z"></path>
            <path d="M44.0740359,6.93903595 C43.2097876,7.22715686 42.0576471,5.78678105 41.7696405,4.34640523 C42.0577614,4.92253268 42.0577614,4.63452614 42.345768,4.92253268 C42.345768,4.34640523 42.0576471,4.05828431 41.7696405,3.48215686 C42.0577614,3.48215686 42.345768,3.77027778 42.6337745,4.05828431 C42.345768,3.48215686 42.6337745,3.19403595 42.345768,2.32990196 C42.921781,2.90602941 42.921781,2.90602941 43.209902,3.77027778 C43.4980229,3.77027778 43.4980229,3.48215686 43.4980229,2.90602941 C43.7861438,3.77027778 43.7861438,4.05828431 43.7861438,4.34640523 C44.0742647,4.34640523 44.0742647,3.77027778 44.0742647,3.77027778 C44.9382843,4.63452614 44.6501634,6.65091503 44.0740359,6.93903595 Z"></path>
            <path d="M22.469085,18.461585 C21.8929575,18.7497059 20.4526961,17.3093301 20.1645752,15.8689542 C20.4526961,16.4450817 20.4526961,16.1570752 20.7407026,16.4450817 C20.7407026,15.8689542 20.4525817,15.5808333 20.1645752,15.0047059 C20.4526961,15.0047059 20.7407026,15.2928268 21.0288235,15.5808333 C20.7407026,14.716585 21.0288235,14.716585 20.7407026,13.852451 C21.3168301,14.4285784 21.3168301,14.4285784 21.6048366,15.2927124 C21.8929575,15.2927124 21.8929575,15.0045915 21.8929575,14.4284641 C22.1810784,15.2927124 22.1810784,15.580719 22.1810784,15.8688399 C22.4691993,15.8688399 22.4691993,15.2927124 22.4691993,15.2927124 C23.3333333,16.1570752 23.0452124,18.1735784 22.469085,18.461585 Z"></path>
            <path d="M6.04939542,25.3752288 C6.04939542,25.9513562 4.32101307,27.1036111 2.88063725,27.1036111 C3.74488562,26.8154902 3.45676471,26.8154902 4.03289216,26.5274837 C3.45676471,26.5274837 2.88063725,26.5274837 2.3045098,26.8156046 C2.59263072,26.2394771 2.88063725,26.2394771 3.16875817,25.9513562 C2.3045098,25.9513562 2.3045098,25.9513562 1.44037582,25.9513562 C2.01650327,25.3752288 2.01650327,25.6632353 2.88063725,25.3752288 C2.88063725,25.0871078 2.59251634,25.0871078 2.3045098,24.7991013 L3.74488562,24.7991013 C3.74488562,24.5109804 3.16875817,24.5109804 3.16875817,24.5109804 C4.03289216,23.9348529 6.04939542,24.5109804 6.04939542,25.3752288 Z"></path>
            <path d="M6.33740196,34.593268 C6.33740196,35.1693954 4.60901961,36.3216503 3.16864379,36.0336438 C4.03289216,36.0336438 3.74477124,35.7455229 4.03289216,35.7455229 C3.45676471,35.7455229 3.16864379,35.7455229 2.59251634,36.0336438 C2.59251634,35.4575163 3.16864379,35.4575163 3.16864379,35.1693954 C2.59251634,35.1693954 2.59251634,34.8812745 1.44026144,35.1693954 C2.01638889,34.593268 2.30439542,34.8812745 3.16864379,34.593268 C3.16864379,34.3051471 2.88052288,34.3051471 2.59251634,34.0171405 L3.74477124,34.0171405 C3.74477124,33.7290196 3.16864379,33.7290196 3.16864379,33.7290196 C4.32101307,33.1530065 6.33740196,33.729134 6.33740196,34.593268 Z"></path>
            <path d="M6.04939542,32.0007516 C5.76138889,32.5768791 3.74488562,32.5768791 2.59263072,31.7126307 L3.45687908,31.7126307 C3.16875817,31.4245098 2.88075163,31.1365033 2.01650327,31.1365033 C2.59263072,30.8483824 2.88075163,30.8483824 3.16875817,30.8483824 C2.59263072,30.2722549 2.59263072,30.2722549 1.72849673,29.6961275 C2.59263072,29.6961275 2.59263072,29.984134 3.45687908,30.2722549 C3.45687908,29.984134 3.16875817,29.6961275 3.16875817,29.4081209 C3.74488562,29.6962418 4.03300654,29.9842484 4.32101307,30.2722549 C4.32101307,29.984134 4.03289216,29.6961275 4.03289216,29.6961275 C5.18514706,29.9842484 6.62552288,31.4246242 6.04939542,32.0007516 Z"></path>
            <path d="M5.18514706,40.3546569 C5.18514706,40.9307843 3.16864379,41.2187908 1.72838235,40.6427778 L2.88063725,40.6427778 C2.3045098,40.3546569 2.01638889,40.3546569 1.1522549,40.3546569 C1.72838235,40.0665359 2.01638889,40.0665359 2.3045098,39.7785294 C1.72838235,39.4904085 1.72838235,39.4904085 0.576127451,39.202402 C1.44037582,38.914281 1.44037582,38.914281 2.59251634,39.202402 C2.59251634,38.914281 2.30439542,38.914281 2.01638889,38.6262745 C2.59251634,38.6262745 2.88063725,38.9143954 3.16864379,38.9143954 C3.45665033,38.9143954 2.88052288,38.338268 2.88052288,38.338268 C4.03289216,38.3381536 5.76138889,39.7785294 5.18514706,40.3546569 Z"></path>
            <path d="M9.79416667,39.202402 C9.79416667,39.7785294 7.77777778,40.0666503 6.33740196,39.4905229 C7.20165033,39.4905229 6.91352941,39.202402 7.48965686,39.202402 C6.91352941,39.202402 6.6254085,38.914281 5.76127451,38.914281 C6.04928105,38.6261601 6.33740196,38.6261601 6.91352941,38.6261601 C6.04928105,38.3380392 6.04928105,38.0500327 5.18514706,38.0500327 C6.04928105,37.4739052 6.04928105,37.7619118 6.91352941,38.0500327 C6.91352941,37.7619118 6.6254085,37.4739052 6.6254085,37.1858987 C7.20153595,37.4740196 7.48965686,37.4740196 7.7776634,37.7620261 C7.7776634,37.4740196 7.48954248,37.1858987 7.48954248,37.1858987 C8.64202614,37.1858987 10.0822876,38.3381536 9.79416667,39.202402 Z"></path>
            <path d="M10.9465359,41.7949183 C10.9465359,42.3710458 9.21815359,43.2352941 7.77777778,43.2352941 C8.35390523,42.9471732 8.06589869,42.9471732 8.64202614,42.6591667 C8.06589869,42.6591667 7.77777778,42.6591667 6.91364379,42.9472876 C7.20176471,42.6591667 7.48977124,42.3711601 7.77789216,42.3711601 C7.20176471,42.0830392 7.20176471,42.0830392 6.0495098,42.0830392 C6.62563725,41.5069118 6.91375817,41.7949183 7.77789216,41.5069118 C7.77789216,41.2187908 7.48977124,41.2187908 7.20176471,41.2187908 C7.77789216,40.9307843 8.06601307,40.9307843 8.35401961,41.2187908 C8.35401961,40.9307843 8.06589869,40.6426634 8.06589869,40.6426634 C8.93003268,40.3546569 10.9465359,40.9307843 10.9465359,41.7949183 Z"></path>
            <path d="M6.04939542,44.0995425 C6.04939542,44.6756699 4.32101307,45.8278105 2.88063725,45.5399183 C3.74488562,45.2517974 3.45676471,45.2517974 3.74488562,44.9637908 C3.16875817,44.9637908 2.88063725,45.2519118 2.3045098,45.2519118 C2.3045098,44.9637908 2.88063725,44.9637908 3.16875817,44.6757843 C2.3045098,44.6757843 2.3045098,44.3876634 1.44037582,44.3876634 C2.01650327,43.8115359 2.01650327,44.0995425 2.88063725,43.8115359 C2.88063725,43.8115359 2.59251634,43.523415 2.3045098,43.523415 L3.74488562,43.523415 C3.74488562,43.2352941 3.16875817,42.9472876 3.16875817,42.9472876 C4.32101307,42.6591667 6.04939542,43.2352941 6.04939542,44.0995425 Z"></path>
            <path d="M4.32101307,47.5561928 C4.60913399,48.1323203 3.16875817,49.5726961 1.72838235,49.8607026 C2.59251634,49.5725817 2.3045098,49.5725817 2.59251634,49.2845752 C2.01638889,49.2845752 1.72838235,49.5726961 1.1522549,49.8607026 C1.1522549,49.5725817 1.44037582,49.2845752 1.72838235,48.9964542 C0.864133987,49.2845752 0.864133987,48.9964542 -3.55271368e-15,49.2845752 C0.576127451,48.7084477 0.576127451,48.7084477 1.44037582,48.4203268 C1.44037582,48.1322059 0.864248366,48.1322059 0.576127451,48.1322059 C1.1522549,47.844085 1.72838235,47.844085 2.01638889,47.844085 C2.01638889,47.5559641 1.44026144,47.5559641 1.44026144,47.5559641 C2.3045098,46.6921732 4.32101307,46.6921732 4.32101307,47.5561928 Z"></path>
            <path d="M9.79416667,44.6756699 C10.3702941,45.2517974 8.93003268,46.9800654 7.77777778,47.5563072 C8.35390523,46.9801797 8.06589869,46.9801797 8.35390523,46.6921732 C7.77777778,46.9801797 7.48965686,46.9801797 6.91352941,47.5563072 C6.91352941,46.9801797 7.20165033,46.9801797 7.48965686,46.4041667 C6.6254085,46.6922876 6.6254085,46.6922876 5.76127451,47.2683007 C6.04928105,46.4041667 6.33740196,46.4041667 7.20153595,45.8279248 C6.91341503,45.8279248 6.6254085,45.8279248 6.33728758,45.8279248 C6.91341503,45.5399183 7.20153595,45.2519118 7.48954248,45.2519118 C7.48954248,44.9637908 6.91341503,44.9637908 6.91341503,44.9637908 C7.77777778,44.387549 9.79416667,44.0995425 9.79416667,44.6756699 Z"></path>
            <path d="M9.21815359,48.7085621 C9.79428105,48.7085621 10.0822876,50.7250654 9.50627451,52.1654412 C9.50627451,51.3011928 9.50627451,51.5893137 9.50627451,51.0131863 C9.21815359,51.5893137 9.21815359,52.1654412 9.21815359,52.7415686 C8.93003268,52.4534477 8.93003268,52.1654412 8.64202614,51.5893137 C8.35390523,52.4535621 8.35390523,52.4535621 8.06589869,53.3176961 C7.77777778,52.4534477 7.77777778,52.4534477 8.06589869,51.5893137 C7.77777778,51.5893137 7.77777778,51.8774346 7.48977124,52.1654412 C7.48965686,51.5891993 7.77777778,51.0130719 7.77777778,50.724951 C7.48965686,50.724951 7.20165033,51.3010784 7.20165033,51.3010784 C7.20165033,50.1488235 8.35390523,48.4204412 9.21815359,48.7085621 Z"></path>
            <path d="M11.5226634,44.9636765 C12.3869118,44.6755556 13.2510458,46.6920588 12.9630392,48.1323203 C12.6749183,47.2680719 12.6749183,47.5561928 12.3869118,47.2680719 C12.3869118,47.8441993 12.3869118,48.1323203 12.6750327,48.7084477 C12.0989052,48.4203268 12.0989052,48.1323203 11.8107843,47.8441993 C11.8107843,48.7084477 11.5226634,48.7084477 11.8107843,49.5725817 C11.2346569,48.9964542 11.2346569,48.9964542 11.2346569,47.8441993 C10.9465359,47.8441993 10.9465359,48.1323203 10.6585294,48.4203268 C10.6585294,47.8441993 10.6585294,47.5560784 10.9466503,47.2680719 C10.6585294,47.2680719 10.3705229,47.5561928 10.3705229,47.5561928 C10.0822876,46.6921732 10.9465359,44.6756699 11.5226634,44.9636765 Z"></path>
            <path d="M14.1151797,44.0995425 C14.6913072,43.8114216 16.4196895,44.9637908 16.9959314,46.1160458 C16.4198039,45.5399183 16.7078105,45.8278105 16.131683,45.5399183 C16.4198039,46.1160458 16.7078105,46.4041667 17.2839379,46.9801797 C16.7078105,46.9801797 16.4196895,46.6921732 16.131683,46.6921732 C16.4198039,47.2681863 16.4198039,47.2681863 16.9959314,48.1324346 C16.131683,47.8443137 16.131683,47.8443137 15.5555556,46.9801797 C15.2674346,47.2683007 15.5555556,47.5563072 15.5555556,47.8444281 C15.2674346,47.2683007 14.9794281,46.9801797 14.9794281,46.6922876 C14.6913072,46.6922876 14.6913072,47.2683007 14.6913072,47.2683007 C13.8271732,46.4040523 13.5391667,44.387549 14.1151797,44.0995425 Z"></path>
            <path d="M18.7243137,43.8114216 C19.3004412,43.5233007 20.4526961,45.2517974 20.4526961,46.6921732 C20.1645752,46.1160458 20.1645752,46.4040523 19.8765686,45.8278105 C19.8765686,46.4040523 20.1646895,46.9800654 20.4526961,47.5561928 C19.8765686,47.2680719 19.8765686,46.9800654 19.5884477,46.6920588 C19.5884477,47.5561928 19.3003268,47.5561928 19.5884477,48.4203268 C19.0123203,47.8441993 19.3003268,47.8441993 19.0123203,46.979951 C18.7241993,46.979951 18.7241993,47.2680719 18.4361928,47.5560784 C18.4361928,46.979951 18.4361928,46.6919444 18.4361928,46.115817 C18.1480719,46.115817 18.1480719,46.6919444 18.1480719,46.6919444 C17.5719444,45.8278105 17.8600654,43.8114216 18.7243137,43.8114216 Z"></path>
            <path d="M13.8271732,48.9965686 C14.6914216,48.9965686 15.8436765,50.4369444 15.8436765,52.1653268 C15.5555556,51.3010784 15.267549,51.5891993 15.267549,51.0130719 C15.267549,51.8773203 15.267549,52.1653268 15.5556699,52.7414542 C14.9795425,52.4533333 14.9795425,52.1653268 14.6914216,51.8772059 C14.6914216,52.7414542 14.6914216,52.7414542 14.9795425,53.8937092 C14.1152941,53.3175817 14.403415,53.0294608 14.1152941,52.1653268 C13.8271732,52.1653268 13.8271732,52.4534477 13.5391667,52.7414542 C13.5391667,52.1653268 13.5391667,51.8772059 13.5391667,51.5891993 C13.2510458,51.5891993 13.2510458,52.1653268 13.2510458,52.1653268 C12.6749183,51.0130719 13.2510458,48.9965686 13.8271732,48.9965686 Z"></path>
            <path d="M16.9959314,49.2846895 C17.5720588,48.9965686 19.0123203,50.4369444 19.3004412,51.8773203 C18.7243137,51.3011928 18.7243137,51.5891993 18.4361928,51.3011928 C18.7243137,51.8773203 18.7243137,52.1654412 19.3004412,52.7415686 C18.7243137,52.4534477 18.4361928,52.1654412 18.1481863,52.1654412 C18.4363072,52.7415686 18.1481863,53.0296895 18.7243137,53.8938235 C17.8600654,53.3176961 18.1481863,53.3176961 17.5720588,52.4534477 C17.2840523,52.4534477 17.5720588,52.7415686 17.2840523,53.0295752 C16.9959314,52.4534477 16.9959314,52.1653268 16.9959314,51.8773203 C16.7078105,51.8773203 16.7078105,52.4534477 16.7078105,52.4534477 C16.131683,51.5891993 16.131683,49.5726961 16.9959314,49.2846895 Z"></path>
            <path d="M19.5884477,48.9965686 C20.1645752,48.7084477 21.8929575,49.2846895 22.7572059,50.724951 C22.1810784,50.1488235 22.1810784,50.4368301 21.8929575,50.1488235 C22.1810784,50.724951 22.469085,51.0130719 23.0452124,51.3010784 C22.469085,51.3010784 22.1809641,51.3010784 21.8929575,51.0129575 C22.469085,51.8772059 22.1810784,51.8772059 23.0452124,52.4533333 C22.1809641,52.4533333 22.1809641,52.1652124 21.6048366,51.589085 C21.3167157,51.8772059 21.6048366,52.1652124 21.6048366,52.4533333 C21.0287092,51.8772059 20.7407026,51.589085 20.7407026,51.3010784 C20.4525817,51.5891993 20.7407026,52.1653268 20.7407026,52.1653268 C19.5884477,51.3011928 19.0123203,49.5726961 19.5884477,48.9965686 Z"></path>
            <path d="M62.7983497,19.6138399 C62.2222222,19.325719 62.5102288,17.3093301 63.662598,16.1570752 C63.3744771,17.0213235 63.662598,16.7332026 63.3744771,17.3093301 C63.9506046,16.7332026 63.9506046,16.4450817 64.2387255,15.8689542 C64.5268464,16.1570752 64.2387255,16.4450817 64.2387255,16.7332026 C64.8148529,16.1570752 65.1029739,16.4450817 65.3909804,15.5809477 C65.6791013,16.4451961 65.3909804,16.4451961 64.8148529,17.3093301 C65.1029739,17.3093301 65.3909804,17.0212092 65.6791013,17.0212092 C65.3909804,17.5973366 65.1029739,17.8853431 64.8148529,17.8853431 C65.1029739,18.1734641 65.3909804,17.8853431 65.3909804,17.8853431 C65.1029739,19.0377124 63.3744771,20.1900817 62.7983497,19.6138399 Z"></path>
            <path d="M36.0081373,7.5151634 C35.4320098,6.93903595 36.0081373,5.21065359 36.8723856,4.05839869 C36.5842647,4.63452614 36.8723856,4.63452614 36.5842647,4.92264706 C37.1603922,4.63452614 37.1603922,4.34651961 37.4485131,3.48227124 C37.736634,4.05839869 37.4485131,4.34651961 37.4485131,4.63452614 C38.0246405,4.05839869 38.3127614,4.34640523 38.600768,3.48227124 C38.8888889,4.34651961 38.600768,4.05839869 38.0246405,4.92264706 C38.3127614,5.21076797 38.600768,4.92264706 38.8888889,4.92264706 C38.600768,5.49877451 38.3127614,5.78689542 38.0246405,5.78689542 C38.3127614,6.07501634 38.600768,5.78689542 38.600768,5.78689542 C38.3127614,6.93903595 36.5843791,8.09129085 36.0081373,7.5151634 Z"></path>
            <path d="M45.5144118,8.09129085 C44.9382843,7.80316993 45.2262908,5.78678105 46.0905392,4.63452614 C45.8024183,5.49877451 46.0905392,5.21065359 46.0905392,5.78678105 C46.3785458,5.21065359 46.6666667,4.92253268 46.6666667,4.34640523 C46.9547876,4.63452614 46.9547876,4.92253268 46.9547876,5.49866013 C47.2429085,4.92253268 47.530915,4.92253268 48.1070425,4.05828431 C48.1070425,4.92253268 47.8189216,4.92253268 47.530915,5.78666667 C47.8190359,5.78666667 47.8190359,5.49854575 48.3951634,5.49854575 C47.8190359,6.0746732 47.530915,6.36279412 47.2429085,6.65080065 C47.5310294,6.65080065 48.1071569,6.36279412 48.1071569,6.36279412 C47.8189216,7.5151634 46.0905392,8.6674183 45.5144118,8.09129085 Z"></path>
            <path d="M55.3086928,16.7332026 C54.7325654,16.4450817 55.0205719,14.4286928 56.1729412,13.2764379 C55.5968137,14.1406863 55.8848203,13.8525654 55.8848203,14.4286928 C56.1729412,14.1406863 56.4609477,13.5645588 56.7490686,12.9884314 L56.7490686,14.1406863 C57.3251961,13.5645588 57.3251961,13.5645588 57.9013235,12.7003105 C57.9013235,13.5645588 57.6132026,13.5645588 57.3251961,14.4286928 C57.613317,14.7168137 57.613317,14.4286928 58.1893301,14.1406863 C57.613317,14.7168137 57.613317,15.0048203 57.3251961,15.2929412 C57.3251961,15.5810621 57.9013235,15.0048203 57.9013235,15.0048203 C57.6132026,16.1570752 55.8848203,17.3093301 55.3086928,16.7332026 Z"></path>
            <path d="M44.9382843,13.8525654 C44.3621569,13.5644444 44.6501634,11.5480556 45.8025327,10.6838072 C45.5144118,11.2599346 45.8025327,10.9719281 45.5144118,11.5480556 C45.8025327,11.2599346 46.0905392,10.9719281 46.3786601,10.1076797 C46.666781,10.6838072 46.3786601,10.9719281 46.3786601,11.2599346 C46.9547876,10.6838072 47.2429085,10.6838072 47.530915,9.8196732 C47.530915,10.6838072 47.530915,10.6838072 46.9547876,11.5480556 C47.2429085,11.8361765 47.530915,11.5480556 47.8190359,11.2599346 C47.530915,11.8360621 47.2429085,12.124183 46.9547876,12.4121895 C47.2429085,12.7003105 47.530915,12.4121895 47.530915,12.4121895 C47.2427941,13.2764379 45.5144118,14.4286928 44.9382843,13.8525654 Z"></path>
            <path d="M31.6872386,16.4451961 C31.1111111,16.1570752 31.3991176,14.1406863 32.5514869,12.9884314 C32.263366,13.8526797 32.263366,13.5645588 32.263366,14.1406863 C32.5514869,13.5645588 32.8394935,13.2764379 33.1275,12.7003105 L33.1275,13.5645588 C33.7036275,12.9884314 33.7036275,13.2764379 34.2798693,12.4123039 C34.2798693,13.2765523 34.2798693,13.2765523 33.7036275,14.1406863 C33.9917484,14.1406863 34.2798693,13.8525654 34.5678758,13.8525654 C34.2797549,14.4286928 33.991634,14.7166993 33.7036275,15.0048203 L34.2798693,14.7166993 C33.9917484,15.8690686 32.263366,17.0213235 31.6872386,16.4451961 Z"></path>
            <path d="M44.0740359,24.2229739 C43.4979085,23.9348529 43.785915,21.9184641 44.9382843,20.7662092 C44.6501634,21.6304575 44.6501634,21.3423366 44.6501634,21.9184641 C44.9382843,21.3423366 45.2262908,21.0542157 45.5144118,20.4780882 L45.5144118,21.3423366 C46.0905392,20.7662092 46.0905392,21.0542157 46.6666667,20.1900817 C46.6666667,21.0543301 46.6666667,21.0543301 46.0905392,21.9184641 C46.3786601,21.9184641 46.6666667,21.6303431 46.9547876,21.6303431 C46.6666667,22.2064706 46.3786601,22.4944771 46.0905392,22.782598 L46.6666667,22.4944771 C46.3785458,23.6468464 44.6501634,24.7991013 44.0740359,24.2229739 Z"></path>
            <path d="M49.8354248,25.3752288 C49.2592974,24.7991013 49.5473039,23.070719 50.4114379,21.9184641 C50.1234314,22.4945915 50.4114379,22.4945915 50.4114379,22.782598 C50.6995588,22.4944771 50.9875654,22.2064706 50.9875654,21.3423366 C51.2756863,21.9184641 50.9875654,22.2064706 51.2756863,22.4945915 C51.5638072,21.9184641 51.8518137,22.2064706 52.4279412,21.3423366 C52.4279412,22.2064706 52.1398203,21.9184641 51.8518137,22.782598 C51.8518137,23.070719 52.1399346,22.782598 52.4279412,22.782598 C52.1398203,23.3587255 51.8518137,23.6468464 51.5636928,23.6468464 C51.8518137,23.9349673 52.4279412,23.6468464 52.4279412,23.6468464 C51.8518137,24.7991013 50.4114379,25.9513562 49.8354248,25.3752288 Z"></path>
            <path d="M60.4938399,31.4246242 C59.9177124,31.1365033 60.205719,29.1201144 61.3580882,27.9678595 C61.0699673,28.8321078 61.3580882,28.5439869 61.0699673,29.1201144 C61.6460948,28.5439869 61.6460948,28.255866 61.9342157,27.6797386 C62.2223366,27.9678595 61.9342157,28.255866 61.9342157,28.8319935 C62.5103431,28.255866 62.7984641,28.255866 63.0864706,27.3916176 C63.0864706,28.255866 63.0864706,28.255866 62.5103431,29.12 C62.7984641,29.12 63.0864706,28.8318791 63.3745915,28.8318791 C63.0864706,29.4080065 62.7984641,29.6961275 62.5103431,29.984134 C62.7984641,29.984134 63.0864706,29.6961275 63.0864706,29.6961275 C62.7983497,30.8484967 61.0699673,32.0007516 60.4938399,31.4246242 Z"></path>
            <path d="M51.5636928,36.6097712 C50.9875654,36.3216503 51.2755719,34.3052614 52.1398203,33.1530065 C51.8516993,34.0171405 52.1398203,33.729134 52.1398203,34.3052614 C52.4279412,33.729134 52.7159477,33.4410131 52.7159477,32.865 C53.0040686,33.1531209 53.0040686,33.4411275 53.0040686,33.729134 C53.2921895,33.1530065 53.5801961,33.4410131 54.1563235,32.5768791 C54.1563235,33.4410131 53.8682026,33.4410131 53.5801961,34.3052614 C53.5801961,34.3052614 53.868317,34.0171405 54.1563235,34.0171405 C53.8682026,34.593268 53.5801961,34.8813889 53.2920752,35.1693954 C53.5801961,35.1693954 54.1563235,34.8812745 54.1563235,34.8812745 C53.5801961,36.0336438 52.1399346,37.1858987 51.5636928,36.6097712 Z"></path>
            <path d="M60.4938399,38.6262745 C60.205719,37.7620261 61.9342157,36.6098856 63.3745915,36.3217647 C62.5103431,36.6098856 62.7984641,36.6098856 62.5103431,36.8978922 C63.0864706,36.8978922 63.3745915,36.6097712 63.950719,36.3217647 C63.950719,36.8978922 63.662598,36.8978922 63.3745915,37.1860131 C64.2388399,37.1860131 64.2388399,37.1860131 65.1029739,36.8978922 C64.5268464,37.7620261 64.5268464,37.4740196 63.662598,37.7620261 C63.662598,38.0501471 63.950719,38.0501471 64.2387255,38.3381536 C63.662598,38.3381536 63.3744771,38.6262745 63.0864706,38.6262745 L63.662598,38.9143954 C62.7983497,39.4904085 60.7818464,39.202402 60.4938399,38.6262745 Z"></path>
            <path d="M63.662598,26.2393627 C63.3744771,25.3752288 65.1029739,24.2229739 66.5432353,23.9348529 C65.6791013,24.2229739 65.9671078,24.2229739 65.6791013,24.5109804 C66.2551144,24.5109804 66.5432353,24.2228595 67.1193627,23.9348529 C67.1193627,24.5109804 66.8312418,24.5109804 66.5432353,24.7991013 C67.4074837,24.7991013 67.4074837,25.0872222 68.2716176,24.5109804 C67.6954902,25.3752288 67.6954902,25.0871078 66.8312418,25.3752288 C66.8312418,25.6632353 67.1193627,25.6632353 67.6954902,25.9513562 C66.8312418,25.9513562 66.5432353,26.2394771 66.2551144,26.2394771 L66.8312418,26.527598 C65.9669935,27.1036111 63.9506046,26.8154902 63.662598,26.2393627 Z"></path>
            <path d="M58.1892157,26.5274837 C57.9012092,25.9513562 59.6295915,24.5110948 61.0699673,24.2229739 C60.205719,24.7991013 60.4938399,24.7991013 60.205719,25.0872222 C60.7818464,24.7991013 61.0699673,24.7991013 61.6460948,24.2229739 C61.6460948,24.7991013 61.3579739,25.0872222 61.0699673,25.3752288 C61.9342157,25.0871078 61.9342157,25.3752288 62.7983497,24.7991013 C62.2222222,25.6632353 62.2222222,25.3752288 61.3579739,25.9513562 C61.3579739,26.2394771 61.6460948,25.9513562 61.9341013,26.2394771 C61.3579739,26.527598 61.0698529,26.527598 60.7818464,26.527598 C60.7818464,26.815719 61.3579739,26.815719 61.3579739,26.815719 C60.4938399,27.3916176 58.1892157,27.3916176 58.1892157,26.5274837 Z"></path>
            <path d="M63.0864706,22.2064706 C62.7983497,21.6303431 64.5268464,20.1900817 65.9671078,20.1900817 C65.1029739,20.4782026 65.3910948,20.4782026 65.1029739,20.7662092 C65.6791013,20.7662092 65.9671078,20.4780882 66.5432353,20.1900817 C66.5432353,20.4782026 66.2551144,20.7662092 65.9671078,21.0543301 C66.8313562,20.7662092 66.8313562,21.0543301 67.6954902,20.7662092 C67.1193627,21.3423366 67.1193627,21.3423366 66.2551144,21.6304575 C66.2551144,21.9185784 66.5432353,21.9185784 67.1193627,21.9185784 C66.2551144,22.206585 65.9671078,22.206585 65.6791013,22.206585 C65.6791013,22.4947059 66.2551144,22.4947059 66.2551144,22.4947059 C65.3909804,23.070719 63.3744771,23.070719 63.0864706,22.2064706 Z"></path>
            <path d="M65.3909804,35.4575163 C65.1028595,34.8813889 66.5431209,33.4410131 67.9834967,33.4410131 C67.4073693,33.729134 67.6953758,33.729134 67.1192484,34.0171405 C67.6953758,34.0171405 68.2715033,33.7290196 68.8476307,33.4410131 C68.5595098,33.729134 68.2715033,34.0171405 67.9833824,34.3052614 C68.8476307,34.0171405 68.8476307,34.3052614 69.9998856,34.0171405 C69.4237582,34.593268 69.1356373,34.593268 68.2715033,34.8813889 C68.5596242,35.1695098 68.8476307,35.1695098 69.1357516,35.1695098 C68.5596242,35.4575163 67.9834967,35.4575163 67.6954902,35.4575163 C67.6954902,35.7456373 68.5597386,35.7456373 68.5597386,35.7456373 C67.4073693,36.3217647 65.3909804,36.3217647 65.3909804,35.4575163 Z"></path>
            <path d="M53.2921895,40.3546569 C52.7160621,40.0665359 53.0040686,38.0501471 54.1564379,36.8978922 C53.5803105,37.7620261 53.868317,37.4740196 53.868317,38.0501471 C54.1564379,37.4740196 54.4444444,37.1860131 54.7325654,36.6098856 L54.7325654,37.7621405 C55.3086928,37.1860131 55.3086928,37.1860131 55.8848203,36.3218791 C55.8848203,37.1861275 55.5966993,37.1861275 55.3086928,38.0502614 C55.5968137,38.0502614 55.5968137,37.7621405 56.1729412,37.7621405 C55.5968137,38.338268 55.5968137,38.6263889 55.3086928,38.9143954 L55.8848203,38.6262745 C55.5966993,39.7785294 53.868317,40.9307843 53.2921895,40.3546569 Z"></path>
            <path d="M28.8066013,25.9513562 C28.2304739,25.6632353 28.5184804,23.6468464 29.3827288,22.4945915 C29.0946078,23.3588399 29.3827288,23.070719 29.3827288,23.6468464 C29.6708497,23.070719 29.9588562,22.782598 29.9588562,22.2064706 C30.2469771,22.4945915 30.2469771,22.782598 30.2469771,23.070719 C30.535098,22.4945915 30.8231046,22.782598 31.399232,21.9184641 C31.399232,22.782598 31.1111111,22.782598 30.8231046,23.6468464 C31.1112255,23.6468464 31.1112255,23.3587255 31.6873529,23.3587255 C31.1112255,23.9348529 30.8231046,24.2229739 30.535098,24.2229739 C30.823219,24.5110948 31.3993464,24.2229739 31.3993464,24.2229739 C31.1111111,25.3752288 29.3827288,26.5274837 28.8066013,25.9513562 Z"></path>
            <path d="M41.1933987,36.3217647 C41.1933987,35.4575163 42.9216667,34.5933824 44.3620425,34.5933824 C43.4977941,34.8815033 43.785915,34.8815033 43.2097876,35.1695098 C44.0740359,35.1695098 44.3620425,35.1695098 44.9381699,34.8813889 C44.650049,35.1695098 44.3620425,35.1695098 44.0739216,35.4575163 C44.9381699,35.4575163 44.9381699,35.7456373 45.8023039,35.4575163 C45.2261765,36.0336438 45.2261765,36.0336438 44.3619281,36.3217647 C44.3619281,36.6098856 44.650049,36.6098856 44.9380556,36.6098856 C44.3619281,36.8980065 44.0738072,36.8980065 43.4976797,36.6098856 C43.4976797,36.8980065 44.0738072,37.1860131 44.0738072,37.1860131 C43.2097876,37.4740196 41.1933987,37.1858987 41.1933987,36.3217647 Z"></path>
            <path d="M44.9382843,31.7126307 C45.5144118,31.1365033 47.2427941,32.0007516 48.1070425,33.4410131 C47.530915,32.8648856 47.530915,33.1530065 47.2427941,32.8648856 C47.530915,33.4410131 47.8189216,33.7290196 48.395049,34.0171405 C47.8189216,34.0171405 47.5308007,34.0171405 47.2427941,33.7290196 C47.530915,34.593268 47.530915,34.593268 48.1070425,35.1693954 C47.2427941,35.1693954 47.530915,34.8812745 46.6666667,34.3051471 C46.3785458,34.593268 46.6666667,34.8812745 46.6666667,35.1693954 C46.3785458,34.593268 46.0905392,34.3051471 46.0905392,34.0171405 C45.8024183,34.0171405 45.8024183,34.593268 45.8024183,34.593268 C44.9382843,34.0171405 44.3621569,32.0007516 44.9382843,31.7126307 Z"></path>
            <path d="M48.6831699,31.1365033 C48.395049,30.5603758 50.1235458,29.4081209 51.5638072,29.4081209 C50.6995588,29.6962418 51.2756863,29.6962418 50.6995588,29.9842484 C51.2756863,29.9842484 51.5638072,29.9842484 52.4279412,29.6962418 C52.1398203,29.9842484 51.8518137,30.2723693 51.5636928,30.2723693 C52.4279412,30.2723693 52.4279412,30.5604902 53.2920752,30.2723693 C52.7159477,31.1366176 52.7159477,30.8484967 51.5636928,31.1366176 C51.5636928,31.4247386 52.1398203,31.4247386 52.4279412,31.4247386 C51.5636928,31.7128595 51.2756863,31.7128595 50.9875654,31.4247386 C50.9875654,31.7128595 51.5636928,32.000866 51.5636928,32.000866 C50.4114379,32.2887582 48.395049,32.0007516 48.6831699,31.1365033 Z"></path>
            <path d="M48.6831699,27.9678595 C48.395049,27.391732 49.8354248,25.9513562 51.5638072,25.6633497 C50.6995588,25.9514706 50.9876797,25.9514706 50.6995588,26.527598 C51.2756863,26.2394771 51.5638072,26.2394771 52.1399346,25.6633497 C52.1399346,26.2394771 51.5638072,26.2394771 51.5638072,26.527598 C52.1399346,26.527598 52.4280556,26.815719 53.2921895,26.2394771 C52.7160621,27.1037255 52.7160621,26.8156046 51.8518137,27.391732 C51.8518137,27.6798529 52.1399346,27.391732 52.4279412,27.6798529 C51.8518137,27.9679739 51.5636928,27.9679739 51.2756863,27.9679739 C51.2756863,28.2560948 51.8518137,28.2560948 51.8518137,28.2560948 C50.6995588,28.8319935 48.6831699,28.8319935 48.6831699,27.9678595 Z"></path>
            <path d="M57.3251961,36.3217647 C56.7490686,36.6098856 55.3086928,35.1695098 55.3086928,33.4410131 C55.5968137,34.3052614 55.5968137,34.0171405 55.8848203,34.3052614 C55.5966993,33.729134 55.5966993,33.4410131 55.3086928,32.865 C55.5968137,32.865 55.8848203,33.4411275 56.1729412,33.4411275 C55.8848203,32.865 56.1729412,32.5769935 55.8848203,31.7127451 C56.4609477,32.2888725 56.4609477,32.2888725 56.7490686,33.4411275 C57.0371895,33.1531209 57.0371895,32.865 57.0371895,32.5769935 C57.3253105,33.1531209 57.3253105,33.4411275 57.3253105,33.7292484 C57.6134314,33.7292484 57.6134314,33.1531209 57.6134314,33.1531209 C58.1892157,34.3052614 58.1892157,36.3217647 57.3251961,36.3217647 Z"></path>
            <path d="M58.477451,32.5768791 C57.6132026,32.5768791 56.7490686,30.8484967 56.7490686,29.4081209 C57.0371895,30.2722549 57.0371895,29.9842484 57.3251961,30.2722549 C57.3251961,29.6961275 57.3251961,29.4081209 57.0370752,28.5438725 C57.3251961,28.8319935 57.6132026,29.12 57.6132026,29.4081209 C57.9013235,28.8319935 57.9013235,28.8319935 57.9013235,27.6797386 C58.477451,28.255866 58.1893301,28.5439869 58.477451,29.4081209 C58.7654575,29.4081209 58.7654575,29.12 59.0534641,28.8319935 C59.0534641,29.4081209 59.0534641,29.6962418 58.7653431,29.9842484 C59.0534641,29.9842484 59.3414706,29.6962418 59.3414706,29.6962418 C59.6295915,30.5603758 59.0534641,32.5768791 58.477451,32.5768791 Z"></path>
            <path d="M54.4444444,19.9019608 C54.1563235,19.3258333 55.8848203,17.8854575 57.3251961,17.8854575 C56.4609477,18.1735784 56.7490686,18.1735784 56.4609477,18.461585 C57.0370752,18.461585 57.3251961,18.1734641 57.9013235,17.8854575 C57.9013235,18.461585 57.6132026,18.461585 57.3251961,18.7497059 C58.1893301,18.7497059 58.1893301,18.7497059 59.0534641,18.461585 C58.477451,19.0377124 58.477451,19.0377124 57.6132026,19.3258333 C57.6132026,19.6139542 57.9013235,19.6139542 58.1892157,19.6139542 C57.6132026,19.9019608 57.3251961,19.9019608 57.0370752,19.9019608 C57.0370752,20.1900817 57.6132026,20.1900817 57.6132026,20.1900817 C56.7489542,21.0542157 54.7325654,20.7662092 54.4444444,19.9019608 Z"></path>
            <path d="M53.868317,25.0871078 C53.2921895,24.7989869 53.5801961,22.782598 54.4444444,21.6303431 C54.1563235,22.2064706 54.4444444,22.2064706 54.4444444,22.782598 C54.7325654,22.2064706 54.7325654,21.9184641 55.0205719,21.0542157 C55.3086928,21.6303431 55.0205719,21.9184641 55.0205719,22.2064706 C55.5966993,21.6303431 55.8848203,21.9184641 56.4609477,21.0542157 C56.4609477,21.9184641 56.1728268,21.6303431 55.8848203,22.782598 C55.8848203,22.782598 56.1729412,22.4944771 56.4609477,22.4944771 C56.1728268,23.0706046 55.8848203,23.3587255 55.5966993,23.3587255 C55.8848203,23.6468464 56.4609477,23.3587255 56.4609477,23.3587255 C55.8848203,24.5109804 54.4444444,25.6632353 53.868317,25.0871078 Z"></path>
            <path d="M48.395049,21.6303431 C47.8189216,21.0542157 48.1069281,19.0377124 49.2592974,18.1734641 C48.9711765,18.7495915 48.9711765,18.7495915 48.9711765,19.0377124 C49.2592974,18.7495915 49.5473039,18.461585 49.8354248,17.597451 L49.8354248,18.7497059 C50.4114379,18.1735784 50.4114379,18.461585 50.9875654,17.597451 C50.9875654,18.461585 50.9875654,18.1735784 50.4114379,19.0377124 C50.6995588,19.3258333 50.6995588,19.0377124 51.2756863,19.0377124 C50.9875654,19.3258333 50.6995588,19.9019608 50.4114379,19.9019608 C50.4114379,20.1900817 50.9875654,19.9019608 50.9875654,19.9019608 C50.6995588,20.7662092 48.9711765,22.2064706 48.395049,21.6303431 Z"></path>
            <path d="M50.9875654,15.2929412 C50.4114379,15.2929412 49.2592974,13.5645588 49.5473039,12.124183 C49.8354248,12.9884314 49.8354248,12.7003105 50.1234314,12.9884314 C50.1234314,12.4123039 49.8353105,12.124183 49.5473039,11.5480556 C50.1234314,11.8361765 50.1234314,12.124183 50.4114379,12.4123039 C50.4114379,11.5480556 50.6995588,11.5480556 50.4114379,10.3958007 C50.9875654,11.260049 50.9875654,11.260049 50.9875654,12.124183 C51.2756863,12.124183 51.2756863,11.8360621 51.5636928,11.5480556 L51.5636928,12.9884314 C51.8518137,12.9884314 52.1398203,12.4123039 52.1398203,12.4123039 C52.4279412,13.5645588 51.8518137,15.2929412 50.9875654,15.2929412 Z"></path>
            <path d="M42.345768,12.124183 C41.4815196,11.8360621 42.0576471,9.8196732 42.921781,8.95542484 C42.6336601,9.53155229 42.921781,9.53155229 42.6336601,9.8196732 C43.2097876,9.53155229 43.2097876,9.24354575 43.4979085,8.37929739 C43.7860294,8.95542484 43.4979085,9.24354575 43.4979085,9.53155229 C44.0740359,8.95542484 44.3621569,8.95542484 44.6501634,8.09117647 C44.9382843,8.95542484 44.6501634,8.95542484 44.0740359,9.81955882 C44.3621569,10.1075654 44.6501634,9.81955882 44.9382843,9.53143791 C44.6501634,10.1075654 44.3621569,10.3955719 44.0740359,10.6836928 C44.3621569,10.9718137 44.9382843,10.6836928 44.9382843,10.6836928 C44.3621569,11.5480556 42.921781,12.7003105 42.345768,12.124183 Z"></path>
            <path d="M38.600768,12.124183 C37.7365196,12.4123039 36.8723856,10.6838072 36.8723856,9.24354575 C37.1605065,9.8196732 37.1605065,9.53166667 37.4485131,10.1076797 C37.4485131,9.53155229 37.4485131,9.24354575 37.1603922,8.37929739 C37.7365196,8.6674183 37.7365196,8.95542484 38.0246405,9.24354575 C38.0246405,8.37929739 38.0246405,8.37929739 38.0246405,7.5151634 C38.600768,8.09129085 38.3127614,8.09129085 38.600768,9.24354575 C38.8888889,9.24354575 38.8888889,8.95542484 39.1768954,8.37929739 L39.1768954,9.8196732 L39.4650163,9.24354575 C39.7531373,10.3958007 39.1770098,12.4123039 38.600768,12.124183 Z"></path>
            <path d="M35.1440033,3.77027778 C34.5679902,4.34640523 32.8396078,3.19415033 32.263366,2.04189542 C32.8394935,2.61802288 32.8394935,2.32990196 33.1275,2.61802288 C32.8394935,2.04189542 32.8394935,1.75388889 32.263366,1.17776144 C32.5514869,1.17776144 32.8394935,1.46588235 33.1275,1.46588235 C32.8394935,0.889754902 33.1275,0.889754902 32.263366,0.0255065359 C33.1275,0.313627451 33.1275,0.313627451 33.7036275,1.17776144 C33.9917484,0.889640523 33.7036275,0.601633987 33.7036275,0.313513072 C34.2798693,0.889640523 34.2798693,1.17776144 34.5678758,1.46576797 C34.8558824,1.46576797 34.5678758,0.889640523 34.5678758,0.889640523 C35.4320098,1.46576797 36.0081373,3.48215686 35.1440033,3.77027778 Z"></path>
            <path d="M31.6872386,28.8319935 C31.1111111,28.255866 32.263366,26.5274837 33.4156209,25.9512418 C32.8394935,26.5273693 33.1275,26.2393627 32.8394935,26.8154902 C33.4156209,26.5273693 33.7036275,26.2393627 34.2798693,25.6632353 C34.2798693,26.2393627 33.9917484,26.5274837 33.7036275,26.8154902 C34.5678758,26.5273693 34.5678758,26.5273693 35.4320098,25.9512418 C35.1438889,26.8154902 34.8558824,26.5273693 34.2798693,27.3916176 L35.1440033,27.3916176 C34.5679902,27.6797386 34.2798693,27.9677451 33.9917484,27.9677451 C33.9917484,28.255866 34.5679902,28.255866 34.5679902,28.255866 C33.9917484,29.1201144 31.9753595,29.4081209 31.6872386,28.8319935 Z"></path>
            <path d="M42.345768,22.4945915 C41.7696405,22.7827124 40.3292647,21.3423366 40.3292647,19.9019608 C40.6173856,20.4780882 40.6173856,20.1900817 40.9053922,20.4780882 C40.9053922,19.9019608 40.6172712,19.6138399 40.3292647,19.0377124 C40.9053922,19.3258333 40.9053922,19.6138399 41.1935131,19.6138399 C41.1935131,19.0377124 41.1935131,18.7495915 40.9053922,17.8854575 C41.7696405,18.461585 41.4815196,18.461585 41.7696405,19.6138399 C42.0577614,19.325719 42.0577614,19.0377124 42.0577614,18.7495915 C42.3458824,19.325719 42.3458824,19.6138399 42.3458824,20.1899673 C42.6338889,19.9018464 42.6338889,19.325719 42.6338889,19.325719 C43.2097876,20.4780882 43.2097876,22.4945915 42.345768,22.4945915 Z"></path>
            <path d="M41.4815196,29.4081209 C40.9053922,29.6962418 39.4650163,27.9677451 39.4650163,26.5273693 C39.7531373,27.3916176 39.7531373,27.1034967 40.0411438,27.3916176 C40.0411438,26.8154902 39.7530229,26.5273693 39.4650163,25.9512418 C40.0411438,25.9512418 40.0411438,26.2393627 40.3292647,26.5273693 C40.3292647,25.9512418 40.3292647,25.6631209 40.0411438,24.7989869 C40.9053922,25.3751144 40.6172712,25.3751144 40.9053922,26.2392484 C41.1935131,26.2392484 41.1935131,25.9511275 41.4815196,25.6631209 C41.4815196,26.2392484 41.7696405,26.5273693 41.4815196,26.8153758 C41.7696405,26.8153758 42.0576471,26.2392484 42.0576471,26.2392484 C42.6336601,27.3916176 42.345768,29.4081209 41.4815196,29.4081209 Z"></path>
            <path d="M40.9053922,24.2229739 C40.6172712,24.7991013 38.6008824,24.5110948 37.4485131,23.3587255 C38.3127614,23.6468464 38.0246405,23.3587255 38.600768,23.6468464 C38.0246405,23.070719 37.7365196,23.070719 37.1603922,22.782598 C37.4485131,22.4944771 38.0246405,22.782598 38.3126471,22.782598 C37.7365196,22.2064706 37.7365196,21.9184641 36.8722712,21.6303431 C37.7365196,21.6303431 37.7365196,21.6303431 38.6006536,22.2064706 C38.6006536,21.9184641 38.6006536,21.6303431 38.3125327,21.3423366 C38.8886601,21.6304575 39.176781,21.9184641 39.4647876,22.2064706 C39.4647876,21.9184641 39.1766667,21.6303431 39.1766667,21.6303431 C40.3292647,21.9184641 41.4815196,23.6468464 40.9053922,24.2229739 Z"></path>
            <path d="M31.1111111,20.1900817 C30.5349837,19.6139542 31.6872386,17.8855719 32.8394935,17.3094444 C32.5513725,17.8855719 32.8394935,17.8855719 32.5513725,18.1735784 C32.8394935,17.8854575 33.1275,17.597451 33.7036275,17.0213235 C33.7036275,17.597451 33.4155065,17.8854575 33.4155065,18.1735784 C33.991634,17.8854575 34.2797549,17.8854575 34.855768,17.3094444 C34.5677614,18.1735784 34.5677614,18.1735784 33.7035131,18.7497059 C33.991634,19.0378268 34.2797549,18.7497059 34.5677614,18.7497059 C33.9915196,19.3258333 33.7035131,19.3258333 33.4153922,19.3258333 C33.4153922,19.6139542 33.9915196,19.6139542 33.9915196,19.6139542 C33.4156209,20.4780882 31.399232,21.0542157 31.1111111,20.1900817 Z"></path>
            <path d="M39.1770098,16.4451961 C38.6008824,17.0213235 36.8725,15.8690686 36.2962582,14.4286928 C36.8723856,15.0048203 36.8723856,14.7168137 37.1605065,15.0048203 C36.8723856,14.7166993 36.5843791,14.4286928 36.0082516,13.8525654 C36.5843791,13.8525654 36.8725,14.1406863 37.1605065,14.1406863 C36.8723856,13.5645588 36.8723856,13.2764379 36.2962582,12.7003105 C37.1605065,12.9884314 37.1605065,12.9884314 37.736634,13.8525654 C38.0247549,13.5644444 37.736634,13.2764379 37.736634,12.988317 C38.3127614,13.5644444 38.3127614,13.8525654 38.3127614,14.1405719 C38.6008824,14.1405719 38.6008824,13.5644444 38.6008824,13.5644444 C39.4650163,14.1406863 40.0411438,16.1570752 39.1770098,16.4451961 Z"></path>
            <path d="M15.8436765,24.5109804 C15.267549,25.0871078 13.2510458,24.7991013 12.3869118,23.646732 C12.9630392,23.9348529 12.9630392,23.646732 13.2511601,23.9348529 C12.9630392,23.3587255 12.6750327,23.3587255 11.8107843,23.0706046 C12.3869118,22.7824837 12.6750327,23.0706046 12.9630392,23.0706046 C12.3869118,22.4944771 12.6749183,22.2063562 11.8107843,21.9183497 C12.6750327,21.6302288 12.6750327,21.9183497 13.5391667,22.4944771 C13.5391667,22.2063562 13.2510458,21.9183497 13.2510458,21.6303431 C13.8271732,21.9184641 14.1151797,22.2064706 14.4033007,22.4944771 L14.1151797,21.9183497 C15.2674346,22.2064706 16.4198039,23.9348529 15.8436765,24.5109804 Z"></path>
            <path d="M25.3497222,23.9348529 C25.0617157,24.5109804 23.0452124,23.3587255 22.469085,22.2064706 C23.0452124,22.782598 23.0452124,22.2064706 23.3333333,22.782598 C23.0452124,22.2064706 23.0452124,21.9184641 22.469085,21.3423366 C22.7572059,21.3423366 23.0452124,21.6304575 23.3333333,21.6304575 C23.0452124,21.0543301 23.3333333,20.7662092 22.469085,20.1900817 C23.3333333,20.4782026 23.3333333,20.4782026 23.9094608,21.3423366 C24.1975817,21.0542157 23.9094608,20.7662092 23.9094608,20.4780882 C24.4855882,21.0542157 24.4855882,21.3423366 24.7737092,21.6303431 C25.0618301,21.6303431 24.7737092,21.0542157 24.7737092,21.0542157 C25.6378431,21.6303431 26.2139706,23.6468464 25.3497222,23.9348529 Z"></path>
            <path d="M25.9259641,13.5645588 C25.3498366,13.5645588 24.4857026,11.8361765 25.0618301,10.3958007 C25.0618301,11.260049 25.0618301,10.6839216 25.3498366,11.260049 C25.3498366,10.6839216 25.3498366,10.3958007 25.3498366,9.53166667 C25.6379575,9.81978758 25.6379575,10.3958007 25.9259641,10.6839216 C25.9259641,9.81978758 26.214085,9.81978758 26.214085,8.95553922 C26.7902124,9.53166667 26.5022059,9.53166667 26.5022059,10.6839216 C26.7903268,10.6839216 26.7903268,10.3958007 27.0783333,10.1077941 C27.0783333,10.6839216 27.0783333,10.9720425 26.7902124,11.260049 C27.0783333,11.260049 27.3663399,10.9719281 27.3663399,10.9719281 C27.6543464,12.124183 26.790098,13.8525654 25.9259641,13.5645588 Z"></path>
            <path d="M28.8066013,10.6838072 C28.2304739,10.6838072 27.3662255,8.6674183 27.6543464,7.22704248 C27.9424673,8.09129085 27.9424673,7.80316993 27.9424673,8.09129085 C28.2305882,7.5151634 28.2305882,7.22704248 27.9424673,6.65091503 C28.5185948,6.93903595 28.5185948,7.22704248 28.5185948,7.5151634 C28.8067157,6.65091503 29.0947222,6.65091503 29.0947222,5.78678105 C29.3828431,6.3629085 29.3828431,6.65091503 29.3828431,7.5151634 C29.6709641,7.5151634 29.6709641,7.22704248 29.9589706,6.93903595 C29.9589706,7.5151634 29.6708497,7.80328431 29.6708497,8.37941176 C29.9589706,8.37941176 30.2469771,7.80328431 30.2469771,7.80328431 C30.5349837,8.95542484 29.6707353,10.6838072 28.8066013,10.6838072 Z"></path>
            <path d="M30.2468627,13.5645588 C29.6707353,13.2764379 29.6707353,11.260049 30.5349837,9.8196732 C30.2468627,10.6838072 30.5349837,10.3958007 30.5349837,10.9719281 C30.8231046,10.3958007 30.8231046,10.1076797 31.1111111,9.53166667 C31.399232,9.81978758 31.1111111,10.1077941 31.399232,10.6839216 C31.6873529,9.81978758 31.9753595,10.1077941 32.2634804,8.95553922 C32.5516013,9.81978758 32.2634804,9.81978758 31.9753595,10.9719281 C32.2634804,10.9719281 32.2634804,10.6838072 32.5514869,10.3958007 C32.263366,10.9719281 32.263366,11.5480556 31.9753595,11.5480556 C32.2634804,11.8361765 32.5514869,11.5480556 32.5514869,11.5480556 C32.263366,12.7003105 30.8229902,13.8525654 30.2468627,13.5645588 Z"></path>
        </g>
    </g>
</svg>