<?xml version="1.0" encoding="UTF-8" standalone="no"?>
<!DOCTYPE svg PUBLIC "-//W3C//DTD SVG 1.1//EN" "http://www.w3.org/Graphics/SVG/1.1/DTD/svg11.dtd">
<svg width="100%" height="100%" viewBox="0 0 1440 900" version="1.1" xmlns="http://www.w3.org/2000/svg" xmlns:xlink="http://www.w3.org/1999/xlink" xml:space="preserve" xmlns:serif="http://www.serif.com/" style="fill-rule:evenodd;clip-rule:evenodd;stroke-linecap:round;stroke-linejoin:round;stroke-miterlimit:1.5;">
    <g transform="matrix(1,0,0,1,-1540,0)">
        <g id="Logo-final" serif:id="Logo final" transform="matrix(1,0,0,1,1540,0)">
            <rect x="0" y="0" width="1440" height="900" style="fill:none;"/>
            <g transform="matrix(1,0,0,1,-1540,0)">
                <rect x="1540" y="0" width="1440" height="900" style="fill:white;"/>
            </g>
            <g transform="matrix(1,0,0,1,-29.7454,32.9341)">
                <path d="M954,288L520,288L520,574C520,585.046 528.954,594 540,594L934,594C945.046,594 954,585.046 954,574C954,507.202 954,288 954,288Z" style="fill:white;"/>
            </g>
            <g transform="matrix(1,0,0,1,-1540,0)">
                <path d="M2181.76,311.915L2181.76,271.435C2181.76,268.4 2184.22,265.935 2187.26,265.935L2190.93,265.935C2206.09,262.173 2223.07,260.066 2241,260.066C2258.92,260.066 2275.9,262.173 2291.06,265.935L2297.26,265.935C2300.29,265.936 2302.76,268.4 2302.76,271.435L2302.76,311.915L2464.26,311.915L2464.26,311.934L2464.26,311.934C2466.91,311.934 2469.45,312.987 2471.33,314.862C2473.2,316.737 2474.26,319.28 2474.26,321.932L2474.26,391.236L2500.74,391.236L2501.02,391.245C2503.19,391.447 2503.38,391.985 2503.99,392.621C2505.63,394.327 2505.79,396.934 2503.93,398.918L2489,413.842L2503.93,428.767C2503.93,428.767 2504.88,429.853 2505.13,430.934C2505.74,433.579 2503.92,436.349 2500.74,436.449L2474.26,436.449L2474.26,590.934C2474.26,596.457 2469.78,600.934 2464.26,600.934L2464.26,600.934L2444.23,620.96C2443.7,631.529 2434.96,639.934 2424.26,639.934L2030.26,639.934C2019.21,639.934 2010.26,630.98 2010.26,619.934L2010.26,614.891C2010.26,614.891 2010.26,362.591 2010.26,362.591L2010.26,346.041L2010.26,346.041C2010.26,343.253 2011.4,340.731 2013.25,338.92L2034.4,317.773C2038.15,314.022 2043.24,311.915 2048.54,311.915L2181.76,311.915ZM2464.26,391.236L2464.26,329.934L2444.26,349.934L2444.26,604.934L2464.26,584.934L2464.26,436.449L2455.83,436.449C2454.91,436.42 2454.65,436.323 2454.17,436.133C2452.5,435.469 2451.4,434.19 2451.33,431.949L2451.33,395.736C2451.36,394.813 2451.45,394.561 2451.64,394.08C2452.31,392.403 2453.59,391.306 2455.83,391.236L2464.26,391.236ZM2438.26,341.915L2020.26,341.915L2020.26,341.934L2438.26,341.934L2438.26,341.915ZM2280.76,311.915L2280.76,287.689C2268.35,285.345 2254.96,284.066 2241,284.066C2227.97,284.066 2215.45,285.179 2203.76,287.23L2203.76,311.915L2280.76,311.915Z"/>
            </g>
            <g transform="matrix(1,0,0,1,-1540,0)">
                <path d="M2464.26,391.236L2464.26,329.934L2444.26,349.934L2444.26,604.934L2464.26,584.934L2464.26,436.449L2455.83,436.449C2454.91,436.42 2454.65,436.323 2454.17,436.133C2452.5,435.469 2451.4,434.19 2451.33,431.949L2451.33,395.736C2451.36,394.813 2451.45,394.561 2451.64,394.08C2452.31,392.403 2453.59,391.306 2455.83,391.236L2464.26,391.236Z" style="fill:white;"/>
            </g>
            <g id="Text" transform="matrix(1,0,0,1,550.106,512.396)">
                <g transform="matrix(0.568469,0,0,1.99024,-87.6168,-131.83)">
                    <g transform="matrix(175.911,0,0,50.2452,101,66.8796)">
                        <path d="M0.168,-0.09L0.168,-0.7L0.068,-0.7L0.068,0L0.318,0L0.318,-0.09L0.168,-0.09Z" style="fill:white;fill-rule:nonzero;"/>
                    </g>
                    <g transform="matrix(175.911,0,0,50.2452,157.819,66.8796)">
                        <rect x="0.068" y="-0.6" width="0.1" height="0.6" style="fill:white;fill-rule:nonzero;"/>
                    </g>
                    <g transform="matrix(175.911,0,0,50.2452,199.334,66.8796)">
                        <path d="M0.01,-0.6L0.01,-0.51L0.11,-0.51L0.11,0L0.21,0L0.21,-0.51L0.31,-0.51L0.31,-0.6L0.01,-0.6Z" style="fill:white;fill-rule:nonzero;"/>
                    </g>
                    <g transform="matrix(175.911,0,0,50.2452,255.626,66.8796)">
                        <path d="M0.068,-0.6L0.068,0L0.318,0L0.318,-0.09L0.168,-0.09L0.168,-0.265L0.29,-0.265L0.29,-0.355L0.168,-0.355L0.168,-0.51L0.318,-0.51L0.318,-0.6L0.068,-0.6Z" style="fill:white;fill-rule:nonzero;"/>
                    </g>
                    <g transform="matrix(175.911,0,0,50.2452,317.195,66.8796)">
                        <path d="M0.218,-0.24L0.301,0L0.406,0L0.313,-0.264C0.346,-0.274 0.378,-0.307 0.378,-0.356L0.378,-0.5C0.378,-0.555 0.333,-0.6 0.278,-0.6L0.068,-0.6L0.068,0L0.168,0L0.168,-0.24L0.218,-0.24ZM0.253,-0.33L0.168,-0.33L0.168,-0.51L0.253,-0.51C0.266,-0.51 0.278,-0.498 0.278,-0.485L0.278,-0.355C0.278,-0.342 0.266,-0.33 0.253,-0.33Z" style="fill:white;fill-rule:nonzero;"/>
                    </g>
                    <g transform="matrix(175.911,0,0,50.2452,394.595,66.8796)">
                        <path d="M0.131,-0.11L0.25,-0.11L0.266,0L0.37,0L0.246,-0.6L0.136,-0.6L0.012,0L0.116,0L0.131,-0.11ZM0.237,-0.2L0.144,-0.2L0.178,-0.39L0.188,-0.462L0.194,-0.462L0.204,-0.39L0.237,-0.2Z" style="fill:white;fill-rule:nonzero;"/>
                    </g>
                    <g transform="matrix(175.911,0,0,50.2452,461.793,66.8796)">
                        <path d="M0.218,-0.24L0.301,0L0.406,0L0.313,-0.264C0.346,-0.274 0.378,-0.307 0.378,-0.356L0.378,-0.5C0.378,-0.555 0.333,-0.6 0.278,-0.6L0.068,-0.6L0.068,0L0.168,0L0.168,-0.24L0.218,-0.24ZM0.253,-0.33L0.168,-0.33L0.168,-0.51L0.253,-0.51C0.266,-0.51 0.278,-0.498 0.278,-0.485L0.278,-0.355C0.278,-0.342 0.266,-0.33 0.253,-0.33Z" style="fill:white;fill-rule:nonzero;"/>
                    </g>
                    <g transform="matrix(175.911,0,0,50.2452,539.194,66.8796)">
                        <path d="M0.221,0L0.221,-0.215L0.345,-0.6L0.247,-0.6L0.191,-0.395L0.174,-0.331L0.168,-0.331L0.15,-0.395L0.095,-0.6L-0.003,-0.6L0.121,-0.216L0.121,0L0.221,0Z" style="fill:white;fill-rule:nonzero;"/>
                    </g>
                    <g transform="matrix(175.911,0,0,50.2452,101,109.588)">
                        <path d="M0.302,-0.366C0.345,-0.373 0.378,-0.412 0.378,-0.461L0.378,-0.6C0.378,-0.655 0.333,-0.7 0.278,-0.7L0.068,-0.7L0.068,0L0.288,0C0.343,0 0.388,-0.045 0.388,-0.1L0.388,-0.263C0.388,-0.318 0.345,-0.358 0.302,-0.361L0.302,-0.366ZM0.253,-0.405L0.168,-0.405L0.168,-0.61L0.253,-0.61C0.266,-0.61 0.278,-0.598 0.278,-0.585L0.278,-0.43C0.278,-0.417 0.266,-0.405 0.253,-0.405ZM0.168,-0.315L0.238,-0.315C0.264,-0.315 0.288,-0.291 0.288,-0.265L0.288,-0.115C0.288,-0.102 0.276,-0.09 0.263,-0.09L0.168,-0.09L0.168,-0.315Z" style="fill:white;fill-rule:nonzero;"/>
                    </g>
                    <g transform="matrix(175.911,0,0,50.2452,178.401,109.588)">
                        <path d="M0.367,-0.5C0.367,-0.555 0.322,-0.6 0.267,-0.6L0.157,-0.6C0.102,-0.6 0.057,-0.555 0.057,-0.5L0.057,-0.1C0.057,-0.045 0.102,0 0.157,0L0.267,0C0.322,0 0.367,-0.045 0.367,-0.1L0.367,-0.5ZM0.267,-0.485L0.267,-0.115C0.267,-0.102 0.255,-0.09 0.242,-0.09L0.182,-0.09C0.169,-0.09 0.157,-0.102 0.157,-0.115L0.157,-0.485C0.157,-0.498 0.169,-0.51 0.182,-0.51L0.242,-0.51C0.255,-0.51 0.267,-0.498 0.267,-0.485Z" style="fill:white;fill-rule:nonzero;"/>
                    </g>
                    <g transform="matrix(175.911,0,0,50.2452,252.987,109.588)">
                        <path d="M0.378,-0.6L0.278,-0.6L0.278,-0.355L0.168,-0.355L0.168,-0.6L0.068,-0.6L0.068,0L0.168,0L0.168,-0.265L0.278,-0.265L0.278,0L0.378,0L0.378,-0.6Z" style="fill:white;fill-rule:nonzero;"/>
                    </g>
                    <g transform="matrix(175.911,0,0,50.2452,331.443,109.588)">
                        <path d="M0.068,-0.6L0.068,0L0.318,0L0.318,-0.09L0.168,-0.09L0.168,-0.265L0.29,-0.265L0.29,-0.355L0.168,-0.355L0.168,-0.51L0.318,-0.51L0.318,-0.6L0.068,-0.6Z" style="fill:white;fill-rule:nonzero;"/>
                    </g>
                    <g transform="matrix(175.911,0,0,50.2452,393.012,109.588)">
                        <path d="M0.255,-0.051L0.337,-0.051L0.413,-0.351L0.433,-0.449L0.439,-0.449L0.431,-0.275L0.431,0L0.524,0L0.524,-0.6L0.391,-0.6L0.325,-0.341L0.301,-0.216L0.291,-0.216L0.267,-0.341L0.201,-0.6L0.068,-0.6L0.068,0L0.161,0L0.161,-0.275L0.153,-0.449L0.159,-0.449L0.179,-0.351L0.255,-0.051Z" style="fill:white;fill-rule:nonzero;"/>
                    </g>
                    <g transform="matrix(175.911,0,0,50.2452,497.152,109.588)">
                        <rect x="0.068" y="-0.6" width="0.1" height="0.6" style="fill:white;fill-rule:nonzero;"/>
                    </g>
                    <g transform="matrix(175.911,0,0,50.2452,538.667,109.588)">
                        <path d="M0.131,-0.11L0.25,-0.11L0.266,0L0.37,0L0.246,-0.6L0.136,-0.6L0.012,0L0.116,0L0.131,-0.11ZM0.237,-0.2L0.144,-0.2L0.178,-0.39L0.188,-0.462L0.194,-0.462L0.204,-0.39L0.237,-0.2Z" style="fill:white;fill-rule:nonzero;"/>
                    </g>
                    <g transform="matrix(175.911,0,0,50.2452,605.865,109.588)">
                        <path d="M0.314,-0.6L0.314,-0.436L0.332,-0.15L0.325,-0.15L0.302,-0.25L0.173,-0.6L0.068,-0.6L0.068,0L0.163,0L0.163,-0.166L0.146,-0.45L0.152,-0.45L0.176,-0.35L0.304,0L0.409,0L0.409,-0.6L0.314,-0.6Z" style="fill:white;fill-rule:nonzero;"/>
                    </g>
                </g>
                <g transform="matrix(1.00242,0,0,0.326816,-602.137,-261.157)">
                    <path d="M944,318.479C944,315.946 943.329,313.889 942.504,313.889L532.496,313.889C531.671,313.889 531,315.946 531,318.479L531,327.658C531,330.191 531.671,332.248 532.496,332.248L942.504,332.248C943.329,332.248 944,330.191 944,327.658L944,318.479Z" style="fill:white;"/>
                </g>
            </g>
            <g id="Layer-1" serif:id="Layer 1" transform="matrix(0.680848,0,0,0.680848,526.705,388.448)">
                <g transform="matrix(1,0,0,1,4.4157,35.5381)">
                    <path d="M0,-10.284L0,-7.314C0.001,0.508 -0.028,8.331 0.016,16.153C0.041,20.5 2.663,24.091 6.838,24.788C9.625,25.254 12.552,24.877 15.356,24.877L15.356,17.288C14.318,17.288 13.496,17.293 12.675,17.287C9.098,17.263 8.735,16.896 8.73,13.21C8.722,7.717 8.728,2.225 8.728,-3.267L8.728,-10.507L15.35,-10.507L15.35,-18.409L8.701,-18.409L8.701,-26.748L-0.026,-26.748L-0.026,-18.408C-1.709,-18.309 -3.076,-18.229 -4.416,-18.15L-4.416,-10.595C-2.956,-10.492 -1.653,-10.4 0,-10.284M79.984,6.875C79.984,0.647 80.201,-5.174 79.91,-10.969C79.706,-15.02 75.894,-18.137 71.695,-18.262C68.868,-18.346 66.035,-18.315 63.205,-18.276C58.055,-18.205 54.331,-14.671 54.271,-9.522C54.169,-0.866 54.165,7.793 54.275,16.449C54.339,21.436 58.069,25.013 63.057,25.153C65.386,25.218 67.718,25.174 70.049,25.167C77.584,25.147 81.705,19.653 79.662,12.277L71.669,12.277C71.612,12.878 71.682,13.407 71.5,13.828C71.016,14.955 70.527,16.892 69.854,16.974C67.813,17.222 65.679,16.788 63.598,16.493C63.334,16.456 63.007,15.673 62.997,15.23C62.941,12.52 62.97,9.809 62.97,6.875L79.984,6.875ZM22.178,-35.538L22.178,25.028L30.581,25.028L30.581,22.219C30.581,12.812 30.579,3.404 30.582,-6.004C30.582,-10.132 30.866,-10.436 34.665,-10.444C38.903,-10.452 39.146,-10.209 39.147,-5.872C39.15,3.536 39.145,12.944 39.153,22.352C39.154,23.237 39.227,24.122 39.264,24.964L47.7,24.964C47.755,24.279 47.828,23.789 47.829,23.301C47.835,12.561 47.838,1.821 47.822,-8.918C47.821,-9.662 47.722,-10.414 47.591,-11.148C46.897,-15.039 43.594,-18.071 39.663,-18.24C36.572,-18.373 33.338,-18.91 30.581,-15.686L30.581,-25.784L30.581,-35.538L22.178,-35.538Z" style="fill:white;fill-rule:nonzero;"/>
                </g>
                <g transform="matrix(1,0,0,1,26.5934,60.5652)">
                    <path d="M0,-60.565L8.403,-60.565L8.403,-40.713C11.16,-43.938 14.394,-43.4 17.485,-43.267C21.416,-43.098 24.72,-40.066 25.413,-36.175C25.544,-35.441 25.644,-34.69 25.645,-33.945C25.66,-23.206 25.657,-12.466 25.651,-1.726C25.65,-1.238 25.577,-0.749 25.522,-0.063L17.086,-0.063C17.049,-0.905 16.977,-1.791 16.976,-2.675C16.967,-12.084 16.973,-21.491 16.97,-30.899C16.968,-35.236 16.725,-35.48 12.487,-35.471C8.688,-35.463 8.404,-35.159 8.404,-31.031C8.401,-21.624 8.403,-12.215 8.403,-2.808L8.403,0L0,0L0,-60.565Z" style="fill:white;fill-rule:nonzero;"/>
                </g>
                <g transform="matrix(1,0,0,1,67.3707,42.6295)">
                    <path d="M0,-7.31L8.542,-7.31C8.542,-10.084 8.642,-12.73 8.506,-15.363C8.422,-16.969 7.217,-17.708 5.701,-17.499C3.744,-17.229 1.204,-18.675 0.066,-15.752C0.008,-15.602 0.003,-15.424 0.002,-15.259C-0.002,-12.695 0,-10.132 0,-7.31M17.029,-0.216L0.015,-0.216C0.015,2.717 -0.014,5.428 0.042,8.138C0.052,8.582 0.379,9.365 0.643,9.402C2.724,9.697 4.858,10.13 6.898,9.882C7.572,9.8 8.061,7.864 8.545,6.737C8.727,6.316 8.657,5.787 8.714,5.185L16.707,5.185C18.75,12.562 14.629,18.055 7.094,18.076C4.763,18.083 2.431,18.127 0.102,18.061C-4.886,17.921 -8.616,14.344 -8.68,9.358C-8.79,0.702 -8.786,-7.957 -8.685,-16.613C-8.624,-21.762 -4.9,-25.297 0.25,-25.368C3.08,-25.407 5.913,-25.437 8.74,-25.353C12.938,-25.228 16.751,-22.111 16.955,-18.06C17.246,-12.265 17.029,-6.445 17.029,-0.216" style="fill:white;fill-rule:nonzero;"/>
                </g>
                <g transform="matrix(1,0,0,1,4.4157,44.3281)">
                    <path d="M0,-19.074C-1.653,-19.19 -2.956,-19.282 -4.416,-19.385L-4.416,-26.94C-3.076,-27.019 -1.709,-27.099 -0.026,-27.198L-0.026,-35.538L8.701,-35.538L8.701,-27.199L15.35,-27.199L15.35,-19.297L8.728,-19.297L8.728,-12.057C8.728,-6.565 8.722,-1.073 8.73,4.42C8.735,8.106 9.098,8.473 12.675,8.497C13.496,8.503 14.318,8.498 15.356,8.498L15.356,16.087C12.552,16.087 9.625,16.464 6.838,15.998C2.663,15.301 0.041,11.71 0.016,7.363C-0.028,-0.459 0.001,-8.282 0,-16.104L0,-19.074Z" style="fill:white;fill-rule:nonzero;"/>
                </g>
                <g transform="matrix(1,0,0,1,67.3707,23.9545)">
                    <path d="M0,11.365C0,8.543 -0.002,5.98 0.002,3.416C0.003,3.251 0.008,3.073 0.066,2.923C1.204,0 3.744,1.446 5.701,1.176C7.217,0.967 8.422,1.706 8.506,3.312C8.642,5.945 8.542,8.591 8.542,11.365L0,11.365Z" style="fill-rule:nonzero;"/>
                </g>
            </g>
            <g transform="matrix(1.4,0,-0.878284,0.878284,-2111.95,37.5891)">
                <path d="M2096,319.034C2096,317.935 2095.44,317.042 2094.75,317.042L2092.25,317.042C2091.56,317.042 2091,317.935 2091,319.034L2091,340.007C2091,341.107 2091.56,342 2092.25,342L2094.75,342C2095.44,342 2096,341.107 2096,340.007L2096,319.034Z" style="fill:white;"/>
            </g>
            <g transform="matrix(1.4,0,-0.878284,0.878284,-2123.95,37.5891)">
                <path d="M2096,319.034C2096,317.935 2095.44,317.042 2094.75,317.042L2092.25,317.042C2091.56,317.042 2091,317.935 2091,319.034L2091,340.007C2091,341.107 2091.56,342 2092.25,342L2094.75,342C2095.44,342 2096,341.107 2096,340.007L2096,319.034Z" style="fill:white;"/>
            </g>
            <g transform="matrix(1.4,0,-0.878284,0.878284,-1753.95,37.5891)">
                <path d="M2096,319.034C2096,317.935 2095.44,317.042 2094.75,317.042L2092.25,317.042C2091.56,317.042 2091,317.935 2091,319.034L2091,340.007C2091,341.107 2091.56,342 2092.25,342L2094.75,342C2095.44,342 2096,341.107 2096,340.007L2096,319.034Z" style="fill:white;"/>
            </g>
            <g transform="matrix(1.4,0,-0.878284,0.878284,-1765.95,37.5891)">
                <path d="M2096,319.034C2096,317.935 2095.44,317.042 2094.75,317.042L2092.25,317.042C2091.56,317.042 2091,317.935 2091,319.034L2091,340.007C2091,341.107 2091.56,342 2092.25,342L2094.75,342C2095.44,342 2096,341.107 2096,340.007L2096,319.034Z" style="fill:white;"/>
            </g>
            <g transform="matrix(1.31579,0,0,0.666667,-2232.68,113.001)">
                <path d="M2184,327.002C2184,327.002 2190.56,333.002 2193.72,333.002C2196.89,333.002 2203,327.002 2203,327.002" style="fill:none;stroke:white;stroke-width:2.88px;"/>
            </g>
            <g transform="matrix(1.31579,0,0,0.666667,-2133.68,113.001)">
                <path d="M2184,327.002C2184,327.002 2190.56,333.002 2193.72,333.002C2196.89,333.002 2203,327.002 2203,327.002" style="fill:none;stroke:white;stroke-width:2.88px;"/>
            </g>
            <g transform="matrix(1.17555,-0.207282,0.204929,1.16221,-335.699,-119.598)">
                <path d="M974,561L948,587L948,571L974,545L974,561Z"/>
            </g>
            <g transform="matrix(1.6,0,0,1,-3006.55,0)">
                <rect x="2444.26" y="540" width="20" height="95" style="fill:white;"/>
            </g>
            <g transform="matrix(0.984893,-0.173163,0.173163,0.984893,-131.176,207.632)">
                <path d="M974,561L948,587L948,571L974,545L974,561Z"/>
            </g>
            <g transform="matrix(0.984893,-0.173163,0.173163,0.984893,-126.176,200.566)">
                <path d="M974,561L948,587L948,571L974,545L974,561Z"/>
            </g>
            <g transform="matrix(1,0,0,1,-49.7454,37.9341)">
                <path d="M984,284C984,278.477 979.523,274 974,274C974,274 974,274 974,274L974,555L974,555C979.523,555 984,550.523 984,545C984,501.339 984,327.661 984,284Z"/>
            </g>
        </g>
    </g>
</svg>
