<svg viewBox="0 0 70 142" xmlns="http://www.w3.org/2000/svg" fill-rule="evenodd" clip-rule="evenodd" stroke-linejoin="round" stroke-miterlimit="2"><path fill="none" d="M0.067 0.314H69.067V141.414H0.067z"/><clipPath id="a"><path d="M0.067 0.314H69.067V141.414H0.067z"/></clipPath><g clip-path="url(#a)"><path d="M36.267 141.314c.91-.167 1.984-1.363 2.551-2.09.567-.726 1.337-2.36 2.308-4.903 10.043-24.695 17.21-44.396 21.502-59.105 4.292-14.708 6.439-26.601 6.439-35.681 0-12.347-3.078-21.971-9.233-28.871C53.679 3.764 45.257.314 34.567.314c-10.691 0-19.113 3.45-25.268 10.35C3.144 17.564.067 27.188.067 39.535c0 9.08 2.146 20.973 6.438 35.681 4.292 14.709 11.459 34.41 21.502 59.105.972 2.543 1.741 4.177 2.308 4.903.567.727 1.641 1.923 2.551 2.09.992.181 2.409.181 3.401 0z" fill="#f4eaa8" fill-rule="nonzero"/></g></svg>