<svg viewBox="0 0 115 90" xmlns="http://www.w3.org/2000/svg" fill-rule="evenodd" clip-rule="evenodd" stroke-linejoin="round" stroke-miterlimit="2"><path fill="none" d="M0 0H115V89.552H0z"/><clipPath id="a"><path d="M0 0H115V89.552H0z"/></clipPath><g clip-path="url(#a)"><path fill="#fffbf9" d="M-0.234 0H115V89.552H-0.234z"/><path d="M70.224 89.552c-24.729 0-44.776-20.047-44.776-44.776C25.448 20.047 45.495 0 70.224 0 94.953 0 115 20.047 115 44.776c0 24.729-20.047 44.776-44.776 44.776zm21.649-33.694v-8.785h8.1a.637.637 0 0 0 .645-.645v-3.063a.636.636 0 0 0-.645-.644h-8.099v-5.4h10.517a.636.636 0 0 0 .644-.645v-3.022a.636.636 0 0 0-.644-.645H87.803a.636.636 0 0 0-.644.645v22.204c0 .362.282.644.644.644h3.425a.636.636 0 0 0 .645-.644zm-29.176.685h7.657c8.865 0 11.565-6.85 11.565-11.847 0-4.836-2.7-11.687-11.565-11.687h-7.657a.636.636 0 0 0-.644.645v22.244c0 .363.281.645.644.645zm7.657-4.352h-3.587v-14.91h3.587c5.963 0 6.769 5.521 6.769 7.415 0 1.934-.846 7.495-6.769 7.495zm-26.436 3.707v-7.657h4.635c3.828 0 7.857-3.022 7.857-7.696 0-3.063-1.894-7.536-8.341-7.536h-8.22a.637.637 0 0 0-.645.645v22.244c0 .362.282.644.645.644h3.425a.635.635 0 0 0 .644-.644zm4.474-12.049h-4.473v-6.568h4.352c2.821 0 3.465 2.135 3.465 3.264 0 .967-.644 3.304-3.344 3.304z" fill="#3c8400" fill-rule="nonzero"/></g></svg>