<?xml version="1.0" encoding="UTF-8" standalone="no"?><!DOCTYPE svg PUBLIC "-//W3C//DTD SVG 1.1//EN" "http://www.w3.org/Graphics/SVG/1.1/DTD/svg11.dtd"><svg width="100%" height="100%" viewBox="0 0 116 90" version="1.1" xmlns="http://www.w3.org/2000/svg" xmlns:xlink="http://www.w3.org/1999/xlink" xml:space="preserve" xmlns:serif="http://www.serif.com/" style="fill-rule:evenodd;clip-rule:evenodd;stroke-linejoin:round;stroke-miterlimit:2;"><rect id="icon-codeable" x="0.715" y="-0" width="115" height="89.552" style="fill:none;"/><clipPath id="_clip1"><rect x="0.715" y="-0" width="115" height="89.552"/></clipPath><g clip-path="url(#_clip1)"><rect x="0.48" y="0" width="115.234" height="89.552" style="fill:#fffbf9;"/><path d="M70.938,89.552c-24.729,0 -44.776,-20.047 -44.776,-44.776c0,-24.729 20.047,-44.776 44.776,-44.776c24.73,-0 44.777,20.047 44.777,44.776c-0,24.729 -20.047,44.776 -44.777,44.776Z" style="fill:#2c2525;fill-rule:nonzero;"/><g><path d="M61.771,53.94c0,10.123 8.208,18.329 18.333,18.329c10.126,0 18.334,-8.206 18.334,-18.329c0,-10.123 -8.208,-18.329 -18.334,-18.329l0,18.329l-18.333,-0Z" style="fill:#fff;"/><path d="M80.104,35.611l0,-18.328l-36.666,-0l0,36.657l18.333,-0l0,-18.329l18.333,0Z" style="fill:#fff;"/></g></g></svg>