<svg viewBox="0 0 142 70" xmlns="http://www.w3.org/2000/svg" fill-rule="evenodd" clip-rule="evenodd" stroke-linejoin="round" stroke-miterlimit="2"><path fill="none" d="M0.478 0.1H141.578V69.1H0.478z"/><clipPath id="a"><path d="M0.478 0.1H141.578V69.1H0.478z"/></clipPath><g clip-path="url(#a)"><path d="M141.478 32.899c-.166-.909-1.363-1.984-2.089-2.551-.727-.567-2.361-1.336-4.903-2.308-24.695-10.042-44.397-17.209-59.105-21.502C60.673 2.246 48.779.1 39.7.1 27.352.1 17.728 3.177 10.828 9.332 3.928 15.487.478 23.91.478 34.6c0 10.69 3.45 19.113 10.35 25.268 6.9 6.155 16.524 9.232 28.872 9.232 9.079 0 20.973-2.146 35.681-6.438 14.708-4.293 34.41-11.46 59.105-21.502 2.542-.972 4.176-1.741 4.903-2.308.726-.567 1.923-1.642 2.089-2.551.182-.992.182-2.41 0-3.402z" fill="#f4eaa8" fill-rule="nonzero"/></g></svg>