<svg viewBox="0 0 55 77" xmlns="http://www.w3.org/2000/svg" fill-rule="evenodd" clip-rule="evenodd" stroke-linejoin="round" stroke-miterlimit="2"><path fill="none" d="M0 0h54.362v76.499H0z"/><clipPath id="a"><path d="M0 0h54.362v76.499H0z"/></clipPath><g clip-path="url(#a)"><path class="heart" d="M44.908 3.025c1.99-3.652 5.971-3.652 7.961-1.826 1.99 1.826 1.99 5.479 0 9.131-1.393 2.739-4.976 5.478-7.961 7.304-2.986-1.826-6.568-4.565-7.961-7.304-1.991-3.652-1.991-7.305 0-9.131 1.99-1.826 5.97-1.826 7.961 1.826z" fill="#2c2525"/><path d="M24.008 36.995L12.004 48.999V36.995L0 48.999v27.5h52v-27.5h-.068L50 22.584H39.815l-1.931 26.415h-1.872V36.995L24.008 48.999V36.995zm8.684 26.389h-5.364v5.365h5.364v-5.365zm-16.004 0h-5.364v5.365h5.364v-5.365zm8 0h-5.364v5.365h5.364v-5.365zm-16.004 0H3.32v5.365h5.364v-5.365zm24.008-8h-5.364v5.365h5.364v-5.365zm-16.005 0h-5.365v5.365h5.365v-5.365zm-8.003 0H3.32v5.365h5.364v-5.365zm16.006 0h-5.365v5.365h5.365v-5.365z"/></g></svg>