<svg clip-rule="evenodd" fill-rule="evenodd" stroke-linejoin="round" stroke-miterlimit="2" viewBox="0 0 73 73" xmlns="http://www.w3.org/2000/svg"><clipPath id="a"><path d="M.528.54h72v71.959h-72z"/></clipPath><path d="M.528.54h72v71.959h-72z" fill="none"/><g clip-path="url(#a)"><path d="M.528.54h72v72h-72z" fill="#ffffff"/><path d="M30.966 13.308c-.825 0-1.846.586-2.567.927-3.75 1.774-3.027 3.437-3.486 7.098-.139 1.114-.598 2.309-.547 3.436.069 1.523.701 2.945.081 4.205-.177.361-1.261-.739-1.771 1.421-.306 1.298-.009 4.85 1.152 5.514.871.498 1.736-.021 2.477.631.157.137 1.643 3.755 1.857 4.413.34 1.041.33 2.805.093 3.821-.175.752-.5 1.535-.586 2.304-.314 2.788-.63 4.507 1.622 6.914 3.694 3.948 9.754 2.915 14.316 1.181 3.42-1.3 3.759-4.955 2.255-8.095-.436-.911-1.336-1.145-1.602-1.712-.275-.586-.633-2.768-.751-3.795-.098-.845.609-1.144.92-1.942.827-2.125.233-2.987 1.902-3.449.041-.011.656.047 1.089-.479 1.096-1.33 1.572-2.407 1.759-5.123.107-1.549-.105-1.518-.381-1.763-.27-.24-.473-.504-.823-.471-.331.031-1.014.528-1.239 0-1.054-2.477-.202-8.3-.559-10.975-.172-1.289-1.524-2.79-2.57-3.724-1.553-1.388-2.525-1.913-4.378-1.609-3.974.652-9.856.731-13.256 3.075z" fill="#faf7f4" fill-rule="nonzero"/><path d="M27.785 44.71c-1.145.207-6.911 2.378-8.996 2.954-1.169.322-3.785 1.312-5.376 2.551-.79.615-1.327 1.309-1.453 1.996-.099.536.087 1.232.768 2.046.815.973 2.399 2.213 5.002 3.724 1.071.621 2.841 1.656 3.546 2.413 2.486 2.669 4.155 3.281 6.003 4.25 3.132 1.642 5.487 1.575 7.947 1.101 1.552-.298 3.147-.768 5.034-1.039 2.208-.317 5.725-.294 7.873-1.413 1.456-.759 2.063-1.679 2.535-2.502.355-.619.575-1.194 1.273-1.46 1.38-.526 4.027-.545 6.049-1.231 1.574-.534 2.785-1.451 3.059-3.079.506-3.009-1.72-4.979-3.437-5.69-3.321-1.376-4.035-1.427-7.481-2.401-2.854-.806-5.294-2.024-5.659-2.126-.086-.024-.39-3.968-.402-4.383.006-.03-.647.972-.646 1.165.002.337.278 4.025.361 4.143.359.509.398 1.189.265 1.891-.224 1.185-.953 2.434-1.829 3.209-1.863 1.648-4.229 2.206-6.488 2.269-3.508.098-6.014-2.438-6.814-3.563-.545-.765-1.323-2.089-.439-3.886l.003-.007c.024-.036.159-2.059.151-3.212-.003-.421.002-.429.019-.851.001-.007-.837-1.253-.79-1.012a61.204 61.204 0 0 0-.021 1.867c.007.948-.014 1.504-.057 2.276z" fill="#010101" fill-rule="nonzero"/><path d="M45.806 35.817a.322.322 0 0 0-.401.009l-.006.005a.33.33 0 0 0-.082.105l-.005.008c-.609 1.283-1.24 4.059-3.221 7.487-.84 1.454-1.593 2.299-2.363 2.782-1.152.723-2.329.627-3.83.622-1.085-.004-1.977-.082-2.813-.455-1.269-.568-2.4-1.808-3.903-4.402-1.258-2.174-2.139-4.884-2.614-5.788a.328.328 0 0 0-.448-.138h-.001c-.535.185-1.113.017-1.585-.223-.49-.248-.875-.576-.972-.733-.215-.351-.86-2.287-.888-3.001-.019-.496-.083-1.075.011-1.599.079-.445.284-.846.788-1.078.141-.066.296-.097.45-.114.054-.005.118.023.191.058.173.086.364.239.53.43.12.14.33.153.467.03a.34.34 0 0 0 .029-.475 2.49 2.49 0 0 0-.738-.591 1.04 1.04 0 0 0-.549-.121 2.086 2.086 0 0 0-.653.17c-.739.34-1.051.919-1.167 1.571-.102.572-.041 1.204-.02 1.746.03.792.748 2.94.987 3.33.125.204.603.658 1.238.98.557.281 1.226.459 1.866.321.499 1.085 1.343 3.555 2.508 5.566 1.607 2.775 2.849 4.07 4.207 4.677.915.409 1.889.508 3.076.512 1.641.005 2.922.068 4.181-.722.837-.525 1.671-1.432 2.585-3.014 1.863-3.222 2.544-5.869 3.125-7.258.158.041.348.072.549.075.421.006.878-.106 1.165-.405.299-.312.632-.676.849-1.053.63-1.095.985-2.41 1.123-3.668.076-.691.094-1.418-.072-2.098a2.457 2.457 0 0 0-.278-.703 1.48 1.48 0 0 0-.414-.445 1.493 1.493 0 0 0-.428-.2c-.582-.168-1.074.049-1.463.439-.336.337-.591.809-.753 1.212a.338.338 0 0 0 .18.439.33.33 0 0 0 .432-.184c.132-.327.333-.714.606-.988.219-.22.489-.365.816-.27a.779.779 0 0 1 .238.109c.09.062.166.149.224.243.094.155.155.334.198.51.147.603.123 1.248.056 1.861-.128 1.166-.452 2.388-1.036 3.403-.192.332-.489.649-.752.923-.166.172-.438.206-.681.202a1.737 1.737 0 0 1-.44-.062.824.824 0 0 1-.099-.037z" fill-rule="nonzero"/><path d="M32.777 38.803c-.565-.041-.806-.01-.723.093.084.103.529.323 1.336.66l1.119.283 1.361.233 1.051-.233.974-.402.82-.746H35.88z" fill="#fffcf9"/><g fill-rule="nonzero"><path d="M31.033 38.669c.202.229.66.38 1.24.426 1.111.088 2.71-.123 3.129-.133.275-.006.621.017 1.001.042.798.053 1.737.113 2.509-.027.584-.106 1.077-.33 1.39-.714a.341.341 0 0 0-.045-.475.327.327 0 0 0-.467.045c-.221.272-.581.404-.994.479-.724.132-1.603.068-2.35.018a13.55 13.55 0 0 0-1.059-.043c-.411.01-1.975.221-3.063.135a2.867 2.867 0 0 1-.559-.09c-.103-.03-.189-.059-.238-.114a.329.329 0 0 0-.469-.025.342.342 0 0 0-.025.476z"/><path d="M31.13 38.74c1.229.803 2.806 1.771 4.376 1.768.154 0 .303-.002.45-.009 1.19-.054 2.245-.373 4.308-2.196a.342.342 0 0 0 .032-.477.329.329 0 0 0-.468-.033c-1.876 1.659-2.819 1.983-3.902 2.032a9.638 9.638 0 0 1-.421.008c-1.446.003-2.884-.922-4.016-1.661a.329.329 0 0 0-.459.102.341.341 0 0 0 .1.466zm1.702-6.429c-.191.26-.378.551-.466.83a1.04 1.04 0 0 0 .002.697c.087.222.271.435.626.594.344.154.771.147 1.138.251.213.061.408.189.61.29.279.139.569.233.897.182.297-.045.56-.213.815-.404.181-.136.357-.288.561-.355.133-.045.274-.033.416-.027.217.009.435.015.643-.045.902-.256.867-1.3.407-1.891a.327.327 0 0 0-.465-.054.34.34 0 0 0-.054.472c.093.12.159.277.174.432.016.168-.041.337-.24.393-.178.051-.367.021-.552.017a1.55 1.55 0 0 0-.535.063c-.268.089-.509.274-.748.453-.166.124-.328.251-.521.281-.187.029-.348-.043-.508-.122-.237-.118-.47-.261-.722-.333-.337-.096-.732-.077-1.049-.219-.14-.063-.232-.128-.273-.215-.059-.128.003-.272.076-.419a3.17 3.17 0 0 1 .299-.469.34.34 0 0 0-.068-.471.327.327 0 0 0-.463.069zm-1.042-7.276c.649.396.789.617.793.658.025.231-.152.361-.418.292-.296-.076-.521-.313-.762-.454-.417-.243-.881-.439-1.68-.439-.889 0-2.123.608-2.662.818-.151.059-.759.382-.794-.021-.011-.118.145-.229.236-.303.284-.229.634-.404.97-.57.868-.428 1.828-.801 2.848-.58.528.114 1.028.33 1.469.599zm-2.008 1.369c-.621.016-1.171.743-.84 1.366.315.593 1.184.789 1.708.402.334-.245.41-.913.091-1.354-.181-.25-.458-.426-.959-.414zm10.889.042a.938.938 0 0 0-.924.749c-.039.173-.07.361.01.545.272.631 1.168.799 1.735.408.363-.251.453-.878.134-1.296-.179-.235-.455-.404-.955-.406z"/><path d="M24.419 16.987c.122.162-.71 1.849-.893 2.631-.518 2.212.406 4.569.254 6.818-.031.469-.244 1.891.405 2.074.42.118.606-.529.662-.808.201-.985.098-2.048.135-3.049.081-2.171.607-6.628 2.416-8.053 1.769-1.395 2.359 1.07 3.261.818.837-.234 2.207-2.74 3.105-2.339.757.337-.609 2.097-.017 2.161 1.087.118 3.382-2.186 4.251-1.746.658.334-1.397 2.345-.405 2.542 1.47.292 3.141-2.28 4.636-2.401.846-.069 1.878.876 2.263 1.484 1.115 1.761 1.167 6.147 1.452 8.314.03.227.385 4.043 1.311 2.139.426-.876-.057-2.351-.058-3.594-.001-1.436.599-2.48.421-3.935-.094-.763-.183-2.768-1.148-4.475-.514-.909-1.213-.933-1.589-1.903-.252-.65-.414-1.351-.747-1.968-.808-1.501-2.82-3.549-4.767-3.285-.935.127.841 1.279-.011 1.218-.871-.063-1.383-.348-1.74-.554-1.87-1.074-4.391-2.055-6.559-1.228-1.855.708 1.025 1.125 1.243 1.182.887.232-.17.507-.924.53-1.758.053-3.457.424-4.827 1.498-.305.239-1.216.96-1.062 1.42.249.749 2.638-.725 3.096-.838.748-.183-1.129.922-1.492 1.089-1.532.708-4.822 2.881-4.789 4.775.02 1.149 1.722-.853 2.117-.517z"/><path d="M38.483 24.742c-.69.416-.841.653-.846.697-.031.249.153.392.434.323.312-.077.553-.329.809-.477.443-.255.935-.457 1.775-.442.935.016 2.221.696 2.783.933.157.066.791.427.835-.008.013-.127-.148-.251-.242-.332-.295-.253-.659-.448-1.01-.634-.903-.479-1.906-.899-2.982-.68a4.992 4.992 0 0 0-1.556.62z"/></g></g></svg>